<svg width="207" height="143" viewBox="0 0 207 143" fill="none" xmlns="http://www.w3.org/2000/svg">
<g clip-path="url(#clip0_2772_8331)">
<path d="M119.583 0.000764809C120.863 -0.0116881 122.189 0.257295 123.491 0.752922C124.788 1.24637 126.064 1.96553 127.253 2.85794C128.44 3.74879 129.542 4.8146 130.491 6.00464C131.441 7.19576 132.241 8.51468 132.822 9.91206L155.747 65.0943C156.422 66.7196 156.816 68.3254 156.949 69.8409C157.082 71.3657 156.952 72.8016 156.577 74.0733C156.199 75.3546 155.572 76.4705 154.717 77.3422C153.855 78.2208 152.76 78.8514 151.454 79.1524L46.6764 103.304C44.4813 103.81 42.2503 103.828 40.0986 103.422C37.9334 103.014 35.8559 102.178 33.9831 100.985C32.1056 99.7888 30.441 98.2379 29.106 96.4077C27.7728 94.58 26.7737 92.4816 26.2213 90.1912L7.94688 14.4395C7.49611 12.5708 7.50749 10.7869 7.91008 9.16426C8.30972 7.55394 9.09417 6.10566 10.1926 4.89103C11.2815 3.68715 12.6779 2.71364 14.314 2.03822C15.9355 1.36888 17.7928 0.991863 19.8225 0.972094L119.583 0.000764809ZM104.332 42.1322C104.501 41.9675 104.596 41.7569 104.627 41.5262C104.657 41.2958 104.624 41.0456 104.536 40.8016C104.448 40.5576 104.305 40.3199 104.118 40.1142C103.93 39.9084 103.697 39.7347 103.428 39.6187L69.8218 25.1518C69.7508 25.1213 69.6807 25.0956 69.6113 25.0744C69.5419 25.0533 69.4733 25.0366 69.4058 25.0242C69.3383 25.0117 69.272 25.0038 69.207 24.9997C69.142 24.9958 69.0783 24.9958 69.0163 24.9999C68.8215 25.0125 68.6432 25.0637 68.4893 25.1468C68.3352 25.2301 68.2058 25.3455 68.1093 25.4865C68.0128 25.6277 67.9491 25.7944 67.9272 25.9804C67.905 26.1666 67.9245 26.3719 67.9939 26.5897L79.4792 62.6565C79.5556 62.8962 79.6726 63.1121 79.8174 63.2989C79.9624 63.4857 80.1353 63.6435 80.3237 63.7673C80.512 63.891 80.7157 63.9808 80.9221 64.0317C81.1284 64.0826 81.3375 64.0948 81.5366 64.0633C81.6001 64.0534 81.6626 64.0389 81.7236 64.0199C81.7845 64.0009 81.8443 63.9774 81.9019 63.9491C81.9596 63.9209 82.0156 63.8879 82.0694 63.8501C82.1232 63.8123 82.1747 63.7696 82.2236 63.7218L104.332 42.1322Z" fill="url(#paint0_linear_2772_8331)"/>
<path d="M152.602 78.7821C152.482 78.8331 152.359 78.8809 152.233 78.9256C152.108 78.9701 151.98 79.0114 151.851 79.0494C151.721 79.0872 151.588 79.1217 151.454 79.1527L46.6764 103.304L36.0635 111.4L134.57 87.5233C134.7 87.4918 134.827 87.4573 134.952 87.4196C135.078 87.3819 135.201 87.341 135.322 87.2971C135.443 87.2532 135.562 87.2062 135.679 87.1564C135.796 87.1066 135.911 87.0536 136.023 86.9979C141.668 84.2052 147.312 81.4125 152.957 78.6196C152.841 78.6767 152.723 78.731 152.602 78.7821Z" fill="url(#paint1_linear_2772_8331)"/>
<path d="M7.94692 14.4395C7.80768 13.8626 7.71257 13.2935 7.6594 12.7347C7.60639 12.1769 7.59516 11.6293 7.62369 11.0945C7.65223 10.5607 7.72021 10.0394 7.82593 9.53302C7.93133 9.02775 8.074 8.53741 8.25206 8.06389L2.12163 24.3709C1.95354 24.8182 1.81758 25.2802 1.71576 25.755C1.61363 26.2307 1.5458 26.7192 1.51431 27.2181C1.48265 27.7179 1.48733 28.2283 1.53021 28.747C1.57324 29.2666 1.65464 29.7944 1.77626 30.3283L17.5877 99.7421L26.2213 90.191L7.94692 14.4395Z" fill="url(#paint2_linear_2772_8331)"/>
<path d="M46.6764 103.304L36.0635 111.4C34.0482 111.889 32.0096 111.934 30.0512 111.592C28.0821 111.249 26.1999 110.516 24.5103 109.456C22.8168 108.393 21.3225 107.006 20.1318 105.359C18.9426 103.716 18.0609 101.82 17.5876 99.7422L26.2213 90.1912C26.7739 92.4816 27.7729 94.58 29.106 96.4077C30.441 98.2379 32.1057 99.7888 33.9831 100.985C35.8559 102.178 37.9335 103.014 40.0986 103.422C42.2504 103.828 44.4813 103.81 46.6764 103.304Z" fill="url(#paint3_radial_2772_8331)"/>
<path d="M46.6764 103.304L36.0635 111.4C34.0482 111.889 32.0096 111.934 30.0512 111.592C28.0821 111.249 26.1999 110.516 24.5103 109.456C22.8168 108.393 21.3225 107.006 20.1318 105.359C18.9426 103.716 18.0609 101.82 17.5876 99.7422L26.2213 90.1912C26.7739 92.4816 27.7729 94.58 29.106 96.4077C30.441 98.2379 32.1057 99.7888 33.9831 100.985C35.8559 102.178 37.9335 103.014 40.0986 103.422C42.2504 103.828 44.4813 103.81 46.6764 103.304Z" fill="url(#paint4_linear_2772_8331)"/>
<path opacity="0.56" d="M152.441 77.97L47.6628 102.122C45.4681 102.629 43.2367 102.646 41.085 102.24C38.9197 101.832 36.8424 100.996 34.9695 99.8026C33.0917 98.607 31.428 97.056 30.0921 95.2253C28.7586 93.3983 27.7604 91.2988 27.2075 89.0091L8.93357 13.2572C8.48218 11.3887 8.49434 9.60446 8.89693 7.98247C9.20161 6.75757 9.72754 5.62544 10.4468 4.62033C10.36 4.70952 10.2756 4.79981 10.1923 4.89149C9.09371 6.1055 8.30957 7.55393 7.90963 9.16472C7.50719 10.7866 7.49612 12.5709 7.94627 14.4393L26.2216 90.1913C26.7732 92.4813 27.7727 94.5793 29.1062 96.4075C30.4409 98.2382 32.1058 99.788 33.9836 100.985C35.8565 102.178 37.9338 103.013 40.0991 103.423C42.251 103.828 44.481 103.81 46.6768 103.304L151.455 79.1523C152.76 78.8518 153.855 78.2205 154.717 77.3424C155.023 77.0309 155.298 76.6889 155.543 76.3189C154.706 77.1151 153.666 77.6879 152.441 77.97Z" fill="url(#paint5_radial_2772_8331)"/>
<path d="M69.0165 25C69.0786 24.996 69.1422 24.9958 69.2072 24.9999C69.2722 25.0038 69.3385 25.0119 69.406 25.0243C69.4735 25.0368 69.5421 25.0534 69.6115 25.0746C69.6809 25.0958 69.7512 25.1216 69.8222 25.152L103.428 39.6188C103.697 39.7348 103.93 39.9085 104.118 40.1143C104.306 40.3201 104.448 40.558 104.536 40.8019C104.624 41.046 104.658 41.2961 104.627 41.5265C104.596 41.757 104.502 41.9678 104.333 42.1323L82.224 63.7221C82.175 63.7698 82.1236 63.8126 82.0698 63.8504C82.016 63.8882 81.96 63.9212 81.9023 63.9496C81.8445 63.9779 81.7849 64.0014 81.724 64.0204C81.663 64.0394 81.6005 64.0538 81.5372 64.0638C81.338 64.0953 81.1289 64.0831 80.9227 64.0322C80.7162 63.9813 80.5126 63.8915 80.3242 63.7677C80.1359 63.644 79.9628 63.4861 79.8178 63.2994C79.6728 63.1126 79.5558 62.8968 79.4794 62.6569L67.9941 26.5904C67.9247 26.3725 67.9052 26.1672 67.9274 25.981C67.9495 25.795 68.013 25.6281 68.1097 25.4869C68.2062 25.3459 68.3356 25.2304 68.4896 25.1471C68.6434 25.064 68.8219 25.0128 69.0165 25Z" fill="url(#paint6_radial_2772_8331)"/>
<path d="M67.4324 23.2068C67.5 23.2025 67.5696 23.2023 67.6405 23.2065C67.7115 23.2109 67.784 23.2196 67.8576 23.2331C67.9312 23.2467 68.0062 23.2649 68.0819 23.2881C68.1577 23.3113 68.2344 23.3393 68.3118 23.3726L105.002 39.1673C105.296 39.2938 105.55 39.4836 105.755 39.7082C105.96 39.9328 106.116 40.1925 106.212 40.4588C106.308 40.7253 106.345 40.9985 106.311 41.2499C106.278 41.5016 106.174 41.7316 105.99 41.9114L81.852 65.4828C81.7985 65.535 81.7424 65.5815 81.6836 65.6228C81.625 65.664 81.5638 65.7001 81.5007 65.731C81.4376 65.7618 81.3725 65.7875 81.3059 65.8083C81.2394 65.829 81.1712 65.8447 81.102 65.8558C80.8845 65.8902 80.6564 65.877 80.4311 65.8214C80.2056 65.7658 79.9833 65.6677 79.7776 65.5326C79.5719 65.3975 79.3829 65.2254 79.2247 65.0213C79.0664 64.8174 78.9387 64.5817 78.8553 64.3199L66.3159 24.9432C66.2402 24.7054 66.219 24.4811 66.2431 24.2779C66.2673 24.0748 66.3367 23.8927 66.4421 23.7386C66.5475 23.5846 66.6888 23.4585 66.857 23.3676C67.0249 23.2765 67.2197 23.2207 67.4324 23.2068Z" fill="url(#paint7_radial_2772_8331)"/>
<path opacity="0.7" d="M156.948 69.8403C156.817 68.3255 156.422 66.72 155.747 65.0948L132.822 9.91128C132.241 8.51499 131.442 7.19498 130.491 6.00401C129.542 4.81429 128.44 3.74832 127.253 2.85747C126.065 1.96522 124.787 1.24668 123.49 0.753079C122.189 0.256985 120.863 -0.0115317 119.583 0.000298621L19.8231 0.971628C17.793 0.991397 15.9356 1.36903 14.3142 2.0376C12.6784 2.71395 11.281 3.68652 10.1922 4.89072C9.09403 6.10535 8.30974 7.55425 7.91026 9.16379C7.90106 9.20068 7.89186 9.23742 7.88391 9.27571C8.29524 8.42813 8.82647 7.64391 9.46451 6.9397C10.5535 5.7369 11.9495 4.76292 13.5854 4.08782C15.2069 3.41801 17.0642 3.04162 19.0943 3.02185L118.854 2.04927C120.134 2.03744 121.46 2.30596 122.763 2.80205C124.059 3.2955 125.336 4.01404 126.525 4.90769C127.711 5.7973 128.814 6.86327 129.763 8.05424C130.713 9.2452 131.513 10.5638 132.093 11.9615L155.019 67.1436C155.694 68.7688 156.088 70.3743 156.221 71.8905C156.334 73.1828 156.256 74.4119 156.002 75.5306C156.233 75.0753 156.424 74.587 156.577 74.0738C156.952 72.8013 157.083 71.3656 156.948 69.8403Z" fill="url(#paint8_radial_2772_8331)"/>
<path d="M0.00738898 30.1055C0.017241 30.1055 0.017241 30.09 0.00738898 30.09C-0.00246299 30.09 -0.00246299 30.1055 0.00738898 30.1055Z" fill="url(#paint9_linear_2772_8331)"/>
</g>
<circle cx="195" cy="31" r="8" fill="#DD2222"/>
<path d="M183.876 56.0001V47.1201H185.106V54.9321H189.09V56.0001H183.876Z" fill="#DD2222"/>
<path d="M190.005 56.0001V47.1201H191.235V56.0001H190.005Z" fill="#DD2222"/>
<path d="M198.459 47.1201H199.665L196.803 56.0001H194.985L192.129 47.1201H193.419L195.927 55.0521L198.459 47.1201Z" fill="#DD2222"/>
<path d="M201.781 54.9621H205.981V56.0001H200.563V47.1201H205.921V48.1581H201.781V50.9301H205.345V51.9681H201.781V54.9621Z" fill="#DD2222"/>
<defs>
<linearGradient id="paint0_linear_2772_8331" x1="157" y1="103.707" x2="95.6477" y2="-38.0916" gradientUnits="userSpaceOnUse">
<stop stop-color="#FB6E00"/>
<stop offset="1" stop-color="#FFC500"/>
</linearGradient>
<linearGradient id="paint1_linear_2772_8331" x1="36.0635" y1="78.6196" x2="117.478" y2="151.199" gradientUnits="userSpaceOnUse">
<stop stop-color="#FFC500"/>
<stop offset="0.411458" stop-color="#DC2223"/>
<stop offset="1" stop-color="#720096"/>
</linearGradient>
<linearGradient id="paint2_linear_2772_8331" x1="1.49377" y1="8.06389" x2="32.2633" y2="10.1387" gradientUnits="userSpaceOnUse">
<stop stop-color="#FFC500"/>
<stop offset="0.411458" stop-color="#DC2223"/>
<stop offset="1" stop-color="#720096"/>
</linearGradient>
<radialGradient id="paint3_radial_2772_8331" cx="0" cy="0" r="1" gradientUnits="userSpaceOnUse" gradientTransform="translate(26.5599 111.702) scale(22.3135 22.2761)">
<stop offset="0.0161" stop-color="#FB0000"/>
<stop offset="0.3234" stop-color="#EE0202"/>
<stop offset="0.8921" stop-color="#CB0909"/>
<stop offset="1" stop-color="#C40A0A"/>
</radialGradient>
<linearGradient id="paint4_linear_2772_8331" x1="17.5876" y1="90.1912" x2="50.2536" y2="101.177" gradientUnits="userSpaceOnUse">
<stop stop-color="#FFC500"/>
<stop offset="0.411458" stop-color="#DC2223"/>
<stop offset="1" stop-color="#720096"/>
</linearGradient>
<radialGradient id="paint5_radial_2772_8331" cx="0" cy="0" r="1" gradientUnits="userSpaceOnUse" gradientTransform="translate(35.0892 97.641) scale(170.425 170.139)">
<stop stop-color="white"/>
<stop offset="0.0981" stop-color="#FAFAFA"/>
<stop offset="0.2221" stop-color="#EAEAEA"/>
<stop offset="0.36" stop-color="#D0D0D0"/>
<stop offset="0.5081" stop-color="#ACACAC"/>
<stop offset="0.6643" stop-color="#7D7D7D"/>
<stop offset="0.8273" stop-color="#454545"/>
<stop offset="0.9929" stop-color="#030303"/>
<stop offset="1"/>
</radialGradient>
<radialGradient id="paint6_radial_2772_8331" cx="0" cy="0" r="1" gradientUnits="userSpaceOnUse" gradientTransform="translate(86.2785 44.539) scale(18.977 18.9452)">
<stop stop-color="white"/>
<stop offset="1" stop-color="#EFEFEF"/>
</radialGradient>
<radialGradient id="paint7_radial_2772_8331" cx="0" cy="0" r="1" gradientUnits="userSpaceOnUse" gradientTransform="translate(86.2785 44.539) scale(20.7188 20.684)">
<stop stop-color="white"/>
<stop offset="1" stop-color="#EFEFEF"/>
</radialGradient>
<radialGradient id="paint8_radial_2772_8331" cx="0" cy="0" r="1" gradientUnits="userSpaceOnUse" gradientTransform="translate(125.157 5.38801) scale(205.455 205.11)">
<stop stop-color="white"/>
<stop offset="0.0981" stop-color="#FAFAFA"/>
<stop offset="0.2221" stop-color="#EAEAEA"/>
<stop offset="0.36" stop-color="#D0D0D0"/>
<stop offset="0.5081" stop-color="#ACACAC"/>
<stop offset="0.6643" stop-color="#7D7D7D"/>
<stop offset="0.8273" stop-color="#454545"/>
<stop offset="0.9929" stop-color="#030303"/>
<stop offset="1"/>
</radialGradient>
<linearGradient id="paint9_linear_2772_8331" x1="0" y1="30.0977" x2="0.0148703" y2="30.0977" gradientUnits="userSpaceOnUse">
<stop offset="0.2321" stop-color="#C20A0A"/>
<stop offset="0.3517" stop-color="#CD0808"/>
<stop offset="0.7621" stop-color="#F00202"/>
<stop offset="0.9839" stop-color="#FD0000"/>
</linearGradient>
<clipPath id="clip0_2772_8331">
<rect width="157" height="112" fill="white"/>
</clipPath>
</defs>
</svg>
