<?xml version="1.0" encoding="utf-8"?>
<!-- Generator: Adobe Illustrator 26.1.0, SVG Export Plug-In . SVG Version: 6.00 Build 0)  -->
<svg version="1.1" id="Layer_1" xmlns="http://www.w3.org/2000/svg" xmlns:xlink="http://www.w3.org/1999/xlink" x="0px" y="0px"
	 viewBox="0 0 186.5 191" style="enable-background:new 0 0 186.5 191;" xml:space="preserve">
<style type="text/css">
	.st0{fill:#FFFFFF;stroke:#E6E6E6;stroke-width:0.2;stroke-miterlimit:10;}
	.st1{fill:url(#SVGID_1_);}
	.st2{fill:url(#SVGID_00000000181992429804094290000005697398279229592715_);}
	.st3{fill:url(#SVGID_00000146473423824230661440000009354802648458128049_);}
	.st4{fill:url(#SVGID_00000134941218278345183250000017456524720544622986_);}
	.st5{fill:url(#SVGID_00000172429846659217903440000017710971778194323876_);}
	.st6{fill:url(#SVGID_00000143615283509672092300000003163450104187659937_);}
	.st7{fill:url(#SVGID_00000125578139128113951420000007924429767936335505_);}
	.st8{fill:url(#SVGID_00000102516663313633293010000014396409740878360227_);}
</style>
<g>
	<path class="st0" d="M140.8,81.5l-47.5,30.7L45.7,81.5V34c0-1.5,1.1-2.7,2.6-2.7l0,0h89.5c1.5-0.1,2.7,1.1,2.8,2.6c0,0,0,0,0,0.1
		L140.8,81.5L140.8,81.5z"/>
	
		<linearGradient id="SVGID_1_" gradientUnits="userSpaceOnUse" x1="29.0124" y1="662.1066" x2="45.7718" y2="662.1066" gradientTransform="matrix(1 0 0 1 0 -594.5528)">
		<stop  offset="6.000000e-02" style="stop-color:#DB2128"/>
		<stop  offset="1" style="stop-color:#812674"/>
	</linearGradient>
	<path class="st1" d="M45.7,81.5L29,70.3l16.7-16.7V81.5z"/>
	
		<linearGradient id="SVGID_00000112607028949664522790000003098359819903481253_" gradientUnits="userSpaceOnUse" x1="140.7387" y1="662.1066" x2="157.4981" y2="662.1066" gradientTransform="matrix(1 0 0 1 0 -594.5528)">
		<stop  offset="6.000000e-02" style="stop-color:#DB2128"/>
		<stop  offset="1" style="stop-color:#812674"/>
	</linearGradient>
	<path style="fill:url(#SVGID_00000112607028949664522790000003098359819903481253_);" d="M157.5,70.3l-16.7,11.2V53.6L157.5,70.3z"
		/>
	
		<linearGradient id="SVGID_00000031889184867311656900000013226784442998271146_" gradientUnits="userSpaceOnUse" x1="34.3185" y1="708.1508" x2="155.4744" y2="708.7277" gradientTransform="matrix(1 0 0 1 0 -594.5528)">
		<stop  offset="0" style="stop-color:#F6D573"/>
		<stop  offset="1" style="stop-color:#F1A23A"/>
	</linearGradient>
	<path style="fill:url(#SVGID_00000031889184867311656900000013226784442998271146_);" d="M140.8,81.2l16.7-11v78.2
		c0,2.9,0.7,7.6-1.4,9.6l-20.9-20.8l-30.7-30.7l-0.8-1.2L140.8,81.2z"/>
	
		<linearGradient id="SVGID_00000064354757842870065520000005915996803579596930_" gradientUnits="userSpaceOnUse" x1="48.0461" y1="728.3563" x2="178.0141" y2="726.0955" gradientTransform="matrix(1 0 0 1 0 -594.5528)">
		<stop  offset="5.865971e-02" style="stop-color:#F09F23"/>
		<stop  offset="1" style="stop-color:#D6262D"/>
	</linearGradient>
	<path style="fill:url(#SVGID_00000064354757842870065520000005915996803579596930_);" d="M135.2,137.4l20.9,20.8
		c-2.1,2.1-6.7,1.5-9.7,1.5H40.1c-2.9,0-7.6,0.6-9.6-1.5l20.8-20.8L82,106.7l0.8-1.2l10.4,6.8l10.4-6.8l0.8,1.2L135.2,137.4z"/>
	
		<linearGradient id="SVGID_00000054236739430040462300000017802994491673768064_" gradientUnits="userSpaceOnUse" x1="28.8611" y1="708.8286" x2="153.7244" y2="708.8286" gradientTransform="matrix(1 0 0 1 0 -594.5528)">
		<stop  offset="0" style="stop-color:#F6D573"/>
		<stop  offset="1" style="stop-color:#F1A23A"/>
	</linearGradient>
	<path style="fill:url(#SVGID_00000054236739430040462300000017802994491673768064_);" d="M82.9,105.4l-0.8,1.1l-30.7,30.8
		l-20.8,20.8c-2.1-2.1-1.5-6.7-1.5-9.6V70.3L82.9,105.4z"/>
	
		<linearGradient id="SVGID_00000142875390931804000070000009966994979650337710_" gradientUnits="userSpaceOnUse" x1="-1126.6501" y1="803.1271" x2="-1126.6501" y2="811.3081" gradientTransform="matrix(5.22 0 0 5.22 5992.2183 -4149.5493)">
		<stop  offset="6.000000e-02" style="stop-color:#F09F23"/>
		<stop  offset="1" style="stop-color:#D6262D"/>
	</linearGradient>
	<path style="fill:url(#SVGID_00000142875390931804000070000009966994979650337710_);" d="M118,68.4l-11.2-11.8
		c-0.7-0.8-1.8-0.8-2.6,0c-0.8,0.7-0.8,1.8,0,2.6l0,0l9.9,10.6l-10,10.6c-0.7,0.8-0.7,1.9,0.1,2.6c0.4,0.3,0.8,0.5,1.2,0.5
		c0.5,0,0.9-0.2,1.3-0.6L118,70.9C118.7,70.2,118.6,69,118,68.4z"/>
	
		<linearGradient id="SVGID_00000003814095933301983270000007556447001376625552_" gradientUnits="userSpaceOnUse" x1="-1133.0697" y1="803.1271" x2="-1133.0697" y2="811.3081" gradientTransform="matrix(5.22 0 0 5.22 5992.2183 -4149.5493)">
		<stop  offset="6.000000e-02" style="stop-color:#F09F23"/>
		<stop  offset="1" style="stop-color:#D6262D"/>
	</linearGradient>
	<path style="fill:url(#SVGID_00000003814095933301983270000007556447001376625552_);" d="M84.4,56.5c-0.8-0.7-1.9-0.7-2.6,0.1
		L70.7,68.4c-0.7,0.7-0.7,1.8,0,2.5l11.2,11.8c0.4,0.4,0.9,0.6,1.3,0.6c0.5,0,0.9-0.2,1.2-0.5c0.8-0.7,0.8-1.7,0.1-2.5l-0.1-0.1
		l-9.9-10.6l10-10.5C85.2,58.3,85.1,57.2,84.4,56.5z"/>
	
		<linearGradient id="SVGID_00000058581339892889183580000014303629239268054970_" gradientUnits="userSpaceOnUse" x1="-1129.8525" y1="803.1271" x2="-1129.8525" y2="811.3081" gradientTransform="matrix(5.22 0 0 5.22 5992.2183 -4149.5493)">
		<stop  offset="6.000000e-02" style="stop-color:#F09F23"/>
		<stop  offset="1" style="stop-color:#D6262D"/>
	</linearGradient>
	<path style="fill:url(#SVGID_00000058581339892889183580000014303629239268054970_);" d="M97.3,50.5c-0.9-0.2-1.9,0.6-2.1,1.5
		l-5.3,34.8c-0.1,0.9,0.6,1.9,1.5,2.1h0.3c0.9,0,1.6-0.7,1.8-1.5l5.4-34.9C99,51.5,98.3,50.7,97.3,50.5z"/>
</g>
</svg>
