<?xml version="1.0" encoding="utf-8"?>
<!-- Generator: Adobe Illustrator 26.1.0, SVG Export Plug-In . SVG Version: 6.00 Build 0)  -->
<svg version="1.1" id="Layer_1" xmlns="http://www.w3.org/2000/svg" xmlns:xlink="http://www.w3.org/1999/xlink" x="0px" y="0px"
	 viewBox="0 0 186.5 191" style="enable-background:new 0 0 186.5 191;" xml:space="preserve">
<style type="text/css">
	.st0{fill:#FFFFFF;stroke:#E6E6E6;stroke-width:0.2;stroke-miterlimit:10;}
	.st1{fill:url(#SVGID_1_);}
	.st2{fill:url(#SVGID_00000130626973399344904440000007606021302204886719_);}
	.st3{fill:url(#SVGID_00000135653767112891241330000018369001524306753945_);}
	.st4{fill:url(#SVGID_00000142160157116174180820000001247307003905749386_);}
	.st5{fill:url(#SVGID_00000127014412541189185540000015173723947977943949_);}
	.st6{fill:url(#SVGID_00000035490826100118512470000001171176091253135807_);}
	.st7{fill:url(#SVGID_00000104675233293560549810000006789826808701989055_);}
	.st8{fill:url(#SVGID_00000116206072699657282730000012054775873831760057_);}
</style>
<g>
	<path class="st0" d="M143.5,80.7l-50.2,32.5L43,80.7V30.5c0-1.6,1.2-2.9,2.8-2.9c0,0,0,0,0,0h94.6c1.6-0.1,2.9,1.2,3,2.8
		c0,0,0,0,0,0.1L143.5,80.7L143.5,80.7z"/>
	
		<linearGradient id="SVGID_1_" gradientUnits="userSpaceOnUse" x1="25.3275" y1="131.5168" x2="43.0475" y2="131.5168" gradientTransform="matrix(1 0 0 -1 0 197.4472)">
		<stop  offset="6.000000e-02" style="stop-color:#DB2128"/>
		<stop  offset="1" style="stop-color:#812674"/>
	</linearGradient>
	<path class="st1" d="M43,80.7L25.3,68.9L43,51.2V80.7z"/>
	
		<linearGradient id="SVGID_00000101793279399256530150000007586799986802060693_" gradientUnits="userSpaceOnUse" x1="143.4575" y1="131.5168" x2="161.1775" y2="131.5168" gradientTransform="matrix(1 0 0 -1 0 197.4472)">
		<stop  offset="6.000000e-02" style="stop-color:#DB2128"/>
		<stop  offset="1" style="stop-color:#812674"/>
	</linearGradient>
	<path style="fill:url(#SVGID_00000101793279399256530150000007586799986802060693_);" d="M161.2,68.9l-17.7,11.8V51.2L161.2,68.9z"
		/>
	
		<linearGradient id="SVGID_00000114795759425390725000000014428778335829685173_" gradientUnits="userSpaceOnUse" x1="30.9375" y1="82.7533" x2="159.0375" y2="82.1433" gradientTransform="matrix(1 0 0 -1 0 197.4472)">
		<stop  offset="0" style="stop-color:#F6D573"/>
		<stop  offset="1" style="stop-color:#F1A23A"/>
	</linearGradient>
	<path style="fill:url(#SVGID_00000114795759425390725000000014428778335829685173_);" d="M143.5,80.4l17.7-11.6v82.7
		c0,3.1,0.7,8-1.5,10.2l-22.1-22l-32.5-32.5l-0.8-1.3L143.5,80.4z"/>
	
		<linearGradient id="SVGID_00000002347150023995668120000001893088826763057814_" gradientUnits="userSpaceOnUse" x1="51.3975" y1="61.5677" x2="139.9275" y2="63.1077" gradientTransform="matrix(1 0 0 -1 0 197.4472)">
		<stop  offset="0" style="stop-color:#F09F23"/>
		<stop  offset="1" style="stop-color:#F27C21"/>
	</linearGradient>
	<path style="fill:url(#SVGID_00000002347150023995668120000001893088826763057814_);" d="M137.6,139.8l22.1,22
		c-2.2,2.2-7.1,1.6-10.3,1.6H37.1c-3.1,0-8,0.6-10.2-1.6l22-22l32.5-32.5l0.8-1.3l11,7.2l11-7.2l0.8,1.3L137.6,139.8z"/>
	
		<linearGradient id="SVGID_00000096753870348337296490000013903964671692599478_" gradientUnits="userSpaceOnUse" x1="25.1675" y1="82.1268" x2="157.1875" y2="82.1268" gradientTransform="matrix(1 0 0 -1 0 197.4472)">
		<stop  offset="0" style="stop-color:#F6D573"/>
		<stop  offset="1" style="stop-color:#F1A23A"/>
	</linearGradient>
	<path style="fill:url(#SVGID_00000096753870348337296490000013903964671692599478_);" d="M82.3,106l-0.8,1.2L49,139.8l-22,22
		c-2.2-2.2-1.6-7.1-1.6-10.2V68.9L82.3,106z"/>
	
		<linearGradient id="SVGID_00000133506410498194325460000003560645619163846068_" gradientUnits="userSpaceOnUse" x1="-955.0649" y1="-253.0765" x2="-955.0649" y2="-261.7264" gradientTransform="matrix(5.22 0 0 -5.22 5097.5781 -1281.3093)">
		<stop  offset="6.000000e-02" style="stop-color:#F09F23"/>
		<stop  offset="1" style="stop-color:#D6262D"/>
	</linearGradient>
	<path style="fill:url(#SVGID_00000133506410498194325460000003560645619163846068_);" d="M119.4,66.8l-11.8-12.5
		c-0.7-0.8-1.9-0.8-2.7,0c-0.8,0.7-0.8,1.9,0,2.7l0,0l10.5,11.2l-10.6,11.2c-0.7,0.8-0.7,2,0.1,2.7c0.4,0.3,0.8,0.5,1.3,0.5
		c0.5,0,1-0.2,1.4-0.6l11.8-12.5C120.2,68.7,120.1,67.5,119.4,66.8z"/>
	
		<linearGradient id="SVGID_00000132090077286856337120000010359271243469486248_" gradientUnits="userSpaceOnUse" x1="-961.855" y1="-253.0765" x2="-961.855" y2="-261.7264" gradientTransform="matrix(5.22 0 0 -5.22 5097.5781 -1281.3093)">
		<stop  offset="6.000000e-02" style="stop-color:#F09F23"/>
		<stop  offset="1" style="stop-color:#D6262D"/>
	</linearGradient>
	<path style="fill:url(#SVGID_00000132090077286856337120000010359271243469486248_);" d="M83.9,54.3c-0.8-0.7-2-0.7-2.7,0.1
		L69.4,66.8c-0.7,0.7-0.7,1.9,0,2.6l11.8,12.5c0.4,0.4,0.9,0.6,1.4,0.6c0.5,0,0.9-0.2,1.3-0.5c0.8-0.7,0.8-1.8,0.1-2.6
		c0,0-0.1-0.1-0.1-0.1L73.4,68.1L84,57C84.7,56.2,84.6,55,83.9,54.3z"/>
	
		<linearGradient id="SVGID_00000067951581608998012780000009634828001114363309_" gradientUnits="userSpaceOnUse" x1="-958.4489" y1="-253.0765" x2="-958.4489" y2="-261.7264" gradientTransform="matrix(5.22 0 0 -5.22 5097.5781 -1281.3093)">
		<stop  offset="6.000000e-02" style="stop-color:#F09F23"/>
		<stop  offset="1" style="stop-color:#D6262D"/>
	</linearGradient>
	<path style="fill:url(#SVGID_00000067951581608998012780000009634828001114363309_);" d="M97.5,47.9c-1-0.2-2,0.6-2.2,1.6
		l-5.6,36.8c-0.1,1,0.6,2,1.6,2.2h0.3c0.9,0,1.7-0.7,1.9-1.6L99.2,50C99.3,49,98.6,48.1,97.5,47.9z"/>
</g>
</svg>
