<svg id="Layer_1" data-name="Layer 1" xmlns="http://www.w3.org/2000/svg" xmlns:xlink="http://www.w3.org/1999/xlink" viewBox="0 0 84 91.54"><defs><style>.cls-1{fill:#fff;}.cls-2{fill:none;stroke-miterlimit:10;stroke-width:5px;stroke:url(#New_Gradient_Swatch_5);}</style><linearGradient id="New_Gradient_Swatch_5" x1="9.69" y1="79.63" x2="83.33" y2="7.09" gradientUnits="userSpaceOnUse"><stop offset="0" stop-color="#ffc500"/><stop offset="0.33" stop-color="#d22"/><stop offset="1" stop-color="#720096"/></linearGradient></defs><path id="Icon" class="cls-1" d="M28.24,49.47c10.7,4.17,19.8,5,30.12-1.51-.07.11-2.11,3.14-7.48,4.69C52,54.19,53.56,56,53.56,56a17.81,17.81,0,0,0,9.72-2.87,7.37,7.37,0,0,0,3.28-6.84,50.36,50.36,0,0,0-3.25-13.53A15.86,15.86,0,0,0,50,22.56c-.53,0-.91,0-1.13,0l-.61.61c6.92,2,10.36,5,10.43,5.14A38.07,38.07,0,0,0,24.8,28s3.4-3.36,10.92-5.14l-.45-.45a16.64,16.64,0,0,0-2.34.18,15.94,15.94,0,0,0-12.21,10,51.79,51.79,0,0,0-3.29,14.14,7.27,7.27,0,0,0,3.1,6.57A17.17,17.17,0,0,0,30,56.2s1.37-1.78,2.73-3.37c-5.11-1.51-7.18-4.53-7.22-4.64l1,.49c.57.29,1.16.55,1.76.79Zm5.93-3.29a4.48,4.48,0,1,1,4.31-4.31,4.48,4.48,0,0,1-4.31,4.31Zm15.42,0a4.48,4.48,0,1,1,4.31-4.31A4.48,4.48,0,0,1,49.59,46.18Z"/><path class="cls-2" d="M81.31,86V12.56a9.68,9.68,0,0,0-9.66-9.68H12.35a9.68,9.68,0,0,0-9.66,9.68V65a9.68,9.68,0,0,0,9.66,9.68h48.1L76.94,88.05A2.68,2.68,0,0,0,81.31,86Z"/></svg>