<?xml version="1.0" encoding="UTF-8"?>
<svg width="809px" height="505px" viewBox="0 0 809 505" version="1.1" xmlns="http://www.w3.org/2000/svg" xmlns:xlink="http://www.w3.org/1999/xlink">
    <title>HeroImage</title>
    <defs>
        <linearGradient x1="115.760322%" y1="50.0722272%" x2="0%" y2="49.9397944%" id="linearGradient-1">
            <stop stop-color="#FB6E00" offset="0%"></stop>
            <stop stop-color="#FFC500" offset="100%"></stop>
        </linearGradient>
        <linearGradient x1="78.4059418%" y1="-20.6220528%" x2="33.4264067%" y2="75.7376644%" id="linearGradient-2">
            <stop stop-color="#FFC500" offset="0%"></stop>
            <stop stop-color="#FFF3CC" offset="100%"></stop>
        </linearGradient>
        <linearGradient x1="66.5735933%" y1="100%" x2="33.4264067%" y2="0%" id="linearGradient-3">
            <stop stop-color="#FB6E00" offset="0%"></stop>
            <stop stop-color="#FFC500" offset="100%"></stop>
        </linearGradient>
        <linearGradient x1="100%" y1="66.7613405%" x2="1.72254642e-14%" y2="33.2386595%" id="linearGradient-4">
            <stop stop-color="#FB6E00" offset="0%"></stop>
            <stop stop-color="#FFC500" offset="100%"></stop>
        </linearGradient>
        <polygon id="path-5" points="22.3435435 67.0222563 -5.32907052e-14 54.0868663 22.3435435 41.1514762 44.687087 54.0868663"></polygon>
        <filter x="-29.1%" y="-42.5%" width="158.2%" height="200.5%" filterUnits="objectBoundingBox" id="filter-6">
            <feOffset dx="0" dy="2" in="SourceAlpha" result="shadowOffsetOuter1"></feOffset>
            <feGaussianBlur stdDeviation="4" in="shadowOffsetOuter1" result="shadowBlurOuter1"></feGaussianBlur>
            <feColorMatrix values="0 0 0 0 0   0 0 0 0 0   0 0 0 0 0  0 0 0 0.1 0" type="matrix" in="shadowBlurOuter1"></feColorMatrix>
        </filter>
        <polygon id="path-7" points="22.3435435 67.0222563 1.7408297e-13 54.0868663 22.3435435 41.1514762 44.687087 54.0868663"></polygon>
        <filter x="-29.1%" y="-42.5%" width="158.2%" height="200.5%" filterUnits="objectBoundingBox" id="filter-8">
            <feOffset dx="0" dy="2" in="SourceAlpha" result="shadowOffsetOuter1"></feOffset>
            <feGaussianBlur stdDeviation="4" in="shadowOffsetOuter1" result="shadowBlurOuter1"></feGaussianBlur>
            <feColorMatrix values="0 0 0 0 0   0 0 0 0 0   0 0 0 0 0  0 0 0 0.1 0" type="matrix" in="shadowBlurOuter1"></feColorMatrix>
        </filter>
        <polygon id="path-9" points="22.3435435 67.0222563 -5.32907052e-14 54.0868663 22.3435435 41.1514762 44.687087 54.0868663"></polygon>
        <filter x="-29.1%" y="-42.5%" width="158.2%" height="200.5%" filterUnits="objectBoundingBox" id="filter-10">
            <feOffset dx="0" dy="2" in="SourceAlpha" result="shadowOffsetOuter1"></feOffset>
            <feGaussianBlur stdDeviation="4" in="shadowOffsetOuter1" result="shadowBlurOuter1"></feGaussianBlur>
            <feColorMatrix values="0 0 0 0 0   0 0 0 0 0   0 0 0 0 0  0 0 0 0.1 0" type="matrix" in="shadowBlurOuter1"></feColorMatrix>
        </filter>
        <polygon id="path-11" points="22.3435435 67.0222563 1.7408297e-13 54.0868663 22.3435435 41.1514762 44.687087 54.0868663"></polygon>
        <filter x="-29.1%" y="-42.5%" width="158.2%" height="200.5%" filterUnits="objectBoundingBox" id="filter-12">
            <feOffset dx="0" dy="2" in="SourceAlpha" result="shadowOffsetOuter1"></feOffset>
            <feGaussianBlur stdDeviation="4" in="shadowOffsetOuter1" result="shadowBlurOuter1"></feGaussianBlur>
            <feColorMatrix values="0 0 0 0 0   0 0 0 0 0   0 0 0 0 0  0 0 0 0.1 0" type="matrix" in="shadowBlurOuter1"></feColorMatrix>
        </filter>
        <polygon id="path-13" points="22.3435435 67.0222563 -5.32907052e-14 54.0868663 22.3435435 41.1514762 44.687087 54.0868663"></polygon>
        <filter x="-29.1%" y="-42.5%" width="158.2%" height="200.5%" filterUnits="objectBoundingBox" id="filter-14">
            <feOffset dx="0" dy="2" in="SourceAlpha" result="shadowOffsetOuter1"></feOffset>
            <feGaussianBlur stdDeviation="4" in="shadowOffsetOuter1" result="shadowBlurOuter1"></feGaussianBlur>
            <feColorMatrix values="0 0 0 0 0   0 0 0 0 0   0 0 0 0 0  0 0 0 0.1 0" type="matrix" in="shadowBlurOuter1"></feColorMatrix>
        </filter>
        <linearGradient x1="32.3055569%" y1="104.897426%" x2="70.9006928%" y2="-9.15975721%" id="linearGradient-15">
            <stop stop-color="#FFC500" offset="0%"></stop>
            <stop stop-color="#DD2222" offset="32.9878827%"></stop>
            <stop stop-color="#720096" offset="100%"></stop>
        </linearGradient>
        <linearGradient x1="87.4997427%" y1="100%" x2="12.5002573%" y2="0%" id="linearGradient-16">
            <stop stop-color="#FB6E00" offset="0%"></stop>
            <stop stop-color="#FFC500" offset="100%"></stop>
        </linearGradient>
        <linearGradient x1="30.5384562%" y1="104.897426%" x2="72.9879939%" y2="-9.15975721%" id="linearGradient-17">
            <stop stop-color="#FFC500" offset="0%"></stop>
            <stop stop-color="#DD2222" offset="32.9878827%"></stop>
            <stop stop-color="#720096" offset="100%"></stop>
        </linearGradient>
        <linearGradient x1="70.4754266%" y1="100%" x2="29.5245734%" y2="0%" id="linearGradient-18">
            <stop stop-color="#FB6E00" offset="0%"></stop>
            <stop stop-color="#FFC500" offset="100%"></stop>
        </linearGradient>
    </defs>
    <g id="Docs" stroke="none" stroke-width="1" fill="none" fill-rule="evenodd">
        <g id="Docs_LandingPage_Design" transform="translate(-596.000000, -92.000000)">
            <g id="Hero" transform="translate(0.000000, 60.000000)">
                <g id="HeroImage" transform="translate(604.000000, 32.000000)">
                    <g id="Window" transform="translate(143.763622, 88.000000)">
                        <rect fill="#292929" opacity="0.183407738" x="0" y="0" width="634" height="382" rx="7"></rect>
                        <path d="M7,0 L627,0 C630.865993,-7.10171439e-16 634,3.13400675 634,7 L634,22 L634,22 L0,22 L0,7 C4.14730794e-16,3.13400675 3.13400675,-1.78006981e-16 7,0 Z" id="TopBar" fill="url(#linearGradient-1)" opacity="0.808872768"></path>
                        <g id="Actions" transform="translate(12.000000, 7.000000)" fill="#FFFFFF" opacity="0.802850632">
                            <circle id="Oval" cx="4.44988774" cy="4.44988774" r="4.44988774"></circle>
                            <circle id="Oval" cx="21.4498877" cy="4.44988774" r="4.44988774"></circle>
                            <circle id="Oval" cx="38.4498877" cy="4.44988774" r="4.44988774"></circle>
                        </g>
                    </g>
                    <g id="Cube" transform="translate(22.500000, 134.000000) scale(-1, 1) translate(-22.500000, -134.000000) translate(0.000000, 78.000000)">
                        <g opacity="0.2" transform="translate(0.000000, 60.000000)" id="Group">
                            <g>
                                <polygon id="Fill-508" fill="url(#linearGradient-2)" points="22.3435435 51.7445551 3.97903932e-13 38.8066693 3.97903932e-13 12.9358892 22.3435435 25.873775"></polygon>
                                <polygon id="Fill-510" fill="url(#linearGradient-3)" points="44.6858427 38.8076676 22.3422992 51.7455534 22.3422992 25.8722775 44.6858427 12.9368875"></polygon>
                                <polygon id="Fill-512" fill="url(#linearGradient-4)" points="22.3435435 25.8732758 1.13686838e-13 12.9353901 22.3435435 1.42108547e-13 44.687087 12.9378858"></polygon>
                            </g>
                        </g>
                        <g id="Fill-499" fill="black" fill-opacity="1">
                            <use filter="url(#filter-6)" xlink:href="#path-5"></use>
                        </g>
                        <g transform="translate(0.000000, 0.000000)" id="Group">
                            <polygon id="Fill-508" fill="url(#linearGradient-2)" points="22.3435435 51.7445551 3.97903932e-13 38.8066693 3.97903932e-13 12.9358892 22.3435435 25.873775"></polygon>
                            <polygon id="Fill-510" fill="url(#linearGradient-3)" points="44.6858427 38.8076676 22.3422992 51.7455534 22.3422992 25.8722775 44.6858427 12.9368875"></polygon>
                            <polygon id="Fill-512" fill="url(#linearGradient-4)" points="22.3435435 25.8732758 1.13686838e-13 12.9353901 22.3435435 1.42108547e-13 44.687087 12.9378858"></polygon>
                        </g>
                    </g>
                    <g id="Cube-Copy-4" transform="translate(516.000000, 34.000000) scale(-1, 1) translate(-516.000000, -34.000000) translate(493.500000, 0.000000)">
                        <g id="Fill-499" fill="black" fill-opacity="1">
                            <use filter="url(#filter-8)" xlink:href="#path-7"></use>
                        </g>
                        <g id="Cube" opacity="0.8" transform="translate(0.000000, 0.000000)">
                            <g id="Group">
                                <polygon id="Fill-508" fill="url(#linearGradient-2)" points="22.3435435 51.7445551 3.97903932e-13 38.8066693 3.97903932e-13 12.9358892 22.3435435 25.873775"></polygon>
                                <polygon id="Fill-510" fill="url(#linearGradient-3)" points="44.6858427 38.8076676 22.3422992 51.7455534 22.3422992 25.8722775 44.6858427 12.9368875"></polygon>
                                <polygon id="Fill-512" fill="url(#linearGradient-4)" points="22.3435435 25.8732758 1.13686838e-13 12.9353901 22.3435435 1.42108547e-13 44.687087 12.9378858"></polygon>
                            </g>
                        </g>
                    </g>
                    <g id="Cube-Copy-2" opacity="0.9" transform="translate(755.263622, 449.000000) scale(-1, 1) translate(-755.263622, -449.000000) translate(732.763622, 393.000000)">
                        <g id="Cube" opacity="0.3" transform="translate(0.000000, 60.000000)">
                            <g id="Group">
                                <polygon id="Fill-508" fill="url(#linearGradient-2)" points="22.3435435 51.7445551 3.97903932e-13 38.8066693 3.97903932e-13 12.9358892 22.3435435 25.873775"></polygon>
                                <polygon id="Fill-510" fill="url(#linearGradient-3)" points="44.6858427 38.8076676 22.3422992 51.7455534 22.3422992 25.8722775 44.6858427 12.9368875"></polygon>
                                <polygon id="Fill-512" fill="url(#linearGradient-4)" points="22.3435435 25.8732758 1.13686838e-13 12.9353901 22.3435435 1.42108547e-13 44.687087 12.9378858"></polygon>
                            </g>
                        </g>
                        <g id="Fill-499" fill="black" fill-opacity="1">
                            <use filter="url(#filter-10)" xlink:href="#path-9"></use>
                        </g>
                        <g id="Group" transform="translate(0.000000, 0.000000)">
                            <polygon id="Fill-508" fill="url(#linearGradient-2)" points="22.3435435 51.7445551 3.97903932e-13 38.8066693 3.97903932e-13 12.9358892 22.3435435 25.873775"></polygon>
                            <polygon id="Fill-510" fill="url(#linearGradient-3)" points="44.6858427 38.8076676 22.3422992 51.7455534 22.3422992 25.8722775 44.6858427 12.9368875"></polygon>
                            <polygon id="Fill-512" fill="url(#linearGradient-4)" points="22.3435435 25.8732758 1.13686838e-13 12.9353901 22.3435435 1.42108547e-13 44.687087 12.9378858"></polygon>
                        </g>
                    </g>
                    <g id="Cube-Copy-5" transform="translate(329.500000, 452.000000) scale(-1, 1) translate(-329.500000, -452.000000) translate(307.000000, 418.000000)">
                        <g id="Fill-499" fill="black" fill-opacity="1">
                            <use filter="url(#filter-12)" xlink:href="#path-11"></use>
                        </g>
                        <g id="Cube" opacity="0.8" transform="translate(0.000000, 0.000000)">
                            <g id="Group">
                                <polygon id="Fill-508" fill="url(#linearGradient-2)" points="22.3435435 51.7445551 3.97903932e-13 38.8066693 3.97903932e-13 12.9358892 22.3435435 25.873775"></polygon>
                                <polygon id="Fill-510" fill="url(#linearGradient-3)" points="44.6858427 38.8076676 22.3422992 51.7455534 22.3422992 25.8722775 44.6858427 12.9368875"></polygon>
                                <polygon id="Fill-512" fill="url(#linearGradient-4)" points="22.3435435 25.8732758 1.13686838e-13 12.9353901 22.3435435 1.42108547e-13 44.687087 12.9378858"></polygon>
                            </g>
                        </g>
                    </g>
                    <g id="Cube-Copy-3" transform="translate(777.763622, 227.000000) scale(-1, 1) translate(-777.763622, -227.000000) translate(755.263622, 201.000000)" opacity="0.8">
                        <g id="Group" transform="translate(0.000000, 0.000000)">
                            <polygon id="Fill-508" fill="url(#linearGradient-2)" points="22.3435435 51.7445551 3.97903932e-13 38.8066693 3.97903932e-13 12.9358892 22.3435435 25.873775"></polygon>
                            <polygon id="Fill-510" fill="url(#linearGradient-3)" points="44.6858427 38.8076676 22.3422992 51.7455534 22.3422992 25.8722775 44.6858427 12.9368875"></polygon>
                            <polygon id="Fill-512" fill="url(#linearGradient-4)" points="22.3435435 25.8732758 1.13686838e-13 12.9353901 22.3435435 1.42108547e-13 44.687087 12.9378858"></polygon>
                        </g>
                    </g>
                    <g id="Cube-Copy" transform="translate(143.763622, 409.000000) scale(-1, 1) translate(-143.763622, -409.000000) translate(121.263622, 353.000000)">
                        <g id="Cube" opacity="0.2" transform="translate(0.000000, 60.000000)">
                            <g id="Group">
                                <polygon id="Fill-508" fill="url(#linearGradient-2)" points="22.3435435 51.7445551 3.97903932e-13 38.8066693 3.97903932e-13 12.9358892 22.3435435 25.873775"></polygon>
                                <polygon id="Fill-510" fill="url(#linearGradient-3)" points="44.6858427 38.8076676 22.3422992 51.7455534 22.3422992 25.8722775 44.6858427 12.9368875"></polygon>
                                <polygon id="Fill-512" fill="url(#linearGradient-4)" points="22.3435435 25.8732758 1.13686838e-13 12.9353901 22.3435435 1.42108547e-13 44.687087 12.9378858"></polygon>
                            </g>
                        </g>
                        <g id="Fill-499" fill="black" fill-opacity="1">
                            <use filter="url(#filter-14)" xlink:href="#path-13"></use>
                        </g>
                        <g id="Cube" opacity="0.9" transform="translate(0.000000, 0.000000)">
                            <g id="Group">
                                <polygon id="Fill-508" fill="url(#linearGradient-2)" points="22.3435435 51.7445551 3.97903932e-13 38.8066693 3.97903932e-13 12.9358892 22.3435435 25.873775"></polygon>
                                <polygon id="Fill-510" fill="url(#linearGradient-3)" points="44.6858427 38.8076676 22.3422992 51.7455534 22.3422992 25.8722775 44.6858427 12.9368875"></polygon>
                                <polygon id="Fill-512" fill="url(#linearGradient-4)" points="22.3435435 25.8732758 1.13686838e-13 12.9353901 22.3435435 1.42108547e-13 44.687087 12.9378858"></polygon>
                            </g>
                        </g>
                    </g>
                    <g id="Documents" transform="translate(514.000000, 187.000000)">
                        <path d="M97.6318238,317.871506 C71.3459808,302.695326 46.959818,286.196302 35.8270448,266.835279 L69.6219401,247.323576 L97.6318238,317.871506 Z" id="Fill-1" fill="#3E323F" opacity="0.35000465"></path>
                        <polygon id="Fill-3" fill="#27DEBF" points="0 144.433844 0 287.519977 146.446395 202.968954 146.445471 72.891239 37.5508081 135.761873 33.7948953 124.92214"></polygon>
                        <polygon id="Fill-5" fill="#C85800" points="0 144.433844 0 287.519977 146.446395 202.968954 146.445471 72.891239 37.5508081 135.761873 33.7948953 124.92214"></polygon>
                        <path d="M42.19065,186.739491 C41.821807,186.739491 41.7672663,186.313334 41.7672663,186.059119 L41.7672663,64.0136773 C41.7672663,63.1567413 42.3940221,62.069625 43.1363302,61.6406948 L148.830656,0.618898256 C149.008144,0.516287791 149.175464,0.462671512 149.314127,0.462671512 C149.683894,0.462671512 149.738435,0.888828488 149.738435,1.1430436 L149.738435,123.187561 C149.738435,124.045422 149.111679,125.132538 148.368447,125.560544 L42.6741209,186.583265 C42.4966326,186.684951 42.3293128,186.739491 42.19065,186.739491" id="Fill-7" fill="#FFFFFF"></path>
                        <path d="M149.314404,0.000184883721 C149.099939,0.000184883721 148.856817,0.0704406977 148.599828,0.218347674 L42.9055029,61.2410686 C42.0217587,61.7513477 41.3044099,62.9928419 41.3044099,64.0143244 L41.3044099,186.058842 C41.3044099,186.782662 41.6649331,187.201423 42.1909273,187.201423 C42.4063169,187.201423 42.6485145,187.131167 42.9055029,186.98326 L148.599828,125.961464 C149.484497,125.451185 150.200922,124.208766 150.200922,123.188208 L150.200922,1.14276628 C150.200922,0.418946512 149.839474,0.000184883721 149.314404,0.000184883721 M149.253392,0.934772093 C149.264485,0.979144186 149.276503,1.04755116 149.276503,1.14276628 L149.276503,123.188208 C149.276503,123.875976 148.732945,124.816109 148.137619,125.160917 L42.4432936,186.182714 C42.3582471,186.231708 42.2944622,186.255743 42.251939,186.26776 C42.2399215,186.223388 42.2288285,186.154981 42.2288285,186.058842 L42.2288285,64.0143244 C42.2288285,63.3256326 42.7714622,62.3854988 43.3677122,62.0416151 L149.062038,1.0198186 C149.147084,0.9699 149.211794,0.945865116 149.253392,0.934772093" id="Fill-9" fill="#27DEBF"></path>
                        <path d="M149.314404,0.000184883721 C149.099939,0.000184883721 148.856817,0.0704406977 148.599828,0.218347674 L42.9055029,61.2410686 C42.0217587,61.7513477 41.3044099,62.9928419 41.3044099,64.0143244 L41.3044099,186.058842 C41.3044099,186.782662 41.6649331,187.201423 42.1909273,187.201423 C42.4063169,187.201423 42.6485145,187.131167 42.9055029,186.98326 L148.599828,125.961464 C149.484497,125.451185 150.200922,124.208766 150.200922,123.188208 L150.200922,1.14276628 C150.200922,0.418946512 149.839474,0.000184883721 149.314404,0.000184883721 M149.253392,0.934772093 C149.264485,0.979144186 149.276503,1.04755116 149.276503,1.14276628 L149.276503,123.188208 C149.276503,123.875976 148.732945,124.816109 148.137619,125.160917 L42.4432936,186.182714 C42.3582471,186.231708 42.2944622,186.255743 42.251939,186.26776 C42.2399215,186.223388 42.2288285,186.154981 42.2288285,186.058842 L42.2288285,64.0143244 C42.2288285,63.3256326 42.7714622,62.3854988 43.3677122,62.0416151 L149.062038,1.0198186 C149.147084,0.9699 149.211794,0.945865116 149.253392,0.934772093" id="Fill-11" fill="#FFFFFF"></path>
                        <polygon id="Fill-13" fill="url(#linearGradient-15)" points="52.5700221 68.668957 90.1199058 46.9894919 90.1199058 90.3484221 52.5700221 112.027887"></polygon>
                        <path d="M84.4877006,57.829132 L84.4877006,70.8366262 L83.3118401,71.4938878 L83.3118401,67.5087192 C83.3118401,65.3076785 81.5193924,64.5588994 79.3081831,65.8345971 L63.381375,75.029789 C61.1701657,76.306411 59.3786424,79.1249634 59.3786424,81.3260041 L59.3786424,85.3111727 L58.2018576,86.0128064 L58.2018576,73.0053122 L84.4877006,57.829132 Z" id="Fill-17" fill="#FFFFFF"></path>
                        <path d="M77.2449733,90.9818337 C75.3184849,92.0939093 73.7571419,90.9263686 73.7571419,88.3731244 L73.7571419,67.5089965 L68.9335256,70.1343453 L68.9335256,91.1574733 C68.9335256,93.7107174 67.3721826,96.6817988 65.4456942,97.7938744 L61.9578628,99.8072581 L61.9578628,101.18834 L80.7328047,90.348607 L80.7328047,88.9675256 C80.7328047,88.9675256 79.1714616,89.8697581 77.2449733,90.9818337" id="Fill-19" fill="#FFFFFF"></path>
                        <path d="M97.629975,44.8213605 C97.6308994,46.0184826 98.7059983,46.3688372 100.032539,45.6034186 L136.534132,24.5285233 C137.860673,23.7631047 138.935772,22.1712558 138.935772,20.9741337 C138.935772,19.7770116 137.860673,19.426657 136.534132,20.1920756 L100.032539,41.2669709 C98.7050738,42.0323895 97.629975,43.6242384 97.629975,44.8213605" id="Fill-21" fill="#E6E6E6"></path>
                        <path d="M97.629975,57.829132 C97.6308994,59.0262541 98.7059983,59.3766087 100.032539,58.6111901 L136.534132,37.5362948 C137.860673,36.7708762 138.935772,35.1790273 138.935772,33.9819052 C138.935772,32.7847831 137.860673,32.4344285 136.534132,33.1998471 L100.032539,54.2747424 C98.7050738,55.040161 97.629975,56.6320099 97.629975,57.829132" id="Fill-23" fill="#E6E6E6"></path>
                        <path d="M97.629975,70.8369035 C97.6308994,72.0340256 98.7059983,72.3843802 100.032539,71.6189616 L136.534132,50.5440663 C137.860673,49.7786477 138.935772,48.1867988 138.935772,46.9896767 C138.935772,45.7925547 137.860673,45.4422 136.534132,46.2076186 L100.032539,67.282514 C98.7050738,68.0479326 97.629975,69.6397814 97.629975,70.8369035" id="Fill-25" fill="#E6E6E6"></path>
                        <path d="M97.629975,83.844675 C97.6308994,85.0417971 98.7059983,85.3921517 100.032539,84.6267331 L136.534132,63.5518378 C137.860673,62.7864192 138.935772,61.1945703 138.935772,59.9974483 C138.935772,58.8003262 137.860673,58.4499715 136.534132,59.2153901 L100.032539,80.2902855 C98.7050738,81.0557041 97.629975,82.6475529 97.629975,83.844675" id="Fill-27" fill="#E6E6E6"></path>
                        <path d="M52.5700221,122.872427 C52.5700221,124.069549 53.6460453,124.419903 54.9716616,123.65356 L136.53404,76.5599791 C137.86058,75.7945605 138.935679,74.2027116 138.935679,73.0055895 C138.935679,71.8084674 137.86058,71.4581128 136.53404,72.2235314 L54.9716616,119.317113 C53.6451209,120.083456 52.5700221,121.675305 52.5700221,122.872427" id="Fill-29" fill="#E6E6E6"></path>
                        <path d="M52.5700221,135.880198 C52.5700221,137.07732 53.6460453,137.427675 54.9716616,136.661332 L136.53404,89.5677506 C137.86058,88.802332 138.935679,87.2104831 138.935679,86.013361 C138.935679,84.8153145 137.86058,84.4658843 136.53404,85.2313029 L54.9716616,132.324884 C53.6451209,133.091227 52.5700221,134.683076 52.5700221,135.880198" id="Fill-31" fill="#E6E6E6"></path>
                        <path d="M52.5700221,148.88797 C52.5700221,150.085092 53.6460453,150.435447 54.9716616,149.669103 L136.53404,102.575522 C137.86058,101.810103 138.935679,100.218255 138.935679,99.0211326 C138.935679,97.823086 137.86058,97.4736558 136.53404,98.2390744 L54.9716616,145.33358 C53.6451209,146.098999 52.5700221,147.690848 52.5700221,148.88797" id="Fill-33" fill="#E6E6E6"></path>
                        <polygon id="Fill-35" fill="url(#linearGradient-16)" points="0.000924418605 287.52007 26.285843 172.61761 172.731314 88.0675116 146.446395 202.969047"></polygon>
                        <polygon id="Fill-37" fill="#27DEBF" points="35.826675 181.617288 35.826675 266.835741 69.6224948 247.323113 69.6234192 162.106509"></polygon>
                        <polygon id="Fill-39" fill="#C85800" points="35.826675 181.617288 35.826675 266.835741 69.6224948 247.323113 69.6234192 162.106509"></polygon>
                        <path d="M97.6625145,317.319998 C94.7912703,315.180893 67.078125,293.995992 52.9899855,263.739771 C37.9940669,231.533027 38.0079331,193.968352 38.0123842,179.828445 L38.0123842,179.388422 L138.473747,121.387626 C138.469125,135.656027 138.488538,173.274317 153.538073,205.594765 C167.298968,235.147503 193.951805,256.090207 198.178247,259.287771 L97.6625145,317.319998 Z" id="Fill-41" fill="#FFFFFF"></path>
                        <path d="M138.936326,120.586709 L37.5503629,179.120895 C37.5503629,192.419581 37.2696924,231.072297 52.5715936,263.934453 C67.5906227,296.192041 97.6314541,317.871506 97.6314541,317.871506 L199.017989,259.33732 C199.017989,259.33732 168.977158,237.65693 153.957204,205.399343 C138.655303,172.537186 138.936326,133.885395 138.936326,120.586709 M138.011908,122.187802 C138.012832,137.050605 138.301251,173.965413 153.119681,205.790372 C166.418367,234.34936 191.711384,254.891791 197.347565,259.233785 L97.6961634,316.76775 C93.8006634,313.831797 67.127489,293.007419 53.4091169,263.544349 C38.4566459,231.430971 38.4695878,193.942099 38.4749124,179.828076 L38.4749124,179.655209 L138.011908,122.187802" id="Fill-43" fill="#27DEBF"></path>
                        <path d="M138.936326,120.586709 L37.5503629,179.120895 C37.5503629,192.419581 37.2696924,231.072297 52.5715936,263.934453 C67.5906227,296.192041 97.6314541,317.871506 97.6314541,317.871506 L199.017989,259.33732 C199.017989,259.33732 168.977158,237.65693 153.957204,205.399343 C138.655303,172.537186 138.936326,133.885395 138.936326,120.586709 M138.011908,122.187802 C138.012832,137.050605 138.301251,173.965413 153.119681,205.790372 C166.418367,234.34936 191.711384,254.891791 197.347565,259.233785 L97.6961634,316.76775 C93.8006634,313.831797 67.127489,293.007419 53.4091169,263.544349 C38.4566459,231.430971 38.4695878,193.942099 38.4749124,179.828076 L38.4749124,179.655209 L138.011908,122.187802" id="Fill-45" fill="#FFFFFF"></path>
                        <path d="M127.471409,140.21341 L95.4070256,158.725817 C94.0804849,159.491236 93.034043,161.061823 93.0784151,162.233062 C93.1237116,163.405224 94.2431826,163.733393 95.5697233,162.967974 L127.634107,144.455567 C128.959723,143.690149 129.991374,142.119562 129.947002,140.947399 C129.901706,139.77616 128.79795,139.447992 127.471409,140.21341" id="Fill-47" fill="#E6E6E6"></path>
                        <path d="M128.153815,152.827195 L96.0894314,171.339602 C94.7628907,172.10502 93.7589721,173.651573 93.8569605,174.792305 C93.9558733,175.933038 95.1206407,176.235323 96.446257,175.469904 L128.511565,156.956573 C129.837181,156.191154 130.823536,154.647375 130.724623,153.506642 C130.627559,152.36591 129.480356,152.060852 128.153815,152.827195" id="Fill-49" fill="#E6E6E6"></path>
                        <path d="M129.434874,165.095524 L97.3704907,183.607931 C96.04395,184.373349 95.0862523,185.893094 95.2443279,186.998698 C95.4024035,188.105227 96.6143163,188.380704 97.940857,187.614361 L130.005241,169.101954 C131.331781,168.335611 132.270066,166.819565 132.111991,165.713035 C131.95484,164.606506 130.761415,164.329181 129.434874,165.095524" id="Fill-51" fill="#E6E6E6"></path>
                        <path d="M131.356833,176.993346 L99.2924494,195.504828 C97.9659087,196.271172 97.0572052,197.763183 97.275368,198.834584 C97.4926064,199.90691 98.7544378,200.151881 100.081903,199.386462 L132.146287,180.873131 C133.471903,180.107712 134.360269,178.621247 134.143031,177.549846 C133.924868,176.47752 132.683374,176.227927 131.356833,176.993346" id="Fill-53" fill="#E6E6E6"></path>
                        <path d="M133.963971,188.495332 L101.899587,207.007739 C100.573971,207.773158 99.7170349,209.235588 100.001756,210.268163 C100.284628,211.301663 101.601924,211.516128 102.928465,210.749785 L134.991924,192.237378 C136.31939,191.47196 137.152291,190.016925 136.869419,188.982501 C136.584698,187.949001 135.291436,187.729913 133.963971,188.495332" id="Fill-55" fill="#E6E6E6"></path>
                        <path d="M137.301399,199.57754 L59.1528994,244.696563 C57.8263587,245.462906 57.027661,246.891133 57.3872599,247.881185 C57.7450099,248.871237 59.123318,249.04965 60.4489343,248.283307 L138.597434,203.165208 C139.923975,202.398865 140.697713,200.978958 140.339039,199.987981 C139.97944,198.997929 138.62794,198.811197 137.301399,199.57754" id="Fill-57" fill="#E6E6E6"></path>
                        <path d="M141.465813,210.161393 L63.3173128,255.281341 C61.9907721,256.046759 61.2632547,257.43616 61.7023535,258.379992 C62.1396035,259.324748 63.5779988,259.466184 64.9045395,258.700765 L143.05304,213.580817 C144.37958,212.815399 145.092307,211.432469 144.654133,210.488637 C144.215958,209.543881 142.792353,209.395974 141.465813,210.161393" id="Fill-59" fill="#E6E6E6"></path>
                        <path d="M146.56278,220.25059 L68.4142797,265.369613 C67.087739,266.135032 66.4277041,267.487456 66.9527738,268.380445 C67.4778436,269.274358 68.9929657,269.371422 70.3195064,268.606003 L148.468006,223.486055 C149.794547,222.720637 150.430547,221.383003 149.904553,220.488166 C149.378559,219.594253 147.88932,219.484247 146.56278,220.25059" id="Fill-61" fill="#E6E6E6"></path>
                        <path d="M152.578711,229.783657 L74.430211,274.90268 C73.1036703,275.668099 72.5092692,276.984471 73.113839,277.833087 C73.7193331,278.680779 75.2945424,278.739017 76.6210831,277.973599 L154.769583,232.853651 C156.096124,232.088233 156.671112,230.787576 156.065618,229.939884 C155.460124,229.092192 153.905252,229.017314 152.578711,229.783657" id="Fill-63" fill="#E6E6E6"></path>
                        <path d="M159.398147,238.851834 L81.2496471,283.971781 C79.9231064,284.7372 79.3860192,286.020293 80.0617692,286.82731 C80.7365948,287.634328 82.3672692,287.66206 83.6938099,286.895717 L161.843234,241.776694 C163.168851,241.011276 163.689298,239.742973 163.013548,238.935956 C162.338723,238.128014 160.724688,238.086415 159.398147,238.851834" id="Fill-65" fill="#E6E6E6"></path>
                        <path d="M166.952311,247.492929 L88.8047355,292.612877 C87.4772703,293.378295 86.9937994,294.630883 87.7342587,295.400923 C88.4737936,296.170964 90.155311,296.167266 91.4818517,295.401848 L169.630352,250.283749 C170.956892,249.516481 171.425573,248.279609 170.686038,247.509569 C169.945578,246.739528 168.279776,246.72751 166.952311,247.492929" id="Fill-67" fill="#E6E6E6"></path>
                        <path d="M175.214302,255.742256 L97.0658023,300.861279 C95.7392616,301.626698 95.3075581,302.850628 96.1108779,303.584616 C96.9132733,304.318605 98.6474826,304.284401 99.9730988,303.518058 L178.122523,258.399035 C179.44814,257.633616 179.865052,256.425401 179.061733,255.691413 C178.259337,254.957424 176.540843,254.975913 175.214302,255.742256" id="Fill-69" fill="#E6E6E6"></path>
                        <path d="M83.789025,165.434138 L46.9213622,186.719801 C47.3318041,200.072103 48.8543215,219.345307 54.442432,238.744231 L91.3100948,217.458569 C85.7219843,198.05872 84.1985424,178.787365 83.789025,165.434138" id="Fill-71" fill="url(#linearGradient-17)"></path>
                        <path d="M88.1836186,204.703348 C88.1836186,204.703348 88.1826942,204.703348 88.1826942,204.702424 C85.7237407,201.600999 80.722636,192.03604 78.5853802,187.867837 C78.2063686,187.127377 77.1238744,187.230912 76.8779791,188.024063 C73.1849267,199.874185 72.8770953,212.291901 72.8770953,212.291901 C69.9134093,209.946651 67.7826244,207.613418 65.0518919,203.581104 C64.6553163,202.995947 63.7614035,203.152174 63.5839151,203.836244 C59.5516012,219.359081 61.5742291,234.626778 61.5742291,234.626778 L91.3100023,217.458476 C90.0777523,213.178418 89.0516477,208.909453 88.1836186,204.703348" id="Fill-79" fill="#27DEBF"></path>
                        <path d="M88.1836186,204.703348 C88.1836186,204.703348 88.1826942,204.703348 88.1826942,204.702424 C85.7237407,201.600999 80.722636,192.03604 78.5853802,187.867837 C78.2063686,187.127377 77.1238744,187.230912 76.8779791,188.024063 C73.1849267,199.874185 72.8770953,212.291901 72.8770953,212.291901 C69.9134093,209.946651 67.7826244,207.613418 65.0518919,203.581104 C64.6553163,202.995947 63.7614035,203.152174 63.5839151,203.836244 C59.5516012,219.359081 61.5742291,234.626778 61.5742291,234.626778 L91.3100023,217.458476 C90.0777523,213.178418 89.0516477,208.909453 88.1836186,204.703348" id="Fill-81" fill="url(#linearGradient-18)"></path>
                    </g>
                </g>
            </g>
        </g>
    </g>
</svg>