<?xml version="1.0" encoding="UTF-8"?>
<svg width="822px" height="699px" viewBox="0 0 822 699" version="1.1" xmlns="http://www.w3.org/2000/svg" xmlns:xlink="http://www.w3.org/1999/xlink">
    <title>PatternBG</title>
    <defs>
        <rect id="path-1" x="0" y="0" width="821.972222" height="699"></rect>
        <linearGradient x1="50%" y1="0%" x2="50%" y2="100%" id="linearGradient-3">
            <stop stop-color="#494243" offset="0%"></stop>
            <stop stop-color="#231F20" offset="100%"></stop>
        </linearGradient>
        <linearGradient x1="50%" y1="0%" x2="50%" y2="100%" id="linearGradient-4">
            <stop stop-color="#494243" offset="0%"></stop>
            <stop stop-color="#231F20" offset="100%"></stop>
        </linearGradient>
        <linearGradient x1="50%" y1="0%" x2="50%" y2="100%" id="linearGradient-5">
            <stop stop-color="#494243" offset="0%"></stop>
            <stop stop-color="#231F20" offset="100%"></stop>
        </linearGradient>
        <linearGradient x1="50%" y1="0%" x2="50%" y2="100%" id="linearGradient-6">
            <stop stop-color="#494243" offset="0%"></stop>
            <stop stop-color="#231F20" offset="100%"></stop>
        </linearGradient>
    </defs>
    <g id="Docs" stroke="none" stroke-width="1" fill="none" fill-rule="evenodd">
        <g id="Docs_LandingPage_Design" transform="translate(-618.000000, -1760.000000)">
            <g id="LearnWithUs" transform="translate(130.000000, 1760.000000)">
                <g id="PatternBG" transform="translate(899.000000, 349.500000) scale(-1, 1) translate(-899.000000, -349.500000) translate(488.000000, 0.000000)">
                    <mask id="mask-2" fill="white">
                        <use xlink:href="#path-1"></use>
                    </mask>
                    <g id="Mask"></g>
                    <g id="Group" opacity="0.118396577" mask="url(#mask-2)">
                        <g transform="translate(-159.216667, -3.236111)">
                            <g id="pattern-copy" opacity="0.12"></g>
                            <g id="Lines" transform="translate(119.949058, 2.498939)" stroke-linecap="round" stroke-linejoin="round">
                                <line x1="666.144383" y1="281.416743" x2="666.144383" y2="420.797272" id="Line-9" stroke="#231F20" stroke-width="1.4" transform="translate(666.144383, 351.100888) scale(-1, -1) translate(-666.144383, -351.100888) "></line>
                                <line x1="846.602419" y1="247.468056" x2="846.602419" y2="386.836348" id="Line-9-Copy-5" stroke="#231F20" stroke-width="1.4" transform="translate(846.602419, 317.152202) scale(-1, -1) translate(-846.602419, -317.152202) "></line>
                                <line x1="784.067456" y1="561.940099" x2="784.067456" y2="701.30839" id="Line-12" stroke="#231F20" stroke-width="1.4" transform="translate(784.067456, 631.624245) scale(-1, -1) translate(-784.067456, -631.624245) "></line>
                                <line x1="844.815706" y1="526.204639" x2="844.815706" y2="665.572931" id="Line-13" stroke="#231F20" stroke-width="1.4" transform="translate(844.815706, 595.888785) scale(-1, -1) translate(-844.815706, -595.888785) "></line>
                                <line x1="785.854169" y1="281.416743" x2="785.854169" y2="351.100888" id="Line-9-Copy" stroke="#231F20" stroke-width="1.4" transform="translate(785.854169, 316.258816) scale(-1, -1) translate(-785.854169, -316.258816) "></line>
                                <line x1="785.854169" y1="143.835224" x2="785.854169" y2="281.432145" id="Line-9-Copy-2" stroke="#231F20" stroke-width="1.4" transform="translate(785.854169, 212.625983) scale(-1, -1) translate(-785.854169, -212.625983) "></line>
                                <line x1="726.892633" y1="108.099765" x2="726.892633" y2="245.693691" id="Line-9-Copy-3" stroke="#231F20" stroke-width="1.4" transform="translate(726.892633, 176.890524) scale(-1, -1) translate(-726.892633, -176.890524) "></line>
                                <line x1="666.144383" y1="4.46693242" x2="666.144383" y2="142.048451" id="Line-9-Copy-4" stroke="#231F20" stroke-width="1.4" transform="translate(666.144383, 73.257692) scale(-1, -1) translate(-666.144383, -73.257692) "></line>
                                <line x1="546.434597" y1="142.048451" x2="544.647884" y2="281.416743" id="Line-9-Copy-8" stroke="#231F20" stroke-width="1.4" transform="translate(545.541241, 211.732597) scale(-1, -1) translate(-545.541241, -211.732597) "></line>
                                <line x1="485.686348" y1="174.210364" x2="485.686348" y2="245.810893" id="Line-9-Copy-9" stroke="#231F20" stroke-width="1.4" transform="translate(485.686348, 209.945824) scale(-1, -1) translate(-485.686348, -209.945824) "></line>
                                <line x1="544.647884" y1="351.100888" x2="544.647884" y2="418.998261" id="Line-19" stroke="#231F20" stroke-width="1.4" transform="translate(544.647884, 385.049575) scale(-1, -1) translate(-544.647884, -385.049575) "></line>
                                <line x1="605.396134" y1="524.417866" x2="605.396134" y2="594.102012" id="Line-20" stroke="#231F20" stroke-width="1.4" transform="translate(605.396134, 559.259939) scale(-1, -1) translate(-605.396134, -559.259939) "></line>
                                <line x1="183.731813" y1="277.843197" x2="183.731813" y2="417.211488" id="Line-9" stroke="#231F20" stroke-width="1.4" transform="translate(183.731813, 347.527343) scale(-1, -1) translate(-183.731813, -347.527343) "></line>
                                <line x1="364.189849" y1="245.681283" x2="364.189849" y2="383.262802" id="Line-9-Copy-5" stroke="#231F20" stroke-width="1.4" transform="translate(364.189849, 314.472043) scale(-1, -1) translate(-364.189849, -314.472043) "></line>
                                <line x1="485.686348" y1="38.4156188" x2="485.686348" y2="177.78391" id="Line-9-Copy-6" stroke="#231F20" stroke-width="1.4" transform="translate(485.686348, 108.099765) scale(-1, -1) translate(-485.686348, -108.099765) "></line>
                                <line x1="485.686348" y1="245.681283" x2="485.686348" y2="315.365429" id="Line-17" stroke="#231F20" stroke-width="1.4" transform="translate(485.686348, 280.523356) scale(-1, -1) translate(-485.686348, -280.523356) "></line>
                                <line x1="483.899635" y1="594.102012" x2="483.899635" y2="663.786158" id="Line-14" stroke="#231F20" stroke-width="1.4" transform="translate(483.899635, 628.944085) scale(-1, -1) translate(-483.899635, -628.944085) "></line>
                                <line x1="305.228312" y1="277.843197" x2="305.228312" y2="349.314115" id="Line-9-Copy" stroke="#231F20" stroke-width="1.4" transform="translate(305.228312, 313.578656) scale(-1, -1) translate(-305.228312, -313.578656) "></line>
                                <line x1="305.228312" y1="142.048451" x2="305.228312" y2="279.641277" id="Line-9-Copy-2" stroke="#231F20" stroke-width="1.4" transform="translate(305.228312, 210.839210) scale(-1, -1) translate(-305.228312, -210.839210) "></line>
                                <line x1="244.480063" y1="172.423592" x2="244.480063" y2="242.232811" id="Line-9-Copy-3" stroke="#231F20" stroke-width="1.4" transform="translate(244.480063, 208.159051) scale(-1, -1) translate(-244.480063, -208.159051) "></line>
                                <line x1="185.518526" y1="0" x2="185.518526" y2="138.474905" id="Line-9-Copy-4" stroke="#231F20" stroke-width="1.4" transform="translate(185.518526, 69.237453) scale(-1, -1) translate(-185.518526, -69.237453) "></line>
                                <line x1="63.4305556" y1="139.606307" x2="63.4305556" y2="277.150107" id="Line-9-Copy-8" stroke="#231F20" stroke-width="1.4" transform="translate(63.726291, 208.705892) scale(-1, -1) translate(-63.726291, -208.705892) "></line>
                                <line x1="423.151385" y1="488.682407" x2="423.151385" y2="558.366553" id="Line-15" stroke="#231F20" stroke-width="1.4" transform="translate(423.151385, 523.524480) scale(-1, -1) translate(-423.151385, -523.524480) "></line>
                                <line x1="483.899635" y1="454.733721" x2="483.899635" y2="524.417866" id="Line-17" stroke="#231F20" stroke-width="1.4" transform="translate(483.899635, 489.575794) scale(-1, -1) translate(-483.899635, -489.575794) "></line>
                                <line x1="64.022027" y1="347.527343" x2="64.022027" y2="415.424715" id="Line-19" stroke="#231F20" stroke-width="1.4" transform="translate(64.022027, 381.476029) scale(-1, -1) translate(-64.022027, -381.476029) "></line>
                                <line x1="122.983563" y1="522.631093" x2="122.983563" y2="592.315239" id="Line-20" stroke="#231F20" stroke-width="1.4" transform="translate(122.983563, 557.473166) scale(-1, -1) translate(-122.983563, -557.473166) "></line>
                            </g>
                            <g id="Ovals">
                                <ellipse id="Oval-Copy-5" fill="url(#linearGradient-3)" transform="translate(904.888261, 633.194164) scale(-1, -1) translate(-904.888261, -633.194164) " cx="904.888261" cy="633.194164" rx="4.46637839" ry="4.46540313"></ellipse>
                                <ellipse id="Oval-Copy-7" fill="url(#linearGradient-4)" transform="translate(729.806229, 179.509206) scale(-1, -1) translate(-729.806229, -179.509206) " cx="729.806229" cy="179.509206" rx="2.67982703" ry="2.67924188"></ellipse>
                                <ellipse id="Oval-Copy-67" fill="url(#linearGradient-5)" transform="translate(605.701205, 248.276414) scale(-1, -1) translate(-605.701205, -248.276414) " cx="605.701205" cy="248.276414" rx="3.57310271" ry="3.57232251"></ellipse>
                                <ellipse id="Oval-Copy-36" fill="url(#linearGradient-5)" transform="translate(847.718618, 248.276414) scale(-1, -1) translate(-847.718618, -248.276414) " cx="847.718618" cy="248.276414" rx="3.57310271" ry="3.57232251"></ellipse>
                                <ellipse id="Oval-Copy-37" fill="url(#linearGradient-5)" transform="translate(905.781537, 421.534056) scale(-1, -1) translate(-905.781537, -421.534056) " cx="905.781537" cy="421.534056" rx="3.57310271" ry="3.57232251"></ellipse>
                                <ellipse id="Oval-Copy-51" fill="url(#linearGradient-4)" transform="translate(726.233126, 456.364200) scale(-1, -1) translate(-726.233126, -456.364200) " cx="726.233126" cy="456.3642" rx="2.67982703" ry="2.67924188"></ellipse>
                                <ellipse id="Oval-Copy-80" fill="url(#linearGradient-5)" transform="translate(726.293422, 525.964388) scale(-1, -1) translate(-726.293422, -525.964388) " cx="726.293422" cy="525.964388" rx="3.57310271" ry="3.57232251"></ellipse>
                                <ellipse id="Oval-Copy-35" fill="url(#linearGradient-5)" transform="translate(786.082596, 142.892900) scale(-1, -1) translate(-786.082596, -142.892900) " cx="786.082596" cy="142.8929" rx="3.57310271" ry="3.57232251"></ellipse>
                                <ellipse id="Oval-Copy-33" fill="url(#linearGradient-3)" transform="translate(906.674813, 283.106559) scale(-1, -1) translate(-906.674813, -283.106559) " cx="906.674813" cy="283.106559" rx="4.46637839" ry="4.46540313"></ellipse>
                                <ellipse id="Oval-Copy-8" fill="url(#linearGradient-5)" transform="translate(846.825342, 316.150542) scale(-1, -1) translate(-846.825342, -316.150542) " cx="846.825342" cy="316.150542" rx="3.57310271" ry="3.57232251"></ellipse>
                                <ellipse id="Oval-Copy-70" fill="url(#linearGradient-5)" transform="translate(967.477855, 387.596992) scale(-1, -1) translate(-967.477855, -387.596992) " cx="967.477855" cy="387.596992" rx="3.57310271" ry="3.57232251"></ellipse>
                                <ellipse id="Oval-Copy-65" fill="url(#linearGradient-4)" transform="translate(605.701205, 177.723045) scale(-1, -1) translate(-605.701205, -177.723045) " cx="605.701205" cy="177.723045" rx="2.67982703" ry="2.67924188"></ellipse>
                                <ellipse id="Oval-Copy-66" fill="url(#linearGradient-5)" transform="translate(666.383655, 212.553189) scale(-1, -1) translate(-666.383655, -212.553189) " cx="666.383655" cy="212.553189" rx="3.57310271" ry="3.57232251"></ellipse>
                                <ellipse id="Oval-Copy-52" fill="url(#linearGradient-5)" transform="translate(786.082596, 421.534056) scale(-1, -1) translate(-786.082596, -421.534056) " cx="786.082596" cy="421.534056" rx="3.57310271" ry="3.57232251"></ellipse>
                                <ellipse id="Oval-Copy-82" fill="url(#linearGradient-5)" transform="translate(665.490380, 421.534056) scale(-1, -1) translate(-665.490380, -421.534056) " cx="665.49038" cy="421.534056" rx="3.57310271" ry="3.57232251"></ellipse>
                                <ellipse id="Oval-Copy-10" fill="url(#linearGradient-3)" transform="translate(968.250538, 41.141810) scale(-1, -1) translate(-968.250538, -41.141810) " cx="968.250538" cy="41.1418099" rx="4.46637839" ry="4.46540313"></ellipse>
                                <ellipse id="Oval-Copy-54" fill="url(#linearGradient-4)" transform="translate(786.975872, 6.251564) scale(-1, -1) translate(-786.975872, -6.251564) " cx="786.975872" cy="6.25156439" rx="2.67982703" ry="2.67924188"></ellipse>
                                <ellipse id="Oval-Copy-55" fill="url(#linearGradient-5)" transform="translate(787.036168, 75.018773) scale(-1, -1) translate(-787.036168, -75.018773) " cx="787.036168" cy="75.0187726" rx="3.57310271" ry="3.57232251"></ellipse>
                                <ellipse id="Oval-Copy-78" fill="url(#linearGradient-5)" transform="translate(968.310834, 180.402287) scale(-1, -1) translate(-968.310834, -180.402287) " cx="968.310834" cy="180.402287" rx="3.57310271" ry="3.57232251"></ellipse>
                                <ellipse id="Oval-Copy-77" fill="url(#linearGradient-5)" transform="translate(968.310834, 318.769683) scale(-1, -1) translate(-968.310834, -318.769683) " cx="968.310834" cy="318.769683" rx="3.57310271" ry="3.57232251"></ellipse>
                                <ellipse id="Oval-Copy-42" fill="url(#linearGradient-3)" transform="translate(966.584579, 458.150362) scale(-1, -1) translate(-966.584579, -458.150362) " cx="966.584579" cy="458.150362" rx="4.46637839" ry="4.46540313"></ellipse>
                                <ellipse id="Oval-Copy-53" fill="url(#linearGradient-5)" transform="translate(786.082596, 353.659928) scale(-1, -1) translate(-786.082596, -353.659928) " cx="786.082596" cy="353.659928" rx="3.57310271" ry="3.57232251"></ellipse>
                                <ellipse id="Oval-Copy-43" fill="url(#linearGradient-4)" transform="translate(786.975872, 561.747714) scale(-1, -1) translate(-786.975872, -561.747714) " cx="786.975872" cy="561.747714" rx="2.67982703" ry="2.67924188"></ellipse>
                                <ellipse id="Oval-Copy-81" fill="url(#linearGradient-5)" transform="translate(727.126401, 594.791697) scale(-1, -1) translate(-727.126401, -594.791697) " cx="727.126401" cy="594.791697" rx="3.57310271" ry="3.57232251"></ellipse>
                                <ellipse id="Oval-Copy-28" fill="url(#linearGradient-4)" transform="translate(908.461364, 75.078874) scale(-1, -1) translate(-908.461364, -75.078874) " cx="908.461364" cy="75.0788737" rx="2.67982703" ry="2.67924188"></ellipse>
                                <ellipse id="Oval-Copy-72" fill="url(#linearGradient-5)" transform="translate(906.735109, 212.553189) scale(-1, -1) translate(-906.735109, -212.553189) " cx="906.735109" cy="212.553189" rx="3.57310271" ry="3.57232251"></ellipse>
                                <ellipse id="Oval-Copy-11" fill="url(#linearGradient-6)" transform="translate(909.354640, 7.144645) scale(-1, -1) translate(-909.354640, -7.144645) " cx="909.35464" cy="7.14464501" rx="1.78655135" ry="1.78616125"></ellipse>
                                <ellipse id="Oval-Copy-56" fill="url(#linearGradient-5)" transform="translate(848.611894, 39.295548) scale(-1, -1) translate(-848.611894, -39.295548) " cx="848.611894" cy="39.2955476" rx="3.57310271" ry="3.57232251"></ellipse>
                                <ellipse id="Oval-Copy-74" fill="url(#linearGradient-3)" transform="translate(847.718618, 179.509206) scale(-1, -1) translate(-847.718618, -179.509206) " cx="847.718618" cy="179.509206" rx="4.46637839" ry="4.46540313"></ellipse>
                                <ellipse id="Oval-Copy-12" fill="url(#linearGradient-4)" transform="translate(847.718618, 595.684778) scale(-1, -1) translate(-847.718618, -595.684778) " cx="847.718618" cy="595.684778" rx="2.67982703" ry="2.67924188"></ellipse>
                                <ellipse id="Oval-Copy-73" fill="url(#linearGradient-5)" transform="translate(968.310834, 248.276414) scale(-1, -1) translate(-968.310834, -248.276414) " cx="968.310834" cy="248.276414" rx="3.57310271" ry="3.57232251"></ellipse>
                                <ellipse id="Oval-Copy-19" fill="url(#linearGradient-5)" transform="translate(906.735109, 144.679062) scale(-1, -1) translate(-906.735109, -144.679062) " cx="906.735109" cy="144.679062" rx="3.57310271" ry="3.57232251"></ellipse>
                                <ellipse id="Oval-Copy-20" fill="url(#linearGradient-4)" transform="translate(847.718618, 109.848917) scale(-1, -1) translate(-847.718618, -109.848917) " cx="847.718618" cy="109.848917" rx="2.67982703" ry="2.67924188"></ellipse>
                                <ellipse id="Oval-Copy-21" fill="url(#linearGradient-5)" transform="translate(668.170207, 141.106739) scale(-1, -1) translate(-668.170207, -141.106739) " cx="668.170207" cy="141.106739" rx="3.57310271" ry="3.57232251"></ellipse>
                                <ellipse id="Oval-Copy-22" fill="url(#linearGradient-5)" transform="translate(845.038791, 389.383153) scale(-1, -1) translate(-845.038791, -389.383153) " cx="845.038791" cy="389.383153" rx="3.57310271" ry="3.57232251"></ellipse>
                                <ellipse id="Oval-Copy-23" fill="url(#linearGradient-4)" transform="translate(726.233126, 317.043623) scale(-1, -1) translate(-726.233126, -317.043623) " cx="726.233126" cy="317.043623" rx="2.67982703" ry="2.67924188"></ellipse>
                                <ellipse id="Oval-Copy-24" fill="url(#linearGradient-6)" transform="translate(845.038791, 526.917570) scale(-1, -1) translate(-845.038791, -526.917570) " cx="845.038791" cy="526.91757" rx="1.78655135" ry="1.78616125"></ellipse>
                                <ellipse id="Oval-Copy-68" fill="url(#linearGradient-4)" transform="translate(906.674813, 492.087425) scale(-1, -1) translate(-906.674813, -492.087425) " cx="906.674813" cy="492.087425" rx="2.67982703" ry="2.67924188"></ellipse>
                                <ellipse id="Oval-Copy-45" fill="url(#linearGradient-5)" transform="translate(964.737732, 528.703731) scale(-1, -1) translate(-964.737732, -528.703731) " cx="964.737732" cy="528.703731" rx="3.57310271" ry="3.57232251"></ellipse>
                                <ellipse id="Oval-Copy-50" fill="url(#linearGradient-5)" transform="translate(964.737732, 666.238148) scale(-1, -1) translate(-964.737732, -666.238148) " cx="964.737732" cy="666.238148" rx="3.57310271" ry="3.57232251"></ellipse>
                                <ellipse id="Oval-Copy-46" fill="url(#linearGradient-5)" transform="translate(904.856997, 562.501613) scale(-1, -1) translate(-904.856997, -562.501613) " cx="904.856997" cy="562.501613" rx="3.57310271" ry="3.57232251"></ellipse>
                                <ellipse id="Oval-Copy-49" fill="url(#linearGradient-6)" transform="translate(845.038791, 666.238148) scale(-1, -1) translate(-845.038791, -666.238148) " cx="845.038791" cy="666.238148" rx="1.78655135" ry="1.78616125"></ellipse>
                                <ellipse id="Oval-Copy-47" fill="url(#linearGradient-5)" transform="translate(904.856997, 701.609202) scale(-1, -1) translate(-904.856997, -701.609202) " cx="904.856997" cy="701.609202" rx="3.57310271" ry="3.57232251"></ellipse>
                                <ellipse id="Oval-Copy-25" fill="url(#linearGradient-6)" cx="800.375007" cy="623.370277" rx="1.78655135" ry="1.78616125"></ellipse>
                                <ellipse id="Oval-Copy-14" fill="url(#linearGradient-5)" transform="translate(664.597104, 282.213478) scale(-1, -1) translate(-664.597104, -282.213478) " cx="664.597104" cy="282.213478" rx="3.57310271" ry="3.57232251"></ellipse>
                                <ellipse id="Oval-Copy-63" fill="url(#linearGradient-5)" transform="translate(906.674813, 353.659928) scale(-1, -1) translate(-906.674813, -353.659928) " cx="906.674813" cy="353.659928" rx="3.57310271" ry="3.57232251"></ellipse>
                                <ellipse id="Oval-Copy-76" fill="url(#linearGradient-5)" transform="translate(787.869148, 283.999639) scale(-1, -1) translate(-787.869148, -283.999639) " cx="787.869148" cy="283.999639" rx="3.57310271" ry="3.57232251"></ellipse>
                                <ellipse id="Oval" fill="url(#linearGradient-4)" transform="translate(724.446574, 386.703911) scale(-1, -1) translate(-724.446574, -386.703911) " cx="724.446574" cy="386.703911" rx="2.67982703" ry="2.67924188"></ellipse>
                                <ellipse id="Oval-Copy-5" fill="url(#linearGradient-4)" transform="translate(424.305947, 627.835681) scale(-1, -1) translate(-424.305947, -627.835681) " cx="424.305947" cy="627.835681" rx="2.67982703" ry="2.67924188"></ellipse>
                                <ellipse id="Oval-Copy-27" fill="url(#linearGradient-5)" transform="translate(543.232204, 491.194345) scale(-1, -1) translate(-543.232204, -491.194345) " cx="543.232204" cy="491.194345" rx="3.57310271" ry="3.57232251"></ellipse>
                                <ellipse id="Oval-Copy-6" fill="url(#linearGradient-4)" transform="translate(847.718618, 458.150362) scale(-1, -1) translate(-847.718618, -458.150362) " cx="847.718618" cy="458.150362" rx="2.67982703" ry="2.67924188"></ellipse>
                                <ellipse id="Oval-Copy-7" fill="url(#linearGradient-5)" transform="translate(246.544087, 175.043803) scale(-1, -1) translate(-246.544087, -175.043803) " cx="246.544087" cy="175.043803" rx="3.57310271" ry="3.57232251"></ellipse>
                                <ellipse id="Oval-Copy-36" fill="url(#linearGradient-5)" transform="translate(364.577069, 246.490253) scale(-1, -1) translate(-364.577069, -246.490253) " cx="364.577069" cy="246.490253" rx="3.57310271" ry="3.57232251"></ellipse>
                                <ellipse id="Oval-Copy-37" fill="url(#linearGradient-4)" transform="translate(426.092498, 420.640975) scale(-1, -1) translate(-426.092498, -420.640975) " cx="426.092498" cy="420.640975" rx="2.67982703" ry="2.67924188"></ellipse>
                                <ellipse id="Oval-Copy-51" fill="url(#linearGradient-5)" transform="translate(242.970984, 453.684958) scale(-1, -1) translate(-242.970984, -453.684958) " cx="242.970984" cy="453.684958" rx="3.57310271" ry="3.57232251"></ellipse>
                                <ellipse id="Oval-Copy-80" fill="url(#linearGradient-4)" transform="translate(243.031280, 526.024489) scale(-1, -1) translate(-243.031280, -526.024489) " cx="243.03128" cy="526.024489" rx="2.67982703" ry="2.67924188"></ellipse>
                                <ellipse id="Oval-Copy-35" fill="url(#linearGradient-5)" transform="translate(305.500282, 141.106739) scale(-1, -1) translate(-305.500282, -141.106739) " cx="305.500282" cy="141.106739" rx="3.57310271" ry="3.57232251"></ellipse>
                                <ellipse id="Oval-Copy-8" fill="url(#linearGradient-6)" transform="translate(546.684715, 350.087606) scale(-1, -1) translate(-546.684715, -350.087606) " cx="546.684715" cy="350.087606" rx="1.78655135" ry="1.78616125"></ellipse>
                                <ellipse id="Oval-Copy-33" fill="url(#linearGradient-5)" transform="translate(425.259519, 282.213478) scale(-1, -1) translate(-425.259519, -282.213478) " cx="425.259519" cy="282.213478" rx="3.57310271" ry="3.57232251"></ellipse>
                                <ellipse id="Oval-Copy-9" fill="url(#linearGradient-5)" transform="translate(727.126401, 108.955836) scale(-1, -1) translate(-727.126401, -108.955836) " cx="727.126401" cy="108.955836" rx="3.57310271" ry="3.57232251"></ellipse>
                                <ellipse id="Oval-Copy-6" fill="url(#linearGradient-4)" transform="translate(665.490380, 350.980686) scale(-1, -1) translate(-665.490380, -350.980686) " cx="665.49038" cy="350.980686" rx="2.67982703" ry="2.67924188"></ellipse>
                                <ellipse id="Oval-Copy-6" fill="url(#linearGradient-4)" transform="translate(663.703828, 492.087425) scale(-1, -1) translate(-663.703828, -492.087425) " cx="663.703828" cy="492.087425" rx="2.67982703" ry="2.67924188"></ellipse>
                                <ellipse id="Oval-Copy-8" fill="url(#linearGradient-5)" transform="translate(366.243028, 314.364381) scale(-1, -1) translate(-366.243028, -314.364381) " cx="366.243028" cy="314.364381" rx="3.57310271" ry="3.57232251"></ellipse>
                                <ellipse id="Oval-Copy-70" fill="url(#linearGradient-5)" transform="translate(484.215713, 385.810831) scale(-1, -1) translate(-484.215713, -385.810831) " cx="484.215713" cy="385.810831" rx="3.57310271" ry="3.57232251"></ellipse>
                                <ellipse id="Oval-Copy-66" fill="url(#linearGradient-3)" transform="translate(184.075086, 209.873947) scale(-1, -1) translate(-184.075086, -209.873947) " cx="184.075086" cy="209.873947" rx="4.46637839" ry="4.46540313"></ellipse>
                                <ellipse id="Oval-Copy-52" fill="url(#linearGradient-5)" transform="translate(303.713730, 419.747895) scale(-1, -1) translate(-303.713730, -419.747895) " cx="303.71373" cy="419.747895" rx="3.57310271" ry="3.57232251"></ellipse>
                                <ellipse id="Oval-Copy-82" fill="url(#linearGradient-4)" transform="translate(184.075086, 418.854814) scale(-1, -1) translate(-184.075086, -418.854814) " cx="184.075086" cy="418.854814" rx="2.67982703" ry="2.67924188"></ellipse>
                                <ellipse id="Oval-Copy-10" fill="url(#linearGradient-4)" transform="translate(545.791439, 6.251564) scale(-1, -1) translate(-545.791439, -6.251564) " cx="545.791439" cy="6.25156439" rx="2.67982703" ry="2.67924188"></ellipse>
                                <ellipse id="Oval-Copy-60" fill="url(#linearGradient-4)" transform="translate(547.577990, 213.446270) scale(-1, -1) translate(-547.577990, -213.446270) " cx="547.57799" cy="213.44627" rx="2.67982703" ry="2.67924188"></ellipse>
                                <ellipse id="Oval-Copy-41" fill="url(#linearGradient-5)" transform="translate(668.170207, 73.232611) scale(-1, -1) translate(-668.170207, -73.232611) " cx="668.170207" cy="73.2326114" rx="3.57310271" ry="3.57232251"></ellipse>
                                <ellipse id="Oval-Copy-62" fill="url(#linearGradient-5)" transform="translate(605.701205, 107.169675) scale(-1, -1) translate(-605.701205, -107.169675) " cx="605.701205" cy="107.169675" rx="3.57310271" ry="3.57232251"></ellipse>
                                <ellipse id="Oval-Copy-59" fill="url(#linearGradient-4)" transform="translate(605.701205, 317.043623) scale(-1, -1) translate(-605.701205, -317.043623) " cx="605.701205" cy="317.043623" rx="2.67982703" ry="2.67924188"></ellipse>
                                <ellipse id="Oval-Copy-10" fill="url(#linearGradient-4)" transform="translate(486.835244, 40.188628) scale(-1, -1) translate(-486.835244, -40.188628) " cx="486.835244" cy="40.1886282" rx="2.67982703" ry="2.67924188"></ellipse>
                                <ellipse id="Oval-Copy-54" fill="url(#linearGradient-4)" transform="translate(305.560578, 2.679242) scale(-1, -1) translate(-305.560578, -2.679242) " cx="305.560578" cy="2.67924188" rx="2.67982703" ry="2.67924188"></ellipse>
                                <ellipse id="Oval-Copy-64" fill="url(#linearGradient-4)" transform="translate(245.650811, 106.276595) scale(-1, -1) translate(-245.650811, -106.276595) " cx="245.650811" cy="106.276595" rx="2.67982703" ry="2.67924188"></ellipse>
                                <ellipse id="Oval-Copy-55" fill="url(#linearGradient-4)" transform="translate(305.560578, 72.339531) scale(-1, -1) translate(-305.560578, -72.339531) " cx="305.560578" cy="72.3395308" rx="2.67982703" ry="2.67924188"></ellipse>
                                <ellipse id="Oval-Copy-59" fill="url(#linearGradient-5)" transform="translate(603.974950, 525.131409) scale(-1, -1) translate(-603.974950, -525.131409) " cx="603.97495" cy="525.131409" rx="3.57310271" ry="3.57232251"></ellipse>
                                <ellipse id="Oval-Copy-57" fill="url(#linearGradient-4)" transform="translate(545.791439, 281.320397) scale(-1, -1) translate(-545.791439, -281.320397) " cx="545.791439" cy="281.320397" rx="2.67982703" ry="2.67924188"></ellipse>
                                <ellipse id="Oval-Copy-78" fill="url(#linearGradient-5)" transform="translate(485.941969, 176.829964) scale(-1, -1) translate(-485.941969, -176.829964) " cx="485.941969" cy="176.829964" rx="3.57310271" ry="3.57232251"></ellipse>
                                <ellipse id="Oval-Copy-77" fill="url(#linearGradient-4)" transform="translate(484.215713, 315.257461) scale(-1, -1) translate(-484.215713, -315.257461) " cx="484.215713" cy="315.257461" rx="2.67982703" ry="2.67924188"></ellipse>
                                <ellipse id="Oval-Copy-42" fill="url(#linearGradient-5)" transform="translate(484.155417, 455.471120) scale(-1, -1) translate(-484.155417, -455.471120) " cx="484.155417" cy="455.47112" rx="3.57310271" ry="3.57232251"></ellipse>
                                <ellipse id="Oval-Copy-53" fill="url(#linearGradient-4)" transform="translate(303.774026, 350.980686) scale(-1, -1) translate(-303.774026, -350.980686) " cx="303.774026" cy="350.980686" rx="2.67982703" ry="2.67924188"></ellipse>
                                <ellipse id="Oval-Copy-43" fill="url(#linearGradient-4)" transform="translate(304.607006, 558.175392) scale(-1, -1) translate(-304.607006, -558.175392) " cx="304.607006" cy="558.175392" rx="2.67982703" ry="2.67924188"></ellipse>
                                <ellipse id="Oval-Copy-83" fill="url(#linearGradient-5)" transform="translate(184.135382, 350.087606) scale(-1, -1) translate(-184.135382, -350.087606) " cx="184.135382" cy="350.087606" rx="3.57310271" ry="3.57232251"></ellipse>
                                <ellipse id="Oval-Copy-81" fill="url(#linearGradient-4)" transform="translate(243.031280, 593.898617) scale(-1, -1) translate(-243.031280, -593.898617) " cx="243.03128" cy="593.898617" rx="2.67982703" ry="2.67924188"></ellipse>
                                <ellipse id="Oval-Copy-30" fill="url(#linearGradient-3)" transform="translate(603.914654, 665.345067) scale(-1, -1) translate(-603.914654, -665.345067) " cx="603.914654" cy="665.345067" rx="4.46637839" ry="4.46540313"></ellipse>
                                <ellipse id="Oval-Copy-31" fill="url(#linearGradient-5)" transform="translate(544.898163, 628.728761) scale(-1, -1) translate(-544.898163, -628.728761) " cx="544.898163" cy="628.728761" rx="3.57310271" ry="3.57232251"></ellipse>
                                <ellipse id="Oval-Copy-32" fill="url(#linearGradient-3)" transform="translate(603.914654, 595.684778) scale(-1, -1) translate(-603.914654, -595.684778) " cx="603.914654" cy="595.684778" rx="4.46637839" ry="4.46540313"></ellipse>
                                <ellipse id="Oval-Copy-28" fill="url(#linearGradient-4)" transform="translate(486.835244, 108.062756) scale(-1, -1) translate(-486.835244, -108.062756) " cx="486.835244" cy="108.062756" rx="2.67982703" ry="2.67924188"></ellipse>
                                <ellipse id="Oval-Copy-72" fill="url(#linearGradient-5)" transform="translate(425.259519, 212.553189) scale(-1, -1) translate(-425.259519, -212.553189) " cx="425.259519" cy="212.553189" rx="3.57310271" ry="3.57232251"></ellipse>
                                <ellipse id="Oval-Copy-11" fill="url(#linearGradient-6)" transform="translate(428.772325, 71.446450) scale(-1, -1) translate(-428.772325, -71.446450) " cx="428.772325" cy="71.4464501" rx="1.78655135" ry="1.78616125"></ellipse>
                                <ellipse id="Oval-Copy-56" fill="url(#linearGradient-5)" transform="translate(366.243028, 37.509386) scale(-1, -1) translate(-366.243028, -37.509386) " cx="366.243028" cy="37.5093863" rx="3.57310271" ry="3.57232251"></ellipse>
                                <ellipse id="Oval-Copy-74" fill="url(#linearGradient-4)" transform="translate(364.516773, 175.936883) scale(-1, -1) translate(-364.516773, -175.936883) " cx="364.516773" cy="175.936883" rx="2.67982703" ry="2.67924188"></ellipse>
                                <ellipse id="Oval-Copy-12" fill="url(#linearGradient-5)" transform="translate(364.456476, 593.005536) scale(-1, -1) translate(-364.456476, -593.005536) " cx="364.456476" cy="593.005536" rx="3.57310271" ry="3.57232251"></ellipse>
                                <ellipse id="Oval-Copy-13" fill="url(#linearGradient-5)" transform="translate(546.684715, 142.892900) scale(-1, -1) translate(-546.684715, -142.892900) " cx="546.684715" cy="142.8929" rx="3.57310271" ry="3.57232251"></ellipse>
                                <ellipse id="Oval-Copy-73" fill="url(#linearGradient-5)" transform="translate(484.276009, 246.490253) scale(-1, -1) translate(-484.276009, -246.490253) " cx="484.276009" cy="246.490253" rx="3.57310271" ry="3.57232251"></ellipse>
                                <ellipse id="Oval-Copy-19" fill="url(#linearGradient-5)" transform="translate(425.259519, 141.939719) scale(-1, -1) translate(-425.259519, -141.939719) " cx="425.259519" cy="141.939719" rx="3.57310271" ry="3.57232251"></ellipse>
                                <ellipse id="Oval-Copy-20" fill="url(#linearGradient-6)" transform="translate(364.456476, 105.383514) scale(-1, -1) translate(-364.456476, -105.383514) " cx="364.456476" cy="105.383514" rx="1.78655135" ry="1.78616125"></ellipse>
                                <ellipse id="Oval-Copy-21" fill="url(#linearGradient-4)" transform="translate(184.075086, 140.213658) scale(-1, -1) translate(-184.075086, -140.213658) " cx="184.075086" cy="140.213658" rx="2.67982703" ry="2.67924188"></ellipse>
                                <ellipse id="Oval-Copy-22" fill="url(#linearGradient-4)" transform="translate(367.136303, 384.917750) scale(-1, -1) translate(-367.136303, -384.917750) " cx="367.136303" cy="384.91775" rx="2.67982703" ry="2.67924188"></ellipse>
                                <ellipse id="Oval-Copy-23" fill="url(#linearGradient-4)" transform="translate(247.437363, 313.471300) scale(-1, -1) translate(-247.437363, -313.471300) " cx="247.437363" cy="313.4713" rx="2.67982703" ry="2.67924188"></ellipse>
                                <ellipse id="Oval-Copy-24" fill="url(#linearGradient-4)" transform="translate(363.563201, 524.238328) scale(-1, -1) translate(-363.563201, -524.238328) " cx="363.563201" cy="524.238328" rx="2.67982703" ry="2.67924188"></ellipse>
                                <ellipse id="Oval-Copy-68" fill="url(#linearGradient-4)" transform="translate(424.305947, 490.301264) scale(-1, -1) translate(-424.305947, -490.301264) " cx="424.305947" cy="490.301264" rx="2.67982703" ry="2.67924188"></ellipse>
                                <ellipse id="Oval-Copy-24" fill="url(#linearGradient-6)" transform="translate(543.171908, 560.854634) scale(-1, -1) translate(-543.171908, -560.854634) " cx="543.171908" cy="560.854634" rx="1.78655135" ry="1.78616125"></ellipse>
                                <ellipse id="Oval-Copy-44" fill="url(#linearGradient-4)" transform="translate(665.490380, 559.961553) scale(-1, -1) translate(-665.490380, -559.961553) " cx="665.49038" cy="559.961553" rx="2.67982703" ry="2.67924188"></ellipse>
                                <ellipse id="Oval-Copy-45" fill="url(#linearGradient-4)" transform="translate(485.048693, 524.238328) scale(-1, -1) translate(-485.048693, -524.238328) " cx="485.048693" cy="524.238328" rx="2.67982703" ry="2.67924188"></ellipse>
                                <ellipse id="Oval-Copy-50" fill="url(#linearGradient-6)" transform="translate(485.941969, 668.024309) scale(-1, -1) translate(-485.941969, -668.024309) " cx="485.941969" cy="668.024309" rx="1.78655135" ry="1.78616125"></ellipse>
                                <ellipse id="Oval-Copy-46" fill="url(#linearGradient-5)" transform="translate(424.366243, 558.235493) scale(-1, -1) translate(-424.366243, -558.235493) " cx="424.366243" cy="558.235493" rx="3.57310271" ry="3.57232251"></ellipse>
                                <ellipse id="Oval-Copy-49" fill="url(#linearGradient-4)" transform="translate(363.563201, 663.558906) scale(-1, -1) translate(-363.563201, -663.558906) " cx="363.563201" cy="663.558906" rx="2.67982703" ry="2.67924188"></ellipse>
                                <ellipse id="Oval-Copy-25" fill="url(#linearGradient-6)" transform="translate(301.927179, 628.728761) scale(-1, -1) translate(-301.927179, -628.728761) " cx="301.927179" cy="628.728761" rx="1.78655135" ry="1.78616125"></ellipse>
                                <ellipse id="Oval-Copy-26" fill="url(#linearGradient-5)" transform="translate(786.082596, 214.339350) scale(-1, -1) translate(-786.082596, -214.339350) " cx="786.082596" cy="214.33935" rx="3.57310271" ry="3.57232251"></ellipse>
                                <ellipse id="Oval-Copy-29" fill="url(#linearGradient-5)" transform="translate(605.701205, 39.295548) scale(-1, -1) translate(-605.701205, -39.295548) " cx="605.701205" cy="39.2955476" rx="3.57310271" ry="3.57232251"></ellipse>
                                <ellipse id="Oval-Copy-14" fill="url(#linearGradient-5)" transform="translate(184.255974, 280.427317) scale(-1, -1) translate(-184.255974, -280.427317) " cx="184.255974" cy="280.427317" rx="3.57310271" ry="3.57232251"></ellipse>
                                <ellipse id="Oval-Copy-15" fill="url(#linearGradient-4)" transform="translate(606.534185, 384.917750) scale(-1, -1) translate(-606.534185, -384.917750) " cx="606.534185" cy="384.91775" rx="2.67982703" ry="2.67924188"></ellipse>
                                <ellipse id="Oval-Copy-63" fill="url(#linearGradient-5)" transform="translate(425.259519, 351.873767) scale(-1, -1) translate(-425.259519, -351.873767) " cx="425.259519" cy="351.873767" rx="3.57310271" ry="3.57232251"></ellipse>
                                <ellipse id="Oval-Copy-16" fill="url(#linearGradient-5)" transform="translate(603.854358, 457.257281) scale(-1, -1) translate(-603.854358, -457.257281) " cx="603.854358" cy="457.257281" rx="3.57310271" ry="3.57232251"></ellipse>
                                <ellipse id="Oval-Copy-69" fill="url(#linearGradient-4)" transform="translate(545.791439, 420.640975) scale(-1, -1) translate(-545.791439, -420.640975) " cx="545.791439" cy="420.640975" rx="2.67982703" ry="2.67924188"></ellipse>
                                <ellipse id="Oval-Copy-76" fill="url(#linearGradient-5)" transform="translate(303.834323, 280.427317) scale(-1, -1) translate(-303.834323, -280.427317) " cx="303.834323" cy="280.427317" rx="3.57310271" ry="3.57232251"></ellipse>
                                <ellipse id="Oval-Copy-17" fill="url(#linearGradient-4)" transform="translate(665.490380, 631.408003) scale(-1, -1) translate(-665.490380, -631.408003) " cx="665.49038" cy="631.408003" rx="2.67982703" ry="2.67924188"></ellipse>
                            </g>
                        </g>
                    </g>
                </g>
            </g>
        </g>
    </g>
</svg>