<?xml version="1.0" encoding="UTF-8"?>
<svg width="75px" height="85px" viewBox="0 0 75 85" version="1.1" xmlns="http://www.w3.org/2000/svg" xmlns:xlink="http://www.w3.org/1999/xlink">
    <title>stack-overflow</title>
    <defs>
        <linearGradient x1="-3.08347436%" y1="61.6222938%" x2="112.70225%" y2="37.4753312%" id="linearGradient-1">
            <stop stop-color="#FFC500" offset="0%"></stop>
            <stop stop-color="#DD2222" offset="32.9878827%"></stop>
            <stop stop-color="#720096" offset="100%"></stop>
        </linearGradient>
    </defs>
    <g id="Docs" stroke="none" stroke-width="1" fill="none" fill-rule="evenodd">
        <g id="Docs_LandingPage_Design_DarkMode" transform="translate(-346.000000, -2476.000000)" fill-rule="nonzero">
            <g id="Group-10" transform="translate(47.000000, 2407.452708)">
                <g id="Group-8" transform="translate(283.500000, 69.300000)">
                    <g id="stack-overflow" transform="translate(15.500000, 0.000000)">
                        <path d="M0,52.4309023 L0,81.1476091 C0,82.6899958 1.2517921,83.9417879 2.79417879,83.9417879 L71.7172557,83.9417879 C73.2596424,83.9417879 74.5114345,82.6899958 74.5114345,81.1476091 L74.5114345,52.4309023 C74.5114345,48.7351351 68.9230769,48.7314096 68.9230769,52.4309023 L68.9230769,78.3534304 L5.58835759,78.3534304 L5.58835759,52.4309023 C5.58835759,48.7351351 0,48.7351351 0,52.4309023 Z" id="Path" fill="url(#linearGradient-1)"></path>
                        <path d="M17.3052807,69.5834345 L53.5811726,69.5834345 C57.2769397,69.5834345 57.2806653,63.9950769 53.5811726,63.9950769 L17.3052807,63.9950769 C13.6095135,63.9950769 13.6057879,69.5834345 17.3052807,69.5834345 Z" id="Path" fill="#FFFFFF"></path>
                        <path d="M17.2903784,52.3452141 C55.1161081,60.0906778 52.8248815,59.6957672 53.3762661,59.6957672 C56.718104,59.6957672 57.213605,54.8376216 53.9351019,54.1632931 L18.415501,46.8686237 C14.7942453,46.1272349 13.6653971,51.6000998 17.2903784,52.3452141 L17.2903784,52.3452141 Z" id="Path" fill="#FFFFFF"></path>
                        <path d="M21.8094969,32.9983202 C55.7904366,49.8528067 54.1921663,49.4690728 55.4365073,49.4690728 C58.3797089,49.4690728 59.3111019,45.4864366 56.6845738,44.1750353 L24.3056299,27.9986029 C21.008499,26.3444491 18.5011892,31.3441663 21.8094969,32.9983202 L21.8094969,32.9983202 Z" id="Path" fill="#FFFFFF"></path>
                        <path d="M30.072815,18.446237 L58.4467692,40.2818129 C61.3303617,42.5059792 64.824948,38.1396091 61.8556674,35.8558337 L33.4817131,14.0202578 C30.5534137,11.7588358 27.14079,16.1922661 30.072815,18.446237 L30.072815,18.446237 Z" id="Path" fill="#FFFFFF"></path>
                        <path d="M69.6570146,29.2094137 L48.3392931,1.21919335 C46.1039501,-1.72028274 41.6518919,1.66253638 43.8946861,4.60573805 L65.2124075,32.5959584 C67.4328482,35.5168067 71.914711,32.1749688 69.6570146,29.2094137 Z" id="Path" fill="#FFFFFF"></path>
                    </g>
                </g>
            </g>
        </g>
    </g>
</svg>