<?xml version="1.0" encoding="UTF-8"?>
<svg width="193px" height="153px" viewBox="0 0 193 153" version="1.1" xmlns="http://www.w3.org/2000/svg" xmlns:xlink="http://www.w3.org/1999/xlink">
    <title>PlaygroundImage</title>
    <defs>
        <linearGradient x1="92.757704%" y1="100%" x2="7.242296%" y2="2.83276945e-14%" id="linearGradient-1">
            <stop stop-color="#FB6E00" offset="0%"></stop>
            <stop stop-color="#FFC500" offset="100%"></stop>
        </linearGradient>
        <linearGradient x1="16.8281838%" y1="100%" x2="110.408243%" y2="-94.5146543%" id="linearGradient-2">
            <stop stop-color="#DD2222" offset="0%"></stop>
            <stop stop-color="#720096" offset="100%"></stop>
        </linearGradient>
        <linearGradient x1="-2.12228153%" y1="130.106353%" x2="141.623408%" y2="0%" id="linearGradient-3">
            <stop stop-color="#F9F4CB" offset="0%"></stop>
            <stop stop-color="#FFC500" offset="100%"></stop>
        </linearGradient>
        <linearGradient x1="1.11022302e-14%" y1="33.1775523%" x2="100%" y2="66.8224477%" id="linearGradient-4">
            <stop stop-color="#FB6E00" offset="0%"></stop>
            <stop stop-color="#FFC500" offset="100%"></stop>
        </linearGradient>
        <linearGradient x1="1.11022302e-14%" y1="33.1780925%" x2="100%" y2="66.8219075%" id="linearGradient-5">
            <stop stop-color="#FB6E00" offset="0%"></stop>
            <stop stop-color="#FFC500" offset="100%"></stop>
        </linearGradient>
        <linearGradient x1="-2.11920284%" y1="130.106353%" x2="141.617996%" y2="0%" id="linearGradient-6">
            <stop stop-color="#F9F4CB" offset="0%"></stop>
            <stop stop-color="#FFC500" offset="100%"></stop>
        </linearGradient>
        <linearGradient x1="42.2202793%" y1="100%" x2="64.1674263%" y2="-94.5146543%" id="linearGradient-7">
            <stop stop-color="#DD2222" offset="0%"></stop>
            <stop stop-color="#720096" offset="100%"></stop>
        </linearGradient>
        <linearGradient x1="33.7284339%" y1="130.106353%" x2="78.6030521%" y2="0%" id="linearGradient-8">
            <stop stop-color="#F9F4CB" offset="0%"></stop>
            <stop stop-color="#FFC500" offset="100%"></stop>
        </linearGradient>
    </defs>
    <g id="Docs" stroke="none" stroke-width="1" fill="none" fill-rule="evenodd">
        <g id="Docs_LandingPage_Design" transform="translate(-475.000000, -1983.000000)">
            <g id="LearnWithUs" transform="translate(130.000000, 1760.000000)">
                <g id="Playground_Card" transform="translate(299.000000, 223.000000)">
                    <g id="PlaygroundImage" transform="translate(46.840909, 0.000000)">
                        <g id="Group-3" transform="translate(0.880682, 41.659277)">
                            <polygon id="Fill-56" fill="url(#linearGradient-1)" points="88.7366154 7.40290268 88.7366154 30.1692488 67.6835413 14.662819"></polygon>
                            <polygon id="Fill-57" fill="url(#linearGradient-2)" points="29.1085792 10.84704 28.5006463 41.9459197 53.8311816 13.5285832"></polygon>
                            <polygon id="Fill-58" fill="#FB6E00" points="46.6209928 54.6619646 46.6209928 109.781503 94.238013 82.4508281 94.238013 27.3312895"></polygon>
                            <polygon id="Fill-59" fill="url(#linearGradient-3)" points="-1.20051934e-14 27.8835733 -1.20051934e-14 83.0031119 46.6213437 109.781679 46.6213437 54.6621402"></polygon>
                            <path d="M73.2853837,15.0412194 C75.5890369,12.5299607 80.0068577,14.8568907 85.3378936,11.8523334 C91.5330188,8.36237729 87.9977095,3.21872966 84.7834729,1.80466545 C73.4389021,-3.18625271 67.9938239,4.54501833 67.3420286,7.67685019 C66.9156861,9.72026515 65.4954216,9.98359182 64.5567663,9.92127118 L47.6425481,-8.41466958e-14 L29.1089301,10.8473033 C31.2573104,13.2628866 35.4154658,11.0404095 40.4385877,13.8702935 C46.2424603,17.1408107 42.9299719,21.9596888 39.9183796,23.2842219 C29.2887659,27.9609036 24.1875689,20.7167869 23.5761271,17.78245 C23.1576798,15.7741453 21.7102206,15.5994719 20.8382362,15.6881253 L8.77247979e-05,27.8836611 L46.6205542,54.6622279 L94.2384516,27.3315529 L73.2853837,15.0412194 Z" id="Fill-60" fill="url(#linearGradient-4)"></path>
                        </g>
                        <g id="Group" transform="translate(95.953399, 0.272727)">
                            <polygon id="Fill-16" fill="#FB6E00" points="46.6203787 54.6617013 46.6203787 109.78124 94.2382761 82.449687 94.2382761 27.3301484"></polygon>
                            <path d="M47.6415831,-7.16727616e-14 L27.9728062,11.5108865 C27.1718788,11.4125779 26.2630499,10.9473674 25.9463634,9.42358377 C25.3349216,6.49012466 20.2337246,-0.753992032 9.60411084,3.92268963 C6.59164129,5.24722278 3.28090743,10.0661008 9.08478004,13.3357403 C13.9043804,16.0515161 17.9256851,14.1213316 20.1407363,16.0954038 L-1.68641792e-13,27.8827833 L16.5510376,37.3897539 C17.4896929,37.450319 18.9082029,37.1852368 19.3336682,35.1444552 C19.9863406,32.0126233 25.4305416,24.2813523 36.7759897,29.2731482 C39.9902262,30.6863346 43.5255356,35.8291045 37.3304104,39.3199384 C32.0502548,42.2955298 27.6675239,40.0458422 25.347203,42.4421149 L46.6204665,54.6613502 L94.2383639,27.3306751 L47.6415831,-7.16727616e-14 Z" id="Fill-18" fill="url(#linearGradient-5)"></path>
                            <path d="M0.00035089919,27.8824322 L0.00035089919,83.0019708 L15.8118684,92.0841077 C16.3934838,92.2403482 18.7629306,92.6994143 19.334019,89.9581837 C19.9858143,86.8254741 25.4300152,79.0950808 36.7763406,84.085999 C39.9905771,85.5000632 43.5250092,90.6428331 37.3307613,94.1336669 C31.9427042,97.1698235 27.48453,94.7533624 25.202808,97.3954066 L46.6208174,109.781415 L46.6208174,54.6618768 L0.00035089919,27.8824322 Z" id="Fill-20" fill="url(#linearGradient-6)"></path>
                            <path d="M36.8909969,29.2316303 C25.5455488,24.2398344 19.9074761,31.8833299 19.3583188,35.0344724 C18.9065361,37.6273623 16.550248,37.3894906 16.550248,37.3894906 L15.3589453,91.8243798 L15.7975693,92.0455742 C15.7975693,92.0455742 18.7968801,93.0892256 19.4486754,89.9582715 C19.8127333,88.2115379 21.6672355,85.0384515 25.2025448,83.4347921 L25.3174643,42.541038 C27.5991863,39.898116 32.0582378,42.3145771 37.4454176,39.2784205 C43.6396656,35.7884644 40.1061107,30.6456945 36.8909969,29.2316303" id="Fill-22" fill="url(#linearGradient-7)"></path>
                            <polygon id="Fill-24" fill="url(#linearGradient-8)" points="25.2023694 97.39567 46.6203787 109.780801 46.6203787 54.6612624 25.3471153 42.4420272"></polygon>
                        </g>
                    </g>
                </g>
            </g>
        </g>
    </g>
</svg>