<?xml version="1.0" encoding="UTF-8"?>
<svg width="129px" height="205px" viewBox="0 0 129 205" version="1.1" xmlns="http://www.w3.org/2000/svg" xmlns:xlink="http://www.w3.org/1999/xlink">
    <title>TutorialsImage</title>
    <defs>
        <linearGradient x1="32.3055569%" y1="104.897426%" x2="70.9006928%" y2="-9.15975721%" id="linearGradient-1">
            <stop stop-color="#FFC500" offset="0%"></stop>
            <stop stop-color="#DD2222" offset="32.9878827%"></stop>
            <stop stop-color="#720096" offset="100%"></stop>
        </linearGradient>
        <linearGradient x1="87.4997427%" y1="100%" x2="12.5002573%" y2="0%" id="linearGradient-2">
            <stop stop-color="#FB6E00" offset="0%"></stop>
            <stop stop-color="#FFC500" offset="100%"></stop>
        </linearGradient>
        <linearGradient x1="30.5384562%" y1="104.897426%" x2="72.9879939%" y2="-9.15975721%" id="linearGradient-3">
            <stop stop-color="#FFC500" offset="0%"></stop>
            <stop stop-color="#DD2222" offset="32.9878827%"></stop>
            <stop stop-color="#720096" offset="100%"></stop>
        </linearGradient>
        <linearGradient x1="70.4754266%" y1="100%" x2="29.5245734%" y2="0%" id="linearGradient-4">
            <stop stop-color="#FB6E00" offset="0%"></stop>
            <stop stop-color="#FFC500" offset="100%"></stop>
        </linearGradient>
    </defs>
    <g id="Docs" stroke="none" stroke-width="1" fill="none" fill-rule="evenodd">
        <g id="Docs_LandingPage_Design" transform="translate(-806.000000, -1939.000000)">
            <g id="LearnWithUs" transform="translate(130.000000, 1760.000000)">
                <g id="Tutorials_Card" transform="translate(600.000000, 180.000000)">
                    <g id="TutorialsImage" transform="translate(76.500000, 0.000000)">
                        <path d="M62.3247177,202.917974 C45.5447613,193.230035 29.9774939,182.69764 22.8707235,170.338244 L44.4441945,157.88266 L62.3247177,202.917974 Z" id="Fill-1" fill="#3E323F" opacity="0.35000465"></path>
                        <polygon id="Fill-3" fill="#27DEBF" points="0 92.2014788 0 183.542627 93.4862209 129.568232 93.4856308 46.5311997 23.9711134 86.665598 21.5734709 79.7458945"></polygon>
                        <polygon id="Fill-5" fill="#C85800" points="0 92.2014788 0 183.542627 93.4862209 129.568232 93.4856308 46.5311997 23.9711134 86.665598 21.5734709 79.7458945"></polygon>
                        <path d="M26.933025,119.207914 C26.6975686,119.207914 26.6627517,118.935871 26.6627517,118.773589 L26.6627517,40.864077 C26.6627517,40.3170392 27.0628506,39.6230625 27.536714,39.3492485 L95.0082488,0.395082849 C95.1215512,0.329579942 95.2283622,0.295353198 95.3168797,0.295353198 C95.5529262,0.295353198 95.587743,0.567396802 95.587743,0.729678779 L95.587743,78.6386003 C95.587743,79.1862282 95.1876442,79.8802049 94.7131907,80.1534288 L27.2416558,119.108185 C27.1283535,119.173097 27.0215424,119.207914 26.933025,119.207914" id="Fill-7" stroke="#979797" fill="#FFFFFF"></path>
                        <path d="M95.3170567,0.000118023256 C95.1801497,0.000118023256 95.0249491,0.0449668605 94.8608968,0.139385465 L27.3893619,39.0941413 C26.8252108,39.4198855 26.3672805,40.2124116 26.3672805,40.8644901 L26.3672805,118.773412 C26.3672805,119.235473 26.5974259,119.502795 26.933202,119.502795 C27.0706991,119.502795 27.2253096,119.457947 27.3893619,119.363528 L94.8608968,80.4093622 C95.4256381,80.083618 95.8829782,79.2905017 95.8829782,78.6390134 L95.8829782,0.729501744 C95.8829782,0.267440698 95.6522427,0.000118023256 95.3170567,0.000118023256 M95.278109,0.596725581 C95.2851904,0.625051163 95.2928619,0.668719767 95.2928619,0.729501744 L95.2928619,78.6390134 C95.2928619,79.0780599 94.9458735,79.6782081 94.5658387,79.8983215 L27.0943038,118.852487 C27.0400131,118.883763 26.9992951,118.899106 26.9721497,118.906778 C26.9644782,118.878452 26.9573968,118.834784 26.9573968,118.773412 L26.9573968,40.8644901 C26.9573968,40.4248535 27.3037951,39.8247052 27.6844201,39.605182 L95.1559549,0.651016279 C95.2102456,0.61915 95.2515538,0.603806977 95.278109,0.596725581" id="Fill-11" fill="#FFFFFF"></path>
                        <polygon id="Fill-13" fill="url(#linearGradient-1)" points="33.5588506 43.8358436 57.5293738 29.9964366 57.5293738 57.6752506 33.5588506 71.5146576"></polygon>
                        <path d="M53.9339724,36.9160811 L53.9339724,45.2196073 L53.1833445,45.6391799 L53.1833445,43.0951887 C53.1833445,41.6901218 52.039109,41.2121276 50.6275509,42.0264881 L40.4604375,47.8963747 C39.0488794,48.7113253 37.905234,50.5105898 37.905234,51.9156567 L37.905234,54.459648 L37.154016,54.9075462 L37.154016,46.6040201 L53.9339724,36.9160811 Z" id="Fill-17" fill="#FFFFFF"></path>
                        <path d="M49.3104703,58.0795983 C48.080668,58.7895081 47.0839616,58.0441913 47.0839616,56.4142901 L47.0839616,43.0953657 L44.0047349,44.7712959 L44.0047349,58.1917203 C44.0047349,59.8216215 43.0080285,61.7182552 41.7782262,62.4281651 L39.5517174,63.7134384 L39.5517174,64.5950721 L51.5369791,57.6753686 L51.5369791,56.7937349 C51.5369791,56.7937349 50.5402727,57.3696884 49.3104703,58.0795983" id="Fill-19" fill="#FFFFFF"></path>
                        <path d="M62.3235375,28.6123779 C62.3241276,29.3765785 63.0104328,29.6002326 63.8572497,29.1116163 L87.1585811,15.6581453 C88.005398,15.1695291 88.6917032,14.1533488 88.6917032,13.3891483 C88.6917032,12.6249477 88.005398,12.4012936 87.1585811,12.8899099 L63.8572497,26.3433808 C63.0098427,26.8319971 62.3235375,27.8481773 62.3235375,28.6123779" id="Fill-21" fill="#E6E6E6"></path>
                        <path d="M62.3235375,36.9160811 C62.3241276,37.6802817 63.0104328,37.9039358 63.8572497,37.4153195 L87.1585811,23.9618485 C88.005398,23.4732323 88.6917032,22.457052 88.6917032,21.6928515 C88.6917032,20.9286509 88.005398,20.7049968 87.1585811,21.1936131 L63.8572497,34.647084 C63.0098427,35.1357003 62.3235375,36.1518805 62.3235375,36.9160811" id="Fill-23" fill="#E6E6E6"></path>
                        <path d="M62.3235375,45.2197843 C62.3241276,45.9839849 63.0104328,46.207639 63.8572497,45.7190227 L87.1585811,32.2655517 C88.005398,31.7769355 88.6917032,30.7607552 88.6917032,29.9965547 C88.6917032,29.2323541 88.005398,29.0087 87.1585811,29.4973163 L63.8572497,42.9507872 C63.0098427,43.4394035 62.3235375,44.4555837 62.3235375,45.2197843" id="Fill-25" fill="#E6E6E6"></path>
                        <path d="M62.3235375,53.5234875 C62.3241276,54.2876881 63.0104328,54.5113422 63.8572497,54.0227259 L87.1585811,40.5692549 C88.005398,40.0806387 88.6917032,39.0644584 88.6917032,38.3002578 C88.6917032,37.5360573 88.005398,37.3124032 87.1585811,37.8010195 L63.8572497,51.2544904 C63.0098427,51.7431067 62.3235375,52.7592869 62.3235375,53.5234875" id="Fill-27" fill="#E6E6E6"></path>
                        <path d="M33.5588506,78.4374297 C33.5588506,79.2016302 34.2457459,79.4252843 35.0919727,78.9360779 L87.1585221,48.8731942 C88.005339,48.3845779 88.6916442,47.3683977 88.6916442,46.6041971 C88.6916442,45.8399965 88.005339,45.6163424 87.1585221,46.1049587 L35.0919727,76.1678424 C34.2451558,76.6570488 33.5588506,77.6732291 33.5588506,78.4374297" id="Fill-29" fill="#E6E6E6"></path>
                        <path d="M33.5588506,86.7411328 C33.5588506,87.5053334 34.2457459,87.7289875 35.0919727,87.2397811 L87.1585221,57.1768974 C88.005339,56.6882811 88.6916442,55.6721009 88.6916442,54.9079003 C88.6916442,54.1431096 88.005339,53.9200456 87.1585221,54.4086619 L35.0919727,84.4715456 C34.2451558,84.960752 33.5588506,85.9769323 33.5588506,86.7411328" id="Fill-31" fill="#E6E6E6"></path>
                        <path d="M33.5588506,95.044836 C33.5588506,95.8090366 34.2457459,96.0326907 35.0919727,95.5434843 L87.1585221,65.4806006 C88.005339,64.9919843 88.6916442,63.9758041 88.6916442,63.2116035 C88.6916442,62.4468128 88.005339,62.2237488 87.1585221,62.7123651 L35.0919727,92.775839 C34.2451558,93.2644552 33.5588506,94.2806355 33.5588506,95.044836" id="Fill-33" fill="#E6E6E6"></path>
                        <polygon id="Fill-35" fill="url(#linearGradient-2)" points="0.000590116279 183.542686 16.7799564 110.193003 110.265587 56.2191977 93.4862209 129.568291"></polygon>
                        <polygon id="Fill-37" fill="#27DEBF" points="22.8704875 115.93808 22.8704875 170.338539 44.4445485 157.882365 44.4451387 103.483086"></polygon>
                        <polygon id="Fill-39" fill="#C85800" points="22.8704875 115.93808 22.8704875 170.338539 44.4445485 157.882365 44.4451387 103.483086"></polygon>
                        <path d="M62.3443096,202.56591 C60.5114084,201.200381 42.8203125,187.676687 33.8269404,168.362181 C24.2540741,147.80253 24.2629259,123.822565 24.2657673,114.796146 L24.2657673,114.515251 L88.3967631,77.4895849 C88.3938125,86.5980297 88.4062049,110.612222 98.013298,131.244457 C106.797769,150.109884 123.812001,163.478969 126.510013,165.520181 L62.3443096,202.56591 Z" id="Fill-41" fill="#FFFFFF"></path>
                        <path d="M88.6920573,76.9783081 L23.9708292,114.344471 C23.9708292,122.833884 23.791659,147.508416 33.5598538,168.486459 C43.147473,189.078567 62.3244817,202.917974 62.3244817,202.917974 L127.046075,165.551811 C127.046075,165.551811 107.869066,151.711814 98.2808567,131.119706 C88.5126619,110.141663 88.6920573,85.4677209 88.6920573,76.9783081 M88.101941,78.0003895 C88.1025311,87.4882791 88.2866474,111.053392 97.7462113,131.369326 C106.235624,149.600378 122.381796,162.713942 125.979735,165.485718 L62.3657898,202.213375 C59.8790398,200.339166 42.8518247,187.045616 34.0944991,168.23743 C24.5493683,147.737381 24.5576299,123.805805 24.561029,114.79591 L24.561029,114.685558 L88.101941,78.0003895" id="Fill-43" fill="#27DEBF"></path>
                        <path d="M88.6920573,76.9783081 L23.9708292,114.344471 C23.9708292,122.833884 23.791659,147.508416 33.5598538,168.486459 C43.147473,189.078567 62.3244817,202.917974 62.3244817,202.917974 L127.046075,165.551811 C127.046075,165.551811 107.869066,151.711814 98.2808567,131.119706 C88.5126619,110.141663 88.6920573,85.4677209 88.6920573,76.9783081 M88.101941,78.0003895 C88.1025311,87.4882791 88.2866474,111.053392 97.7462113,131.369326 C106.235624,149.600378 122.381796,162.713942 125.979735,165.485718 L62.3657898,202.213375 C59.8790398,200.339166 42.8518247,187.045616 34.0944991,168.23743 C24.5493683,147.737381 24.5576299,123.805805 24.561029,114.79591 L24.561029,114.685558 L88.101941,78.0003895" id="Fill-45" fill="#FFFFFF"></path>
                        <path d="M81.3732581,89.5073029 L60.9044849,101.324972 C60.057668,101.813588 59.3896564,102.816195 59.417982,103.563873 C59.4468977,104.31214 60.1615285,104.521631 61.0083453,104.033015 L81.4771186,92.2153465 C82.3233453,91.7267302 82.9819151,90.7241227 82.9535895,89.9758552 C82.9246738,89.2281779 82.220075,89.0186866 81.3732581,89.5073029" id="Fill-47" fill="#E6E6E6"></path>
                        <path d="M81.808882,97.5594985 L61.3401087,109.377167 C60.4932919,109.865783 59.8524256,110.853048 59.9149779,111.581251 C59.9781203,112.309455 60.7216669,112.502423 61.5678936,112.013807 L82.037257,100.195548 C82.8834837,99.7069317 83.5131378,98.7214375 83.4499953,97.993234 C83.3880331,97.2650305 82.6556988,97.0702922 81.808882,97.5594985" id="Fill-49" fill="#E6E6E6"></path>
                        <path d="M82.6266651,105.391168 L62.1578919,117.208836 C61.311075,117.697453 60.6997145,118.667604 60.8006244,119.373383 C60.9015343,120.079752 61.6751767,120.255607 62.5219936,119.7664 L82.9907669,107.948732 C83.8375837,107.459525 84.4365517,106.491735 84.3356419,105.785365 C84.2353221,105.078996 83.473482,104.901961 82.6266651,105.391168" id="Fill-51" fill="#E6E6E6"></path>
                        <path d="M83.8535759,112.986318 L63.3848026,124.803397 C62.5379858,125.292603 61.9579015,126.245051 62.0971689,126.928996 C62.2358462,127.613531 63.0413549,127.769911 63.8887619,127.281295 L84.3575352,115.463036 C85.2037619,114.97442 85.7708637,114.025513 85.6321863,113.341568 C85.4929189,112.657033 84.7003927,112.497702 83.8535759,112.986318" id="Fill-53" fill="#E6E6E6"></path>
                        <path d="M85.5178808,120.328781 L65.0491076,132.14645 C64.2028808,132.635066 63.655843,133.56863 63.8375988,134.22779 C64.0181744,134.88754 64.8590901,135.024447 65.705907,134.53524 L86.1740901,122.717572 C87.0214971,122.228956 87.5531919,121.300112 87.3726163,120.639772 C87.1908605,119.980022 86.3652878,119.840165 85.5178808,120.328781" id="Fill-55" fill="#E6E6E6"></path>
                        <path d="M87.6483776,127.403272 L37.7611276,156.205667 C36.9143108,156.694874 36.4044503,157.606603 36.6340055,158.238618 C36.8623805,158.870633 37.7422439,158.984525 38.5884706,158.495319 L88.4757206,129.693513 C89.3225375,129.204307 89.8164648,128.297888 89.5874997,127.665284 C89.3579445,127.033269 88.4951945,126.914066 87.6483776,127.403272" id="Fill-57" fill="#E6E6E6"></path>
                        <path d="M90.3067924,134.159631 L40.4195424,162.962617 C39.5727256,163.451233 39.1083041,164.338178 39.3886093,164.940687 C39.6677343,165.543785 40.5859552,165.634073 41.4327721,165.145457 L91.3200221,136.342472 C92.166839,135.853855 92.6218186,134.971041 92.3421035,134.368533 C92.0623884,133.765434 91.1536093,133.671015 90.3067924,134.159631" id="Fill-59" fill="#E6E6E6"></path>
                        <path d="M93.5605166,140.600219 L43.6732666,169.402615 C42.8264497,169.891231 42.4051067,170.754571 42.7402927,171.324624 C43.0754788,171.895266 44.0426794,171.957228 44.8894962,171.468612 L94.7767462,142.665626 C95.6235631,142.17701 96.0295631,141.323112 95.6937869,140.751879 C95.3580108,140.181237 94.4073334,140.111013 93.5605166,140.600219" id="Fill-61" fill="#E6E6E6"></path>
                        <path d="M97.4008753,146.685794 L47.5136253,175.488189 C46.6668084,175.976805 46.2873637,176.817131 46.6732997,177.358858 C47.0598259,177.899994 48.065384,177.937172 48.9122009,177.448555 L98.7994509,148.64557 C99.6462677,148.156953 100.01332,147.32666 99.6267939,146.785523 C99.2402677,146.244387 98.2476922,146.196587 97.4008753,146.685794" id="Fill-63" fill="#E6E6E6"></path>
                        <path d="M101.754163,152.474598 L51.8669131,181.277584 C51.0200962,181.7662 50.6772387,182.585281 51.1086137,183.100453 C51.5393985,183.615624 52.5803637,183.633328 53.4271805,183.144122 L103.315021,154.341726 C104.161247,153.85311 104.493483,153.04347 104.062108,152.528299 C103.631323,152.012537 102.60098,151.985982 101.754163,152.474598" id="Fill-65" fill="#E6E6E6"></path>
                        <path d="M106.576475,157.990769 L56.6898154,186.793755 C55.8424084,187.282371 55.5337776,188.081978 56.0064608,188.573545 C56.4785538,189.065112 57.5519753,189.062752 58.3987922,188.574135 L108.286042,159.77233 C109.132859,159.282534 109.432048,158.492958 108.959955,158.001391 C108.487272,157.509824 107.423882,157.502153 106.576475,157.990769" id="Fill-67" fill="#E6E6E6"></path>
                        <path d="M111.85064,163.256849 L61.9633895,192.059244 C61.1165727,192.54786 60.8409884,193.329174 61.3537994,193.797727 C61.8660203,194.266279 62.9730785,194.244445 63.8193052,193.755238 L113.707145,164.952843 C114.553372,164.464227 114.819515,163.692945 114.306703,163.224392 C113.794483,162.75584 112.697456,162.767642 111.85064,163.256849" id="Fill-69" fill="#E6E6E6"></path>
                        <path d="M53.4879625,105.607327 L29.9529451,119.195345 C30.2149567,127.718984 31.1868782,140.022319 34.7541311,152.405909 L58.2891485,138.817891 C54.7218956,126.433711 53.749384,114.131557 53.4879625,105.607327" id="Fill-71" fill="url(#linearGradient-3)"></path>
                        <path d="M56.2933163,130.675408 C56.2933163,130.675408 56.2927262,130.675408 56.2927262,130.674818 C54.7230169,128.694978 51.5304878,122.589044 50.166139,119.92821 C49.9241913,119.455527 49.2331651,119.52162 49.0761942,120.02794 C46.7186797,127.59264 46.5221709,135.519672 46.5221709,135.519672 C44.6302581,134.022547 43.2700401,132.533094 41.5268366,129.959007 C41.2736767,129.585463 40.7030343,129.685193 40.589732,130.121879 C38.0156448,140.031111 39.3068192,149.777472 39.3068192,149.777472 L58.2890895,138.817832 C57.5024645,136.085594 56.8474355,133.360437 56.2933163,130.675408" id="Fill-79" fill="#27DEBF"></path>
                        <path d="M56.2933163,130.675408 C56.2933163,130.675408 56.2927262,130.675408 56.2927262,130.674818 C54.7230169,128.694978 51.5304878,122.589044 50.166139,119.92821 C49.9241913,119.455527 49.2331651,119.52162 49.0761942,120.02794 C46.7186797,127.59264 46.5221709,135.519672 46.5221709,135.519672 C44.6302581,134.022547 43.2700401,132.533094 41.5268366,129.959007 C41.2736767,129.585463 40.7030343,129.685193 40.589732,130.121879 C38.0156448,140.031111 39.3068192,149.777472 39.3068192,149.777472 L58.2890895,138.817832 C57.5024645,136.085594 56.8474355,133.360437 56.2933163,130.675408" id="Fill-81" fill="url(#linearGradient-4)"></path>
                    </g>
                </g>
            </g>
        </g>
    </g>
</svg>