<?xml version="1.0" encoding="UTF-8"?>
<svg width="39px" height="54px" viewBox="0 0 39 54" version="1.1" xmlns="http://www.w3.org/2000/svg" xmlns:xlink="http://www.w3.org/1999/xlink">
    <title>Shape</title>
    <g id="Docs" stroke="none" stroke-width="1" fill="none" fill-rule="evenodd">
        <g id="ConnectToMG_IntermediaryFuture_UIDesign_Dark-Mode" transform="translate(-513.000000, -579.000000)" fill="#C9290F" fill-rule="nonzero">
            <g id="Ruby" transform="translate(463.000000, 564.000000)">
                <g id="ruby" transform="translate(50.500000, 15.500000)">
                    <path d="M27.4192017,22.3094707 C21.8958465,25.9181325 16.4229367,29.4942878 10.8055306,33.1636286 C19.2179597,34.3282304 27.4803348,35.4715946 35.9064441,36.63793 C33.0361804,31.7918517 30.2394474,27.0705985 27.4192017,22.3094707 L27.4192017,22.3094707 Z M38.2816578,6.34094682 C37.5399379,7.46957468 36.7969355,8.59776911 36.0564981,9.72726381 C33.5128476,13.6068137 30.9700522,17.4859302 28.4293943,21.3667803 C28.2878904,21.5834908 28.104491,21.7551254 28.303708,22.0879926 C30.7592926,26.1981224 33.1947844,30.3212548 35.6362614,34.4396196 C36.0214427,35.0901842 36.4113266,35.7381484 36.9097966,36.3622744 L38.3902439,6.37345338 L38.2816578,6.34094682 L38.2816578,6.34094682 Z M4.76617766,19.1563341 C4.88117631,19.2668564 5.16803168,19.3305693 5.30098551,19.2642559 C7.65610656,18.0905522 10.0261903,16.9432873 12.3300108,15.6729308 C13.0807083,15.2594473 13.6578391,14.5169975 14.3055081,13.9154093 C16.448587,11.9229738 18.5878184,9.92620397 20.7270498,7.92900076 C20.8582936,7.80634266 21.0126226,7.68801878 21.0912834,7.53328754 C21.8595086,6.01068014 22.6140536,4.48113802 23.395959,2.90652012 C22.4635721,2.5524153 21.5799208,2.20437837 20.6855819,1.88798116 C20.5641706,1.8450725 20.3735037,1.9304564 20.2409774,2.00500478 C18.1705742,3.17784156 16.0612681,4.28783232 14.0562731,5.56685721 C13.0529205,6.20658636 12.2355324,7.14927668 11.3471785,7.97104258 C9.91632166,9.29557665 8.48631986,10.6231447 7.07555576,11.9710835 C6.70106201,12.3286557 6.3599136,12.7373715 6.06878319,13.167325 C5.10347853,14.5915458 4.16809918,16.0361375 3.18868689,17.5223375 C3.73674737,18.0970536 4.23393484,18.6457643 4.76617766,19.1563341 Z M13.3731212,17.2089743 C12.202187,22.2266873 11.0368104,27.2157945 9.83381334,32.3691682 C15.4764423,28.6833575 20.9886824,25.0824972 26.4641571,21.505475 C22.1066061,20.0751862 17.7627351,18.6496651 13.3731212,17.2089743 L13.3731212,17.2089743 Z M22.7085321,8.78283981 L27.5051301,20.6117612 C30.6361714,15.8436986 33.704797,11.1696883 36.8431059,6.38905653 C32.0760058,7.19651955 27.4226217,7.98447863 22.7085321,8.78283981 Z M13.5697732,16.1826337 C17.8627711,17.5960191 22.0706957,18.9807986 26.4000315,20.4054529 C24.7921879,16.4340178 23.2394924,12.6017108 21.6543065,8.68792064 L13.5697732,16.1826337 L13.5697732,16.1826337 Z M4.94359194,22.0823581 L0.453087031,32.9651219 C3.33061831,32.8788711 6.12051121,32.7952209 9.00531005,32.7089702 C7.65097651,29.1653214 6.32314823,25.69102 4.94359194,22.0823581 L4.94359194,22.0823581 Z M9.10705607,30.1851607 L9.21307713,30.1617559 C10.2395149,25.8327486 11.2813428,21.5336474 12.3300108,17.0360394 C9.99156242,18.2678214 7.76084511,19.4432587 5.46856719,20.6512025 C6.63779138,23.7336915 7.88524885,26.9843478 9.10705607,30.1851607 L9.10705607,30.1851607 Z M35.1172712,5.6873482 C33.751395,5.32067417 32.3868014,4.95226646 31.0196427,4.58819296 C29.0561156,4.06505401 27.0908784,3.54754954 25.1282063,3.01920954 C24.8832463,2.95332957 24.7054046,2.91042091 24.5613356,3.20991471 C23.8679237,4.65060556 23.1522815,6.08089432 22.4477545,7.5159507 C22.4259518,7.56059305 22.4302268,7.61867144 22.4135541,7.72919376 C26.6663667,7.07602856 30.8909639,6.42676415 35.1147061,5.77793316 L35.1172712,5.6873482 L35.1172712,5.6873482 Z M27.1947619,2.40981984 C30.8623211,3.43876091 34.5298803,4.46726855 38.3256908,5.53175012 L36.4865674,0.218877522 C33.3700612,0.919719012 30.2907479,1.61189209 27.2114346,2.30406516 L27.1947619,2.40981984 L27.1947619,2.40981984 Z M30.5643506,36.8052305 L21.4324318,35.5413753 C17.6391864,35.0165027 13.852781,34.4387527 10.0509855,33.9944964 C8.67228422,33.8336972 7.25681757,33.9819272 5.85887859,34.0057653 C4.7101746,34.0257027 3.56147061,34.0699116 2.41319413,34.1067524 C2.29477545,34.1102197 2.17678427,34.1344913 2.05922059,34.2632173 C11.5540905,35.1534637 21.0498155,36.0432767 30.5442579,36.9339565 L30.5643506,36.8052305 L30.5643506,36.8052305 Z M0.640333903,29.6433846 C1.86470615,26.7650368 3.08223832,23.884522 4.31088561,21.0087747 C4.43400684,20.719683 4.42502925,20.5242102 4.18434434,20.2923301 C3.6700567,19.7960632 3.19296193,19.2616553 2.63079381,18.6696025 L0.390243902,29.8826329 L0.472752228,29.9225076 C0.529610296,29.8297556 0.598438484,29.7430714 0.640333903,29.6433846 Z M24.7567051,1.65003312 C26.8202682,1.10999076 28.9137566,0.688705707 30.9948474,0.217577259 C31.1290838,0.18680438 31.2607551,0.141728613 31.3932814,0.103154159 L31.3731887,0 L22.4315093,1.21921281 C23.2715552,1.59152131 23.9183692,1.86934406 24.7567051,1.65003312 L24.7567051,1.65003312 Z M5.38434884,46.0466295 L5.38434884,49.7510774 L3.36481865,49.7510774 L3.36481865,40.0957615 L6.1397489,40.0957615 C7.43337683,40.0957615 8.39098641,40.3345764 9.01215012,40.8122061 C9.63331383,41.2898359 9.94410944,42.0153824 9.94410944,42.9879787 C9.94410944,43.5561934 9.7897804,44.0615621 9.48112231,44.5036514 C9.17289173,44.946174 8.73683737,45.2933441 8.17167672,45.5442948 L10.9731122,49.750644 L8.73213482,49.750644 L6.45909459,46.0461961 L5.38434884,46.0461961 L5.38434884,46.0466295 Z M5.38434884,44.3822935 L6.03586536,44.3822935 C6.67370174,44.3822935 7.14523895,44.2739383 7.44919449,44.0585282 C7.75272253,43.8426846 7.90491405,43.5037495 7.90491405,43.0417229 C7.90491405,42.5835971 7.74973,42.258098 7.43893439,42.0643589 C7.12856629,41.8706198 6.64762398,41.7735335 5.99653497,41.7735335 L5.38392134,41.7735335 L5.38392134,44.3822935 L5.38434884,44.3822935 Z M17.1740617,49.7510774 L16.9072991,48.8066534 L16.802988,48.8066534 C16.5900909,49.1503561 16.2882729,49.4151763 15.8979615,49.6024141 C15.5067951,49.7896519 15.0613356,49.8828374 14.5624381,49.8828374 C13.7065746,49.8828374 13.0618981,49.6509572 12.6275538,49.1863301 C12.1932094,48.7217029 11.9764648,48.0538014 11.9764648,47.1821921 L11.9764648,42.3677535 L13.9630771,42.3677535 L13.9630771,46.6802908 C13.9630771,47.212965 14.0567006,47.612579 14.2435199,47.8791328 C14.4299118,48.1456866 14.7270273,48.2783134 15.1352939,48.2783134 C15.6914769,48.2783134 16.0929034,48.0897754 16.3404284,47.7139995 C16.5879534,47.3373568 16.7119296,46.7136642 16.7119296,45.8420549 L16.7119296,42.3681869 L18.698542,42.3681869 L18.698542,49.7515108 L17.1740617,49.7515108 L17.1740617,49.7510774 Z M24.8345108,42.2286254 C25.6942219,42.2286254 26.3675412,42.5692942 26.8544685,43.2493315 C27.3405409,43.9293688 27.5833633,44.861657 27.5833633,46.0461961 C27.5833633,47.2654089 27.3324183,48.2098329 26.8313833,48.8786013 C26.3294933,49.5482365 25.646769,49.8824039 24.7823553,49.8824039 C23.9269193,49.8824039 23.2561651,49.567307 22.7696652,48.9375465 L22.6328638,48.9375465 L22.3011205,49.7502106 L20.7830528,49.7502106 L20.7830528,39.4751028 L22.7696652,39.4751028 L22.7696652,41.8658522 C22.7696652,42.1696802 22.7431599,42.6559783 22.6910044,43.3256135 L22.7696652,43.3256135 C23.2339348,42.594866 23.9226442,42.2286254 24.8345108,42.2286254 L24.8345108,42.2286254 Z M24.1958195,43.8405175 C23.7054721,43.8405175 23.3472235,43.993515 23.1215012,44.2995102 C22.895779,44.6059387 22.7777878,45.110874 22.7696652,45.8156162 L22.7696652,46.0331935 C22.7696652,46.8259202 22.8855189,47.3937015 23.1176537,47.7374042 C23.350216,48.0806735 23.7182972,48.2523082 24.2223247,48.2523082 C24.6301638,48.2523082 24.9546395,48.061603 25.195752,47.6810595 C25.4368644,47.300516 25.5574206,46.7466042 25.5574206,46.0201909 C25.5574206,45.2937775 25.4355819,44.7485341 25.1923319,44.3853275 C24.9495095,44.0221208 24.6173387,43.8405175 24.1958195,43.8405175 Z M28.0523355,42.3677535 L30.2279048,42.3677535 L31.602331,46.5216588 C31.7194672,46.8826983 31.8002655,47.3096179 31.8430159,47.8028508 L31.8823463,47.8028508 C31.9297993,47.3494926 32.0229952,46.9221396 32.1619341,46.5216588 L33.5102826,42.3677535 L35.6401089,42.3677535 L32.5590856,50.6955014 C32.2769328,51.4656902 31.8742237,52.0425734 31.351386,52.4257174 C30.8276933,52.8088614 30.2167897,53 29.5173927,53 C29.1741067,53 28.8376609,52.9627258 28.5080551,52.887744 L28.5080551,51.2897214 C28.74703,51.3464995 29.0073801,51.3751053 29.2895329,51.3751053 C29.6409414,51.3751053 29.948317,51.2663167 30.2112321,51.048306 C30.4741472,50.8307287 30.6793493,50.5017623 30.8264108,50.0614067 L30.9435469,49.6977667 L28.0523355,42.3677535 Z" id="Shape"></path>
                </g>
            </g>
        </g>
    </g>
</svg>