<?xml version="1.0" encoding="UTF-8"?>
<svg width="140px" height="84px" viewBox="0 0 140 84" version="1.1" xmlns="http://www.w3.org/2000/svg" xmlns:xlink="http://www.w3.org/1999/xlink">
    <title>csv-unselected</title>
    <defs>
        <rect id="path-1" x="0" y="0" width="140" height="84" rx="2"></rect>
    </defs>
    <g id="Docs" stroke="none" stroke-width="1" fill="none" fill-rule="evenodd">
        <g id="ConnectToMG_IntermediaryCurrent-Copy" transform="translate(-463.000000, -466.000000)">
            <g id="csv-unselected" transform="translate(463.000000, 466.000000)">
                <mask id="mask-2" fill="white">
                    <use xlink:href="#path-1"></use>
                </mask>
                <rect stroke="#BAB8BB" x="0.5" y="0.5" width="139" height="83" rx="2"></rect>
                <path d="M60.4662817,47.75 C61.4306642,47.75 62.372266,47.6102963 63.2910871,47.3308889 L63.2910871,47.3308889 L63.2910871,45.6135556 C62.3570789,45.8793333 61.5445677,46.0122222 60.8535534,46.0122222 C60.07901,46.0122222 59.4430491,45.8827407 58.9456708,45.6237778 C58.4482924,45.3648148 58.0743094,44.9388889 57.8237218,44.346 C57.5731343,43.7531111 57.4478405,42.9557778 57.4478405,41.954 C57.4478405,40.9726667 57.5826262,40.1923704 57.8521977,39.6131111 C58.1217692,39.0338519 58.5318216,38.6181481 59.0823549,38.366 C59.6328882,38.1138519 60.3523783,37.9877778 61.2408252,37.9877778 C61.886278,37.9877778 62.5696987,38.0627407 63.2910871,38.2126667 L63.2910871,38.2126667 L63.2910871,36.4953333 C62.5393244,36.3317778 61.7495939,36.25 60.9218955,36.25 C59.0007241,36.25 57.54276,36.71 56.5480033,37.63 C55.5532465,38.55 55.0558681,40.004963 55.0558681,41.9948889 C55.0558681,43.978 55.5114819,45.432963 56.4227095,46.3597778 C57.333937,47.2865926 58.6817944,47.75 60.4662817,47.75 Z M68.0978125,47.75 C69.0925692,47.75 69.9449467,47.6154074 70.6549448,47.3462222 C71.3649429,47.077037 71.9059843,46.692 72.2780689,46.1911111 C72.6501535,45.6902222 72.8361958,45.0956296 72.8361958,44.4073333 C72.8361958,43.5486667 72.5951001,42.874 72.1129089,42.3833333 C71.6307176,41.8926667 70.8542758,41.5348889 69.7835835,41.31 L69.7835835,41.31 L68.2117159,40.9931111 C67.6801665,40.8772593 67.2947932,40.7000741 67.055596,40.4615556 C66.8163987,40.223037 66.6968001,39.9061481 66.6968001,39.5108889 C66.6968001,39.0202222 66.9189118,38.624963 67.3631353,38.3251111 C67.8073587,38.0252593 68.5154584,37.8753333 69.4874345,37.8753333 C70.4366299,37.8753333 71.3402639,37.9775556 72.1983365,38.182 L72.1983365,38.182 L72.1983365,36.5464444 C71.3174832,36.3488148 70.3910685,36.25 69.4190924,36.25 C68.3635872,36.25 67.4694452,36.388 66.7366663,36.664 C66.0038875,36.94 65.4533542,37.3267407 65.0850664,37.8242222 C64.7167786,38.3217037 64.5326347,38.8975556 64.5326347,39.5517778 C64.5326347,40.3763704 64.7718319,41.0374074 65.2502264,41.5348889 C65.7286208,42.0323704 66.4955707,42.3935556 67.551076,42.6184444 L67.551076,42.6184444 L69.1115531,42.9251111 C69.6582897,43.0477778 70.0550533,43.2266667 70.3018441,43.4617778 C70.5486349,43.6968889 70.6720303,44.0359259 70.6720303,44.4788889 C70.6720303,45.0104444 70.4575122,45.4176296 70.0284759,45.7004444 C69.5994396,45.9832593 68.9444948,46.1246667 68.0636415,46.1246667 C66.9625748,46.1246667 65.8766953,45.9713333 64.806003,45.6646667 L64.806003,45.6646667 L64.806003,47.3002222 C65.8235404,47.6000741 66.9208102,47.75 68.0978125,47.75 Z M80.7183141,47.5455556 L84.9441319,36.4237778 L82.6318919,36.4237778 L79.294521,45.6442222 L75.9571501,36.4237778 L73.5310068,36.4237778 L77.7568245,47.5455556 L80.7183141,47.5455556 Z" id="csv" fill="#818181" fill-rule="nonzero" mask="url(#mask-2)"></path>
            </g>
        </g>
    </g>
</svg>