<?xml version="1.0" encoding="UTF-8"?>
<svg width="140px" height="84px" viewBox="0 0 140 84" version="1.1" xmlns="http://www.w3.org/2000/svg" xmlns:xlink="http://www.w3.org/1999/xlink">
    <title>csvimporttool-selected</title>
    <g id="Docs" stroke="none" stroke-width="1" fill="none" fill-rule="evenodd">
        <g id="ConnectToMG_IntermediaryCurrent-Copy" transform="translate(-627.000000, -230.000000)">
            <g id="csvimporttool-selected" transform="translate(627.000000, 230.000000)">
                <rect id="Rectangle" stroke="#1EB76D" x="0.5" y="0.5" width="139" height="83" rx="2"></rect>
                <path d="M16.603,49.68 C17.401,49.68 18.157,49.56 18.871,49.32 L18.871,49.32 L18.871,47.466 C18.151,47.688 17.536,47.799 17.026,47.799 C16.45,47.799 15.976,47.6955 15.604,47.4885 C15.232,47.2815 14.953,46.941 14.767,46.467 C14.581,45.993 14.488,45.36 14.488,44.568 C14.488,43.794 14.587,43.1775 14.785,42.7185 C14.983,42.2595 15.2875,41.928 15.6985,41.724 C16.1095,41.52 16.645,41.418 17.305,41.418 C17.815,41.418 18.337,41.475 18.871,41.589 L18.871,41.589 L18.871,39.735 C18.295,39.597 17.656,39.528 16.954,39.528 C15.388,39.528 14.1925,39.9375 13.3675,40.7565 C12.5425,41.5755 12.13,42.858 12.13,44.604 C12.13,46.338 12.5095,47.6175 13.2685,48.4425 C14.0275,49.2675 15.139,49.68 16.603,49.68 Z M22.597,49.68 C23.413,49.68 24.115,49.5585 24.703,49.3155 C25.291,49.0725 25.7395,48.7215 26.0485,48.2625 C26.3575,47.8035 26.512,47.259 26.512,46.629 C26.512,45.855 26.317,45.249 25.927,44.811 C25.537,44.373 24.925,44.058 24.091,43.866 L24.091,43.866 L22.759,43.578 C22.399,43.494 22.1395,43.3665 21.9805,43.1955 C21.8215,43.0245 21.742,42.795 21.742,42.507 C21.742,42.141 21.9025,41.847 22.2235,41.625 C22.5445,41.403 23.068,41.292 23.794,41.292 C24.592,41.292 25.324,41.385 25.99,41.571 L25.99,41.571 L25.99,39.798 C25.288,39.618 24.526,39.528 23.704,39.528 C22.822,39.528 22.0765,39.6525 21.4675,39.9015 C20.8585,40.1505 20.401,40.5015 20.095,40.9545 C19.789,41.4075 19.636,41.934 19.636,42.534 C19.636,43.29 19.831,43.893 20.221,44.343 C20.611,44.793 21.217,45.111 22.039,45.297 L22.039,45.297 L23.371,45.594 C23.743,45.678 24.01,45.8055 24.172,45.9765 C24.334,46.1475 24.415,46.389 24.415,46.701 C24.415,47.517 23.797,47.925 22.561,47.925 C21.655,47.925 20.764,47.784 19.888,47.502 L19.888,47.502 L19.888,49.275 C20.692,49.545 21.595,49.68 22.597,49.68 Z M32.893,49.5 L36.115,39.681 L33.865,39.681 L31.498,47.394 L29.131,39.681 L26.764,39.681 L29.986,49.5 L32.893,49.5 Z M42.523,38.007 C43.003,38.007 43.3645,37.896 43.6075,37.674 C43.8505,37.452 43.972,37.134 43.972,36.72 C43.972,36.312 43.8505,35.9955 43.6075,35.7705 C43.3645,35.5455 43.003,35.433 42.523,35.433 C42.043,35.433 41.68,35.5455 41.434,35.7705 C41.188,35.9955 41.065,36.312 41.065,36.72 C41.065,37.134 41.188,37.452 41.434,37.674 C41.68,37.896 42.043,38.007 42.523,38.007 Z M43.657,49.5 L43.657,39.681 L41.38,39.681 L41.38,49.5 L43.657,49.5 Z M48.067,49.5 L48.067,42.507 C48.271,42.183 48.5335,41.9385 48.8545,41.7735 C49.1755,41.6085 49.495,41.526 49.813,41.526 C50.233,41.526 50.557,41.6535 50.785,41.9085 C51.013,42.1635 51.127,42.591 51.127,43.191 L51.127,43.191 L51.127,49.5 L53.35,49.5 L53.35,42.975 C53.35,42.765 53.341,42.57 53.323,42.39 C53.539,42.096 53.8,41.8785 54.106,41.7375 C54.412,41.5965 54.712,41.526 55.006,41.526 C55.912,41.526 56.365,42.081 56.365,43.191 L56.365,43.191 L56.365,49.5 L58.624,49.5 L58.624,43.074 C58.624,41.832 58.3615,40.9305 57.8365,40.3695 C57.3115,39.8085 56.599,39.528 55.699,39.528 C55.189,39.528 54.6925,39.636 54.2095,39.852 C53.7265,40.068 53.299,40.398 52.927,40.842 C52.693,40.392 52.375,40.0605 51.973,39.8475 C51.571,39.6345 51.112,39.528 50.596,39.528 C49.522,39.528 48.646,39.93 47.968,40.734 L47.968,40.734 L47.851,40.734 L47.689,39.681 L45.799,39.681 L45.799,49.5 L48.067,49.5 Z M62.962,53.46 L62.962,49.608 C63.322,49.65 63.655,49.671 63.961,49.671 C65.617,49.671 66.862,49.2315 67.696,48.3525 C68.53,47.4735 68.947,46.161 68.947,44.415 C68.947,43.281 68.7835,42.3495 68.4565,41.6205 C68.1295,40.8915 67.69,40.3605 67.138,40.0275 C66.586,39.6945 65.965,39.528 65.275,39.528 C64.747,39.528 64.2775,39.636 63.8665,39.852 C63.4555,40.068 63.127,40.365 62.881,40.743 L62.881,40.743 L62.764,40.743 L62.611,39.681 L60.694,39.681 L60.694,53.46 L62.962,53.46 Z M64.051,47.907 C63.667,47.907 63.304,47.871 62.962,47.799 L62.962,47.799 L62.962,42.237 C63.154,41.973 63.3955,41.772 63.6865,41.634 C63.9775,41.496 64.285,41.427 64.609,41.427 C65.035,41.427 65.395,41.52 65.689,41.706 C65.983,41.892 66.214,42.219 66.382,42.687 C66.55,43.155 66.634,43.797 66.634,44.613 C66.634,45.411 66.538,46.0515 66.346,46.5345 C66.154,47.0175 65.869,47.367 65.491,47.583 C65.113,47.799 64.633,47.907 64.051,47.907 Z M74.563,49.68 C75.919,49.68 76.966,49.263 77.704,48.429 C78.442,47.595 78.811,46.32 78.811,44.604 C78.811,42.9 78.442,41.628 77.704,40.788 C76.966,39.948 75.919,39.528 74.563,39.528 C73.195,39.528 72.145,39.945 71.413,40.779 C70.681,41.613 70.315,42.894 70.315,44.622 C70.315,46.332 70.684,47.6025 71.422,48.4335 C72.16,49.2645 73.207,49.68 74.563,49.68 Z M74.563,47.943 C74.137,47.943 73.7815,47.8425 73.4965,47.6415 C73.2115,47.4405 72.994,47.0955 72.844,46.6065 C72.694,46.1175 72.619,45.447 72.619,44.595 C72.619,43.749 72.6955,43.083 72.8485,42.597 C73.0015,42.111 73.219,41.7675 73.501,41.5665 C73.783,41.3655 74.137,41.265 74.563,41.265 C74.989,41.265 75.3415,41.3655 75.6205,41.5665 C75.8995,41.7675 76.1155,42.114 76.2685,42.606 C76.4215,43.098 76.498,43.773 76.498,44.631 C76.498,45.471 76.423,46.134 76.273,46.62 C76.123,47.106 75.907,47.448 75.625,47.646 C75.343,47.844 74.989,47.943 74.563,47.943 Z M82.771,49.5 L82.771,42.768 C83.005,42.42 83.3335,42.147 83.7565,41.949 C84.1795,41.751 84.616,41.652 85.066,41.652 C85.378,41.652 85.66,41.673 85.912,41.715 L85.912,41.715 L85.912,39.627 C85.69,39.585 85.453,39.564 85.201,39.564 C84.655,39.564 84.1615,39.6825 83.7205,39.9195 C83.2795,40.1565 82.93,40.518 82.672,41.004 L82.672,41.004 L82.555,41.004 L82.375,39.681 L80.503,39.681 L80.503,49.5 L82.771,49.5 Z M91.249,49.671 C91.789,49.671 92.32,49.611 92.842,49.491 L92.842,49.491 L92.842,47.628 C92.416,47.706 92.077,47.745 91.825,47.745 C91.435,47.745 91.1215,47.6865 90.8845,47.5695 C90.6475,47.4525 90.472,47.259 90.358,46.989 C90.244,46.719 90.187,46.35 90.187,45.882 L90.187,45.882 L90.187,41.49 L92.752,41.49 L92.752,39.681 L90.187,39.681 L90.187,36.18 L88.324,36.18 L87.919,39.681 L86.326,39.681 L86.326,41.49 L87.919,41.49 L87.919,46.197 C87.919,47.397 88.2025,48.276 88.7695,48.834 C89.3365,49.392 90.163,49.671 91.249,49.671 Z M102.202,49.671 C102.742,49.671 103.273,49.611 103.795,49.491 L103.795,49.491 L103.795,47.628 C103.369,47.706 103.03,47.745 102.778,47.745 C102.388,47.745 102.0745,47.6865 101.8375,47.5695 C101.6005,47.4525 101.425,47.259 101.311,46.989 C101.197,46.719 101.14,46.35 101.14,45.882 L101.14,45.882 L101.14,41.49 L103.705,41.49 L103.705,39.681 L101.14,39.681 L101.14,36.18 L99.277,36.18 L98.872,39.681 L97.279,39.681 L97.279,41.49 L98.872,41.49 L98.872,46.197 C98.872,47.397 99.1555,48.276 99.7225,48.834 C100.2895,49.392 101.116,49.671 102.202,49.671 Z M108.781,49.68 C110.137,49.68 111.184,49.263 111.922,48.429 C112.66,47.595 113.029,46.32 113.029,44.604 C113.029,42.9 112.66,41.628 111.922,40.788 C111.184,39.948 110.137,39.528 108.781,39.528 C107.413,39.528 106.363,39.945 105.631,40.779 C104.899,41.613 104.533,42.894 104.533,44.622 C104.533,46.332 104.902,47.6025 105.64,48.4335 C106.378,49.2645 107.425,49.68 108.781,49.68 Z M108.781,47.943 C108.355,47.943 107.9995,47.8425 107.7145,47.6415 C107.4295,47.4405 107.212,47.0955 107.062,46.6065 C106.912,46.1175 106.837,45.447 106.837,44.595 C106.837,43.749 106.9135,43.083 107.0665,42.597 C107.2195,42.111 107.437,41.7675 107.719,41.5665 C108.001,41.3655 108.355,41.265 108.781,41.265 C109.207,41.265 109.5595,41.3655 109.8385,41.5665 C110.1175,41.7675 110.3335,42.114 110.4865,42.606 C110.6395,43.098 110.716,43.773 110.716,44.631 C110.716,45.471 110.641,46.134 110.491,46.62 C110.341,47.106 110.125,47.448 109.843,47.646 C109.561,47.844 109.207,47.943 108.781,47.943 Z M118.636,49.68 C119.992,49.68 121.039,49.263 121.777,48.429 C122.515,47.595 122.884,46.32 122.884,44.604 C122.884,42.9 122.515,41.628 121.777,40.788 C121.039,39.948 119.992,39.528 118.636,39.528 C117.268,39.528 116.218,39.945 115.486,40.779 C114.754,41.613 114.388,42.894 114.388,44.622 C114.388,46.332 114.757,47.6025 115.495,48.4335 C116.233,49.2645 117.28,49.68 118.636,49.68 Z M118.636,47.943 C118.21,47.943 117.8545,47.8425 117.5695,47.6415 C117.2845,47.4405 117.067,47.0955 116.917,46.6065 C116.767,46.1175 116.692,45.447 116.692,44.595 C116.692,43.749 116.7685,43.083 116.9215,42.597 C117.0745,42.111 117.292,41.7675 117.574,41.5665 C117.856,41.3655 118.21,41.265 118.636,41.265 C119.062,41.265 119.4145,41.3655 119.6935,41.5665 C119.9725,41.7675 120.1885,42.114 120.3415,42.606 C120.4945,43.098 120.571,43.773 120.571,44.631 C120.571,45.471 120.496,46.134 120.346,46.62 C120.196,47.106 119.98,47.448 119.698,47.646 C119.416,47.844 119.062,47.943 118.636,47.943 Z M126.862,49.5 L126.862,34.956 L124.594,34.956 L124.594,49.5 L126.862,49.5 Z" id="csvimporttool" fill="#000000" fill-rule="nonzero"></path>
            </g>
        </g>
    </g>
</svg>