<?xml version="1.0" encoding="UTF-8"?>
<svg width="140px" height="84px" viewBox="0 0 140 84" version="1.1" xmlns="http://www.w3.org/2000/svg" xmlns:xlink="http://www.w3.org/1999/xlink">
    <title>cypherqueries-selected</title>
    <g id="Docs" stroke="none" stroke-width="1" fill="none" fill-rule="evenodd">
        <g id="ConnectToMG_IntermediaryCurrent-Copy" transform="translate(-627.000000, -440.000000)">
            <g id="cypherqueries-selected" transform="translate(627.000000, 440.000000)">
                <rect id="Rectangle" stroke="#1EB76D" x="0.5" y="0.5" width="139" height="83" rx="2"></rect>
                <path d="M18.903,49.671 C19.407,49.671 19.9035,49.632 20.3925,49.554 C20.8815,49.476 21.321,49.365 21.711,49.221 L21.711,49.221 L21.711,47.277 C20.775,47.571 19.923,47.718 19.155,47.718 C18.255,47.718 17.514,47.565 16.932,47.259 C16.35,46.953 15.909,46.443 15.609,45.729 C15.309,45.015 15.159,44.049 15.159,42.831 C15.159,41.649 15.309,40.701 15.609,39.987 C15.909,39.273 16.356,38.757 16.95,38.439 C17.544,38.121 18.3,37.962 19.218,37.962 C20.088,37.962 20.919,38.07 21.711,38.286 L21.711,38.286 L21.711,36.333 C20.877,36.117 19.992,36.009 19.056,36.009 C17.01,36.009 15.447,36.57 14.367,37.692 C13.287,38.814 12.747,40.539 12.747,42.867 C12.747,45.249 13.272,46.9785 14.322,48.0555 C15.372,49.1325 16.899,49.671 18.903,49.671 Z M26.481,53.46 L31.008,39.681 L28.758,39.681 L26.355,47.502 L24.024,39.681 L21.657,39.681 L24.879,49.5 L25.563,49.5 L24.249,53.46 L26.481,53.46 Z M34.374,53.46 L34.374,49.608 C34.734,49.65 35.067,49.671 35.373,49.671 C37.029,49.671 38.274,49.2315 39.108,48.3525 C39.942,47.4735 40.359,46.161 40.359,44.415 C40.359,43.281 40.1955,42.3495 39.8685,41.6205 C39.5415,40.8915 39.102,40.3605 38.55,40.0275 C37.998,39.6945 37.377,39.528 36.687,39.528 C36.159,39.528 35.6895,39.636 35.2785,39.852 C34.8675,40.068 34.539,40.365 34.293,40.743 L34.293,40.743 L34.176,40.743 L34.023,39.681 L32.106,39.681 L32.106,53.46 L34.374,53.46 Z M35.463,47.907 C35.079,47.907 34.716,47.871 34.374,47.799 L34.374,47.799 L34.374,42.237 C34.566,41.973 34.8075,41.772 35.0985,41.634 C35.3895,41.496 35.697,41.427 36.021,41.427 C36.447,41.427 36.807,41.52 37.101,41.706 C37.395,41.892 37.626,42.219 37.794,42.687 C37.962,43.155 38.046,43.797 38.046,44.613 C38.046,45.411 37.95,46.0515 37.758,46.5345 C37.566,47.0175 37.281,47.367 36.903,47.583 C36.525,47.799 36.045,47.907 35.463,47.907 Z M44.274,49.5 L44.274,42.48 C44.496,42.168 44.7825,41.9325 45.1335,41.7735 C45.4845,41.6145 45.834,41.535 46.182,41.535 C46.65,41.535 47.0085,41.664 47.2575,41.922 C47.5065,42.18 47.631,42.612 47.631,43.218 L47.631,43.218 L47.631,49.5 L49.899,49.5 L49.899,43.056 C49.899,41.832 49.6365,40.938 49.1115,40.374 C48.5865,39.81 47.889,39.528 47.019,39.528 C45.921,39.528 45.045,39.927 44.391,40.725 L44.391,40.725 L44.274,40.725 L44.274,34.956 L42.006,34.956 L42.006,49.5 L44.274,49.5 Z M56.334,49.68 C57.192,49.68 58.059,49.563 58.935,49.329 L58.935,49.329 L58.935,47.538 C58.089,47.766 57.318,47.88 56.622,47.88 C55.962,47.88 55.4325,47.7975 55.0335,47.6325 C54.6345,47.4675 54.339,47.1975 54.147,46.8225 C53.955,46.4475 53.847,45.936 53.823,45.288 L53.823,45.288 L59.421,45.288 L59.421,44.64 C59.421,42.936 59.097,41.658 58.449,40.806 C57.801,39.954 56.853,39.528 55.605,39.528 C54.309,39.528 53.3055,39.954 52.5945,40.806 C51.8835,41.658 51.528,42.912 51.528,44.568 C51.528,45.78 51.7005,46.7595 52.0455,47.5065 C52.3905,48.2535 52.9155,48.8025 53.6205,49.1535 C54.3255,49.5045 55.23,49.68 56.334,49.68 Z M57.288,43.884 L53.814,43.884 C53.826,43.176 53.9025,42.6135 54.0435,42.1965 C54.1845,41.7795 54.3825,41.484 54.6375,41.31 C54.8925,41.136 55.209,41.049 55.587,41.049 C55.959,41.049 56.2665,41.136 56.5095,41.31 C56.7525,41.484 56.94,41.778 57.072,42.192 C57.204,42.606 57.276,43.17 57.288,43.884 L57.288,43.884 Z M63.282,49.5 L63.282,42.768 C63.516,42.42 63.8445,42.147 64.2675,41.949 C64.6905,41.751 65.127,41.652 65.577,41.652 C65.889,41.652 66.171,41.673 66.423,41.715 L66.423,41.715 L66.423,39.627 C66.201,39.585 65.964,39.564 65.712,39.564 C65.166,39.564 64.6725,39.6825 64.2315,39.9195 C63.7905,40.1565 63.441,40.518 63.183,41.004 L63.183,41.004 L63.066,41.004 L62.886,39.681 L61.014,39.681 L61.014,49.5 L63.282,49.5 Z M79.572,53.46 L79.572,40.023 C79.116,39.867 78.6015,39.7455 78.0285,39.6585 C77.4555,39.5715 76.899,39.528 76.359,39.528 C72.999,39.528 71.319,41.28 71.319,44.784 C71.319,45.906 71.475,46.833 71.787,47.565 C72.099,48.297 72.519,48.831 73.047,49.167 C73.575,49.503 74.169,49.671 74.829,49.671 C75.339,49.671 75.795,49.5705 76.197,49.3695 C76.599,49.1685 76.929,48.894 77.187,48.546 L77.187,48.546 L77.304,48.546 L77.304,53.46 L79.572,53.46 Z M75.693,47.763 C75.255,47.763 74.886,47.67 74.586,47.484 C74.286,47.298 74.0505,46.9725 73.8795,46.5075 C73.7085,46.0425 73.623,45.402 73.623,44.586 C73.623,43.416 73.836,42.5745 74.262,42.0615 C74.688,41.5485 75.324,41.292 76.17,41.292 C76.572,41.292 76.95,41.334 77.304,41.418 L77.304,41.418 L77.304,47.025 C77.112,47.265 76.872,47.448 76.584,47.574 C76.296,47.7 75.999,47.763 75.693,47.763 Z M84.63,49.671 C85.14,49.671 85.6215,49.569 86.0745,49.365 C86.5275,49.161 86.931,48.861 87.285,48.465 L87.285,48.465 L87.402,48.465 L87.564,49.5 L89.454,49.5 L89.454,39.681 L87.186,39.681 L87.186,46.719 C86.964,47.031 86.6805,47.2665 86.3355,47.4255 C85.9905,47.5845 85.65,47.664 85.314,47.664 C84.87,47.664 84.525,47.5365 84.279,47.2815 C84.033,47.0265 83.91,46.599 83.91,45.999 L83.91,45.999 L83.91,39.681 L81.642,39.681 L81.642,46.152 C81.642,47.382 81.9105,48.276 82.4475,48.834 C82.9845,49.392 83.712,49.671 84.63,49.671 Z M95.961,49.68 C96.819,49.68 97.686,49.563 98.562,49.329 L98.562,49.329 L98.562,47.538 C97.716,47.766 96.945,47.88 96.249,47.88 C95.589,47.88 95.0595,47.7975 94.6605,47.6325 C94.2615,47.4675 93.966,47.1975 93.774,46.8225 C93.582,46.4475 93.474,45.936 93.45,45.288 L93.45,45.288 L99.048,45.288 L99.048,44.64 C99.048,42.936 98.724,41.658 98.076,40.806 C97.428,39.954 96.48,39.528 95.232,39.528 C93.936,39.528 92.9325,39.954 92.2215,40.806 C91.5105,41.658 91.155,42.912 91.155,44.568 C91.155,45.78 91.3275,46.7595 91.6725,47.5065 C92.0175,48.2535 92.5425,48.8025 93.2475,49.1535 C93.9525,49.5045 94.857,49.68 95.961,49.68 Z M96.915,43.884 L93.441,43.884 C93.453,43.176 93.5295,42.6135 93.6705,42.1965 C93.8115,41.7795 94.0095,41.484 94.2645,41.31 C94.5195,41.136 94.836,41.049 95.214,41.049 C95.586,41.049 95.8935,41.136 96.1365,41.31 C96.3795,41.484 96.567,41.778 96.699,42.192 C96.831,42.606 96.903,43.17 96.915,43.884 L96.915,43.884 Z M102.909,49.5 L102.909,42.768 C103.143,42.42 103.4715,42.147 103.8945,41.949 C104.3175,41.751 104.754,41.652 105.204,41.652 C105.516,41.652 105.798,41.673 106.05,41.715 L106.05,41.715 L106.05,39.627 C105.828,39.585 105.591,39.564 105.339,39.564 C104.793,39.564 104.2995,39.6825 103.8585,39.9195 C103.4175,40.1565 103.068,40.518 102.81,41.004 L102.81,41.004 L102.693,41.004 L102.513,39.681 L100.641,39.681 L100.641,49.5 L102.909,49.5 Z M108.471,38.007 C108.951,38.007 109.3125,37.896 109.5555,37.674 C109.7985,37.452 109.92,37.134 109.92,36.72 C109.92,36.312 109.7985,35.9955 109.5555,35.7705 C109.3125,35.5455 108.951,35.433 108.471,35.433 C107.991,35.433 107.628,35.5455 107.382,35.7705 C107.136,35.9955 107.013,36.312 107.013,36.72 C107.013,37.134 107.136,37.452 107.382,37.674 C107.628,37.896 107.991,38.007 108.471,38.007 Z M109.605,49.5 L109.605,39.681 L107.328,39.681 L107.328,49.5 L109.605,49.5 Z M116.112,49.68 C116.97,49.68 117.837,49.563 118.713,49.329 L118.713,49.329 L118.713,47.538 C117.867,47.766 117.096,47.88 116.4,47.88 C115.74,47.88 115.2105,47.7975 114.8115,47.6325 C114.4125,47.4675 114.117,47.1975 113.925,46.8225 C113.733,46.4475 113.625,45.936 113.601,45.288 L113.601,45.288 L119.199,45.288 L119.199,44.64 C119.199,42.936 118.875,41.658 118.227,40.806 C117.579,39.954 116.631,39.528 115.383,39.528 C114.087,39.528 113.0835,39.954 112.3725,40.806 C111.6615,41.658 111.306,42.912 111.306,44.568 C111.306,45.78 111.4785,46.7595 111.8235,47.5065 C112.1685,48.2535 112.6935,48.8025 113.3985,49.1535 C114.1035,49.5045 115.008,49.68 116.112,49.68 Z M117.066,43.884 L113.592,43.884 C113.604,43.176 113.6805,42.6135 113.8215,42.1965 C113.9625,41.7795 114.1605,41.484 114.4155,41.31 C114.6705,41.136 114.987,41.049 115.365,41.049 C115.737,41.049 116.0445,41.136 116.2875,41.31 C116.5305,41.484 116.718,41.778 116.85,42.192 C116.982,42.606 117.054,43.17 117.066,43.884 L117.066,43.884 Z M123.222,49.68 C124.038,49.68 124.74,49.5585 125.328,49.3155 C125.916,49.0725 126.3645,48.7215 126.6735,48.2625 C126.9825,47.8035 127.137,47.259 127.137,46.629 C127.137,45.855 126.942,45.249 126.552,44.811 C126.162,44.373 125.55,44.058 124.716,43.866 L124.716,43.866 L123.384,43.578 C123.024,43.494 122.7645,43.3665 122.6055,43.1955 C122.4465,43.0245 122.367,42.795 122.367,42.507 C122.367,42.141 122.5275,41.847 122.8485,41.625 C123.1695,41.403 123.693,41.292 124.419,41.292 C125.217,41.292 125.949,41.385 126.615,41.571 L126.615,41.571 L126.615,39.798 C125.913,39.618 125.151,39.528 124.329,39.528 C123.447,39.528 122.7015,39.6525 122.0925,39.9015 C121.4835,40.1505 121.026,40.5015 120.72,40.9545 C120.414,41.4075 120.261,41.934 120.261,42.534 C120.261,43.29 120.456,43.893 120.846,44.343 C121.236,44.793 121.842,45.111 122.664,45.297 L122.664,45.297 L123.996,45.594 C124.368,45.678 124.635,45.8055 124.797,45.9765 C124.959,46.1475 125.04,46.389 125.04,46.701 C125.04,47.517 124.422,47.925 123.186,47.925 C122.28,47.925 121.389,47.784 120.513,47.502 L120.513,47.502 L120.513,49.275 C121.317,49.545 122.22,49.68 123.222,49.68 Z" id="Cypherqueries" fill="#000000" fill-rule="nonzero"></path>
            </g>
        </g>
    </g>
</svg>