<?xml version="1.0" encoding="UTF-8"?>
<svg width="141px" height="84px" viewBox="0 0 141 84" version="1.1" xmlns="http://www.w3.org/2000/svg" xmlns:xlink="http://www.w3.org/1999/xlink">
    <title>kafka-selected</title>
    <defs>
        <rect id="path-1" x="0.744525547" y="0" width="140" height="84" rx="2"></rect>
    </defs>
    <g id="Docs" stroke="none" stroke-width="1" fill="none" fill-rule="evenodd">
        <g id="ConnectToMG_IntermediaryCurrent-Copy" transform="translate(-298.000000, -230.000000)">
            <g id="kafka-selected" transform="translate(298.000000, 230.000000)">
                <mask id="mask-2" fill="white">
                    <use xlink:href="#path-1"></use>
                </mask>
                <rect stroke="#1EB76D" x="1.24452555" y="0.5" width="139" height="83" rx="2"></rect>
                <text id="kafka" mask="url(#mask-2)" font-family="EncodeSansSemiCondensed-SemiBold, Encode Sans Semi Condensed" font-size="20" font-weight="500" fill="#000000">
                    <tspan x="60.7445255" y="50.5">kafka</tspan>
                </text>
                <path d="M44.9664865,45.2435823 L42.8777248,43.8124173 C43.0994552,43.2215635 43.2267677,42.5871222 43.2267677,41.9230667 C43.2267677,41.2705235 43.1038849,40.646721 42.8894552,40.0646006 L44.9735412,38.6486 C45.7886037,39.5404383 46.975842,40.1066797 48.2997443,40.1066797 C50.7504279,40.1066797 52.7445255,38.1769968 52.7445255,35.804769 C52.7445255,33.4325412 50.7504279,31.5028582 48.2997443,31.5028582 C45.8490607,31.5028582 43.854963,33.4325412 43.854963,35.804769 C43.854963,36.2293707 43.9212443,36.638808 44.0401896,37.0265707 L41.9547091,38.4432859 C41.0835373,37.3972635 39.8291974,36.6669137 38.400049,36.443974 L38.400049,34.0113269 C40.413424,33.6020484 41.9304279,31.8706928 41.9304279,29.8019108 C41.9304279,27.429683 39.9363302,25.5 37.4856466,25.5 C35.034963,25.5 33.0408654,27.429683 33.0408654,29.8019108 C33.0408654,31.8429842 34.5185763,33.5529826 36.491674,33.9914783 L36.491674,36.4557243 C33.7989162,36.9131954 31.7445255,39.1876886 31.7445255,41.9230667 C31.7445255,44.6717832 33.8192599,46.9546128 36.5314591,47.3965225 L36.5314591,49.9985974 C34.5381818,50.4226433 33.0408654,52.1431218 33.0408654,54.1980892 C33.0408654,56.570317 35.034963,58.5 37.4856466,58.5 C39.9363302,58.5 41.9304279,56.570317 41.9304279,54.1980892 C41.9304279,52.1431218 40.4331115,50.4226433 38.4398341,49.9985974 L38.4398341,47.3964431 C39.8408459,47.1681046 41.0721349,46.4522045 41.9343654,45.4293654 L44.0370724,46.8698195 C43.920342,47.2540888 43.854963,47.6594771 43.854963,48.0797915 C43.854963,50.4520193 45.8490607,52.3817022 48.2997443,52.3817022 C50.7504279,52.3817022 52.7445255,50.4520193 52.7445255,48.0797915 C52.7445255,45.7075636 50.7504279,43.7778807 48.2997443,43.7778807 C46.9719865,43.7778807 45.781631,44.3472185 44.9664865,45.2435823 Z M48.2997443,33.7189965 C49.488131,33.7189965 50.4547052,34.6548986 50.4547052,35.804769 C50.4547052,36.9546393 49.488131,37.8904621 48.2997443,37.8904621 C47.1113576,37.8904621 46.1447834,36.9546393 46.1447834,35.804769 C46.1447834,34.6548986 47.1113576,33.7189965 48.2997443,33.7189965 L48.2997443,33.7189965 Z M35.3306037,29.8019108 C35.3306037,28.6520404 36.2972599,27.7162176 37.4856466,27.7162176 C38.6740334,27.7162176 39.6406076,28.6520404 39.6406076,29.8019108 C39.6406076,30.9517811 38.6740334,31.8876039 37.4856466,31.8876039 C36.2972599,31.8876039 35.3306037,30.9517811 35.3306037,29.8019108 L35.3306037,29.8019108 Z M39.6406076,54.1980892 C39.6406076,55.3479596 38.6740334,56.2837824 37.4856466,56.2837824 C36.2972599,56.2837824 35.3306037,55.3479596 35.3306037,54.1980892 C35.3306037,53.0482189 36.2972599,52.1123961 37.4856466,52.1123961 C38.6740334,52.1123961 39.6406076,53.0482189 39.6406076,54.1980892 L39.6406076,54.1980892 Z M37.4854826,44.8319219 C35.8280412,44.8319219 34.4796935,43.5271529 34.4796935,41.9230667 C34.4796935,40.3189012 35.8280412,39.013894 37.4854826,39.013894 C39.142842,39.013894 40.4911896,40.3189012 40.4911896,41.9230667 C40.4911896,43.5271529 39.142842,44.8319219 37.4854826,44.8319219 L37.4854826,44.8319219 Z M48.2997443,50.165564 C47.1113576,50.165564 46.1447834,49.2296618 46.1447834,48.0797915 C46.1447834,46.9299211 47.1113576,45.9940983 48.2997443,45.9940983 C49.488131,45.9940983 50.4547052,46.9299211 50.4547052,48.0797915 C50.4547052,49.2296618 49.488131,50.165564 48.2997443,50.165564 L48.2997443,50.165564 Z" id="Shape" fill="#000000" fill-rule="nonzero" mask="url(#mask-2)"></path>
            </g>
        </g>
    </g>
</svg>