<?xml version="1.0" encoding="utf-8"?>
<!-- Generator: Adobe Illustrator 26.0.3, SVG Export Plug-In . SVG Version: 6.00 Build 0)  -->
<svg version="1.1" id="Layer_1" xmlns="http://www.w3.org/2000/svg" xmlns:xlink="http://www.w3.org/1999/xlink" x="0px" y="0px"
	 viewBox="0 0 140 84" style="enable-background:new 0 0 140 84;" xml:space="preserve">
<style type="text/css">
	.st0{fill:none;}
</style>
<g id="Docs">
	<g id="ConnectToMG_IntermediaryCurrent-Copy">
		<g id="LOADcsvclause-selected">
			<path id="Rectangle-Copy" class="st0" d="M2.5,0.5h135c1.1,0,2,0.9,2,2v79c0,1.1-0.9,2-2,2H2.5c-1.1,0-2-0.9-2-2v-79
				C0.5,1.4,1.4,0.5,2.5,0.5z"/>
		</g>
	</g>
</g>
<path d="M8.2,48.8V36.2h2.2v10.7h5.5v1.9L8.2,48.8z"/>
<path d="M17.7,47.4c-1-1.4-1.5-3.1-1.4-4.9c-0.1-1.7,0.4-3.5,1.4-4.9c1-1.1,2.4-1.7,3.9-1.6c1.5-0.1,2.9,0.5,3.9,1.6
	c1,1.4,1.5,3.1,1.4,4.9c0.1,1.7-0.4,3.5-1.4,4.9c-1,1.1-2.4,1.7-3.9,1.6C20.1,49,18.7,48.4,17.7,47.4z M23.8,46.1
	c0.6-1.1,0.9-2.3,0.8-3.5c0.1-1.3-0.2-2.5-0.8-3.6c-0.5-0.7-1.4-1.1-2.2-1.1c-0.9,0-1.7,0.4-2.2,1.1c-0.6,1.1-0.9,2.3-0.8,3.5
	c-0.1,1.3,0.2,2.5,0.8,3.6c0.5,0.7,1.4,1.1,2.2,1.1C22.4,47.2,23.3,46.8,23.8,46.1z"/>
<path d="M36.2,48.8l-1.1-3.6h-4.5l-1.1,3.6h-2.1l3.9-12.6h3.2l3.9,12.6H36.2z M31.2,43.3h3.4l-1.7-5.7L31.2,43.3z"/>
<path d="M39.6,48.7V36.4c1.1-0.2,2.3-0.4,3.4-0.4c1.7-0.1,3.4,0.4,4.7,1.6c1.1,1.3,1.7,3.1,1.6,4.9c0,1.3-0.2,2.5-0.7,3.7
	c-0.5,0.9-1.3,1.7-2.2,2.1c-1.2,0.5-2.4,0.7-3.7,0.7C41.7,48.9,40.6,48.8,39.6,48.7z M45.4,46.6c0.6-0.3,1-0.8,1.3-1.5
	c0.3-0.9,0.5-1.8,0.4-2.7c0-0.9-0.1-1.8-0.4-2.7c-0.2-0.6-0.7-1.1-1.3-1.5c-0.7-0.3-1.4-0.5-2.2-0.5c-0.5,0-1,0-1.4,0.1v9
	c0.5,0,0.9,0.1,1.4,0.1C43.9,47.1,44.7,47,45.4,46.6z"/>
<path d="M56.2,47.4c-1-1-1.5-2.7-1.5-4.9c-0.1-1.8,0.4-3.5,1.5-4.9c1.2-1.1,2.8-1.7,4.4-1.6c0.8,0,1.7,0.1,2.5,0.3v1.8
	c-0.8-0.2-1.6-0.3-2.3-0.3c-0.7,0-1.5,0.1-2.2,0.5c-0.6,0.3-1,0.8-1.3,1.5c-0.3,0.9-0.4,1.8-0.4,2.7c0,0.9,0.1,1.9,0.4,2.7
	c0.2,0.6,0.7,1.1,1.2,1.5c0.7,0.3,1.4,0.5,2.1,0.4c0.8,0,1.6-0.2,2.4-0.4v1.8c-0.4,0.1-0.8,0.3-1.2,0.3c-0.5,0.1-0.9,0.1-1.4,0.1
	C58.9,49.1,57.3,48.5,56.2,47.4z"/>
<path d="M65.7,48.8c-0.5-0.1-1-0.2-1.5-0.4v-1.8c0.5,0.2,1,0.3,1.6,0.4c0.5,0.1,1,0.1,1.6,0.1c1.6,0,2.4-0.6,2.4-1.8
	c0-0.3-0.1-0.6-0.2-0.8c-0.2-0.2-0.4-0.4-0.6-0.6c-0.4-0.2-0.8-0.4-1.2-0.5l-0.8-0.2c-0.9-0.2-1.6-0.6-2.3-1.3
	c-0.5-0.6-0.8-1.4-0.8-2.2c0-0.7,0.2-1.4,0.5-2c0.4-0.6,0.9-1,1.6-1.3c0.8-0.3,1.7-0.5,2.6-0.4c0.5,0,1,0,1.4,0.1
	c0.4,0.1,0.8,0.1,1.2,0.3v1.8c-0.8-0.2-1.7-0.4-2.5-0.4c-0.7,0-1.4,0.1-2,0.5c-0.4,0.3-0.7,0.8-0.6,1.3c0,0.3,0,0.5,0.2,0.8
	c0.1,0.2,0.3,0.4,0.6,0.5c0.3,0.2,0.7,0.3,1.1,0.4l0.8,0.2c0.9,0.2,1.7,0.7,2.4,1.3c0.5,0.6,0.8,1.4,0.8,2.3c0,0.7-0.2,1.4-0.6,2
	c-0.4,0.6-0.9,1-1.6,1.3c-0.8,0.3-1.6,0.5-2.5,0.4C66.8,48.9,66.2,48.9,65.7,48.8z"/>
<path d="M80.9,36.2H83l-3.9,12.6h-3.2L72,36.2h2.3l3.3,10.9L80.9,36.2z"/>
<path d="M88.6,47.8c-0.8-1-1.2-2.3-1.1-3.6c-0.1-1.3,0.3-2.6,1.2-3.6c0.9-0.8,2.2-1.2,3.4-1.2c0.6,0,1.2,0.1,1.8,0.2v1.8
	c-0.5-0.1-1-0.2-1.5-0.2c-0.5,0-1,0.1-1.5,0.3c-0.4,0.2-0.7,0.5-0.9,0.9c-0.2,0.6-0.3,1.1-0.3,1.7c0,0.6,0.1,1.2,0.3,1.8
	c0.1,0.4,0.4,0.8,0.8,1c0.4,0.2,0.9,0.3,1.3,0.3c0.6,0,1.2-0.1,1.8-0.3v1.8c-0.7,0.2-1.4,0.3-2.1,0.3C90.6,49.1,89.4,48.6,88.6,47.8
	z"/>
<path d="M95.3,48.8V35h2.1v13.7H95.3z"/>
<path d="M104.5,39.7c0.5,0.2,1,0.6,1.2,1.1c0.3,0.7,0.4,1.4,0.4,2.1v5.8h-1.8l-0.2-1h-0.1c-0.3,0.4-0.6,0.7-1,0.8
	c-0.4,0.2-0.9,0.3-1.4,0.3c-0.5,0-1-0.1-1.4-0.3c-0.4-0.2-0.8-0.5-1-0.9c-0.2-0.4-0.3-0.9-0.3-1.4c0-0.8,0.3-1.5,0.8-2
	c0.8-0.5,1.7-0.8,2.6-0.9l1.6-0.1v-0.5c0-0.4-0.1-0.7-0.2-1.1c-0.1-0.3-0.4-0.5-0.7-0.5c-0.4-0.1-0.8-0.2-1.2-0.2
	c-0.4,0-0.8,0-1.2,0.1c-0.4,0.1-0.8,0.1-1.2,0.3v-1.7c0.4-0.1,0.9-0.2,1.3-0.3c0.5-0.1,0.9-0.1,1.4-0.1
	C103.1,39.3,103.8,39.5,104.5,39.7z M103.3,47.2c0.3-0.1,0.5-0.3,0.7-0.6v-2l-1.3,0.1c-0.4,0-0.9,0.2-1.2,0.4
	c-0.3,0.3-0.4,0.6-0.4,1c0,0.3,0.1,0.7,0.3,0.9c0.3,0.2,0.6,0.4,1,0.3C102.7,47.4,103,47.3,103.3,47.2z"/>
<path d="M108.7,48.2c-0.6-0.7-0.8-1.6-0.8-2.5v-6.1h2.1v6c0,0.4,0.1,0.9,0.3,1.2c0.3,0.3,0.6,0.4,1,0.4c0.3,0,0.7-0.1,1-0.2
	c0.3-0.1,0.6-0.4,0.8-0.7v-6.7h2.1v9.3h-1.8l-0.2-1h-0.1c-0.3,0.4-0.7,0.6-1.2,0.8c-0.4,0.2-0.9,0.3-1.4,0.3
	C110.1,49,109.3,48.7,108.7,48.2z"/>
<path d="M117.1,48.6v-1.7c0.8,0.3,1.7,0.4,2.5,0.4c1.2,0,1.8-0.4,1.8-1.2c0-0.2-0.1-0.5-0.2-0.7c-0.2-0.2-0.5-0.3-0.8-0.4l-1.2-0.3
	c-0.7-0.1-1.3-0.4-1.7-0.9c-0.4-0.5-0.6-1.1-0.6-1.7c0-0.5,0.1-1,0.4-1.5c0.3-0.5,0.8-0.8,1.3-1c0.7-0.3,1.4-0.4,2.1-0.4
	c0.7,0,1.5,0.1,2.2,0.3v1.7c-0.7-0.2-1.4-0.3-2.1-0.3c-0.5,0-1,0.1-1.5,0.3c-0.3,0.2-0.4,0.5-0.4,0.8c0,0.2,0.1,0.5,0.2,0.7
	c0.2,0.2,0.5,0.3,0.7,0.4l1.2,0.3c0.7,0.1,1.3,0.4,1.7,0.9c0.4,0.5,0.6,1.1,0.6,1.7c0,1.1-0.7,2.2-1.7,2.5c-0.6,0.2-1.3,0.4-2,0.3
	C118.8,48.9,117.9,48.8,117.1,48.6z"/>
<path d="M131.8,44.8h-5.3c0,0.5,0.1,1,0.3,1.5c0.2,0.3,0.5,0.6,0.8,0.8c0.5,0.2,1,0.2,1.5,0.2c0.7,0,1.5-0.1,2.2-0.3v1.7
	c-0.8,0.2-1.6,0.3-2.5,0.3c-0.9,0-1.8-0.1-2.6-0.5c-0.7-0.3-1.2-0.9-1.5-1.6c-0.4-0.9-0.5-1.8-0.5-2.8c-0.1-1.3,0.3-2.5,1-3.5
	c0.7-0.8,1.8-1.3,2.8-1.2c1-0.1,2,0.4,2.7,1.2c0.7,1.1,1,2.3,0.9,3.6L131.8,44.8z M127.3,41c-0.3,0.2-0.5,0.5-0.6,0.8
	c-0.2,0.5-0.2,1.1-0.2,1.6h3.3c0-0.5-0.1-1.1-0.2-1.6c-0.1-0.3-0.3-0.6-0.5-0.8c-0.3-0.2-0.6-0.3-0.9-0.2
	C127.9,40.8,127.6,40.9,127.3,41z"/>
</svg>
