<svg id="Layer_1" data-name="Layer 1" xmlns="http://www.w3.org/2000/svg" viewBox="0 0 140 84"><defs><style>.cls-1{fill:none;stroke:#bab8bb;}.cls-2{fill:#818181;}</style></defs><g id="Docs"><g id="ConnectToMG_IntermediaryCurrent-Copy" data-name="ConnectToMG IntermediaryCurrent-Copy"><g id="LOADcsvclause-unselected"><rect id="Rectangle" class="cls-1" x="0.5" y="0.5" width="139" height="83" rx="2"/></g></g></g><path class="cls-2" d="M8.17,48.78V36.2h2.18V46.9h5.51v1.88Z"/><path class="cls-2" d="M17.68,47.36a7.19,7.19,0,0,1-1.39-4.87,7.19,7.19,0,0,1,1.39-4.86A4.88,4.88,0,0,1,21.55,36a4.9,4.9,0,0,1,3.87,1.58,7.22,7.22,0,0,1,1.39,4.87,7.22,7.22,0,0,1-1.39,4.87,4.87,4.87,0,0,1-3.87,1.58A4.87,4.87,0,0,1,17.68,47.36Zm6.12-1.29a6.12,6.12,0,0,0,.78-3.53,6.36,6.36,0,0,0-.78-3.6,2.57,2.57,0,0,0-2.25-1.09,2.59,2.59,0,0,0-2.24,1.07,6.13,6.13,0,0,0-.78,3.52,6.45,6.45,0,0,0,.77,3.61,2.59,2.59,0,0,0,2.25,1.08A2.59,2.59,0,0,0,23.8,46.07Z"/><path class="cls-2" d="M36.22,48.78l-1.09-3.62H30.61l-1.09,3.62H27.39L31.3,36.2h3.18l3.91,12.58Zm-5.06-5.43h3.43l-1.72-5.72Z"/><path class="cls-2" d="M39.64,48.73V36.42a16.7,16.7,0,0,1,3.42-.36,6.36,6.36,0,0,1,4.71,1.57,6.65,6.65,0,0,1,1.57,4.86,7.89,7.89,0,0,1-.74,3.65,4.56,4.56,0,0,1-2.22,2.09,8.77,8.77,0,0,1-3.72.68A26.67,26.67,0,0,1,39.64,48.73Zm5.73-2.09a2.93,2.93,0,0,0,1.29-1.47,7,7,0,0,0,.43-2.69,6.85,6.85,0,0,0-.43-2.66,2.88,2.88,0,0,0-1.27-1.48,4.33,4.33,0,0,0-2.15-.47,8.08,8.08,0,0,0-1.43.13v9a12.13,12.13,0,0,0,1.38.07A4.64,4.64,0,0,0,45.37,46.64Z"/><path class="cls-2" d="M56.17,47.42q-1.48-1.53-1.49-4.9a6.83,6.83,0,0,1,1.53-4.89A5.87,5.87,0,0,1,60.64,36a9.7,9.7,0,0,1,2.51.31v1.84a9.06,9.06,0,0,0-2.35-.3,4.54,4.54,0,0,0-2.15.45,2.78,2.78,0,0,0-1.26,1.46A6.89,6.89,0,0,0,57,42.48a7.08,7.08,0,0,0,.43,2.74,2.74,2.74,0,0,0,1.25,1.45,4.48,4.48,0,0,0,2.1.43,8,8,0,0,0,2.41-.42v1.84a6,6,0,0,1-1.25.31,8.18,8.18,0,0,1-1.4.11A5.75,5.75,0,0,1,56.17,47.42Z"/><path class="cls-2" d="M65.67,48.82a8.13,8.13,0,0,1-1.51-.38V46.62a9.48,9.48,0,0,0,1.55.37,9.35,9.35,0,0,0,1.55.13c1.63,0,2.44-.58,2.44-1.75a1.69,1.69,0,0,0-.18-.82,1.71,1.71,0,0,0-.61-.58,5.63,5.63,0,0,0-1.18-.47l-.81-.23A4.81,4.81,0,0,1,64.66,42a3.28,3.28,0,0,1-.77-2.24,3.61,3.61,0,0,1,.53-2A3.36,3.36,0,0,1,66,36.48a6.78,6.78,0,0,1,2.6-.44,11.09,11.09,0,0,1,1.43.09,7.83,7.83,0,0,1,1.25.26v1.83a8.41,8.41,0,0,0-2.53-.36,3.6,3.6,0,0,0-2,.45,1.47,1.47,0,0,0-.64,1.28,1.68,1.68,0,0,0,.17.79,1.36,1.36,0,0,0,.55.54,4.36,4.36,0,0,0,1.08.44l.79.24a5.15,5.15,0,0,1,2.42,1.33,3.23,3.23,0,0,1,.8,2.27,3.61,3.61,0,0,1-.55,2,3.45,3.45,0,0,1-1.58,1.29,6.23,6.23,0,0,1-2.49.44A11.08,11.08,0,0,1,65.67,48.82Z"/><path class="cls-2" d="M80.86,36.2H83L79.1,48.78H75.86L72,36.2h2.27l3.29,10.93Z"/><path class="cls-2" d="M88.58,47.78a5.19,5.19,0,0,1-1.08-3.62,5,5,0,0,1,1.17-3.64,4.63,4.63,0,0,1,3.39-1.16,7.84,7.84,0,0,1,1.81.2v1.75a7,7,0,0,0-1.48-.16,3.49,3.49,0,0,0-1.52.29,1.77,1.77,0,0,0-.86.94,4.39,4.39,0,0,0-.28,1.74,5.2,5.2,0,0,0,.26,1.8,1.79,1.79,0,0,0,.79,1,2.68,2.68,0,0,0,1.34.3,6.1,6.1,0,0,0,1.75-.32v1.75a6.62,6.62,0,0,1-2.14.34A4,4,0,0,1,88.58,47.78Z"/><path class="cls-2" d="M95.29,48.78V35.05h2.14V48.78Z"/><path class="cls-2" d="M104.47,39.71a2.36,2.36,0,0,1,1.22,1.13,4.67,4.67,0,0,1,.4,2.13v5.81h-1.76l-.15-1h-.11a2.46,2.46,0,0,1-1,.85,3.12,3.12,0,0,1-1.36.28,3.16,3.16,0,0,1-1.45-.31,2.32,2.32,0,0,1-1-.91A2.83,2.83,0,0,1,99,46.33a2.51,2.51,0,0,1,.84-2,4.64,4.64,0,0,1,2.64-.86l1.55-.14v-.45a2.3,2.3,0,0,0-.21-1.08,1.22,1.22,0,0,0-.65-.55,3.47,3.47,0,0,0-1.18-.17,8.26,8.26,0,0,0-1.15.1,7.9,7.9,0,0,0-1.19.27V39.74a8.56,8.56,0,0,1,1.31-.28,11.53,11.53,0,0,1,1.4-.1A5.57,5.57,0,0,1,104.47,39.71Zm-1.2,7.47a1.93,1.93,0,0,0,.74-.58v-2l-1.34.12a2.07,2.07,0,0,0-1.2.42,1.25,1.25,0,0,0-.38,1,1.23,1.23,0,0,0,.34.93,1.36,1.36,0,0,0,1,.32A2.18,2.18,0,0,0,103.27,47.18Z"/><path class="cls-2" d="M108.74,48.15a3.53,3.53,0,0,1-.76-2.53V39.51h2.14v6a1.68,1.68,0,0,0,.35,1.21,1.29,1.29,0,0,0,1,.36,2.33,2.33,0,0,0,1-.23,2,2,0,0,0,.8-.66V39.51h2.14v9.27h-1.78l-.15-1h-.11a3.62,3.62,0,0,1-1.15.85,3.28,3.28,0,0,1-1.36.28A2.7,2.7,0,0,1,108.74,48.15Z"/><path class="cls-2" d="M117.11,48.57V46.9a8.41,8.41,0,0,0,2.53.4c1.17,0,1.75-.39,1.75-1.16a1,1,0,0,0-.23-.68,1.42,1.42,0,0,0-.76-.37l-1.25-.28a3,3,0,0,1-1.72-.9,2.49,2.49,0,0,1-.55-1.71,2.61,2.61,0,0,1,.43-1.49,2.71,2.71,0,0,1,1.3-1,5.44,5.44,0,0,1,2.11-.36,8.76,8.76,0,0,1,2.16.26v1.67A8,8,0,0,0,120.8,41a2.66,2.66,0,0,0-1.48.32,1,1,0,0,0-.45.83.92.92,0,0,0,.22.65,1.46,1.46,0,0,0,.74.36l1.25.27a3.26,3.26,0,0,1,1.74.89,2.5,2.5,0,0,1,.55,1.72,2.61,2.61,0,0,1-1.71,2.54,5.18,5.18,0,0,1-2,.34A7.91,7.91,0,0,1,117.11,48.57Z"/><path class="cls-2" d="M131.83,44.8h-5.29a3.44,3.44,0,0,0,.31,1.45,1.6,1.6,0,0,0,.83.77,4.15,4.15,0,0,0,1.5.23,8.28,8.28,0,0,0,2.19-.32v1.69a9.57,9.57,0,0,1-2.46.33,5.78,5.78,0,0,1-2.56-.49,3.19,3.19,0,0,1-1.49-1.56,6.79,6.79,0,0,1-.49-2.78,5.44,5.44,0,0,1,1-3.55,3.51,3.51,0,0,1,2.84-1.21,3.18,3.18,0,0,1,2.69,1.21,6,6,0,0,1,.92,3.62Zm-4.52-3.75a1.55,1.55,0,0,0-.56.83,5.54,5.54,0,0,0-.22,1.6h3.28a5.9,5.9,0,0,0-.2-1.6,1.58,1.58,0,0,0-.53-.83,1.42,1.42,0,0,0-.87-.25A1.52,1.52,0,0,0,127.31,41.05Z"/></svg>