<?xml version="1.0" encoding="UTF-8"?>
<svg width="140px" height="84px" viewBox="0 0 140 84" version="1.1" xmlns="http://www.w3.org/2000/svg" xmlns:xlink="http://www.w3.org/1999/xlink">
    <title>mysql-unselected</title>
    <g id="Docs" stroke="none" stroke-width="1" fill="none" fill-rule="evenodd">
        <g id="ConnectToMG_IntermediaryCurrent-Copy" transform="translate(-955.000000, -676.000000)">
            <g id="mysql-unselected" transform="translate(955.000000, 676.000000)">
                <rect id="Rectangle-Copy" stroke="#BAB8BB" x="0.5" y="0.5" width="139" height="83" rx="2"></rect>
                <g id="MySQL" transform="translate(28.000000, 20.000000)" fill="#818181">
                    <path d="M0.361462366,39.6913118 L3.10554839,39.6913118 L3.10554839,28.82 L7.39058065,38.2979785 C7.87647312,39.4377204 8.57290323,39.8602151 9.92365591,39.8602151 C11.2748817,39.8602151 11.9292043,39.4377204 12.435914,38.2979785 L16.700129,28.82 L16.700129,39.6913118 L19.4650323,39.6913118 L19.4650323,28.82 C19.4650323,27.7644731 19.0430108,27.2577634 18.1563871,26.9833548 C16.0666237,26.3503226 14.6732903,26.8991398 14.0402581,28.3132903 L9.83944086,37.6857634 L5.78623656,28.3132903 C5.17402151,26.8991398 3.75987097,26.3503226 1.6488172,26.9833548 C0.783483871,27.2577634 0.361462366,27.7644731 0.361462366,28.82 L0.361462366,39.6913118" id="Fill-2"></path>
                    <path d="M21.7449892,30.8463656 L24.5103656,30.8463656 L24.5103656,36.8204301 C24.4895484,37.1582366 24.615871,37.9180645 26.1147097,37.9393548 C26.895828,37.960172 32.0674839,37.9393548 32.1095914,37.9393548 L32.1095914,30.8042581 L34.8749677,30.8042581 C34.8749677,30.8042581 34.8749677,40.5353548 34.8749677,40.5779355 C34.8749677,42.9842151 31.8985806,43.5122151 30.5057204,43.5330323 L21.8083871,43.5330323 L21.8083871,41.6963871 C21.8296774,41.6963871 30.5057204,41.6963871 30.5265376,41.6963871 C32.2997849,41.5066667 32.0887742,40.620043 32.0887742,40.3243441 L32.0887742,39.6066237 L26.2415054,39.6066237 C23.5182366,39.5858065 21.7662796,38.3821935 21.7449892,37.0101505 C21.7449892,36.883828 21.8083871,30.8884731 21.7449892,30.8463656" id="Fill-3"></path>
                    <path d="M81.0621935,23.9227527 C79.3736344,23.880172 78.0649892,24.0490753 76.9668817,24.5136774 C76.6503656,24.6404731 76.1436559,24.6404731 76.1015484,25.0412043 C76.2704516,25.2101075 76.2917419,25.4845161 76.4393548,25.7168172 C76.6924731,26.1388387 77.1357849,26.7089462 77.5369892,27.0046452 C77.9803011,27.3424516 78.4236129,27.6797849 78.8882151,27.9754839 C79.7114409,28.4821935 80.640172,28.7778925 81.4421075,29.284129 C81.9067097,29.579828 82.3708387,29.9597419 82.8354409,30.2767312 C83.0677419,30.4451613 83.2153548,30.7195699 83.5110538,30.8250753 C83.5110538,30.8042581 83.5110538,30.7829677 83.5110538,30.7621505 C83.3629677,30.571957 83.3208602,30.2975484 83.1732473,30.0865376 C82.9622366,29.8755269 82.7512258,29.6853333 82.5402151,29.4743226 C81.9275269,28.6510968 81.1676989,27.9333763 80.3444731,27.3424516 C79.6688602,26.8778495 78.1913118,26.2443441 77.9169032,25.4636989 C77.9169032,25.4636989 77.8956129,25.4424086 77.8747957,25.4215914 C78.3393978,25.3790108 78.8882151,25.2101075 79.3315269,25.0833118 C80.0487742,24.8935914 80.7035699,24.9356989 81.4421075,24.7459785 C81.779914,24.6612903 82.1177204,24.5557849 82.4555269,24.4502796 C82.4555269,24.3868817 82.4555269,24.3234839 82.4555269,24.2605591 C82.0756129,23.880172 81.8012043,23.3739355 81.4,23.0148387 C80.3236559,22.0861075 79.1413333,21.1781935 77.9169032,20.4183656 C77.2625806,19.9963441 76.4180645,19.7219355 75.7216344,19.3628387 C75.468043,19.236043 75.0460215,19.1731183 74.8984086,18.9616344 C74.5184946,18.4975054 74.3070108,17.8852903 74.0330753,17.3364731 C73.4208602,16.1754409 72.8294624,14.8876129 72.3019355,13.6636559 C71.9220215,12.839957 71.6897204,12.0167312 71.2251183,11.2569032 C69.0511398,7.66830108 66.6869677,5.49432258 63.0557849,3.36197849 C62.2751398,2.91866667 61.3464086,2.72894624 60.3542796,2.49664516 C59.8262796,2.47535484 59.2987527,2.43324731 58.7707527,2.41195699 C58.4329462,2.26434409 58.0951398,1.86313978 57.799914,1.67341935 C56.5967742,0.913591398 53.4935914,-0.732860215 52.6069677,1.44111828 C52.0368602,2.81316129 53.4514839,4.1643871 53.9369032,4.8608172 C54.2955269,5.34623656 54.760129,5.89505376 55.0132473,6.44387097 C55.1608602,6.80296774 55.2034409,7.18288172 55.3510538,7.5627957 C55.6888602,8.49152688 56.0053763,9.52576344 56.4486882,10.3915699 C56.6809892,10.8348817 56.9341075,11.2990108 57.2298065,11.7002151 C57.3987097,11.9325161 57.6944086,12.0380215 57.7578065,12.4179355 C57.4621075,12.839957 57.4408172,13.4734624 57.271914,14.0009892 C56.512086,16.3864516 56.8077849,19.3420215 57.884129,21.0939785 C58.2219355,21.6215054 59.0243441,22.7825376 60.1006882,22.3392258 C61.0507097,21.9593118 60.8396989,20.756172 61.1141075,19.7006452 C61.1770323,19.4475269 61.1349247,19.2786237 61.2617204,19.1097204 C61.2617204,19.1305376 61.2617204,19.151828 61.2617204,19.151828 C61.5574194,19.7427527 61.8526452,20.3128602 62.1270538,20.9037849 C62.7818495,21.9380215 63.9215914,23.0148387 64.8711398,23.7325591 C65.3778495,24.1124731 65.7790538,24.7667957 66.4125591,24.9990968 C66.4125591,24.9778065 66.4125591,24.9569892 66.4125591,24.9356989 C66.3912688,24.9356989 66.3912688,24.9356989 66.3704516,24.9356989 C66.2436559,24.7459785 66.0534624,24.6612903 65.8845591,24.5136774 C65.5046452,24.1337634 65.0826237,23.6691613 64.7869247,23.2471398 C63.9003011,22.0648172 63.1191828,20.756172 62.4227527,19.4049462 C62.0849462,18.7506237 61.7892473,18.0329032 61.5153118,17.3785806 C61.3885161,17.1254624 61.3885161,16.7455484 61.1770323,16.6187527 C60.8605161,17.0828817 60.3963871,17.484086 60.164086,18.0541935 C59.7628817,18.9616344 59.7207742,20.0805591 59.5731613,21.2415914 C59.4884731,21.2628817 59.5305806,21.2415914 59.4884731,21.2836989 C58.8133333,21.1152688 58.5810323,20.4183656 58.3274409,19.8274409 C57.6944086,18.3286022 57.5884301,15.9218495 58.1377204,14.1911828 C58.2853333,13.747871 58.9188387,12.3545376 58.6652473,11.9325161 C58.5384516,11.5313118 58.1164301,11.2990108 57.884129,10.9824946 C57.6097204,10.5812903 57.3144946,10.0750538 57.1243011,9.63174194 C56.6175914,8.44941935 56.3644731,7.14077419 55.8156559,5.95845161 C55.5620645,5.40963441 55.1187527,4.83952688 54.760129,4.33329032 C54.3589247,3.7631828 53.9156129,3.36197849 53.5990968,2.68636559 C53.4935914,2.45453763 53.3459785,2.07462366 53.5144086,1.82103226 C53.5569892,1.65212903 53.6412043,1.58873118 53.8101075,1.54662366 C54.0845161,1.31432258 54.8656344,1.61002151 55.140043,1.7368172 C55.9211613,2.05333333 56.5754839,2.34903226 57.2298065,2.79187097 C57.5255054,3.00335484 57.8420215,3.40408602 58.2219355,3.51006452 C58.3695484,3.51006452 58.5176344,3.51006452 58.6652473,3.51006452 C59.3408602,3.65767742 60.1006882,3.55217204 60.7341935,3.74189247 C61.8526452,4.10098925 62.8660645,4.62851613 63.7739785,5.19862366 C66.5388817,6.95058065 68.8188387,9.44154839 70.3597849,12.4179355 C70.6129032,12.9033548 70.7188817,13.3466667 70.9511828,13.8533763 C71.3940215,14.8876129 71.9433118,15.9431398 72.3861505,16.9565591 C72.8294624,17.9486882 73.251957,18.9616344 73.8849892,19.7853333 C74.2015054,20.228172 75.468043,20.4604731 76.0381505,20.6927742 C76.460172,20.8829677 77.1149677,21.051871 77.4948817,21.2836989 C78.2126022,21.7270108 78.9303226,22.2337204 79.6059355,22.7191398 C79.9432688,22.9727312 80.9987957,23.5002581 81.0621935,23.9227527" id="Fill-4"></path>
                    <path d="M59.5305806,5.57853763 C59.171957,5.57853763 58.9188387,5.62064516 58.6652473,5.68404301 C58.6652473,5.68404301 58.6652473,5.70533333 58.6652473,5.72615054 C58.6865376,5.72615054 58.6865376,5.72615054 58.7073548,5.72615054 C58.8762581,6.06395699 59.171957,6.29625806 59.3829677,6.59195699 C59.551871,6.92976344 59.6994839,7.26709677 59.8683871,7.60490323 C59.8896774,7.58408602 59.9104946,7.5627957 59.9104946,7.5627957 C60.2061935,7.35178495 60.3542796,7.01397849 60.3542796,6.50726882 C60.2274839,6.35965591 60.2061935,6.21204301 60.1006882,6.06395699 C59.9738925,5.85294624 59.6994839,5.74744086 59.5305806,5.57853763" id="Fill-5"></path>
                    <path d="M36.9860215,39.6913118 L44.9230538,39.6913118 C45.8517849,39.6913118 46.7384086,39.5011183 47.456129,39.1633118 C48.6592688,38.6144946 49.2293763,37.875957 49.2293763,36.9046452 L49.2293763,34.8782796 C49.2293763,34.0971613 48.5750538,33.3586237 47.2664086,32.851914 C46.5907957,32.5983226 45.7462796,32.4507097 44.9230538,32.4507097 L41.588043,32.4507097 C40.4691183,32.4507097 39.9415914,32.1129032 39.7935054,31.3738925 C39.7722151,31.2896774 39.7722151,31.2054624 39.7722151,31.1207742 L39.7722151,29.8755269 C39.7722151,29.812129 39.7722151,29.7274409 39.7935054,29.6432258 C39.9415914,29.0731183 40.2368172,28.9255054 41.208129,28.82 C41.2923441,28.82 41.3978495,28.82 41.4612473,28.82 L49.3348817,28.82 L49.3348817,26.9833548 L41.6088602,26.9833548 C40.4899355,26.9833548 39.8990108,27.0467527 39.3714839,27.2156559 C37.7458495,27.7223656 37.028129,28.5243011 37.028129,29.9384516 L37.028129,31.5432688 C37.028129,32.7885161 38.4214624,33.844043 40.7856344,34.0971613 C41.0387527,34.1184516 41.3136344,34.1184516 41.588043,34.1184516 L44.4376344,34.1184516 C44.5431398,34.1184516 44.6486452,34.1184516 44.7333333,34.1392688 C45.5986667,34.223957 45.9785806,34.3715699 46.2316989,34.688086 C46.4006022,34.8569892 46.4431828,35.0050753 46.4431828,35.1947957 L46.4431828,36.7991398 C46.4431828,36.9893333 46.3163871,37.2424516 46.0632688,37.4534624 C45.8096774,37.6649462 45.4084731,37.8125591 44.8809462,37.8333763 C44.7754409,37.8333763 44.712043,37.8546667 44.6065376,37.8546667 L36.9860215,37.8546667 L36.9860215,39.6913118" id="Fill-6"></path>
                    <path d="M66.4125591,36.503914 C66.4125591,38.3821935 67.8267097,39.4377204 70.6554839,39.6487312 C70.9298925,39.6700215 71.1830108,39.6913118 71.4574194,39.6913118 L78.6346237,39.6913118 L78.6346237,37.8546667 L71.3940215,37.8546667 C69.7901505,37.8546667 69.1779355,37.4534624 69.1779355,36.4826237 L69.1779355,26.9833548 L66.4125591,26.9833548 L66.4125591,36.503914" id="Fill-7"></path>
                    <path d="M50.9813333,36.588129 L50.9813333,30.0444301 C50.9813333,28.3766882 52.1636559,27.3632688 54.4644301,27.0467527 C54.7180215,27.0254624 54.9711398,27.0046452 55.2034409,27.0046452 L60.4384946,27.0046452 C60.7129032,27.0046452 60.9452043,27.0254624 61.2196129,27.0467527 C63.5203871,27.3632688 64.6814194,28.3766882 64.6814194,30.0444301 L64.6814194,36.588129 C64.6814194,37.9393548 64.196,38.6570753 63.0557849,39.1424946 L65.7577634,41.5908817 L62.5703656,41.5908817 L60.3750968,39.6066237 L58.1585376,39.7334194 L55.2034409,39.7334194 C54.7180215,39.7334194 54.1687312,39.6700215 53.5990968,39.5224086 C51.8471398,39.0369892 50.9813333,38.1077849 50.9813333,36.588129 Z M53.9577204,36.4405161 C53.9577204,36.5247312 54.0003011,36.6094194 54.0211183,36.7149247 C54.1687312,37.4747527 54.8869247,37.8967742 55.9845591,37.8967742 L58.4750538,37.8967742 L56.1955699,35.8283011 L59.3829677,35.8283011 L61.3885161,37.6436559 C61.7684301,37.4326452 62.0007312,37.1369462 62.0849462,36.7570323 C62.1062366,36.6728172 62.1062366,36.5668387 62.1062366,36.4826237 L62.1062366,30.2128602 C62.1062366,30.1286452 62.1062366,30.0444301 62.0849462,29.9597419 C61.9373333,29.2420215 61.2196129,28.8408172 60.1427957,28.8408172 L55.9845591,28.8408172 C54.760129,28.8408172 53.9577204,29.3688172 53.9577204,30.2128602 L53.9577204,36.4405161 L53.9577204,36.4405161 Z" id="Fill-8"></path>
                    <path d="M79.9011613,39.7126022 L80.3023656,39.7126022 L80.3023656,38.1711828 L80.8298925,38.1711828 L80.8298925,37.8546667 L79.3523441,37.8546667 L79.3523441,38.1711828 L79.9011613,38.1711828 L79.9011613,39.7126022 Z M82.9622366,39.7126022 L83.3421505,39.7126022 L83.3421505,37.8546667 L82.772043,37.8546667 L82.307914,39.1212043 L81.8012043,37.8546667 L81.2523871,37.8546667 L81.2523871,39.7126022 L81.6110108,39.7126022 L81.6110108,38.2979785 L81.6323011,38.2979785 L82.159828,39.7126022 L82.4342366,39.7126022 L82.9622366,38.2979785 L82.9622366,39.7126022 L82.9622366,39.7126022 Z" id="Fill-9"></path>
                </g>
            </g>
        </g>
    </g>
</svg>