<?xml version="1.0" encoding="UTF-8"?>
<svg width="140px" height="84px" viewBox="0 0 140 84" version="1.1" xmlns="http://www.w3.org/2000/svg" xmlns:xlink="http://www.w3.org/1999/xlink">
    <title>postgresql-selected</title>
    <defs>
        <rect id="path-1" x="0" y="0" width="140" height="84" rx="2"></rect>
    </defs>
    <g id="Docs" stroke="none" stroke-width="1" fill="none" fill-rule="evenodd">
        <g id="ConnectToMG_IntermediaryCurrent-Copy" transform="translate(-955.000000, -230.000000)">
            <g id="postgresql-selected" transform="translate(955.000000, 230.000000)">
                <g id="postgresql-seeklogo.com">
                    <mask id="mask-2" fill="white">
                        <use xlink:href="#path-1"></use>
                    </mask>
                    <g id="Mask"></g>
                    <g mask="url(#mask-2)" id="Layer_1">
                        <g transform="translate(-9.000000, 17.709002)">
                            <g transform="translate(21.799345, 13.321822)" id="Group" fill-rule="nonzero">
                                <path d="M84.7752319,7.6903246 C83.3219422,8.47752319 83.3824959,11.0207801 84.9568931,11.6263175 C86.6523977,12.2318549 88.4690098,12.2924086 90.1645145,12.7162848 C90.5883906,12.8373923 91.0122668,13.0190535 91.193928,13.4429296 C91.6178041,14.2906819 91.2544817,15.5623104 90.2856219,15.8650791 C88.892886,16.2889553 87.2579351,16.2889553 85.9257529,15.7439716 C85.0174468,15.3806492 84.5935706,14.4723432 84.5330169,13.6245908 C84.1696945,13.6245908 83.7458183,13.6245908 83.3824959,13.6851446 C83.4430496,14.5328969 83.6247109,15.4412029 84.290802,15.9861866 C85.3807692,16.8339389 86.7735052,16.9550464 88.1056874,17.0156001 C89.3167621,17.0156001 90.6489444,16.8944926 91.6783579,16.2284015 C92.8894326,15.3806492 93.0105401,13.1401609 91.5572504,12.4135161 C90.2250682,11.747425 88.7112248,11.6868712 87.3184888,11.3841026 C86.6523977,11.2024414 85.8651991,11.1418876 85.2596618,10.7180115 C84.4724632,9.99136661 84.8357856,8.47752319 85.8651991,8.23530824 C87.1973813,7.87198582 88.650671,7.81143208 89.9222995,8.29586197 C90.7094981,8.53807692 91.0122668,9.38582924 91.1333742,10.0519203 C91.4966967,10.0519203 91.8600191,10.0519203 92.2838953,10.0519203 C92.2838953,9.3252755 92.0416803,8.53807692 91.4361429,8.05364703 C90.4672831,7.26644845 89.1351009,7.20589471 87.9845799,7.20589471 C86.9551664,7.14534097 85.8046454,7.14534097 84.7752319,7.6903246 Z" id="Path" fill="#326690"></path>
                                <path d="M41.6004173,7.99309329 C40.99488,7.44810966 40.0865739,7.26644845 39.2993753,7.26644845 C37.543317,7.26644845 35.7872586,7.32700218 34.0312002,7.32700218 C34.0312002,10.4152428 34.0312002,13.5640371 34.0312002,16.6522777 C34.3339689,16.6522777 34.6367376,16.6522777 34.9395063,16.6522777 C34.9395063,15.3200955 34.8789525,13.9879133 34.9395063,12.7162848 C36.4533497,12.7162848 37.9066394,12.7162848 39.4204828,12.7162848 C40.5104501,12.655731 41.7820786,12.1713011 42.2059547,11.0813339 C42.5692771,10.0519203 42.4481697,8.71973813 41.6004173,7.99309329 Z M41.1159875,10.8996727 C40.8132188,11.6868712 39.9049127,11.9290862 39.1177141,11.9896399 C37.7249782,12.0501937 36.3322422,11.9896399 35.00006,11.9896399 C35.00006,10.7180115 35.00006,9.38582924 35.00006,8.11420076 C36.3322422,8.11420076 37.6644244,8.11420076 38.9966067,8.11420076 C39.6626978,8.11420076 40.4498963,8.23530824 40.8737725,8.78029187 C41.2976487,9.3252755 41.3582024,10.1730278 41.1159875,10.8996727 Z" id="Shape" fill="#000000"></path>
                                <path d="M105.424056,7.32700218 C105.424056,10.4152428 105.424056,13.5034834 105.424056,16.6522777 C108.088421,16.6522777 110.813339,16.6522777 113.477703,16.6522777 C113.477703,16.4100627 113.477703,16.1678478 113.477703,15.8650791 C111.176661,15.8045254 108.875619,15.8650791 106.514023,15.8045254 C106.514023,12.9584997 106.514023,10.1124741 106.514023,7.26644845 C106.150701,7.32700218 105.787379,7.32700218 105.424056,7.32700218 Z" id="Path" fill="#326690"></path>
                                <path d="M58.9187861,8.53807692 C58.9187861,9.20416803 58.9187861,9.87025914 58.9187861,10.5363502 C58.49491,10.5363502 58.1315876,10.5363502 57.7077114,10.5363502 C57.7077114,10.7180115 57.7077114,10.9602264 57.7077114,11.1418876 C58.1315876,11.1418876 58.5554637,11.1418876 58.9187861,11.1418876 C58.9187861,12.5346236 58.9187861,13.9879133 58.9187861,15.3806492 C58.9187861,15.8045254 59.0398936,16.2284015 59.403216,16.4706165 C60.0693071,16.7733852 60.795952,16.7128314 61.5225968,16.6522777 C61.5225968,16.4706165 61.5225968,16.2284015 61.5225968,16.0467403 C61.0381669,16.1072941 60.553737,16.1678478 60.1298609,15.9256328 C59.8270922,15.7439716 59.8876459,15.3806492 59.8270922,15.0778805 C59.8270922,13.7456983 59.8270922,12.4740698 59.8270922,11.1418876 C60.3720758,11.1418876 60.9170595,11.1418876 61.4620431,11.1418876 C61.4620431,10.8996727 61.4620431,10.7180115 61.4014894,10.4757965 C60.8565057,10.4757965 60.3115221,10.4757965 59.7665385,10.4757965 C59.7665385,9.8097054 59.7665385,9.14361429 59.7665385,8.47752319 C59.5848773,8.53807692 59.2215548,8.53807692 58.9187861,8.53807692 Z" id="Path" fill="#FFFFFF"></path>
                                <path d="M51.2284615,10.8996727 C50.3807092,11.4446563 50.3807092,13.0190535 51.4101227,13.4429296 C52.8028587,13.9273595 54.3772559,13.806252 55.8305456,14.2301282 C56.5571904,14.4723432 56.6177441,15.5623104 55.951653,15.9256328 C54.9827932,16.4100627 53.8322722,16.349509 52.8028587,16.1678478 C52.0762139,16.0467403 51.4706765,15.5623104 51.4101227,14.7751118 C51.0468003,14.7751118 50.6834779,14.7751118 50.3807092,14.7751118 C50.5018167,15.3200955 50.6229242,15.9256328 51.1073541,16.2889553 C51.8945526,16.8339389 52.9239662,16.8339389 53.8322722,16.8944926 C54.801132,16.8944926 55.8305456,16.8339389 56.6782979,16.349509 C57.4049427,15.9256328 57.6471577,14.956773 57.2232815,14.2906819 C56.9205128,13.806252 56.3755292,13.6245908 55.8305456,13.5034834 C54.6800245,13.2612684 53.4689498,13.2612684 52.3184288,13.0190535 C51.8945526,12.897946 51.5312302,12.5951773 51.5312302,12.1713011 C51.5312302,11.5657638 52.1973213,11.2629951 52.742305,11.1418876 C53.5900573,11.0207801 54.5589171,10.9602264 55.4066694,11.3235488 C55.8910993,11.50521 56.0122068,11.9896399 56.1333142,12.4740698 C56.4966367,12.4740698 56.7994053,12.4740698 57.1627278,12.4740698 C57.102174,11.9290862 56.9205128,11.3235488 56.4360829,11.0207801 C55.5277769,10.4152428 54.4378096,10.4152428 53.4083961,10.4757965 C52.6817512,10.4152428 51.8945526,10.4757965 51.2284615,10.8996727 Z" id="Path" fill="#FFFFFF"></path>
                                <path d="M72.7250382,10.596904 C72.301162,10.7785652 72.0589471,11.2024414 71.8167321,11.6263175 C71.8167321,11.2629951 71.8167321,10.8996727 71.8167321,10.596904 C71.5139634,10.596904 71.2111948,10.596904 70.8478723,10.596904 C70.7873186,12.655731 70.8478723,14.6540044 70.8478723,16.7128314 C71.150641,16.7128314 71.4534097,16.7128314 71.7561784,16.7128314 C71.7561784,15.6834179 71.7561784,14.5934506 71.7561784,13.5640371 C71.7561784,12.8373923 71.9983933,11.9896399 72.6039307,11.5657638 C73.2700218,11.0813339 74.1177741,11.2024414 74.9049727,11.2024414 C74.9049727,10.9602264 74.9049727,10.6574577 74.9049727,10.4152428 C74.1783279,10.354689 73.451683,10.2941353 72.7250382,10.596904 Z" id="Path" fill="#FFFFFF"></path>
                                <path d="M95.4932433,7.81143208 C96.8254255,7.14534097 98.339269,7.0242335 99.7925586,7.14534097 C101.185295,7.26644845 102.578031,7.75087834 103.486337,8.84084561 C104.636858,10.0519203 104.879073,11.9896399 104.394643,13.5640371 C104.152428,14.4723432 103.54689,15.1384343 102.880799,15.7439716 C103.425783,16.1072941 103.970767,16.4706165 104.51575,16.8944926 C104.273535,17.1367076 104.03132,17.3183688 103.789105,17.5605837 C103.244122,17.1972613 102.699138,16.7733852 102.154154,16.4706165 C101.730278,16.4706165 101.306402,16.7128314 100.821972,16.8339389 C99.6108974,17.0761538 98.2787152,17.0761538 97.0676405,16.8339389 C95.7354583,16.5917239 94.4032761,15.8045254 93.6766312,14.5934506 C92.9499864,13.4429296 92.8894326,11.9290862 93.1922013,10.6574577 C93.5555237,9.38582924 94.4032761,8.35641571 95.4932433,7.81143208 Z M97.3098554,8.05364703 C96.038227,8.35641571 94.8271522,9.26472177 94.4032761,10.5363502 C93.9793999,11.9290862 94.1005074,13.5640371 95.1299209,14.7145581 C96.038227,15.7439716 97.3704092,16.1678478 98.7025914,16.1678478 C100.155881,16.2284015 101.730278,15.8045254 102.699138,14.6540044 C104.03132,12.9584997 103.849659,10.2335816 102.093601,8.90139935 C100.761418,7.75087834 98.9448063,7.6903246 97.3098554,8.05364703 Z" id="Shape" fill="#326690"></path>
                                <path d="M58.9187861,8.53807692 C59.2215548,8.53807692 59.5243235,8.53807692 59.8876459,8.53807692 C59.8876459,9.20416803 59.8876459,9.87025914 59.8876459,10.5363502 C60.4326296,10.5363502 60.9776132,10.5363502 61.5225968,10.5363502 C61.5225968,10.7785652 61.5225968,10.9602264 61.5831506,11.2024414 C61.0381669,11.2024414 60.4931833,11.2024414 59.9481997,11.2024414 C59.9481997,12.5346236 59.9481997,13.806252 59.9481997,15.1384343 C59.9481997,15.4412029 59.9481997,15.8045254 60.2509684,15.9861866 C60.6748445,16.1678478 61.1592744,16.1072941 61.6437043,16.1072941 C61.6437043,16.2889553 61.6437043,16.5311702 61.6437043,16.7128314 C60.9170595,16.7733852 60.1904146,16.8339389 59.5243235,16.5311702 C59.1004474,16.349509 58.9793399,15.8650791 59.0398936,15.4412029 C59.0398936,14.048467 59.0398936,12.5951773 59.0398936,11.2024414 C58.6160175,11.2024414 58.1921413,11.2024414 57.8288189,11.2024414 C57.8288189,11.0207801 57.8288189,10.7785652 57.8288189,10.596904 C58.252695,10.596904 58.6160175,10.596904 59.0398936,10.596904 C58.9187861,9.87025914 58.9187861,9.20416803 58.9187861,8.53807692 Z" id="Path" fill="#000000"></path>
                                <path d="M48.5035434,10.8996727 C47.4135761,10.2941353 46.0813939,10.2335816 44.8703191,10.4152428 C43.8409056,10.596904 42.8720458,11.1418876 42.4481697,12.1107474 C42.0242935,13.0796072 42.0242935,14.2301282 42.5087234,15.198988 C43.053707,16.2284015 44.204228,16.7733852 45.2941953,16.8339389 C46.6869313,16.9550464 48.2613284,16.7733852 49.290742,15.6834179 C50.3807092,14.2906819 50.1384943,11.8079787 48.5035434,10.8996727 Z M48.3218822,15.4412029 C47.7768985,15.9861866 46.9896999,16.2284015 46.2630551,16.2284015 C45.4153028,16.2889553 44.5069967,16.1072941 43.9014594,15.5623104 C43.1142608,14.8356656 42.9931533,13.6245908 43.295922,12.5951773 C43.5986907,11.6868712 44.446443,11.1418876 45.354749,11.0207801 C46.2025014,10.8996727 47.1713612,10.9602264 47.9585597,11.4446563 C48.5640971,11.8079787 48.8668658,12.4740698 48.9274195,13.1401609 C49.048527,13.9879133 48.9274195,14.8356656 48.3218822,15.4412029 Z" id="Shape" fill="#000000"></path>
                                <path d="M51.2284615,10.8996727 C51.8339989,10.4757965 52.6211975,10.4152428 53.3478423,10.354689 C54.3772559,10.2941353 55.5277769,10.2941353 56.3755292,10.8996727 C56.8599591,11.2024414 57.0416203,11.8079787 57.102174,12.3529624 C56.7388516,12.3529624 56.4360829,12.3529624 56.0727605,12.3529624 C56.0122068,11.8685325 55.8305456,11.4446563 55.3461157,11.2024414 C54.4983633,10.8391189 53.5900573,10.8391189 52.6817512,11.0207801 C52.1367676,11.0813339 51.4706765,11.3841026 51.4706765,12.0501937 C51.4101227,12.4740698 51.8339989,12.8373923 52.2578751,12.897946 C53.4083961,13.2007147 54.6194708,13.1401609 55.7699918,13.3823759 C56.3149755,13.5034834 56.8599591,13.7456983 57.1627278,14.1695745 C57.5866039,14.8356656 57.344389,15.8650791 56.6177441,16.2284015 C55.7699918,16.7128314 54.7405783,16.7733852 53.7717185,16.7733852 C52.8634124,16.7128314 51.8339989,16.7128314 51.0468003,16.1678478 C50.5623704,15.8045254 50.3807092,15.2595417 50.3201555,14.6540044 C50.6834779,14.6540044 51.0468003,14.6540044 51.349569,14.6540044 C51.349569,15.4412029 52.0156601,15.9861866 52.742305,16.0467403 C53.7717185,16.1678478 54.9222395,16.2889553 55.8910993,15.8045254 C56.5571904,15.4412029 56.4966367,14.3512357 55.7699918,14.1090207 C54.3167021,13.6851446 52.742305,13.806252 51.349569,13.3218221 C50.3807092,13.0190535 50.3807092,11.4446563 51.2284615,10.8996727 Z" id="Path" fill="#000000"></path>
                                <path d="M64.4291762,10.4757965 C65.398036,10.2335816 66.4880033,10.2335816 67.4568631,10.5363502 C68.0018467,10.7180115 68.4257229,11.1418876 68.849599,11.50521 C68.849599,11.1418876 68.9101528,10.8391189 68.9101528,10.5363502 C69.2129214,10.5363502 69.5156901,10.5363502 69.8184588,10.5363502 C69.8790125,12.4135161 69.8184588,14.2906819 69.8790125,16.1678478 C69.9395663,16.9550464 69.7579051,17.8027987 69.1523677,18.3477823 C68.3651691,19.0744272 67.2146481,19.1955346 66.1852346,19.1955346 C65.2769285,19.1955346 64.3080687,19.1349809 63.4603164,18.7111047 C62.9153328,18.4083361 62.6125641,17.8027987 62.4914566,17.1972613 C62.7942253,17.1972613 63.096994,17.1972613 63.3997627,17.1972613 C63.5814239,17.6211375 63.7630851,18.1055674 64.1869613,18.2872286 C64.8530524,18.5899973 65.5796972,18.5899973 66.3063421,18.5899973 C67.0935406,18.5294435 68.0018467,18.4083361 68.4862766,17.742245 C68.9707065,17.0761538 68.849599,16.2284015 68.849599,15.4412029 C67.8807392,16.4706165 66.3668958,16.6522777 65.0347136,16.4706165 C64.1869613,16.349509 63.3392089,16.0467403 62.7336716,15.3806492 C62.0675805,14.5328969 62.0070267,13.3823759 62.2492417,12.4135161 C62.4914566,11.4446563 63.4603164,10.7180115 64.4291762,10.4757965 Z M65.2163748,11.0813339 C64.5502837,11.2024414 63.8236388,11.50521 63.4603164,12.1107474 C63.0364403,12.8373923 63.0364403,13.806252 63.2786552,14.5328969 C63.5814239,15.3200955 64.48973,15.7439716 65.2769285,15.8650791 C66.3063421,15.9861866 67.5174168,15.8650791 68.2440616,15.0778805 C69.091814,14.048467 68.9707065,12.2924086 67.8807392,11.50521 C67.1540944,10.9602264 66.1246809,10.9602264 65.2163748,11.0813339 Z" id="Shape" fill="#000000"></path>
                                <path d="M72.7250382,10.596904 C73.451683,10.2941353 74.1783279,10.354689 74.9049727,10.354689 C74.9049727,10.596904 74.9049727,10.8996727 74.9049727,11.1418876 C74.1177741,11.1418876 73.2700218,11.0207801 72.6039307,11.50521 C71.9983933,11.9290862 71.7561784,12.7768385 71.7561784,13.5034834 C71.7561784,14.5328969 71.7561784,15.6228642 71.7561784,16.6522777 C71.4534097,16.6522777 71.150641,16.6522777 70.8478723,16.6522777 C70.7873186,14.5934506 70.7873186,12.5951773 70.8478723,10.5363502 C71.150641,10.5363502 71.4534097,10.5363502 71.8167321,10.5363502 C71.8167321,10.8996727 71.8167321,11.2629951 71.8167321,11.5657638 C72.0589471,11.2024414 72.301162,10.7785652 72.7250382,10.596904 Z" id="Path" fill="#000000"></path>
                                <path d="M75.2682951,11.8685325 C75.8738325,10.8391189 77.145461,10.4152428 78.295982,10.354689 C79.5070567,10.2941353 80.839239,10.4757965 81.6869913,11.3841026 C82.3530824,11.9896399 82.5347436,12.897946 82.5952973,13.806252 C80.2942553,13.806252 78.053767,13.806252 75.752725,13.806252 C75.8132788,14.4117894 75.99494,15.0778805 76.4793699,15.5017567 C77.3876759,16.2889553 78.7198582,16.4100627 79.8098254,16.1072941 C80.5364703,15.9256328 81.1420076,15.3806492 81.3842226,14.6540044 C81.747545,14.6540044 82.1108674,14.6540044 82.4136361,14.6540044 C82.1108674,15.6834179 81.2025614,16.4100627 80.1731478,16.6522777 C78.7804119,16.9550464 77.145461,16.8944926 75.9343863,16.0467403 C74.7233115,15.198988 74.4810966,13.2007147 75.2682951,11.8685325 Z M77.0243535,11.3841026 C76.3582624,11.747425 75.99494,12.4740698 75.8738325,13.2007147 C77.8115521,13.2007147 79.7492717,13.2007147 81.6869913,13.2007147 C81.6264375,12.7768385 81.5053301,12.2924086 81.2025614,11.9896399 C80.1731478,10.7785652 78.295982,10.6574577 77.0243535,11.3841026 Z" id="Shape" fill="#000000"></path>
                                <path d="M16.2284015,0.726644845 C15.0778805,0.544983633 13.8668058,0.484429896 12.7162848,0.666091107 C12.0501937,0.787198582 11.3841026,1.08996727 10.8391189,1.39273595 C8.96195308,0.787198582 6.84257229,0.423876159 4.9048527,0.787198582 C3.51211675,1.02941353 2.17993453,1.87716585 1.45328969,3.14879433 C0.544983633,4.66263775 0.363322422,6.47924986 0.484429896,8.23530824 C0.726644845,10.1730278 1.21107474,12.1107474 1.75605837,13.9879133 C2.24048827,15.6228642 2.7854719,17.2578151 3.69377796,18.7111047 C4.17820786,19.4983033 4.9048527,20.3460556 5.87371249,20.5882706 C6.66091107,20.7699318 7.44810966,20.5277169 8.05364703,20.043287 C8.35641571,20.3460556 8.71973813,20.5882706 9.14361429,20.7093781 C10.2941353,21.1332542 11.5657638,21.1332542 12.7162848,20.6488243 C12.7768385,22.2232215 12.7162848,23.8581724 13.3218221,25.3114621 C13.5640371,26.0381069 13.9273595,26.704198 14.5934506,27.1280742 C15.3200955,27.6125041 16.1678478,27.6730578 17.0156001,27.5519504 C17.742245,27.4308429 18.5294435,27.1886279 19.1349809,26.8253055 C19.801072,26.4014294 20.3460556,25.795892 20.6488243,25.0692471 C21.3754692,23.4342962 21.4360229,21.6782379 21.4965767,19.9221795 C23.1920813,20.043287 24.9481397,19.6194108 26.2197681,18.4688898 C26.704198,18.0450136 27.1280742,17.3789225 26.946413,16.7128314 C26.7647518,16.1072941 26.0986607,15.6834179 25.4931233,15.7439716 C24.8270322,15.8045254 24.2214948,15.9861866 23.5554037,15.9861866 C25.0086934,13.4429296 26.1592144,10.7180115 26.6436443,7.87198582 C26.8253055,6.66091107 27.0069667,5.44983633 26.6436443,4.23876159 C26.4619831,3.57267049 25.9775532,3.02768685 25.4931233,2.54325696 C24.403156,1.45328969 22.8893126,0.726644845 21.3754692,0.423876159 C19.6194108,0.060553737 17.8633524,0.242214948 16.2284015,0.726644845 Z" id="Path" fill="#FFFFFF"></path>
                                <path d="M16.1678478,1.45328969 C17.9844599,0.908306056 19.9221795,0.726644845 21.7387916,1.27162848 C23.1920813,1.69550464 24.5242635,2.54325696 25.4325696,3.7543317 C25.795892,4.23876159 25.9169995,4.9048527 25.9169995,5.51039007 C25.9775532,6.60035734 25.7353382,7.6903246 25.4931233,8.71973813 C24.8270322,11.50521 23.6159574,14.1090207 22.102114,16.5311702 C22.9498663,16.8944926 23.9187261,16.7128314 24.7664785,16.5917239 C25.1298009,16.5311702 25.6142308,16.4100627 25.8564457,16.7733852 C26.0986607,17.1367076 25.8564457,17.5605837 25.6142308,17.8027987 C24.3426023,19.0744272 22.4048827,19.3771959 20.7093781,19.0744272 C20.5277169,20.5882706 20.3460556,22.102114 20.1038407,23.6765112 C19.9827332,24.5242635 19.6799645,25.4325696 19.0138734,25.9775532 C18.4083361,26.5225368 17.5605837,26.7647518 16.7733852,26.8858592 C15.9861866,27.0069667 15.0173268,26.946413 14.4117894,26.3408756 C13.7456983,25.7353382 13.3218221,24.8270322 13.2612684,23.9792799 C13.0796072,22.4654364 13.0796072,20.8910393 13.0796072,19.3771959 C12.3529624,19.9827332 11.3841026,20.3460556 10.4152428,20.2855019 C9.74915166,20.2249482 8.96195308,20.1038407 8.47752319,19.6194108 C8.1747545,19.3771959 8.23530824,18.892766 8.53807692,18.650551 C9.08306056,18.2266748 9.8097054,18.2872286 10.4152428,18.0450136 C10.8996727,17.9239062 11.1418876,17.4394763 11.3841026,17.1367076 C10.8391189,17.0761538 10.2941353,16.9550464 9.87025914,16.7128314 C9.14361429,17.50003 8.41696945,18.3477823 7.75087834,19.1349809 C7.32700218,19.6194108 6.78201855,20.043287 6.11592744,19.9221795 C5.3892826,19.801072 4.84429896,19.2560884 4.4204228,18.7111047 C3.63322422,17.5605837 3.08824059,16.2284015 2.66436443,14.8962193 C1.99827332,12.7162848 1.45328969,10.5363502 1.150521,8.29586197 C0.968859793,6.60035734 1.150521,4.78374523 2.1193808,3.39100927 C2.90657938,2.24048827 4.23876159,1.6349509 5.57094381,1.51384343 C7.38755592,1.33218221 9.20416803,1.69550464 10.8996727,2.30104201 C12.2924086,1.39273595 14.1090207,1.21107474 15.7439716,1.57439716 C15.9256328,1.45328969 16.0467403,1.51384343 16.1678478,1.45328969 Z M17.50003,1.93771959 C17.8633524,2.17993453 18.2266748,2.36159574 18.5899973,2.60381069 C20.043287,3.57267049 21.193808,4.96540644 21.8598991,6.5398036 C22.0415603,7.0242335 22.2837752,7.44810966 22.2232215,7.99309329 C22.2232215,9.02250682 21.8598991,10.0519203 21.9810065,11.0813339 C22.102114,12.1713011 22.344329,13.3218221 22.0415603,14.4117894 C21.9810065,14.7751118 21.7387916,15.1384343 21.6176841,15.5017567 C21.6176841,15.5623104 21.6782379,15.6834179 21.6782379,15.6834179 C21.7993453,15.5017567 21.9204528,15.3200955 22.0415603,15.1384343 C23.1920813,13.2612684 24.0398336,11.2024414 24.645371,9.08306056 C24.9481397,7.93253955 25.1903546,6.72146481 25.1903546,5.51039007 C25.1903546,5.02596017 25.1298009,4.48097654 24.8270322,4.05710038 C24.1609411,3.20934806 23.252635,2.54325696 22.2232215,2.1193808 C20.7093781,1.6349509 19.0744272,1.57439716 17.50003,1.93771959 Z M13.2612684,2.05882706 C12.1107474,2.17993453 11.0207801,2.84602564 10.354689,3.7543317 C9.44638298,5.02596017 9.02250682,6.60035734 8.90139935,8.11420076 C9.87025914,7.6903246 10.8996727,7.26644845 11.9896399,7.50866339 C12.655731,7.6903246 13.2007147,8.29586197 13.3218221,8.96195308 C13.6245908,10.354689 13.806252,11.747425 13.5034834,13.1401609 C13.2612684,14.2301282 12.5951773,15.198988 12.3529624,16.349509 C12.655731,16.349509 12.9584997,16.4100627 13.2007147,16.5311702 C13.7456983,16.8339389 14.048467,17.4394763 13.9879133,18.0450136 C13.9273595,19.5588571 13.9273595,21.0727005 14.048467,22.5865439 C14.1090207,23.1920813 14.1090207,23.8581724 14.2906819,24.4637098 C14.5328969,25.1903546 15.0173268,25.9169995 15.8045254,26.0986607 C16.6522777,26.2197681 17.50003,25.9775532 18.2872286,25.6142308 C19.0138734,25.2509083 19.3771959,24.403156 19.4983033,23.6159574 C19.7405183,21.9810065 19.9221795,20.3460556 20.1038407,18.7111047 C20.1643944,18.1055674 20.043287,17.50003 20.4066094,16.9550464 C20.5882706,16.5917239 20.951593,16.4706165 21.2543617,16.2889553 C21.0121468,15.9256328 20.7093781,15.5623104 20.4671631,15.198988 C19.6799645,13.5034834 18.5899973,11.9290862 18.2266748,10.1124741 C18.1055674,9.3252755 18.1661211,8.41696945 18.8322122,7.87198582 C19.5588571,7.26644845 20.5277169,7.32700218 21.4360229,7.32700218 C20.8910393,5.81315876 19.9221795,4.48097654 18.7111047,3.51211675 C17.1367076,2.36159574 15.1384343,1.81661211 13.2612684,2.05882706 Z M5.20762139,2.17993453 C4.17820786,2.36159574 3.14879433,2.96713312 2.60381069,3.93599291 C1.87716585,5.20762139 1.81661211,6.66091107 1.93771959,8.05364703 C2.17993453,9.87025914 2.60381069,11.6868712 3.14879433,13.5034834 C3.63322422,15.0173268 4.11765412,16.5311702 4.96540644,17.8633524 C5.26817512,18.3477823 5.63149755,18.8322122 6.17648118,19.0138734 C6.66091107,19.1349809 7.0242335,18.7111047 7.32700218,18.4083361 C7.93253955,17.6211375 8.6591844,16.8944926 9.3252755,16.1072941 C8.35641571,15.2595417 7.87198582,13.9273595 7.99309329,12.5951773 C8.11420076,11.6263175 8.1747545,10.596904 8.11420076,9.56749045 C7.99309329,8.1747545 8.23530824,6.72146481 8.6591844,5.32872886 C8.96195308,4.29931533 9.50693672,3.39100927 10.2335816,2.60381069 C8.59863066,2.24048827 6.84257229,1.87716585 5.20762139,2.17993453 Z M19.3166421,8.41696945 C18.8322122,8.78029187 18.8322122,9.50693672 18.9533197,10.0519203 C19.3166421,11.8079787 20.3460556,13.2612684 21.0727005,14.8356656 C21.6782379,13.6851446 21.3149154,12.3529624 21.193808,11.0813339 C21.0727005,10.0519203 21.3754692,9.08306056 21.4360229,8.11420076 C20.7699318,8.11420076 19.9827332,7.99309329 19.3166421,8.41696945 Z M8.84084561,9.08306056 C8.84084561,9.93081288 8.90139935,10.7785652 8.84084561,11.5657638 C8.78029187,12.2924086 8.59863066,13.0190535 8.78029187,13.7456983 C9.02250682,15.0778805 10.1730278,16.1678478 11.5657638,16.1678478 C11.747425,15.5017567 11.9896399,14.8356656 12.2924086,14.2301282 C13.1401609,12.5951773 12.9584997,10.7180115 12.5346236,9.02250682 C12.4135161,8.53807692 11.9896399,8.1747545 11.50521,8.1747545 C10.5363502,8.1747545 9.62804419,8.59863066 8.84084561,9.08306056 Z M21.1332542,17.2578151 C20.8910393,17.50003 20.8910393,17.8633524 20.8910393,18.1661211 C21.4360229,18.3477823 22.0415603,18.3477823 22.6470977,18.2872286 C23.49485,18.1661211 24.403156,17.9239062 25.0692471,17.2578151 C24.0398336,17.3789225 22.8893126,17.6211375 21.8598991,17.1367076 C21.6176841,17.0156001 21.3149154,17.1367076 21.1332542,17.2578151 Z M11.1418876,18.4688898 C10.5363502,18.8322122 9.8097054,18.7716585 9.26472177,19.0744272 C10.4757965,19.6799645 12.2318549,19.4983033 13.0796072,18.3477823 C13.5034834,17.9239062 13.0796072,17.0761538 12.5346236,17.1367076 C11.9290862,17.50003 11.6868712,18.1661211 11.1418876,18.4688898 Z" id="Shape" fill="#FFFFFF"></path>
                                <path d="M19.5588571,8.6591844 C19.9221795,8.41696945 20.4066094,8.41696945 20.7699318,8.53807692 C20.7699318,9.02250682 20.1643944,9.38582924 19.7405183,9.14361429 C19.6194108,9.08306056 19.3771959,8.84084561 19.5588571,8.6591844 Z" id="Path" fill="#FFFFFF"></path>
                                <path d="M11.0207801,8.71973813 C11.3841026,8.59863066 11.8079787,8.6591844 12.1107474,8.90139935 C12.2924086,9.08306056 12.1107474,9.38582924 11.9290862,9.44638298 C11.50521,9.74915166 10.8391189,9.44638298 10.7785652,8.96195308 C10.7785652,8.84084561 10.8996727,8.71973813 11.0207801,8.71973813 Z" id="Path" fill="#FFFFFF"></path>
                                <path d="M17.50003,1.93771959 C19.0138734,1.57439716 20.7093781,1.6349509 22.1626678,2.17993453 C23.1920813,2.54325696 24.1003873,3.2699018 24.7664785,4.11765412 C25.1298009,4.54153028 25.1298009,5.08651391 25.1298009,5.57094381 C25.1298009,6.78201855 24.8875859,7.93253955 24.5848172,9.14361429 C23.9792799,11.2629951 23.1315276,13.3218221 21.9810065,15.198988 C21.8598991,15.3806492 21.7387916,15.5623104 21.6176841,15.7439716 C21.6176841,15.6834179 21.5571304,15.5623104 21.5571304,15.5623104 C21.6782379,15.198988 21.9204528,14.8356656 21.9810065,14.4723432 C22.2837752,13.3823759 22.0415603,12.2318549 21.9204528,11.1418876 C21.7993453,10.1124741 22.1626678,9.08306056 22.1626678,8.05364703 C22.2232215,7.56921713 21.9810065,7.08478723 21.7993453,6.60035734 C21.0727005,5.02596017 19.9827332,3.63322422 18.5294435,2.66436443 C18.2872286,2.36159574 17.8633524,2.17993453 17.50003,1.93771959 Z" id="Path" fill="#326690"></path>
                                <path d="M13.2612684,2.05882706 C15.1384343,1.81661211 17.1367076,2.36159574 18.650551,3.51211675 C19.8616258,4.48097654 20.8910393,5.81315876 21.3754692,7.32700218 C20.5277169,7.32700218 19.4983033,7.26644845 18.7716585,7.87198582 C18.1055674,8.41696945 18.0450136,9.3252755 18.1661211,10.1124741 C18.5294435,11.9896399 19.6194108,13.5640371 20.4066094,15.198988 C20.5882706,15.6228642 20.8910393,15.9256328 21.193808,16.2889553 C20.8304855,16.4706165 20.5277169,16.5917239 20.3460556,16.9550464 C20.043287,17.50003 20.1643944,18.1055674 20.043287,18.7111047 C19.8616258,20.3460556 19.6799645,21.9810065 19.4377496,23.6159574 C19.3166421,24.403156 18.9533197,25.2509083 18.2266748,25.6142308 C17.50003,25.9775532 16.5917239,26.2197681 15.7439716,26.0986607 C14.956773,25.9775532 14.4117894,25.1903546 14.2301282,24.4637098 C14.048467,23.8581724 14.048467,23.1920813 13.9879133,22.5865439 C13.9273595,21.0727005 13.9273595,19.5588571 13.9273595,18.0450136 C13.9879133,17.4394763 13.6851446,16.8339389 13.1401609,16.5311702 C12.897946,16.4100627 12.5951773,16.349509 12.2924086,16.349509 C12.5346236,15.2595417 13.2007147,14.2906819 13.4429296,13.1401609 C13.7456983,11.747425 13.5640371,10.354689 13.2612684,8.96195308 C13.1401609,8.29586197 12.5951773,7.6903246 11.9290862,7.50866339 C10.8391189,7.26644845 9.8097054,7.62977087 8.84084561,8.11420076 C8.96195308,6.60035734 9.38582924,5.02596017 10.2941353,3.7543317 C11.0207801,2.84602564 12.1107474,2.24048827 13.2612684,2.05882706 Z" id="Path" fill="#326690"></path>
                                <path d="M5.20762139,2.17993453 C6.90312602,1.87716585 8.59863066,2.17993453 10.2335816,2.66436443 C9.50693672,3.45156301 8.96195308,4.35986907 8.6591844,5.3892826 C8.23530824,6.72146481 8.05364703,8.1747545 8.11420076,9.62804419 C8.1747545,10.6574577 8.1747545,11.6263175 7.99309329,12.655731 C7.81143208,13.9273595 8.35641571,15.2595417 9.3252755,16.1678478 C8.6591844,16.9550464 7.99309329,17.6816912 7.32700218,18.4688898 C7.0242335,18.8322122 6.66091107,19.1955346 6.17648118,19.0744272 C5.63149755,18.892766 5.26817512,18.4083361 4.96540644,17.9239062 C4.11765412,16.5917239 3.63322422,15.0778805 3.14879433,13.5640371 C2.60381069,11.8079787 2.17993453,9.99136661 1.93771959,8.11420076 C1.81661211,6.72146481 1.87716585,5.20762139 2.60381069,3.99654664 C3.14879433,3.02768685 4.11765412,2.42214948 5.20762139,2.17993453 Z" id="Path" fill="#326690"></path>
                                <path d="M19.3166421,8.41696945 C19.9221795,7.99309329 20.7699318,8.05364703 21.4360229,8.11420076 C21.3754692,9.08306056 21.0727005,10.0519203 21.193808,11.0813339 C21.3149154,12.2924086 21.6176841,13.6245908 21.0727005,14.8356656 C20.2855019,13.2612684 19.2560884,11.8079787 18.9533197,10.0519203 C18.892766,9.50693672 18.892766,8.84084561 19.3166421,8.41696945 Z M19.5588571,8.6591844 C19.3771959,8.84084561 19.5588571,9.08306056 19.7405183,9.14361429 C20.1643944,9.38582924 20.7699318,9.02250682 20.7699318,8.53807692 C20.4066094,8.41696945 19.9221795,8.41696945 19.5588571,8.6591844 Z" id="Shape" fill="#326690"></path>
                                <path d="M8.84084561,9.08306056 C9.62804419,8.59863066 10.5363502,8.1747545 11.4446563,8.23530824 C11.9290862,8.23530824 12.3529624,8.59863066 12.4740698,9.08306056 C12.897946,10.7785652 13.0190535,12.655731 12.2318549,14.2906819 C11.9290862,14.8962193 11.6868712,15.5623104 11.50521,16.2284015 C10.1124741,16.2284015 8.96195308,15.0778805 8.71973813,13.806252 C8.53807692,13.0796072 8.78029187,12.3529624 8.78029187,11.6263175 C8.90139935,10.7180115 8.84084561,9.93081288 8.84084561,9.08306056 Z M11.0207801,8.71973813 C10.8996727,8.78029187 10.7785652,8.84084561 10.7785652,8.96195308 C10.8391189,9.44638298 11.50521,9.74915166 11.9290862,9.44638298 C12.1107474,9.3252755 12.2924086,9.08306056 12.1107474,8.90139935 C11.8079787,8.6591844 11.3841026,8.59863066 11.0207801,8.71973813 Z" id="Shape" fill="#326690"></path>
                                <path d="M21.1332542,17.2578151 C21.3149154,17.1367076 21.6176841,16.9550464 21.8598991,17.1367076 C22.8287589,17.6816912 23.9792799,17.3789225 25.0692471,17.2578151 C24.403156,17.8633524 23.5554037,18.1661211 22.6470977,18.2872286 C22.0415603,18.3477823 21.4360229,18.4083361 20.8910393,18.1661211 C20.8910393,17.8633524 20.8910393,17.50003 21.1332542,17.2578151 Z" id="Path" fill="#326690"></path>
                                <path d="M11.1418876,18.4688898 C11.6868712,18.1661211 11.9290862,17.50003 12.4740698,17.1367076 C13.0190535,17.0761538 13.5034834,17.9239062 13.0190535,18.3477823 C12.1713011,19.4983033 10.4152428,19.7405183 9.20416803,19.0744272 C9.8097054,18.8322122 10.5363502,18.8322122 11.1418876,18.4688898 Z" id="Path" fill="#326690"></path>
                                <path d="M16.2284015,0.726644845 C17.8633524,0.302768685 19.6194108,0.121107474 21.3149154,0.423876159 C22.8287589,0.666091107 24.2820486,1.45328969 25.4325696,2.54325696 C25.9169995,3.02768685 26.4014294,3.57267049 26.5830906,4.23876159 C26.946413,5.44983633 26.7647518,6.66091107 26.5830906,7.87198582 C26.0381069,10.7180115 24.9481397,13.4429296 23.49485,15.9861866 C24.1609411,15.9861866 24.7664785,15.8045254 25.4325696,15.7439716 C26.0381069,15.6834179 26.7647518,16.1072941 26.8858592,16.7128314 C27.0675205,17.3789225 26.6436443,18.0450136 26.1592144,18.4688898 C24.8270322,19.6194108 23.0104201,19.9827332 21.3754692,19.9221795 C21.2543617,21.6782379 21.2543617,23.4342962 20.5277169,25.0692471 C20.1643944,25.795892 19.6799645,26.4014294 19.0138734,26.8253055 C18.3477823,27.2491817 17.6211375,27.4308429 16.8944926,27.5519504 C16.1072941,27.6730578 15.198988,27.6125041 14.4723432,27.1280742 C13.806252,26.704198 13.4429296,26.0381069 13.2007147,25.3114621 C12.655731,23.7976187 12.7162848,22.2232215 12.5951773,20.6488243 C11.4446563,21.1332542 10.1730278,21.1332542 9.02250682,20.7093781 C8.59863066,20.5882706 8.23530824,20.3460556 7.93253955,20.043287 C7.32700218,20.5277169 6.5398036,20.7699318 5.75260502,20.5882706 C4.78374523,20.3460556 4.11765412,19.4983033 3.57267049,18.7111047 C2.66436443,17.2578151 2.1193808,15.6228642 1.6349509,13.9879133 C1.08996727,12.1107474 0.60553737,10.2335816 0.363322422,8.23530824 C0.242214948,6.47924986 0.363322422,4.66263775 1.33218221,3.14879433 C2.05882706,1.93771959 3.39100927,1.08996727 4.78374523,0.787198582 C6.78201855,0.363322422 8.84084561,0.787198582 10.7180115,1.33218221 C11.3235488,1.02941353 11.9290862,0.726644845 12.5951773,0.60553737 C13.8668058,0.423876159 15.0778805,0.544983633 16.2284015,0.726644845 Z M16.1678478,1.45328969 C16.0467403,1.51384343 15.8650791,1.39273595 15.7439716,1.39273595 C14.1090207,1.02941353 12.2924086,1.21107474 10.8996727,2.1193808 C9.20416803,1.51384343 7.38755592,1.150521 5.57094381,1.33218221 C4.23876159,1.45328969 2.84602564,2.1193808 2.1193808,3.20934806 C1.150521,4.66263775 1.02941353,6.47924986 1.150521,8.11420076 C1.45328969,10.354689 1.99827332,12.5346236 2.66436443,14.6540044 C3.14879433,15.9861866 3.63322422,17.3183688 4.4204228,18.4688898 C4.84429896,19.0138734 5.3892826,19.6194108 6.11592744,19.6799645 C6.78201855,19.7405183 7.32700218,19.3771959 7.75087834,18.892766 C8.47752319,18.0450136 9.14361429,17.2578151 9.87025914,16.4706165 C10.354689,16.7128314 10.8996727,16.8339389 11.3841026,16.8944926 C11.0813339,17.2578151 10.8391189,17.6816912 10.4152428,17.8027987 C9.8097054,18.0450136 9.08306056,17.9844599 8.53807692,18.4083361 C8.23530824,18.650551 8.1747545,19.1349809 8.47752319,19.3771959 C8.96195308,19.8616258 9.74915166,19.9827332 10.4152428,20.043287 C11.3841026,20.1038407 12.3529624,19.801072 13.0796072,19.1349809 C13.0796072,20.6488243 13.0796072,22.2232215 13.2612684,23.7370649 C13.3218221,24.645371 13.7456983,25.553677 14.4117894,26.0986607 C15.0173268,26.6436443 15.9861866,26.7647518 16.7733852,26.6436443 C17.5605837,26.4619831 18.4083361,26.2197681 19.0138734,25.7353382 C19.6799645,25.1298009 19.9827332,24.2820486 20.1038407,23.4342962 C20.3460556,21.9204528 20.5277169,20.4066094 20.7093781,18.8322122 C22.4048827,19.1349809 24.3426023,18.7716585 25.6142308,17.5605837 C25.8564457,17.3183688 26.1592144,16.8339389 25.8564457,16.5311702 C25.6142308,16.2284015 25.1298009,16.2889553 24.7664785,16.349509 C23.9187261,16.5311702 22.9498663,16.7128314 22.102114,16.2889553 C23.6159574,13.8668058 24.8270322,11.2629951 25.4931233,8.47752319 C25.7353382,7.44810966 25.9169995,6.35814239 25.9169995,5.26817512 C25.8564457,4.66263775 25.795892,3.99654664 25.4325696,3.51211675 C24.5242635,2.30104201 23.1920813,1.45328969 21.7387916,1.02941353 C19.9827332,0.787198582 17.9844599,0.908306056 16.1678478,1.45328969 Z" id="Shape" fill="#000000"></path>
                            </g>
                        </g>
                    </g>
                </g>
                <rect id="Rectangle-Copy" stroke="#1EB76D" x="0.5" y="0.5" width="139" height="83" rx="2"></rect>
            </g>
        </g>
    </g>
</svg>