<?xml version="1.0" encoding="UTF-8"?>
<svg width="34px" height="40px" viewBox="0 0 34 40" version="1.1" xmlns="http://www.w3.org/2000/svg" xmlns:xlink="http://www.w3.org/1999/xlink">
    <title>apple-m1-seeklogo.com</title>
    <g id="Docs" stroke="none" stroke-width="1" fill="none" fill-rule="evenodd" opacity="0.500511533">
        <g id="ConnectToMG_IntermediaryFuture_UIDesign" transform="translate(-517.000000, -1212.000000)" fill="#000000" fill-rule="nonzero">
            <g id="C#-Copy-2" transform="translate(464.000000, 1190.000000)">
                <g id="apple-m1-seeklogo.com" transform="translate(53.000000, 22.000000)">
                    <path d="M32.907563,31.092437 C32.3250683,32.4513817 31.6041791,33.7467293 30.7563025,34.9579832 C29.6302521,36.5714286 28.7058824,37.6806723 28,38.302521 C26.8907563,39.3109244 25.7142857,39.8319328 24.4537815,39.8655462 C23.5462185,39.8655462 22.4537815,39.6134454 21.1764706,39.0756303 C20.0611274,38.5919198 18.8624789,38.3293588 17.6470588,38.302521 C16.3985947,38.3250484 15.1661189,38.5875201 14.0168067,39.0756303 C12.7226891,39.5966387 11.6806723,39.8655462 10.8739496,39.8991597 C9.66386555,39.9495798 8.45378151,39.4117647 7.24369748,38.2857143 C6.47058824,37.6134454 5.51260504,36.4537815 4.35294118,34.8235294 C3.05243814,32.9554157 2.02263559,30.9127854 1.29411765,28.7563025 C0.43697479,26.2689076 0,23.8655462 0,21.5294118 C0,18.8571429 0.571428571,16.5546218 1.73109244,14.6218487 C2.60850565,13.1062227 3.85796432,11.8394104 5.36134454,10.9411765 C6.84359529,10.047019 8.53794924,9.56540471 10.2689076,9.54621849 C11.2268908,9.54621849 12.5042017,9.8487395 14.0672269,10.4369748 C15.6302521,11.0252101 16.6386555,11.3277311 17.0756303,11.3277311 C17.4117647,11.3277311 18.5210084,10.9747899 20.4201681,10.2857143 C22.2128852,9.64705882 23.7254902,9.37815126 24.9579832,9.4789916 C28.3193277,9.74789916 30.8403361,11.0756303 32.5210084,13.4621849 C29.512605,15.2773109 28.0336134,17.8319328 28.0672269,21.092437 C28.1008403,23.6470588 29.0252101,25.7647059 30.8403361,27.4453782 C31.6469904,28.2055567 32.5796386,28.8197396 33.5966387,29.2605042 C33.394958,29.8991597 33.1596639,30.5042017 32.907563,31.092437 Z M25.210084,0.806722689 C25.210084,2.80672269 24.487395,4.67226891 23.0252101,6.38655462 C21.2773109,8.43697479 19.1428571,9.61344538 16.8571429,9.42857143 C16.8224916,9.17797815 16.8056427,8.92524427 16.8066739,8.67226891 C16.8066739,6.75630252 17.6470588,4.70588235 19.1260504,3.02521008 C19.9119232,2.1330347 20.8730471,1.41219177 21.9495798,0.907563025 C22.9533448,0.391401263 24.0508058,0.0827403695 25.1764706,0 C25.1932773,0.268907563 25.210084,0.537815126 25.210084,0.806722689 Z" id="path4"></path>
                </g>
            </g>
        </g>
    </g>
</svg>