<?xml version="1.0" encoding="UTF-8"?>
<svg width="42px" height="30px" viewBox="0 0 42 30" version="1.1" xmlns="http://www.w3.org/2000/svg" xmlns:xlink="http://www.w3.org/1999/xlink">
    <title>Group 7</title>
    <g id="Docs" stroke="none" stroke-width="1" fill="none" fill-rule="evenodd">
        <g id="ConnectToMG_IntermediaryFuture_UIDesign_ActiveState" transform="translate(-676.000000, -591.000000)" fill="#000000">
            <g id="Group-7" transform="translate(676.500000, 591.000000)">
                <g id="Group-6" transform="translate(0.703125, 0.187500)">
                    <path d="M0.0730078125,22.9527656 L4.66464844,20.17425 C5.55058594,21.7447969 6.35636719,23.0737031 8.28925781,23.0737031 C10.1417578,23.0737031 11.3098828,22.3487812 11.3098828,19.5299531 L11.3098828,0.3583125 L16.9484766,0.3583125 L16.9484766,19.6094062 C16.9484766,25.4493281 13.5251953,28.1076094 8.53089844,28.1076094 C4.02035156,28.1076094 1.40191406,25.7713594 0.0730078125,22.9522969" id="Fill-2"></path>
                    <path d="M20.0111484,22.3487578 L24.6023203,19.6904766 C25.8107578,21.6641484 27.3815391,23.1142266 30.1605234,23.1142266 C32.4965391,23.1142266 33.9864609,21.9458672 33.9864609,20.3347734 C33.9864609,18.4016484 32.4562266,17.7168047 29.8785703,16.5896953 L28.4692734,15.9850078 C24.4009922,14.2534453 21.7026328,12.0786797 21.7026328,7.48703906 C21.7026328,3.25821094 24.9245859,0.0360234375 29.9591953,0.0360234375 C33.5437266,0.0360234375 36.1213828,1.28453906 37.9738828,4.54703906 L33.5838047,7.36610156 C32.6170078,5.63453906 31.5700547,4.94992969 29.9591953,4.94992969 C28.3077891,4.94992969 27.2608359,5.99688281 27.2608359,7.36610156 C27.2608359,9.05782031 28.3077891,9.74266406 30.7241953,10.7898516 L32.1337266,11.3940703 C36.9266953,13.4481328 39.6252891,15.5422734 39.6252891,20.2541484 C39.6252891,25.3293047 35.6378672,28.1080547 30.2812266,28.1080547 C25.0455234,28.1080547 21.6623203,25.6112578 20.0113828,22.3487578" id="Fill-4"></path>
                </g>
            </g>
        </g>
    </g>
</svg>