<?xml version="1.0" encoding="UTF-8"?>
<svg width="91px" height="22px" viewBox="0 0 91 22" version="1.1" xmlns="http://www.w3.org/2000/svg" xmlns:xlink="http://www.w3.org/1999/xlink">
    <title>mgconsole</title>
    <g id="Docs" stroke="none" stroke-width="1" fill="none" fill-rule="evenodd">
        <g id="ConnectToMG_IntermediaryFuture" transform="translate(-980.000000, -900.000000)" fill="#000000" fill-rule="nonzero">
            <path d="M982.32,916.5 L982.32,908.56 C982.586667,908.113333 982.925,907.781667 983.335,907.565 C983.745,907.348333 984.153333,907.24 984.56,907.24 C985.093333,907.24 985.505,907.401667 985.795,907.725 C986.085,908.048333 986.23,908.59 986.23,909.35 L986.23,909.35 L986.23,916.5 L988.21,916.5 L988.21,909.18 C988.21,908.92 988.2,908.676667 988.18,908.45 C988.446667,908.03 988.778333,907.723333 989.175,907.53 C989.571667,907.336667 989.963333,907.24 990.35,907.24 C990.883333,907.24 991.301667,907.403333 991.605,907.73 C991.908333,908.056667 992.06,908.596667 992.06,909.35 L992.06,909.35 L992.06,916.5 L994.08,916.5 L994.08,909.26 C994.08,907.92 993.795,906.95 993.225,906.35 C992.655,905.75 991.886667,905.45 990.92,905.45 C990.353333,905.45 989.798333,905.57 989.255,905.81 C988.711667,906.05 988.223333,906.43 987.79,906.95 C987.543333,906.43 987.196667,906.05 986.75,905.81 C986.303333,905.57 985.786667,905.45 985.2,905.45 C984.62,905.45 984.08,905.565 983.58,905.795 C983.08,906.025 982.64,906.366667 982.26,906.82 L982.26,906.82 L982.14,906.82 L981.99,905.62 L980.3,905.62 L980.3,916.5 L982.32,916.5 Z M1000,921.1 C1001.11333,921.1 1002.03333,920.93 1002.76,920.59 C1003.48667,920.25 1004.03167,919.711667 1004.395,918.975 C1004.75833,918.238333 1004.94,917.28 1004.94,916.1 L1004.94,916.1 L1004.94,905.95 C1004.48667,905.796667 1003.96333,905.675 1003.37,905.585 C1002.77667,905.495 1002.20333,905.45 1001.65,905.45 C999.863333,905.456667 998.516667,905.945 997.61,906.915 C996.703333,907.885 996.25,909.34 996.25,911.28 C996.25,912.526667 996.425,913.55 996.775,914.35 C997.125,915.15 997.591667,915.73 998.175,916.09 C998.758333,916.45 999.413333,916.63 1000.14,916.63 C1000.71333,916.63 1001.23,916.518333 1001.69,916.295 C1002.15,916.071667 1002.52333,915.77 1002.81,915.39 L1002.81,915.39 L1002.92,915.39 L1002.92,916.43 C1002.92,917.17 1002.81,917.763333 1002.59,918.21 C1002.37,918.656667 1002.03667,918.978333 1001.59,919.175 C1001.14333,919.371667 1000.56667,919.47 999.86,919.47 C998.906667,919.47 997.936667,919.313333 996.95,919 L996.95,919 L996.95,920.66 C997.396667,920.806667 997.89,920.916667 998.43,920.99 C998.97,921.063333 999.493333,921.1 1000,921.1 Z M1000.83,914.93 C1000.30333,914.93 999.856667,914.816667 999.49,914.59 C999.123333,914.363333 998.835,913.968333 998.625,913.405 C998.415,912.841667 998.31,912.07 998.31,911.09 C998.31,909.67 998.576667,908.643333 999.11,908.01 C999.643333,907.376667 1000.44,907.06 1001.5,907.06 C1001.95333,907.06 1002.42667,907.113333 1002.92,907.22 L1002.92,907.22 L1002.92,913.88 C1002.68667,914.22 1002.38333,914.48 1002.01,914.66 C1001.63667,914.84 1001.24333,914.93 1000.83,914.93 Z M1011.96,916.7 C1012.80667,916.7 1013.63333,916.563333 1014.44,916.29 L1014.44,916.29 L1014.44,914.61 C1013.62,914.87 1012.90667,915 1012.3,915 C1011.62,915 1011.06167,914.873333 1010.625,914.62 C1010.18833,914.366667 1009.86,913.95 1009.64,913.37 C1009.42,912.79 1009.31,912.01 1009.31,911.03 C1009.31,910.07 1009.42833,909.306667 1009.665,908.74 C1009.90167,908.173333 1010.26167,907.766667 1010.745,907.52 C1011.22833,907.273333 1011.86,907.15 1012.64,907.15 C1013.20667,907.15 1013.80667,907.223333 1014.44,907.37 L1014.44,907.37 L1014.44,905.69 C1013.78,905.53 1013.08667,905.45 1012.36,905.45 C1010.67333,905.45 1009.39333,905.9 1008.52,906.8 C1007.64667,907.7 1007.21,909.123333 1007.21,911.07 C1007.21,913.01 1007.61,914.433333 1008.41,915.34 C1009.21,916.246667 1010.39333,916.7 1011.96,916.7 Z M1020.14,916.7 C1021.58,916.7 1022.69333,916.24 1023.48,915.32 C1024.26667,914.4 1024.66,912.983333 1024.66,911.07 C1024.66,909.163333 1024.26667,907.75 1023.48,906.83 C1022.69333,905.91 1021.58,905.45 1020.14,905.45 C1018.69333,905.45 1017.57833,905.908333 1016.795,906.825 C1016.01167,907.741667 1015.62,909.16 1015.62,911.08 C1015.62,912.986667 1016.015,914.4 1016.805,915.32 C1017.595,916.24 1018.70667,916.7 1020.14,916.7 Z M1020.14,915.1 C1019.60667,915.1 1019.16,914.976667 1018.8,914.73 C1018.44,914.483333 1018.16333,914.063333 1017.97,913.47 C1017.77667,912.876667 1017.68,912.07 1017.68,911.05 C1017.68,910.05 1017.77667,909.255 1017.97,908.665 C1018.16333,908.075 1018.44,907.658333 1018.8,907.415 C1019.16,907.171667 1019.60667,907.05 1020.14,907.05 C1020.67333,907.05 1021.12,907.173333 1021.48,907.42 C1021.84,907.666667 1022.11833,908.086667 1022.315,908.68 C1022.51167,909.273333 1022.61,910.08 1022.61,911.1 C1022.61,912.106667 1022.51333,912.903333 1022.32,913.49 C1022.12667,914.076667 1021.85,914.491667 1021.49,914.735 C1021.13,914.978333 1020.68,915.1 1020.14,915.1 Z M1028.95,916.5 L1028.95,908.52 C1029.23667,908.086667 1029.60333,907.765 1030.05,907.555 C1030.49667,907.345 1030.94333,907.24 1031.39,907.24 C1031.98333,907.24 1032.43667,907.401667 1032.75,907.725 C1033.06333,908.048333 1033.22,908.59 1033.22,909.35 L1033.22,909.35 L1033.22,916.5 L1035.24,916.5 L1035.24,909.23 C1035.24,907.91 1034.94833,906.95 1034.365,906.35 C1033.78167,905.75 1032.98333,905.45 1031.97,905.45 C1031.35667,905.45 1030.78667,905.566667 1030.26,905.8 C1029.73333,906.033333 1029.27667,906.37 1028.89,906.81 L1028.89,906.81 L1028.77,906.81 L1028.62,905.62 L1026.93,905.62 L1026.93,916.5 L1028.95,916.5 Z M1040.45,916.7 C1041.32333,916.7 1042.07167,916.568333 1042.695,916.305 C1043.31833,916.041667 1043.79333,915.665 1044.12,915.175 C1044.44667,914.685 1044.61,914.103333 1044.61,913.43 C1044.61,912.59 1044.39833,911.93 1043.975,911.45 C1043.55167,910.97 1042.87,910.62 1041.93,910.4 L1041.93,910.4 L1040.55,910.09 C1040.08333,909.976667 1039.745,909.803333 1039.535,909.57 C1039.325,909.336667 1039.22,909.026667 1039.22,908.64 C1039.22,908.16 1039.415,907.773333 1039.805,907.48 C1040.195,907.186667 1040.81667,907.04 1041.67,907.04 C1042.50333,907.04 1043.29667,907.14 1044.05,907.34 L1044.05,907.34 L1044.05,905.74 C1043.27667,905.546667 1042.46333,905.45 1041.61,905.45 C1040.68333,905.45 1039.89833,905.585 1039.255,905.855 C1038.61167,906.125 1038.12833,906.503333 1037.805,906.99 C1037.48167,907.476667 1037.32,908.04 1037.32,908.68 C1037.32,909.486667 1037.53,910.133333 1037.95,910.62 C1038.37,911.106667 1039.04333,911.46 1039.97,911.68 L1039.97,911.68 L1041.34,911.98 C1041.82,912.1 1042.16833,912.275 1042.385,912.505 C1042.60167,912.735 1042.71,913.066667 1042.71,913.5 C1042.71,914.02 1042.52167,914.418333 1042.145,914.695 C1041.76833,914.971667 1041.19333,915.11 1040.42,915.11 C1039.45333,915.11 1038.5,914.96 1037.56,914.66 L1037.56,914.66 L1037.56,916.26 C1038.45333,916.553333 1039.41667,916.7 1040.45,916.7 Z M1050.65,916.7 C1052.09,916.7 1053.20333,916.24 1053.99,915.32 C1054.77667,914.4 1055.17,912.983333 1055.17,911.07 C1055.17,909.163333 1054.77667,907.75 1053.99,906.83 C1053.20333,905.91 1052.09,905.45 1050.65,905.45 C1049.20333,905.45 1048.08833,905.908333 1047.305,906.825 C1046.52167,907.741667 1046.13,909.16 1046.13,911.08 C1046.13,912.986667 1046.525,914.4 1047.315,915.32 C1048.105,916.24 1049.21667,916.7 1050.65,916.7 Z M1050.65,915.1 C1050.11667,915.1 1049.67,914.976667 1049.31,914.73 C1048.95,914.483333 1048.67333,914.063333 1048.48,913.47 C1048.28667,912.876667 1048.19,912.07 1048.19,911.05 C1048.19,910.05 1048.28667,909.255 1048.48,908.665 C1048.67333,908.075 1048.95,907.658333 1049.31,907.415 C1049.67,907.171667 1050.11667,907.05 1050.65,907.05 C1051.18333,907.05 1051.63,907.173333 1051.99,907.42 C1052.35,907.666667 1052.62833,908.086667 1052.825,908.68 C1053.02167,909.273333 1053.12,910.08 1053.12,911.1 C1053.12,912.106667 1053.02333,912.903333 1052.83,913.49 C1052.63667,914.076667 1052.36,914.491667 1052,914.735 C1051.64,914.978333 1051.19,915.1 1050.65,915.1 Z M1059.47,916.5 L1059.47,900.34 L1057.45,900.34 L1057.45,916.5 L1059.47,916.5 Z M1066.83,916.7 C1067.73667,916.7 1068.66,916.566667 1069.6,916.3 L1069.6,916.3 L1069.6,914.68 C1068.63333,914.946667 1067.79333,915.08 1067.08,915.08 C1066.31333,915.08 1065.69667,914.973333 1065.23,914.76 C1064.76333,914.546667 1064.41333,914.193333 1064.18,913.7 C1063.94667,913.206667 1063.81667,912.54 1063.79,911.7 L1063.79,911.7 L1070.14,911.7 L1070.14,911.1 C1070.14,909.186667 1069.79333,907.766667 1069.1,906.84 C1068.40667,905.913333 1067.39667,905.45 1066.07,905.45 C1064.70333,905.45 1063.64,905.915 1062.88,906.845 C1062.12,907.775 1061.74,909.176667 1061.74,911.05 C1061.74,912.39 1061.925,913.475 1062.295,914.305 C1062.665,915.135 1063.22333,915.741667 1063.97,916.125 C1064.71667,916.508333 1065.67,916.7 1066.83,916.7 Z M1068.22,910.4 L1063.79,910.4 C1063.81,909.106667 1064.01167,908.193333 1064.395,907.66 C1064.77833,907.126667 1065.33,906.86 1066.05,906.86 C1066.51667,906.86 1066.905,906.97 1067.215,907.19 C1067.525,907.41 1067.76667,907.778333 1067.94,908.295 C1068.11333,908.811667 1068.20667,909.513333 1068.22,910.4 L1068.22,910.4 Z" id="mgconsole"></path>
        </g>
    </g>
</svg>