<?xml version="1.0" encoding="UTF-8"?>
<svg width="56px" height="17px" viewBox="0 0 56 17" version="1.1" xmlns="http://www.w3.org/2000/svg" xmlns:xlink="http://www.w3.org/1999/xlink">
    <title>other*</title>
    <g id="Docs" stroke="none" stroke-width="1" fill="none" fill-rule="evenodd">
        <g id="ConnectToMG_IntermediaryFuture_UIDesign_ActiveState" transform="translate(-997.000000, -598.000000)" fill="#000000" fill-rule="nonzero">
            <path d="M1002.23,614.7 C1003.67,614.7 1004.78333,614.24 1005.57,613.32 C1006.35667,612.4 1006.75,610.983333 1006.75,609.07 C1006.75,607.163333 1006.35667,605.75 1005.57,604.83 C1004.78333,603.91 1003.67,603.45 1002.23,603.45 C1000.78333,603.45 999.668333,603.908333 998.885,604.825 C998.101667,605.741667 997.71,607.16 997.71,609.08 C997.71,610.986667 998.105,612.4 998.895,613.32 C999.685,614.24 1000.79667,614.7 1002.23,614.7 Z M1002.23,613.1 C1001.69667,613.1 1001.25,612.976667 1000.89,612.73 C1000.53,612.483333 1000.25333,612.063333 1000.06,611.47 C999.866667,610.876667 999.77,610.07 999.77,609.05 C999.77,608.05 999.866667,607.255 1000.06,606.665 C1000.25333,606.075 1000.53,605.658333 1000.89,605.415 C1001.25,605.171667 1001.69667,605.05 1002.23,605.05 C1002.76333,605.05 1003.21,605.173333 1003.57,605.42 C1003.93,605.666667 1004.20833,606.086667 1004.405,606.68 C1004.60167,607.273333 1004.7,608.08 1004.7,609.1 C1004.7,610.106667 1004.60333,610.903333 1004.41,611.49 C1004.21667,612.076667 1003.94,612.491667 1003.58,612.735 C1003.22,612.978333 1002.77,613.1 1002.23,613.1 Z M1012.86,614.69 C1013.4,614.69 1013.94667,614.626667 1014.5,614.5 L1014.5,614.5 L1014.5,612.82 C1014.04667,612.913333 1013.66,612.96 1013.34,612.96 C1012.88667,612.96 1012.52167,612.89 1012.245,612.75 C1011.96833,612.61 1011.76167,612.38 1011.625,612.06 C1011.48833,611.74 1011.42,611.306667 1011.42,610.76 L1011.42,610.76 L1011.42,605.26 L1014.38,605.26 L1014.38,603.62 L1011.42,603.62 L1011.42,599.7 L1009.74,599.7 L1009.4,603.62 L1007.53,603.62 L1007.53,605.26 L1009.4,605.26 L1009.4,611.06 C1009.4,612.313333 1009.695,613.231667 1010.285,613.815 C1010.875,614.398333 1011.73333,614.69 1012.86,614.69 Z M1018.25,614.5 L1018.25,606.52 C1018.53667,606.093333 1018.90333,605.776667 1019.35,605.57 C1019.79667,605.363333 1020.24333,605.26 1020.69,605.26 C1021.27667,605.26 1021.72833,605.42 1022.045,605.74 C1022.36167,606.06 1022.52,606.6 1022.52,607.36 L1022.52,607.36 L1022.52,614.5 L1024.54,614.5 L1024.54,607.24 C1024.54,605.913333 1024.25333,604.95 1023.68,604.35 C1023.10667,603.75 1022.33333,603.45 1021.36,603.45 C1020.75333,603.45 1020.19667,603.563333 1019.69,603.79 C1019.18333,604.016667 1018.74,604.353333 1018.36,604.8 L1018.36,604.8 L1018.25,604.8 L1018.25,598.34 L1016.23,598.34 L1016.23,614.5 L1018.25,614.5 Z M1031.8,614.7 C1032.70667,614.7 1033.63,614.566667 1034.57,614.3 L1034.57,614.3 L1034.57,612.68 C1033.60333,612.946667 1032.76333,613.08 1032.05,613.08 C1031.28333,613.08 1030.66667,612.973333 1030.2,612.76 C1029.73333,612.546667 1029.38333,612.193333 1029.15,611.7 C1028.91667,611.206667 1028.78667,610.54 1028.76,609.7 L1028.76,609.7 L1035.11,609.7 L1035.11,609.1 C1035.11,607.186667 1034.76333,605.766667 1034.07,604.84 C1033.37667,603.913333 1032.36667,603.45 1031.04,603.45 C1029.67333,603.45 1028.61,603.915 1027.85,604.845 C1027.09,605.775 1026.71,607.176667 1026.71,609.05 C1026.71,610.39 1026.895,611.475 1027.265,612.305 C1027.635,613.135 1028.19333,613.741667 1028.94,614.125 C1029.68667,614.508333 1030.64,614.7 1031.8,614.7 Z M1033.19,608.4 L1028.76,608.4 C1028.78,607.106667 1028.98167,606.193333 1029.365,605.66 C1029.74833,605.126667 1030.3,604.86 1031.02,604.86 C1031.48667,604.86 1031.875,604.97 1032.185,605.19 C1032.495,605.41 1032.73667,605.778333 1032.91,606.295 C1033.08333,606.811667 1033.17667,607.513333 1033.19,608.4 L1033.19,608.4 Z M1039.27,614.5 L1039.27,606.8 C1039.55,606.353333 1039.93833,606.005 1040.435,605.755 C1040.93167,605.505 1041.44333,605.38 1041.97,605.38 C1042.31667,605.38 1042.60333,605.4 1042.83,605.44 L1042.83,605.44 L1042.83,603.57 C1042.59667,603.523333 1042.34667,603.5 1042.08,603.5 C1041.48667,603.5 1040.93833,603.631667 1040.435,603.895 C1039.93167,604.158333 1039.52333,604.553333 1039.21,605.08 L1039.21,605.08 L1039.09,605.08 L1038.93,603.62 L1037.25,603.62 L1037.25,614.5 L1039.27,614.5 Z M1050.16,606.39 L1051.33,605.53 L1050.37,604.22 L1048.99,602.78 L1050.94,602.42 L1052.56,601.9 L1052.11,600.53 L1050.5,601.06 L1048.7,601.93 L1048.97,599.94 L1048.97,598.34 L1047.52,598.34 L1047.52,599.94 L1047.79,601.93 L1045.99,601.06 L1044.38,600.53 L1043.93,601.9 L1045.55,602.42 L1047.49,602.78 L1046.12,604.22 L1045.16,605.53 L1046.33,606.39 L1047.29,605.08 L1048.24,603.28 L1049.2,605.08 L1050.16,606.39 Z" id="other*"></path>
        </g>
    </g>
</svg>