<?xml version="1.0" encoding="UTF-8"?>
<svg width="140px" height="84px" viewBox="0 0 140 84" version="1.1" xmlns="http://www.w3.org/2000/svg" xmlns:xlink="http://www.w3.org/1999/xlink">
    <title>LOADcsvclause-selected-dm</title>
    <g id="Docs" stroke="none" stroke-width="1" fill="none" fill-rule="evenodd">
        <g id="ConnectToMG_IntermediaryCurrent-Copy" transform="translate(-791.000000, -789.000000)">
            <g id="LOADcsvclause-selected-dm" transform="translate(791.000000, 789.000000)">
                <rect id="Rectangle-Copy" stroke="#1EB76D" x="0.5" y="0.5" width="139" height="83" rx="2"></rect>
                <path d="M15.842,49.5 L15.842,47.502 L10.01,47.502 L10.01,36.18 L7.706,36.18 L7.706,49.5 L15.842,49.5 Z M21.872,49.671 C23.618,49.671 24.983,49.1115 25.967,47.9925 C26.951,46.8735 27.443,45.156 27.443,42.84 C27.443,40.518 26.951,38.799 25.967,37.683 C24.983,36.567 23.618,36.009 21.872,36.009 C20.126,36.009 18.761,36.5685 17.777,37.6875 C16.793,38.8065 16.301,40.524 16.301,42.84 C16.301,45.162 16.793,46.881 17.777,47.997 C18.761,49.113 20.126,49.671 21.872,49.671 Z M21.872,47.754 C20.828,47.754 20.0345,47.3715 19.4915,46.6065 C18.9485,45.8415 18.677,44.568 18.677,42.786 C18.677,41.058 18.95,39.816 19.496,39.06 C20.042,38.304 20.834,37.926 21.872,37.926 C22.916,37.926 23.711,38.31 24.257,39.078 C24.803,39.846 25.076,41.118 25.076,42.894 C25.076,44.628 24.803,45.8715 24.257,46.6245 C23.711,47.3775 22.916,47.754 21.872,47.754 Z M30.314,49.5 L31.466,45.666 L36.254,45.666 L37.406,49.5 L39.701,49.5 L35.561,36.18 L32.195,36.18 L28.055,49.5 L30.314,49.5 Z M35.678,43.749 L32.042,43.749 L33.86,37.692 L35.678,43.749 Z M44.219,49.635 C45.809,49.635 47.1245,49.3965 48.1655,48.9195 C49.2065,48.4425 49.988,47.7045 50.51,46.7055 C51.032,45.7065 51.293,44.418 51.293,42.84 C51.293,40.524 50.741,38.8095 49.637,37.6965 C48.533,36.5835 46.871,36.027 44.651,36.027 C43.451,36.027 42.242,36.156 41.024,36.414 L41.024,36.414 L41.024,49.446 C42.14,49.572 43.205,49.635 44.219,49.635 Z M44.786,47.709 C44.27,47.709 43.784,47.685 43.328,47.637 L43.328,47.637 L43.328,38.079 C43.856,37.989 44.36,37.944 44.84,37.944 C45.758,37.944 46.5155,38.109 47.1125,38.439 C47.7095,38.769 48.1595,39.2925 48.4625,40.0095 C48.7655,40.7265 48.917,41.667 48.917,42.831 C48.917,44.007 48.764,44.9535 48.458,45.6705 C48.152,46.3875 47.6975,46.9065 47.0945,47.2275 C46.4915,47.5485 45.722,47.709 44.786,47.709 Z M61.31,49.68 C62.108,49.68 62.864,49.56 63.578,49.32 L63.578,49.32 L63.578,47.466 C62.858,47.688 62.243,47.799 61.733,47.799 C61.157,47.799 60.683,47.6955 60.311,47.4885 C59.939,47.2815 59.66,46.941 59.474,46.467 C59.288,45.993 59.195,45.36 59.195,44.568 C59.195,43.794 59.294,43.1775 59.492,42.7185 C59.69,42.2595 59.9945,41.928 60.4055,41.724 C60.8165,41.52 61.352,41.418 62.012,41.418 C62.522,41.418 63.044,41.475 63.578,41.589 L63.578,41.589 L63.578,39.735 C63.002,39.597 62.363,39.528 61.661,39.528 C60.095,39.528 58.8995,39.9375 58.0745,40.7565 C57.2495,41.5755 56.837,42.858 56.837,44.604 C56.837,46.338 57.2165,47.6175 57.9755,48.4425 C58.7345,49.2675 59.846,49.68 61.31,49.68 Z M67.304,49.68 C68.12,49.68 68.822,49.5585 69.41,49.3155 C69.998,49.0725 70.4465,48.7215 70.7555,48.2625 C71.0645,47.8035 71.219,47.259 71.219,46.629 C71.219,45.855 71.024,45.249 70.634,44.811 C70.244,44.373 69.632,44.058 68.798,43.866 L68.798,43.866 L67.466,43.578 C67.106,43.494 66.8465,43.3665 66.6875,43.1955 C66.5285,43.0245 66.449,42.795 66.449,42.507 C66.449,42.141 66.6095,41.847 66.9305,41.625 C67.2515,41.403 67.775,41.292 68.501,41.292 C69.299,41.292 70.031,41.385 70.697,41.571 L70.697,41.571 L70.697,39.798 C69.995,39.618 69.233,39.528 68.411,39.528 C67.529,39.528 66.7835,39.6525 66.1745,39.9015 C65.5655,40.1505 65.108,40.5015 64.802,40.9545 C64.496,41.4075 64.343,41.934 64.343,42.534 C64.343,43.29 64.538,43.893 64.928,44.343 C65.318,44.793 65.924,45.111 66.746,45.297 L66.746,45.297 L68.078,45.594 C68.45,45.678 68.717,45.8055 68.879,45.9765 C69.041,46.1475 69.122,46.389 69.122,46.701 C69.122,47.517 68.504,47.925 67.268,47.925 C66.362,47.925 65.471,47.784 64.595,47.502 L64.595,47.502 L64.595,49.275 C65.399,49.545 66.302,49.68 67.304,49.68 Z M77.6,49.5 L80.822,39.681 L78.572,39.681 L76.205,47.394 L73.838,39.681 L71.471,39.681 L74.693,49.5 L77.6,49.5 Z M90.119,49.68 C90.917,49.68 91.673,49.56 92.387,49.32 L92.387,49.32 L92.387,47.466 C91.667,47.688 91.052,47.799 90.542,47.799 C89.966,47.799 89.492,47.6955 89.12,47.4885 C88.748,47.2815 88.469,46.941 88.283,46.467 C88.097,45.993 88.004,45.36 88.004,44.568 C88.004,43.794 88.103,43.1775 88.301,42.7185 C88.499,42.2595 88.8035,41.928 89.2145,41.724 C89.6255,41.52 90.161,41.418 90.821,41.418 C91.331,41.418 91.853,41.475 92.387,41.589 L92.387,41.589 L92.387,39.735 C91.811,39.597 91.172,39.528 90.47,39.528 C88.904,39.528 87.7085,39.9375 86.8835,40.7565 C86.0585,41.5755 85.646,42.858 85.646,44.604 C85.646,46.338 86.0255,47.6175 86.7845,48.4425 C87.5435,49.2675 88.655,49.68 90.119,49.68 Z M96.158,49.5 L96.158,34.956 L93.89,34.956 L93.89,49.5 L96.158,49.5 Z M100.703,49.671 C101.237,49.671 101.717,49.5705 102.143,49.3695 C102.569,49.1685 102.917,48.867 103.187,48.465 L103.187,48.465 L103.304,48.465 L103.466,49.5 L105.329,49.5 L105.329,43.344 C105.329,42.396 105.188,41.6445 104.906,41.0895 C104.624,40.5345 104.1935,40.1355 103.6145,39.8925 C103.0355,39.6495 102.284,39.528 101.36,39.528 C100.886,39.528 100.391,39.5625 99.875,39.6315 C99.359,39.7005 98.897,39.798 98.489,39.924 L98.489,39.924 L98.489,41.715 C98.897,41.589 99.3185,41.493 99.7535,41.427 C100.1885,41.361 100.592,41.328 100.964,41.328 C101.486,41.328 101.903,41.3865 102.215,41.5035 C102.527,41.6205 102.7565,41.8155 102.9035,42.0885 C103.0505,42.3615 103.124,42.741 103.124,43.227 L103.124,43.227 L103.124,43.704 L101.486,43.857 C100.208,43.959 99.275,44.262 98.687,44.766 C98.099,45.27 97.805,45.981 97.805,46.899 C97.805,47.463 97.9235,47.9535 98.1605,48.3705 C98.3975,48.7875 98.7335,49.1085 99.1685,49.3335 C99.6035,49.5585 100.115,49.671 100.703,49.671 Z M101.432,47.997 C100.982,47.997 100.637,47.8845 100.397,47.6595 C100.157,47.4345 100.037,47.103 100.037,46.665 C100.037,46.227 100.172,45.8865 100.442,45.6435 C100.712,45.4005 101.135,45.252 101.711,45.198 L101.711,45.198 L103.124,45.072 L103.124,47.187 C102.896,47.469 102.635,47.6745 102.341,47.8035 C102.047,47.9325 101.744,47.997 101.432,47.997 Z M110.315,49.671 C110.825,49.671 111.3065,49.569 111.7595,49.365 C112.2125,49.161 112.616,48.861 112.97,48.465 L112.97,48.465 L113.087,48.465 L113.249,49.5 L115.139,49.5 L115.139,39.681 L112.871,39.681 L112.871,46.719 C112.649,47.031 112.3655,47.2665 112.0205,47.4255 C111.6755,47.5845 111.335,47.664 110.999,47.664 C110.555,47.664 110.21,47.5365 109.964,47.2815 C109.718,47.0265 109.595,46.599 109.595,45.999 L109.595,45.999 L109.595,39.681 L107.327,39.681 L107.327,46.152 C107.327,47.382 107.5955,48.276 108.1325,48.834 C108.6695,49.392 109.397,49.671 110.315,49.671 Z M119.711,49.68 C120.527,49.68 121.229,49.5585 121.817,49.3155 C122.405,49.0725 122.8535,48.7215 123.1625,48.2625 C123.4715,47.8035 123.626,47.259 123.626,46.629 C123.626,45.855 123.431,45.249 123.041,44.811 C122.651,44.373 122.039,44.058 121.205,43.866 L121.205,43.866 L119.873,43.578 C119.513,43.494 119.2535,43.3665 119.0945,43.1955 C118.9355,43.0245 118.856,42.795 118.856,42.507 C118.856,42.141 119.0165,41.847 119.3375,41.625 C119.6585,41.403 120.182,41.292 120.908,41.292 C121.706,41.292 122.438,41.385 123.104,41.571 L123.104,41.571 L123.104,39.798 C122.402,39.618 121.64,39.528 120.818,39.528 C119.936,39.528 119.1905,39.6525 118.5815,39.9015 C117.9725,40.1505 117.515,40.5015 117.209,40.9545 C116.903,41.4075 116.75,41.934 116.75,42.534 C116.75,43.29 116.945,43.893 117.335,44.343 C117.725,44.793 118.331,45.111 119.153,45.297 L119.153,45.297 L120.485,45.594 C120.857,45.678 121.124,45.8055 121.286,45.9765 C121.448,46.1475 121.529,46.389 121.529,46.701 C121.529,47.517 120.911,47.925 119.675,47.925 C118.769,47.925 117.878,47.784 117.002,47.502 L117.002,47.502 L117.002,49.275 C117.806,49.545 118.709,49.68 119.711,49.68 Z M129.494,49.68 C130.352,49.68 131.219,49.563 132.095,49.329 L132.095,49.329 L132.095,47.538 C131.249,47.766 130.478,47.88 129.782,47.88 C129.122,47.88 128.5925,47.7975 128.1935,47.6325 C127.7945,47.4675 127.499,47.1975 127.307,46.8225 C127.115,46.4475 127.007,45.936 126.983,45.288 L126.983,45.288 L132.581,45.288 L132.581,44.64 C132.581,42.936 132.257,41.658 131.609,40.806 C130.961,39.954 130.013,39.528 128.765,39.528 C127.469,39.528 126.4655,39.954 125.7545,40.806 C125.0435,41.658 124.688,42.912 124.688,44.568 C124.688,45.78 124.8605,46.7595 125.2055,47.5065 C125.5505,48.2535 126.0755,48.8025 126.7805,49.1535 C127.4855,49.5045 128.39,49.68 129.494,49.68 Z M130.448,43.884 L126.974,43.884 C126.986,43.176 127.0625,42.6135 127.2035,42.1965 C127.3445,41.7795 127.5425,41.484 127.7975,41.31 C128.0525,41.136 128.369,41.049 128.747,41.049 C129.119,41.049 129.4265,41.136 129.6695,41.31 C129.9125,41.484 130.1,41.778 130.232,42.192 C130.364,42.606 130.436,43.17 130.448,43.884 L130.448,43.884 Z" id="LOADcsvclause" fill="#FFFFFF" fill-rule="nonzero"></path>
            </g>
        </g>
    </g>
</svg>