<?xml version="1.0" encoding="utf-8"?>
<!-- Generator: Adobe Illustrator 26.1.0, SVG Export Plug-In . SVG Version: 6.00 Build 0)  -->
<svg version="1.1" id="Layer_1" xmlns="http://www.w3.org/2000/svg" xmlns:xlink="http://www.w3.org/1999/xlink" x="0px" y="0px"
	 width="80px" height="95px" viewBox="0 0 80 95" style="enable-background:new 0 0 80 95;" xml:space="preserve">
<style type="text/css">
	.st0{fill:#FFFFFF;}
	.st1{fill:#242526;}
	.st2{fill:#929395;}
</style>
<g>
	<g>
		<path class="st2" d="M78,77.2c-2.5-1-4.5-2.6-4.4-5.7c0.1-3.1-2.2-5.1-2.2-5.1s2-6.7,0.1-12.3c-1.9-5.6-8.2-14.5-13-21.2
			c-4.8-6.7-0.7-14.5-5.1-24.4c-4.4-9.9-15.8-9.3-21.9-5.1c-6.1,4.2-4.2,14.7-4,19.7c0.3,5,0.1,8.5-0.4,9.8c-0.6,1.3-4.5,6-7.2,9.9
			c-2.6,3.9-4.5,12.1-6.4,15.5c-1.9,3.4-0.6,6.4-0.6,6.4s-1.3,0.4-2.3,2.6c-1,2.2-3.1,3.2-6.7,3.9C0.3,72,0.3,74.4,1.2,77
			c0.9,2.6,0,4.1-1,7.4c-1,3.3,4.1,4.4,9,5c5,0.6,10.5,3.8,15.2,4.4c4.7,0.6,6.1-3.2,6.1-3.2s5.3-1.2,10.8-1.3
			c5.6-0.1,10.8,1.2,10.8,1.2s1,2.3,2.9,3.4c1.9,1,6,1.2,8.6-1.6c2.6-2.8,9.6-6.3,13.6-8.5C81.2,81.5,80.4,78.2,78,77.2z M43.8,12.8
			c2.5,0,4.5,2.5,4.5,5.5c0,2.2-1,4-2.5,5c-0.4-0.2-0.8-0.3-1.2-0.5c0.9-0.4,1.5-1.6,1.5-2.9c0-1.7-1.1-3.1-2.4-3.1
			c-1.3,0-2.4,1.4-2.4,3.1c0,0.6,0.2,1.3,0.4,1.8c-0.8-0.3-1.5-0.6-2.1-0.8c-0.3-0.7-0.5-1.6-0.5-2.5C39.3,15.3,41.3,12.8,43.8,12.8
			z M43.5,24.5c1.3,0.4,2.6,1.2,2.5,2.1c-0.1,0.8-0.8,0.8-2.5,1.8c-1.7,1-5.4,3.3-6.5,3.5c-1.2,0.1-1.8-0.5-3.1-1.3
			c-1.3-0.8-3.6-2.7-3-3.8c0,0,1.8-1.4,2.6-2.1c0.8-0.7,2.9-2.5,4.1-2.3C38.8,22.5,42.2,24,43.5,24.5z M32.2,13.6
			c2,0,3.6,2.4,3.6,5.3c0,0.5-0.1,1-0.2,1.5c-0.5,0.2-1,0.4-1.4,0.8c-0.2,0.2-0.5,0.4-0.7,0.6c0.3-0.6,0.4-1.4,0.3-2.3
			c-0.3-1.6-1.3-2.7-2.4-2.6c-1,0.2-1.7,1.6-1.4,3.2c0.3,1.6,1.3,2.7,2.4,2.6c0.1,0,0.1,0,0.2,0c-0.5,0.5-1,0.9-1.5,1.3
			c-1.4-0.7-2.5-2.7-2.5-5C28.6,16,30.2,13.6,32.2,13.6z M28.3,87.4c-0.5,2.1-2.9,3.6-2.9,3.6c-2.2,0.7-8.4-2-11.2-3.2
			c-2.8-1.2-9.9-1.5-10.9-2.6c-0.9-1.1,0.5-3.4,0.8-5.6c0.3-2.2-0.7-3.6-0.4-5.1c0.4-1.5,4.9-1.5,6.6-2.6c1.8-1.1,2.1-4.1,3.5-4.9
			c1.4-0.8,4,2.1,5,3.7c1,1.6,5,8.6,6.6,10.4C27.3,83,28.8,85.3,28.3,87.4z M54.1,67.1c-0.4,2.1-0.4,9.5-0.4,9.5s-4.5,6.3-11.5,7.3
			c-7,1-10.5,0.3-10.5,0.3l-3.9-4.5c0,0,3.1-0.4,2.6-3.5c-0.4-3.1-9.3-7.3-11-11.1c-1.6-3.8-0.3-10.2,1.8-13.4
			c2-3.2,3.3-10.2,5.4-12.6c2-2.3,3.6-7.3,2.9-9.5c0,0,4.4,5.3,7.4,4.4c3.1-0.9,9.9-6,11-5.1c1,0.9,9.8,20.1,10.7,26.3
			c0.9,6.1-0.6,10.8-0.6,10.8S54.6,65,54.1,67.1z M76.6,80.8c-1.4,1.3-9,4.3-11.2,6.7c-2.3,2.4-5.2,4.3-7,3.7
			c-1.8-0.6-3.4-3.1-2.6-6.7c0.8-3.6,1.5-7.6,1.4-9.9c-0.1-2.3-0.6-5.3,0-5.8c0.6-0.4,1.5-0.2,1.5-0.2s-0.4,4.3,2.2,5.4
			c2.6,1.1,6.4-0.5,7.5-1.6c1.1-1.1,1.9-2.8,1.9-2.8s1.1,0.6,1,2.4c-0.1,1.8,0.8,4.4,2.5,5.3C75.3,78.3,77.9,79.6,76.6,80.8z"/>
	</g>
</g>
</svg>
