<?xml version="1.0" encoding="UTF-8"?>
<svg width="36px" height="64px" viewBox="0 0 36 64" version="1.1" xmlns="http://www.w3.org/2000/svg" xmlns:xlink="http://www.w3.org/1999/xlink">
    <title>Group 14</title>
    <defs>
        <filter id="filter-1">
            <feColorMatrix in="SourceGraphic" type="matrix" values="0 0 0 0 0.392157 0 0 0 0 0.349020 0 0 0 0 0.396078 0 0 0 1.000000 0"></feColorMatrix>
        </filter>
    </defs>
    <g id="Docs" stroke="none" stroke-width="1" fill="none" fill-rule="evenodd">
        <g id="ConnectToMG_IntermediaryFuture_UIDesign_Dark-Mode" transform="translate(-843.000000, -474.000000)">
            <g id="Group-14" transform="translate(791.000000, 464.000000)" filter="url(#filter-1)">
                <g transform="translate(52.500000, 10.000000)">
                    <path d="M21.9233936,0.757647059 C22.9243065,1.87732027 23.2548149,3.47898459 22.9673803,4.92333049 C22.6578566,6.54560894 21.7417107,7.97964777 20.6656948,9.21486865 C19.8028388,10.2092296 18.8115899,11.0883141 17.7783717,11.9047425 C16.5742389,12.8570615 15.3913669,13.8828861 14.6350909,15.2228051 C13.9956111,16.3112859 13.8465096,17.6509336 14.2833218,18.8338055 C14.9970763,20.8642981 16.6595581,22.3715714 17.5652117,24.2870588 C16.5634705,23.4182814 15.5832661,22.5183115 14.666844,21.5657213 C13.7079004,20.560782 12.8022468,19.4931866 12.2055647,18.2370804 C11.8007817,17.3579959 11.619651,16.3321712 11.9286224,15.4007377 C12.2375939,14.4481475 12.9300876,13.6840681 13.6228574,12.9723379 C15.5512369,11.0777358 17.9271971,9.68573898 19.813055,7.75994445 C20.8578701,6.70292737 21.720726,5.4362428 22.018929,3.9813186 C22.2641182,2.91372321 22.1467698,1.81466414 21.9233936,0.757647059" id="Fill-72" fill="#D53033"></path>
                    <path d="M21.9233936,0.757647059 C22.9243065,1.87732027 23.2548149,3.47898459 22.9673803,4.92333049 C22.6578566,6.54560894 21.7417107,7.97964777 20.6656948,9.21486865 C19.8028388,10.2092296 18.8115899,11.0883141 17.7783717,11.9047425 C16.5742389,12.8570615 15.3913669,13.8828861 14.6350909,15.2228051 C13.9956111,16.3112859 13.8465096,17.6509336 14.2833218,18.8338055 C14.9970763,20.8642981 16.6595581,22.3715714 17.5652117,24.2870588 C16.5634705,23.4182814 15.5832661,22.5183115 14.666844,21.5657213 C13.7079004,20.560782 12.8022468,19.4931866 12.2055647,18.2370804 C11.8007817,17.3579959 11.619651,16.3321712 11.9286224,15.4007377 C12.2375939,14.4481475 12.9300876,13.6840681 13.6228574,12.9723379 C15.5512369,11.0777358 17.9271971,9.68573898 19.813055,7.75994445 C20.8578701,6.70292737 21.720726,5.4362428 22.018929,3.9813186 C22.2641182,2.91372321 22.1467698,1.81466414 21.9233936,0.757647059 Z" id="Stroke-73" stroke="#D53033" stroke-width="0.094"></path>
                    <path d="M20.0779774,12.3171342 C22.0905742,10.844591 24.4456836,9.90780906 26.8317104,9.22823529 C24.9441279,10.4224921 22.9729337,11.513759 21.3439831,13.0479361 C20.7522484,13.614381 20.1925067,14.2630044 19.9330683,15.0557071 C19.7357338,15.6426966 19.818539,16.29132 20.057545,16.8473591 C20.4933477,17.835636 21.2294538,18.6387444 21.7897332,19.5448428 C22.2672074,20.3170008 22.3500127,21.3055445 21.9873366,22.1396032 C21.4370045,23.3645436 20.358386,24.260503 19.2378271,24.9710272 C19.0923803,25.0532057 18.9679036,25.2076907 18.7915393,25.2282353 C19.5386681,24.5590673 20.11938,23.6118796 20.0989476,22.5923856 C20.0779774,21.8306333 19.6526597,21.1614652 19.154753,20.615565 C18.1277533,19.4007635 17.2666329,17.8561807 17.4429972,16.2192804 C17.6193616,14.5821133 18.8020243,13.2643218 20.0779774,12.3171342" id="Fill-75" fill="#D53033"></path>
                    <path d="M20.0779774,12.3171342 C22.0905742,10.844591 24.4456836,9.90780906 26.8317104,9.22823529 C24.9441279,10.4224921 22.9729337,11.513759 21.3439831,13.0479361 C20.7522484,13.614381 20.1925067,14.2630044 19.9330683,15.0557071 C19.7357338,15.6426966 19.818539,16.29132 20.057545,16.8473591 C20.4933477,17.835636 21.2294538,18.6387444 21.7897332,19.5448428 C22.2672074,20.3170008 22.3500127,21.3055445 21.9873366,22.1396032 C21.4370045,23.3645436 20.358386,24.260503 19.2378271,24.9710272 C19.0923803,25.0532057 18.9679036,25.2076907 18.7915393,25.2282353 C19.5386681,24.5590673 20.11938,23.6118796 20.0989476,22.5923856 C20.0779774,21.8306333 19.6526597,21.1614652 19.154753,20.615565 C18.1277533,19.4007635 17.2666329,17.8561807 17.4429972,16.2192804 C17.6193616,14.5821133 18.8020243,13.2643218 20.0779774,12.3171342 Z" id="Stroke-76" stroke="#D53033" stroke-width="0.094"></path>
                    <path d="M27.9028739,25.0807397 C28.3859418,24.5451415 29.1575376,24.4085204 29.8596122,24.3244249 C31.0805596,24.177462 32.3814713,24.461046 33.3025526,25.2277026 C34.0625118,25.8473962 34.4885902,26.8135413 34.3271697,27.7481166 C34.1547094,28.829927 33.3598404,29.7332046 32.4623307,30.4157657 C30.8388765,31.6023552 28.8352934,32.2955303 26.8317104,32.7576471 C26.9471812,32.6419818 27.0736919,32.5372027 27.2231774,32.4531072 C28.7430958,31.7074065 30.2513776,30.8359708 31.3684907,29.6175394 C32.0472921,28.8614968 32.5772048,27.8741237 32.3584965,26.8764088 C32.1284499,25.7213891 30.8964627,24.880979 29.6412023,24.8181115 C29.0420668,24.7655859 28.4784378,24.9756884 27.9028739,25.0807397" id="Fill-77" fill="#2069A4"></path>
                    <path d="M27.9028739,25.0807397 C28.3859418,24.5451415 29.1575376,24.4085204 29.8596122,24.3244249 C31.0805596,24.177462 32.3814713,24.461046 33.3025526,25.2277026 C34.0625118,25.8473962 34.4885902,26.8135413 34.3271697,27.7481166 C34.1547094,28.829927 33.3598404,29.7332046 32.4623307,30.4157657 C30.8388765,31.6023552 28.8352934,32.2955303 26.8317104,32.7576471 C26.9471812,32.6419818 27.0736919,32.5372027 27.2231774,32.4531072 C28.7430958,31.7074065 30.2513776,30.8359708 31.3684907,29.6175394 C32.0472921,28.8614968 32.5772048,27.8741237 32.3584965,26.8764088 C32.1284499,25.7213891 30.8964627,24.880979 29.6412023,24.8181115 C29.0420668,24.7655859 28.4784378,24.9756884 27.9028739,25.0807397 Z" id="Stroke-78" stroke="#2069A4" stroke-width="0.094"></path>
                    <path d="M6.54478413,25.6151664 C8.4767946,24.7900031 10.5769716,24.2572206 12.687489,24.2883537 C11.4588936,24.6435421 10.1990051,24.9467517 9.04388049,25.4898217 C8.77095,25.636012 8.45584181,25.7719149 8.29828772,26.0540081 C8.21447656,26.2732936 8.44522936,26.4197546 8.61312379,26.4928498 C9.32715132,26.7852305 10.1149218,26.8269218 10.8814674,26.9002877 C13.5694109,27.0778819 16.2682391,26.9733829 18.9463865,26.8060761 C21.5918803,26.6390401 24.2175098,26.2838518 26.8317104,25.8658557 C26.2545563,26.1376614 25.6662455,26.4091965 25.130997,26.7538266 C24.8577944,26.941979 24.5220055,26.9942285 24.2175098,27.0673237 C21.0041138,27.7777004 17.7066345,27.9972566 14.4306522,28.0492354 C13.1598791,28.0597936 11.9002627,28.038948 10.6401021,27.9552946 C9.23299983,27.8613538 7.8152851,27.7568548 6.43974807,27.3911082 C6.04055661,27.2763217 5.62068448,27.150977 5.30557629,26.8688838 C5.1480222,26.7435392 5.1480222,26.4928498 5.2846235,26.3466595 C5.63102481,25.9912004 6.11429955,25.8241644 6.54478413,25.6151664" id="Fill-79" fill="#2069A4"></path>
                    <path d="M6.54478413,25.6151664 C8.4767946,24.7900031 10.5769716,24.2572206 12.687489,24.2883537 C11.4588936,24.6435421 10.1990051,24.9467517 9.04388049,25.4898217 C8.77095,25.636012 8.45584181,25.7719149 8.29828772,26.0540081 C8.21447656,26.2732936 8.44522936,26.4197546 8.61312379,26.4928498 C9.32715132,26.7852305 10.1149218,26.8269218 10.8814674,26.9002877 C13.5694109,27.0778819 16.2682391,26.9733829 18.9463865,26.8060761 C21.5918803,26.6390401 24.2175098,26.2838518 26.8317104,25.8658557 C26.2545563,26.1376614 25.6662455,26.4091965 25.130997,26.7538266 C24.8577944,26.941979 24.5220055,26.9942285 24.2175098,27.0673237 C21.0041138,27.7777004 17.7066345,27.9972566 14.4306522,28.0492354 C13.1598791,28.0597936 11.9002627,28.038948 10.6401021,27.9552946 C9.23299983,27.8613538 7.8152851,27.7568548 6.43974807,27.3911082 C6.04055661,27.2763217 5.62068448,27.150977 5.30557629,26.8688838 C5.1480222,26.7435392 5.1480222,26.4928498 5.2846235,26.3466595 C5.63102481,25.9912004 6.11429955,25.8241644 6.54478413,25.6151664 Z" id="Stroke-80" stroke="#2069A4" stroke-width="0.094"></path>
                    <path d="M9.34466349,30.6688285 C9.87200178,30.3186289 10.5007614,30.1220566 11.1292582,29.9341176 C10.9266784,30.1391018 10.6426461,30.335674 10.6224144,30.6174718 C10.6124299,30.7967776 10.7847936,30.9335812 10.9568945,31.0190281 C11.2913747,31.1642437 11.666581,31.2156004 12.0420501,31.2581025 C13.9884985,31.4289964 15.9554414,31.5230765 17.9226471,31.4119512 C19.7169635,31.3351375 21.501821,31.0872086 23.2764313,30.8224559 C23.7630434,31.2069671 24.3408296,31.4717198 24.9493575,31.7023823 C22.8095254,32.2318877 20.6095236,32.5395852 18.3992747,32.6848007 C16.3106788,32.8043379 14.1916039,32.795926 12.1127297,32.5136855 C11.2913747,32.3857364 10.4500507,32.2405209 9.69990084,31.9159996 C9.3956369,31.779196 9.05090953,31.5998902 8.9594727,31.3008259 C8.89877756,31.0447065 9.1218519,30.814044 9.34466349,30.6688285" id="Fill-81" fill="#2069A4"></path>
                    <path d="M9.34466349,30.6688285 C9.87200178,30.3186289 10.5007614,30.1220566 11.1292582,29.9341176 C10.9266784,30.1391018 10.6426461,30.335674 10.6224144,30.6174718 C10.6124299,30.7967776 10.7847936,30.9335812 10.9568945,31.0190281 C11.2913747,31.1642437 11.666581,31.2156004 12.0420501,31.2581025 C13.9884985,31.4289964 15.9554414,31.5230765 17.9226471,31.4119512 C19.7169635,31.3351375 21.501821,31.0872086 23.2764313,30.8224559 C23.7630434,31.2069671 24.3408296,31.4717198 24.9493575,31.7023823 C22.8095254,32.2318877 20.6095236,32.5395852 18.3992747,32.6848007 C16.3106788,32.8043379 14.1916039,32.795926 12.1127297,32.5136855 C11.2913747,32.3857364 10.4500507,32.2405209 9.69990084,31.9159996 C9.3956369,31.779196 9.05090953,31.5998902 8.9594727,31.3008259 C8.89877756,31.0447065 9.1218519,30.814044 9.34466349,30.6688285 Z" id="Stroke-82" stroke="#2069A4" stroke-width="0.094"></path>
                    <path d="M10.2526038,35.243813 C10.7526275,34.9335413 11.3720935,34.7740599 11.9811365,34.64 C11.7853526,34.7823165 11.4374487,34.9585282 11.5898503,35.2016612 C11.8833854,35.4954198 12.4267914,35.5288805 12.8617417,35.6044929 C14.6987302,35.78027 16.5576917,35.8975996 18.394962,35.7885266 C19.7862956,35.7216052 21.1556563,35.5288805 22.5148758,35.344195 C23.2971664,35.6966184 24.112698,35.9981989 24.9493575,36.2667534 C23.6670431,36.7108677 22.2864142,36.9959352 20.906067,37.197351 C18.5797595,37.5158792 16.1771102,37.5578137 13.8398162,37.2727462 C12.8070912,37.1302124 11.752675,36.9459615 10.8179827,36.5516036 C10.4590924,36.3925568 10.0787927,36.2078713 9.92667282,35.8975996 C9.80694883,35.6544666 10.0024511,35.3948205 10.2526038,35.243813" id="Fill-83" fill="#2069A4"></path>
                    <path d="M10.2526038,35.243813 C10.7526275,34.9335413 11.3720935,34.7740599 11.9811365,34.64 C11.7853526,34.7823165 11.4374487,34.9585282 11.5898503,35.2016612 C11.8833854,35.4954198 12.4267914,35.5288805 12.8617417,35.6044929 C14.6987302,35.78027 16.5576917,35.8975996 18.394962,35.7885266 C19.7862956,35.7216052 21.1556563,35.5288805 22.5148758,35.344195 C23.2971664,35.6966184 24.112698,35.9981989 24.9493575,36.2667534 C23.6670431,36.7108677 22.2864142,36.9959352 20.906067,37.197351 C18.5797595,37.5158792 16.1771102,37.5578137 13.8398162,37.2727462 C12.8070912,37.1302124 11.752675,36.9459615 10.8179827,36.5516036 C10.4590924,36.3925568 10.0787927,36.2078713 9.92667282,35.8975996 C9.80694883,35.6544666 10.0024511,35.3948205 10.2526038,35.243813 Z" id="Stroke-84" stroke="#2069A4" stroke-width="0.094"></path>
                    <path d="M4.12978368,37.1603477 C5.10216667,36.8262752 6.10604051,36.5567267 7.13099954,36.5246044 C7.54311906,36.5137107 7.96564424,36.5352187 8.32491388,36.7508575 C7.09923485,36.8262752 5.87328198,37.1388397 4.77438789,37.710059 C4.53149752,37.8502801 4.25656862,38.0120091 4.16154838,38.3030656 C4.16154838,38.6371381 4.53149752,38.7449575 4.77438789,38.8524976 C6.30676052,39.4346106 7.94455906,39.6178477 9.55086674,39.7904704 C14.3374774,40.1999606 19.1558528,40.0924206 23.9427374,39.6502493 C25.749765,39.4455042 27.5671984,39.2407591 29.3213762,38.7340639 C29.8813658,38.5399331 30.5152905,38.346361 30.8852397,37.8393864 C31.1073187,37.5377156 30.9597224,37.1603477 30.7376434,36.9016929 C31.0966392,37.1067173 31.6040528,37.3653721 31.5303916,37.8611737 C31.3929271,38.3784833 30.8745602,38.6480318 30.452035,38.8957929 C29.099571,39.596619 27.6096426,39.9524788 26.1301199,40.264764 C21.8295637,41.1270398 17.423034,41.3211705 13.048269,41.1918431 C9.75131291,41.0728507 6.45463064,40.7496719 3.1998449,40.1787319 C2.61877008,40.0385109 1.96376019,39.9195185 1.54096117,39.4563979 C1.26630611,39.1329397 1.50919648,38.6801542 1.77317203,38.4432867 C2.43913526,37.8181577 3.29513898,37.4731915 4.12978368,37.1603477" id="Fill-85" fill="#2069A4"></path>
                    <path d="M4.12978368,37.1603477 C5.10216667,36.8262752 6.10604051,36.5567267 7.13099954,36.5246044 C7.54311906,36.5137107 7.96564424,36.5352187 8.32491388,36.7508575 C7.09923485,36.8262752 5.87328198,37.1388397 4.77438789,37.710059 C4.53149752,37.8502801 4.25656862,38.0120091 4.16154838,38.3030656 C4.16154838,38.6371381 4.53149752,38.7449575 4.77438789,38.8524976 C6.30676052,39.4346106 7.94455906,39.6178477 9.55086674,39.7904704 C14.3374774,40.1999606 19.1558528,40.0924206 23.9427374,39.6502493 C25.749765,39.4455042 27.5671984,39.2407591 29.3213762,38.7340639 C29.8813658,38.5399331 30.5152905,38.346361 30.8852397,37.8393864 C31.1073187,37.5377156 30.9597224,37.1603477 30.7376434,36.9016929 C31.0966392,37.1067173 31.6040528,37.3653721 31.5303916,37.8611737 C31.3929271,38.3784833 30.8745602,38.6480318 30.452035,38.8957929 C29.099571,39.596619 27.6096426,39.9524788 26.1301199,40.264764 C21.8295637,41.1270398 17.423034,41.3211705 13.048269,41.1918431 C9.75131291,41.0728507 6.45463064,40.7496719 3.1998449,40.1787319 C2.61877008,40.0385109 1.96376019,39.9195185 1.54096117,39.4563979 C1.26630611,39.1329397 1.50919648,38.6801542 1.77317203,38.4432867 C2.43913526,37.8181577 3.29513898,37.4731915 4.12978368,37.1603477 Z" id="Stroke-86" stroke="#2069A4" stroke-width="0.094"></path>
                    <path d="M30.4058157,41.7798646 C31.4781848,41.4360561 32.6239887,41.0726523 33.4199457,40.2870588 C33.2818771,41.1413631 32.4859202,41.7307491 31.7004146,42.1134937 C30.1937622,42.8405558 28.5058604,43.1741849 26.8295101,43.4490281 C23.2840087,43.9697033 19.6865253,44.0972 16.0882168,44.0386686 C13.6365373,43.9697033 11.16368,43.8813972 8.75435626,43.4098375 C8.18117924,43.2627455 7.56564653,43.16426 7.06700452,42.8502262 C9.21064258,43.1841098 11.386735,43.3217859 13.5625524,43.4001671 C17.139133,43.4983981 20.72644,43.3709014 24.2821178,42.9581276 C26.3410445,42.6932093 28.4104225,42.3689961 30.4058157,41.7798646" id="Fill-87" fill="#2069A4"></path>
                    <path d="M30.4058157,41.7798646 C31.4781848,41.4360561 32.6239887,41.0726523 33.4199457,40.2870588 C33.2818771,41.1413631 32.4859202,41.7307491 31.7004146,42.1134937 C30.1937622,42.8405558 28.5058604,43.1741849 26.8295101,43.4490281 C23.2840087,43.9697033 19.6865253,44.0972 16.0882168,44.0386686 C13.6365373,43.9697033 11.16368,43.8813972 8.75435626,43.4098375 C8.18117924,43.2627455 7.56564653,43.16426 7.06700452,42.8502262 C9.21064258,43.1841098 11.386735,43.3217859 13.5625524,43.4001671 C17.139133,43.4983981 20.72644,43.3709014 24.2821178,42.9581276 C26.3410445,42.6932093 28.4104225,42.3689961 30.4058157,41.7798646 Z" id="Stroke-88" stroke="#2069A4" stroke-width="0.094"></path>
                    <path d="M2.82035221,57.2076666 C2.83171041,53.7670763 2.8086951,50.3264859 2.83171041,46.8752941 C3.61602413,46.8962253 4.40033786,46.8752941 5.18465158,46.8962253 C5.17329338,50.7461961 5.18465158,54.6062247 5.17329338,58.4665252 C5.15027808,59.5470614 5.12726277,60.6800614 4.55038568,61.6445249 C3.91582088,62.673141 2.7856798,63.3967604 1.58619391,63.8164706 C1.20539525,63.4386227 0.859567892,63.0398437 0.478769231,62.6625395 C1.44780319,62.1485033 2.41683714,61.4142823 2.64728908,60.3546773 C2.86668171,59.3160034 2.7973369,58.256942 2.82035221,57.2076666" id="Fill-89" fill="#D53033"></path>
                    <path d="M2.82035221,57.2076666 C2.83171041,53.7670763 2.8086951,50.3264859 2.83171041,46.8752941 C3.61602413,46.8962253 4.40033786,46.8752941 5.18465158,46.8962253 C5.17329338,50.7461961 5.18465158,54.6062247 5.17329338,58.4665252 C5.15027808,59.5470614 5.12726277,60.6800614 4.55038568,61.6445249 C3.91582088,62.673141 2.7856798,63.3967604 1.58619391,63.8164706 C1.20539525,63.4386227 0.859567892,63.0398437 0.478769231,62.6625395 C1.44780319,62.1485033 2.41683714,61.4142823 2.64728908,60.3546773 C2.86668171,59.3160034 2.7973369,58.256942 2.82035221,57.2076666 Z" id="Stroke-90" stroke="#D53033" stroke-width="0.094"></path>
                    <path d="M9.15266847,56.3706197 C8.70548817,56.5187589 8.28885728,56.8581871 8.16692296,57.3460293 C8.02471014,57.8869157 8.06526713,58.5231719 8.40052068,58.9794074 C8.72603002,59.4249241 9.31542314,59.5307378 9.82343893,59.4672496 C10.5347664,59.3823238 11.1547089,58.9579698 11.7035451,58.502284 C11.7035451,57.7066202 11.6932741,56.9219501 11.7035451,56.1262864 C10.8497414,56.1262864 9.97592268,56.073517 9.15266847,56.3706197 Z M6.63234131,51.4493226 C8.00416829,50.8339544 9.52874237,50.5156889 11.0225037,50.6852656 C11.79493,50.7809101 12.5979057,51.0782877 13.0956505,51.7252627 C13.5122814,52.2763182 13.6650285,52.9870562 13.6547576,53.6763566 C13.6547576,56.0523542 13.6547576,58.4173582 13.6547576,60.793081 C13.1467418,60.793081 12.6384627,60.793081 12.1201759,60.793081 C12.069348,60.4426591 12.0187835,60.0826179 11.9779631,59.721752 C11.3985776,60.1991503 10.7788984,60.655111 10.0570367,60.8458504 C9.23378245,61.0687462 8.32967763,61.0475835 7.52670192,60.7185992 C6.90649602,60.4536528 6.41902209,59.8704409 6.24625985,59.1915844 C5.99212028,58.2051812 6.12432552,57.0492013 6.79509598,56.2535376 C7.39449667,55.5219117 8.29912821,55.1613208 9.19322546,54.9914692 C10.0164797,54.8218925 10.8600124,54.8218925 11.7035451,54.8218925 C11.6832666,54.15348 11.8052009,53.4218542 11.4391346,52.8281983 C11.144438,52.3719628 10.6058728,52.1916673 10.1081279,52.1600606 C9.02072658,52.0644161 7.94333281,52.3508001 6.91676695,52.7221098 C6.81537448,52.2980306 6.72372622,51.8736766 6.63234131,51.4493226 L6.63234131,51.4493226 Z" id="Fill-91" fill="#D53033"></path>
                    <path d="M9.15266847,56.3706197 C8.70548817,56.5187589 8.28885728,56.8581871 8.16692296,57.3460293 C8.02471014,57.8869157 8.06526713,58.5231719 8.40052068,58.9794074 C8.72603002,59.4249241 9.31542314,59.5307378 9.82343893,59.4672496 C10.5347664,59.3823238 11.1547089,58.9579698 11.7035451,58.502284 C11.7035451,57.7066202 11.6932741,56.9219501 11.7035451,56.1262864 C10.8497414,56.1262864 9.97592268,56.073517 9.15266847,56.3706197 Z M6.63234131,51.4493226 C8.00416829,50.8339544 9.52874237,50.5156889 11.0225037,50.6852656 C11.79493,50.7809101 12.5979057,51.0782877 13.0956505,51.7252627 C13.5122814,52.2763182 13.6650285,52.9870562 13.6547576,53.6763566 C13.6547576,56.0523542 13.6547576,58.4173582 13.6547576,60.793081 C13.1467418,60.793081 12.6384627,60.793081 12.1201759,60.793081 C12.069348,60.4426591 12.0187835,60.0826179 11.9779631,59.721752 C11.3985776,60.1991503 10.7788984,60.655111 10.0570367,60.8458504 C9.23378245,61.0687462 8.32967763,61.0475835 7.52670192,60.7185992 C6.90649602,60.4536528 6.41902209,59.8704409 6.24625985,59.1915844 C5.99212028,58.2051812 6.12432552,57.0492013 6.79509598,56.2535376 C7.39449667,55.5219117 8.29912821,55.1613208 9.19322546,54.9914692 C10.0164797,54.8218925 10.8600124,54.8218925 11.7035451,54.8218925 C11.6832666,54.15348 11.8052009,53.4218542 11.4391346,52.8281983 C11.144438,52.3719628 10.6058728,52.1916673 10.1081279,52.1600606 C9.02072658,52.0644161 7.94333281,52.3508001 6.91676695,52.7221098 C6.81537448,52.2980306 6.72372622,51.8736766 6.63234131,51.4493226 L6.63234131,51.4493226 Z" id="Stroke-92" stroke="#D53033" stroke-width="0.094"></path>
                    <path d="M27.9395749,56.3860384 C27.5130207,56.5344848 27.116728,56.8737124 26.9846305,57.3407689 C26.8427966,57.8814988 26.8833206,58.518444 27.2083016,58.9849507 C27.5432821,59.4410111 28.1424578,59.5364017 28.6600592,59.4728996 C29.3610711,59.3667879 30.0005075,58.9635084 30.5288978,58.4758344 C30.5083727,57.7014388 30.5186353,56.916322 30.5186353,56.1312053 C29.6555276,56.1312053 28.772158,56.0784244 27.9395749,56.3860384 Z M25.4515618,51.4532181 C26.832534,50.8377152 28.3558664,50.5092087 29.8586737,50.6889939 C30.6099457,50.7846594 31.3820061,51.0713809 31.8790824,51.6866089 C32.3461605,52.2696736 32.4885206,53.044619 32.478258,53.7871261 C32.4679955,56.1312053 32.4885206,58.4651132 32.4582592,60.8094674 C31.950394,60.7885749 31.4425289,60.8201885 30.9349268,60.7885749 C30.8838772,60.4276302 30.8433532,60.0776814 30.7828304,59.7274578 C30.0718192,60.3641281 29.2187109,60.8839655 28.2540302,60.968635 C27.3706606,61.0535793 26.3754554,60.9370214 25.6847061,60.2789088 C24.9636955,59.5790113 24.8423867,58.4439459 25.0250077,57.4784942 C25.1976292,56.5875407 25.837592,55.8554798 26.6088629,55.4629214 C27.8172136,54.8476934 29.1987121,54.8158049 30.5186353,54.826526 C30.497847,54.1796844 30.6099457,53.4899583 30.2949641,52.9066187 C30.051294,52.4395623 29.5331663,52.2273388 29.0460894,52.1745579 C27.9190497,52.0472788 26.7920101,52.3444466 25.7357558,52.7262838 C25.6441822,52.3021119 25.5428723,51.877665 25.4515618,51.4532181 L25.4515618,51.4532181 Z" id="Fill-93" fill="#D53033"></path>
                    <path d="M27.9395749,56.3860384 C27.5130207,56.5344848 27.116728,56.8737124 26.9846305,57.3407689 C26.8427966,57.8814988 26.8833206,58.518444 27.2083016,58.9849507 C27.5432821,59.4410111 28.1424578,59.5364017 28.6600592,59.4728996 C29.3610711,59.3667879 30.0005075,58.9635084 30.5288978,58.4758344 C30.5083727,57.7014388 30.5186353,56.916322 30.5186353,56.1312053 C29.6555276,56.1312053 28.772158,56.0784244 27.9395749,56.3860384 Z M25.4515618,51.4532181 C26.832534,50.8377152 28.3558664,50.5092087 29.8586737,50.6889939 C30.6099457,50.7846594 31.3820061,51.0713809 31.8790824,51.6866089 C32.3461605,52.2696736 32.4885206,53.044619 32.478258,53.7871261 C32.4679955,56.1312053 32.4885206,58.4651132 32.4582592,60.8094674 C31.950394,60.7885749 31.4425289,60.8201885 30.9349268,60.7885749 C30.8838772,60.4276302 30.8433532,60.0776814 30.7828304,59.7274578 C30.0718192,60.3641281 29.2187109,60.8839655 28.2540302,60.968635 C27.3706606,61.0535793 26.3754554,60.9370214 25.6847061,60.2789088 C24.9636955,59.5790113 24.8423867,58.4439459 25.0250077,57.4784942 C25.1976292,56.5875407 25.837592,55.8554798 26.6088629,55.4629214 C27.8172136,54.8476934 29.1987121,54.8158049 30.5186353,54.826526 C30.497847,54.1796844 30.6099457,53.4899583 30.2949641,52.9066187 C30.051294,52.4395623 29.5331663,52.2273388 29.0460894,52.1745579 C27.9190497,52.0472788 26.7920101,52.3444466 25.7357558,52.7262838 C25.6441822,52.3021119 25.5428723,51.877665 25.4515618,51.4532181 L25.4515618,51.4532181 Z" id="Stroke-94" stroke="#D53033" stroke-width="0.094"></path>
                    <path d="M15.5375928,50.64 C16.260007,50.64 16.982154,50.64 17.7040335,50.64 C18.1272688,51.9600627 18.5398096,53.2705354 18.9633123,54.5905981 C19.2103555,55.4005718 19.5199617,56.2009554 19.6953517,57.031146 C19.7883939,57.4012716 19.8707417,57.7815056 19.9841035,58.1415228 C20.8720153,55.7110833 21.552721,53.2002944 21.9037684,50.64 C22.605061,50.64 23.3063536,50.64 24.008181,50.64 C23.3993959,53.8804132 22.4400982,57.0710615 20.995537,60.0517647 C20.170188,60.0517647 19.3445717,60.0517647 18.5194901,60.0517647 C17.5289109,56.9111403 16.5281719,53.7806244 15.5375928,50.64" id="Fill-95" fill="#D53033"></path>
                    <path d="M15.5375928,50.64 C16.260007,50.64 16.982154,50.64 17.7040335,50.64 C18.1272688,51.9600627 18.5398096,53.2705354 18.9633123,54.5905981 C19.2103555,55.4005718 19.5199617,56.2009554 19.6953517,57.031146 C19.7883939,57.4012716 19.8707417,57.7815056 19.9841035,58.1415228 C20.8720153,55.7110833 21.552721,53.2002944 21.9037684,50.64 C22.605061,50.64 23.3063536,50.64 24.008181,50.64 C23.3993959,53.8804132 22.4400982,57.0710615 20.995537,60.0517647 C20.170188,60.0517647 19.3445717,60.0517647 18.5194901,60.0517647 C17.5289109,56.9111403 16.5281719,53.7806244 15.5375928,50.64 Z" id="Stroke-96" stroke="#D53033" stroke-width="0.094"></path>
                    <polyline id="Fill-97" fill="#D53033" points="32.8649452 49.8022926 32.4787692 49.8022926 32.4787692 49.6988235 33.4199457 49.6988235 33.4199457 49.8022926 33.031323 49.8022926 33.031323 50.64 32.8649452 50.64 32.8649452 49.8022926"></polyline>
                    <polygon id="Stroke-98" stroke="#D53033" stroke-width="0.094" points="32.8649452 49.8022926 32.4787692 49.8022926 32.4787692 49.6988235 33.4199457 49.6988235 33.4199457 49.8022926 33.031323 49.8022926 33.031323 50.64 32.8649452 50.64"></polygon>
                    <path d="M34.2215572,50.226727 C34.2150521,50.0955053 34.2064771,49.9362293 34.2064771,49.8206938 L34.2041116,49.8206938 C34.1712902,49.9292911 34.1343291,50.0481448 34.0876103,50.1778582 L33.924686,50.6345701 L33.834501,50.6345701 L33.6836998,50.1863047 C33.6405293,50.052368 33.604751,49.9323077 33.5787304,49.8206938 L33.5757735,49.8206938 C33.5728167,49.9377376 33.5660158,50.0942986 33.5580322,50.2366817 L33.5337858,50.64 L33.4199457,50.64 L33.4841101,49.6988235 L33.6357983,49.6988235 L33.793696,50.1543288 C33.8315441,50.2701659 33.8617043,50.373635 33.8865421,50.4713725 L33.889499,50.4713725 C33.9137455,50.3760483 33.9465669,50.2728808 33.9876676,50.1543288 L34.1520704,49.6988235 L34.3040543,49.6988235 L34.3611222,50.64 L34.2434382,50.64 L34.2215572,50.226727" id="Fill-99" fill="#D53033"></path>
                    <path d="M34.2215572,50.226727 C34.2150521,50.0955053 34.2064771,49.9362293 34.2064771,49.8206938 L34.2041116,49.8206938 C34.1712902,49.9292911 34.1343291,50.0481448 34.0876103,50.1778582 L33.924686,50.6345701 L33.834501,50.6345701 L33.6836998,50.1863047 C33.6405293,50.052368 33.604751,49.9323077 33.5787304,49.8206938 L33.5757735,49.8206938 C33.5728167,49.9377376 33.5660158,50.0942986 33.5580322,50.2366817 L33.5337858,50.64 L33.4199457,50.64 L33.4841101,49.6988235 L33.6357983,49.6988235 L33.793696,50.1543288 C33.8315441,50.2701659 33.8617043,50.373635 33.8865421,50.4713725 L33.889499,50.4713725 C33.9137455,50.3760483 33.9465669,50.2728808 33.9876676,50.1543288 L34.1520704,49.6988235 L34.3040543,49.6988235 L34.3611222,50.64 L34.2434382,50.64 L34.2215572,50.226727 Z" id="Stroke-100" stroke="#D53033" stroke-width="0.094"></path>
                </g>
            </g>
        </g>
    </g>
</svg>