<?xml version="1.0" encoding="UTF-8"?>
<svg width="36px" height="42px" viewBox="0 0 36 42" version="1.1" xmlns="http://www.w3.org/2000/svg" xmlns:xlink="http://www.w3.org/1999/xlink">
    <title>linux_logo_icon_181333</title>
    <g id="Docs" stroke="none" stroke-width="1" fill="none" fill-rule="evenodd">
        <g id="ConnectToMG_IntermediaryFuture_UIDesign_Dark-Mode" transform="translate(-680.000000, -1211.000000)" fill="#645965" fill-rule="nonzero">
            <g id="rust-copy-2" transform="translate(628.000000, 1190.000000)">
                <g id="linux_logo_icon_181333" transform="translate(52.340909, 21.000000)">
                    <path d="M33.4415944,32.9885035 L33.4415944,32.9885035 C33.1296193,32.5036519 32.9273983,31.9564658 32.8490909,31.3852587 C32.761755,30.7218181 32.4622191,30.1044073 31.9951888,29.6251748 L31.9951888,29.6251748 C31.8934795,29.5327109 31.7825271,29.4509565 31.6640839,29.3812028 C31.5609025,29.3149325 31.4496198,29.2622196 31.332979,29.2243636 C32.0189208,27.0675712 31.9076074,24.7361748 31.0193007,22.6545455 C30.1101167,20.4249058 28.8251471,18.3677755 27.2203077,16.5726713 C25.6235457,15.0154515 24.6558426,12.9249648 24.5017622,10.6999161 C24.5366154,6.97062937 24.92,0 18.2979021,0 L17.4265734,0 C10.0377063,0.592503497 12.0069091,8.39960839 11.9023497,11.0135944 C11.8245663,12.9020152 11.1809877,14.7234642 10.0551329,16.2415664 C8.02283482,18.573505 6.41819832,21.2459326 5.3151049,24.1358042 C4.80778326,25.5284006 4.63467708,27.0206952 4.80973427,28.4924476 C4.73737673,28.5472844 4.67287876,28.6117823 4.61804196,28.6841399 C4.16495105,29.1546573 3.83384615,29.7471608 3.45046154,30.147972 C3.04618059,30.4678026 2.57598716,30.6939716 2.07376224,30.8101818 C1.43274626,30.9914735 0.888400375,31.4169392 0.55765035,31.9951888 L0.55765035,31.9951888 C0.396386902,32.3069835 0.318353618,32.655132 0.331104895,33.0059301 C0.313898891,33.3251856 0.313898891,33.6451361 0.331104895,33.9643916 C0.454516794,34.5387225 0.454516794,35.132718 0.331104895,35.707049 C-0.04211343,36.5458071 -0.0357630137,37.50472 0.348531469,38.3384615 C0.709929431,38.9095062 1.31415061,39.2823235 1.98662937,39.3492028 C3.64220479,39.4595422 5.27353701,39.8057602 6.83121678,40.3773706 L6.97062937,40.0811189 L6.84864336,40.3250909 C8.23031069,41.1173333 9.8416158,41.4125342 11.4144056,41.1615664 C12.3427872,40.9836439 13.131692,40.3757992 13.5404476,39.5234685 C14.5511888,39.5234685 15.6839161,39.0703776 17.4788531,38.9832448 C18.6987133,38.8786853 20.2322517,39.4189091 21.9749091,39.3143497 C22.0263644,39.5009676 22.0964219,39.6819494 22.184028,39.8545734 L22.184028,39.8545734 C22.7403212,41.146049 24.0587204,41.938491 25.4602238,41.8237762 C27.0272006,41.625169 28.4474745,40.8019129 29.3986294,39.5408951 L29.1895105,39.3666294 L29.3986294,39.5408951 C30.6239695,38.4334604 32.0335121,37.5488103 33.5635804,36.9269091 C34.1684231,36.6487045 34.5937028,36.0860267 34.6963077,35.4282238 C34.6102537,34.483051 34.1603698,33.6082767 33.4415944,32.9885035 Z M17.1302931,8.46931469 C17.1283401,8.01119365 17.2295977,7.55851253 17.4265734,7.1448951 C17.5811482,6.75167935 17.840267,6.40819624 18.1759161,6.15158042 C18.4753655,5.91911399 18.8424518,5.79063375 19.2215105,5.78562238 L19.2215105,5.78562238 C19.5886108,5.78130103 19.9458384,5.90448299 20.2322517,6.13415385 C20.5782193,6.38135737 20.8495156,6.71897055 21.0164476,7.11004196 C21.2068867,7.51288359 21.3022796,7.95407571 21.2952727,8.39960839 L21.2952727,8.39960839 C21.3006755,8.86181172 21.2055371,9.31966519 21.0164476,9.74145455 C20.9232606,9.96609479 20.800162,10.1771208 20.6504895,10.3688112 L20.4936503,10.3688112 L19.9882797,10.1596923 L19.6048951,10.0377063 C19.7333477,9.9267206 19.8448942,9.79756145 19.936,9.65432168 C20.029039,9.42156539 20.0763721,9.17306635 20.0754126,8.92240559 L20.0754126,8.92240559 C20.0945197,8.68510596 20.0587427,8.44659279 19.9708531,8.22534266 C19.916995,8.01517208 19.8088186,7.82285851 19.6571748,7.66769231 C19.5338327,7.53897345 19.3648532,7.46387143 19.1866573,7.45857343 L19.1866573,7.45857343 C19.018692,7.45541868 18.8561277,7.51794342 18.7335664,7.63283916 C18.5697073,7.77369308 18.4438684,7.95346306 18.3676084,8.15563636 C18.2724536,8.38841269 18.219351,8.63622475 18.2107692,8.88755245 L18.2107692,8.88755245 C18.192705,9.02637987 18.192705,9.16696279 18.2107692,9.30579021 C17.8706134,9.14594847 17.5142129,9.0232532 17.1477483,8.93983217 C17.139167,8.81218135 17.139167,8.68409837 17.1477483,8.55644755 L17.1302931,8.46931469 Z M12.6342657,8.5913007 C12.6075536,8.19681966 12.6548369,7.80082178 12.7736783,7.42372028 C12.8614497,7.09341984 13.0359306,6.79259079 13.279049,6.55239161 C13.4667446,6.34064327 13.728949,6.20954112 14.010965,6.18643357 L14.010965,6.18643357 C14.2749035,6.19045829 14.5285559,6.28944457 14.7254545,6.46525874 C14.9857122,6.67982747 15.1891917,6.95512319 15.317958,7.26688112 C15.476239,7.63054911 15.5649048,8.02067853 15.5793566,8.41703497 L15.5793566,8.41703497 C15.596851,8.58503764 15.596851,8.75440292 15.5793566,8.92240559 L15.4225175,8.92240559 C15.1817417,9.00079196 14.9530132,9.11222379 14.7428811,9.25351049 C14.7603142,9.10298325 14.7603142,8.95094682 14.7428811,8.80041958 L14.7428811,8.80041958 C14.7360433,8.60123551 14.6886033,8.40554564 14.6034685,8.22534266 C14.5442675,8.06110165 14.448988,7.91222743 14.3246434,7.78967832 C14.2317473,7.71187307 14.1147086,7.66875353 13.9935385,7.66769231 L13.9935385,7.66769231 C13.8602822,7.67957316 13.7390886,7.74973788 13.6624336,7.85938462 C13.5622175,8.0008058 13.491132,8.16074814 13.4533147,8.3299021 C13.4262412,8.53231082 13.4262412,8.73742344 13.4533147,8.93983217 L13.4533147,8.93983217 C13.4688792,9.13772313 13.5159425,9.33185941 13.5927273,9.51490909 C13.658058,9.68024482 13.759237,9.82903738 13.888979,9.95057343 L13.888979,9.95057343 L13.5927273,10.1945455 L13.3487552,10.3688112 C13.1410789,10.1615367 12.9805857,9.91188063 12.8782378,9.6368951 C12.7203642,9.27832767 12.6260183,8.89504735 12.5994126,8.50416783 L12.6342657,8.5913007 Z M12.9653706,11.153007 L13.8018462,10.5256503 L14.1155245,10.2991049 L14.1155245,10.2991049 C14.5217401,9.85269873 15.0216079,9.50160117 15.5793566,9.27093706 C15.842394,9.17797921 16.1194265,9.13082476 16.3984056,9.1315168 C17.1624045,9.16764701 17.9001173,9.4216137 18.5244476,9.86344056 C19.1190183,10.1673093 19.7366814,10.4236978 20.3716643,10.6302098 L20.3716643,10.6302098 C20.7179111,10.7489821 21.0130882,10.9826639 21.2081399,11.2924196 C21.3215769,11.5536527 21.3215769,11.8502354 21.2081399,12.1114685 C20.8390355,12.8484614 20.1627613,13.3843768 19.3609231,13.5753007 L19.3609231,13.5753007 C18.8904731,13.7880257 18.4411915,14.0447581 18.0190769,14.3420699 C17.4992695,14.6702468 16.8902454,14.8285931 16.2764196,14.7951608 C16.0061611,14.7887412 15.7397651,14.7295421 15.4922238,14.6208951 C15.2906077,14.5320246 15.1028056,14.4146484 14.9345734,14.2723636 C14.6062401,13.9515668 14.2505519,13.6600191 13.8715524,13.401035 L13.8715524,13.401035 C13.3220956,13.1561158 12.8904458,12.7056986 12.6691189,12.1463217 C12.5260994,11.786556 12.6486483,11.3756567 12.9653706,11.153007 L12.9653706,11.153007 Z M13.2441958,38.4255944 L13.2441958,38.4255944 C13.2243459,39.5584861 12.3940856,40.5136529 11.274993,40.691049 C9.83017271,40.9123265 8.35322564,40.6292449 7.09261538,39.8894266 L7.09261538,39.8894266 C5.4911481,39.2763054 3.80358308,38.9176244 2.09118881,38.8264056 C1.58931757,38.7808611 1.13173401,38.5202927 0.836475524,38.1119161 C0.624849963,37.3916078 0.699774943,36.617383 1.04559441,35.951021 L1.04559441,35.951021 C1.19345711,35.302947 1.19345711,34.6298921 1.04559441,33.9818182 C0.873703281,33.4493134 0.873703281,32.8762251 1.04559441,32.3437203 L1.04559441,32.3437203 C1.3040182,31.8850484 1.73823022,31.5515233 2.24802797,31.4201119 C2.8418838,31.2934971 3.39366743,31.0176053 3.85127273,30.6184895 L3.85127273,30.6184895 C4.30436364,30.147972 4.63546853,29.5554685 5.01885315,29.1372308 C5.29793133,28.7843935 5.71929024,28.573714 6.16900699,28.5621538 L6.46525874,28.5621538 C7.19343735,28.7557961 7.81812947,29.2243152 8.20791608,29.8691469 L9.79373427,32.7793846 L9.79373427,32.7793846 C10.406295,33.7910808 11.1060146,34.7473643 11.8849231,35.6373427 C12.598234,36.3985526 13.0447223,37.3710407 13.1570629,38.4081678 L13.2441958,38.4255944 Z M13.1047832,36.2995524 C12.8956643,35.9684476 12.6516923,35.6547692 12.4077203,35.3236643 L11.9372028,34.7137343 C12.2126698,34.7207683 12.4863212,34.6672278 12.7388252,34.5568951 C12.9925864,34.4452538 13.1926932,34.2388936 13.2964755,33.9818182 C13.4326806,33.2436537 13.2057373,32.4850146 12.6865455,31.9429091 C11.8237669,30.8705054 10.7652407,29.9716452 9.56718881,29.2940699 L9.56718881,29.2940699 C8.61964537,28.7530603 7.90117232,27.8859377 7.54570629,26.8543497 C7.29271776,25.9125824 7.29271776,24.9207323 7.54570629,23.978965 C8.01977026,22.2670586 8.7671107,20.6429172 9.75888112,19.1692308 C9.93314685,19.0298182 9.75888112,19.4306294 9.04439161,20.9118881 C8.3299021,22.3931469 7.04033566,25.2685315 8.81784615,27.6385455 C8.88436993,25.910276 9.26833864,24.2089992 9.95057343,22.6196923 C10.9438881,20.3890909 13.0002238,16.502965 13.1744895,13.4184615 C13.3362865,13.538675 13.5050367,13.6492355 13.6798601,13.7495664 L13.6798601,13.7495664 C14.0393254,14.0071566 14.3826898,14.2865039 14.708028,14.586042 C15.1321212,14.9488646 15.6664128,15.1576682 16.2241399,15.1785455 L16.4332587,15.1785455 C17.0485751,15.1668997 17.6498366,14.9925339 18.1759161,14.6731748 C18.5820743,14.3896295 19.0138006,14.1445957 19.4654825,13.9412587 L19.4654825,13.9412587 C20.1580136,13.7143283 20.7655712,13.2829624 21.2081399,12.703972 C22.0065998,15.3955456 23.0750502,17.9995285 24.3972028,20.4762238 C25.298648,22.1111094 25.9450772,23.8740982 26.3141259,25.7041958 C26.6194628,25.6991993 26.9241321,25.7343535 27.2203077,25.8087552 C27.8984336,23.309502 27.1640999,20.6391978 25.3033846,18.8381259 C24.92,18.4547413 24.9025734,18.2979021 25.0942657,18.2979021 C26.4748162,19.6423935 27.4422415,21.353527 27.8825175,23.2296224 C28.1180339,24.1854069 28.1180339,25.1840756 27.8825175,26.1398601 L28.2484755,26.2966993 C29.9911329,27.168028 30.723049,27.9347972 30.3919441,28.9803916 L30.0608392,28.9803916 C30.3222378,28.1613427 29.7297343,27.5514126 28.1961958,26.8543497 C26.6626573,26.1572867 25.3208112,26.2095664 25.0942657,27.6385455 C25.0942657,27.7256783 25.0942657,27.7953846 25.0942657,27.8650909 L24.7283077,28.0393566 C23.9838791,28.4947104 23.4748572,29.2518806 23.3341818,30.1131189 C23.1131603,31.1855899 22.9964392,32.2769323 22.9856503,33.3718881 L22.9856503,33.3718881 C22.8688034,34.1765611 22.6822174,34.9695516 22.428,35.7419021 C19.7526665,37.8852937 16.016534,38.1087633 13.1047832,36.2995524 L13.1047832,36.2995524 Z M33.2673287,36.4215385 C31.6762112,37.0582821 30.2212118,37.9927939 28.9803916,39.1749371 C28.1265931,40.2895973 26.8803882,41.0373202 25.4950769,41.2661259 C24.2992364,41.437061 23.1365704,40.7879653 22.6545455,39.6803077 L22.6545455,39.6803077 C22.352103,38.7095626 22.388977,37.6647975 22.7591049,36.7177902 C23.1275411,35.6411001 23.3958851,34.5327226 23.5607273,33.4067413 L23.5607273,33.4067413 C23.5842415,32.3413915 23.7008628,31.280138 23.9092587,30.2351049 C24.0131161,29.5208586 24.4194815,28.8859127 25.0245594,28.4924476 L25.1116923,28.4924476 C25.0682337,29.5362746 25.6804871,30.4963992 26.6452308,30.8973147 C27.8407328,30.9725807 29.0022108,30.4821789 29.782014,29.5728951 L30.147972,29.5728951 C30.6813098,29.4995809 31.2205118,29.6581697 31.6292308,30.0085594 L31.6292308,30.0085594 C32.0107525,30.4359713 32.2484737,30.9723678 32.3088671,31.5420979 C32.4301279,32.2060723 32.7046086,32.8326044 33.1104895,33.3718881 L33.1104895,33.3718881 C33.9643916,34.3129231 34.2432168,34.9577063 34.2083636,35.3759441 C34.1735105,35.7941818 33.824979,36.0904336 33.2673287,36.4215385 L33.2673287,36.4215385 Z M13.279049,12.1986014 C13.0002238,11.9720559 13.0350769,11.6583776 13.1396364,11.6583776 C13.2441958,11.6583776 13.3836084,11.9546294 13.5055944,12.0591888 C13.7035975,12.2626652 13.9130573,12.45467 14.132951,12.6342657 C14.7028586,13.1212247 15.4225233,13.3980187 16.1718601,13.4184615 C17.0399906,13.3373513 17.8763126,13.0506124 18.6115804,12.581986 C19.005102,12.3444059 19.3834131,12.0824982 19.7443077,11.7977902 C20.0231329,11.5886713 20.0057063,11.3446993 20.2322517,11.3795524 C20.4587972,11.4144056 20.2322517,11.640951 19.9708531,11.9197762 C19.601771,12.2416496 19.1985575,12.522146 18.7684196,12.7562517 C17.9858217,13.2546292 17.0957074,13.5592992 16.1718601,13.645007 C15.3420362,13.612714 14.5510129,13.2851809 13.9412587,12.7213986 C13.7122096,12.5579283 13.491214,12.3834581 13.279049,12.1986014 Z" id="Shape"></path>
                </g>
            </g>
        </g>
    </g>
</svg>