<?xml version="1.0" encoding="UTF-8"?>
<svg width="91px" height="22px" viewBox="0 0 91 22" version="1.1" xmlns="http://www.w3.org/2000/svg" xmlns:xlink="http://www.w3.org/1999/xlink">
    <title>mgconsole</title>
    <g id="Docs" stroke="none" stroke-width="1" fill="none" fill-rule="evenodd">
        <g id="ConnectToMG_IntermediaryFuture_UIDesign_Dark-Mode" transform="translate(-959.000000, -831.000000)" fill="#FFFFFF" fill-rule="nonzero">
            <path d="M961.32,847.5 L961.32,839.56 C961.586667,839.113333 961.925,838.781667 962.335,838.565 C962.745,838.348333 963.153333,838.24 963.56,838.24 C964.093333,838.24 964.505,838.401667 964.795,838.725 C965.085,839.048333 965.23,839.59 965.23,840.35 L965.23,840.35 L965.23,847.5 L967.21,847.5 L967.21,840.18 C967.21,839.92 967.2,839.676667 967.18,839.45 C967.446667,839.03 967.778333,838.723333 968.175,838.53 C968.571667,838.336667 968.963333,838.24 969.35,838.24 C969.883333,838.24 970.301667,838.403333 970.605,838.73 C970.908333,839.056667 971.06,839.596667 971.06,840.35 L971.06,840.35 L971.06,847.5 L973.08,847.5 L973.08,840.26 C973.08,838.92 972.795,837.95 972.225,837.35 C971.655,836.75 970.886667,836.45 969.92,836.45 C969.353333,836.45 968.798333,836.57 968.255,836.81 C967.711667,837.05 967.223333,837.43 966.79,837.95 C966.543333,837.43 966.196667,837.05 965.75,836.81 C965.303333,836.57 964.786667,836.45 964.2,836.45 C963.62,836.45 963.08,836.565 962.58,836.795 C962.08,837.025 961.64,837.366667 961.26,837.82 L961.26,837.82 L961.14,837.82 L960.99,836.62 L959.3,836.62 L959.3,847.5 L961.32,847.5 Z M979,852.1 C980.113333,852.1 981.033333,851.93 981.76,851.59 C982.486667,851.25 983.031667,850.711667 983.395,849.975 C983.758333,849.238333 983.94,848.28 983.94,847.1 L983.94,847.1 L983.94,836.95 C983.486667,836.796667 982.963333,836.675 982.37,836.585 C981.776667,836.495 981.203333,836.45 980.65,836.45 C978.863333,836.456667 977.516667,836.945 976.61,837.915 C975.703333,838.885 975.25,840.34 975.25,842.28 C975.25,843.526667 975.425,844.55 975.775,845.35 C976.125,846.15 976.591667,846.73 977.175,847.09 C977.758333,847.45 978.413333,847.63 979.14,847.63 C979.713333,847.63 980.23,847.518333 980.69,847.295 C981.15,847.071667 981.523333,846.77 981.81,846.39 L981.81,846.39 L981.92,846.39 L981.92,847.43 C981.92,848.17 981.81,848.763333 981.59,849.21 C981.37,849.656667 981.036667,849.978333 980.59,850.175 C980.143333,850.371667 979.566667,850.47 978.86,850.47 C977.906667,850.47 976.936667,850.313333 975.95,850 L975.95,850 L975.95,851.66 C976.396667,851.806667 976.89,851.916667 977.43,851.99 C977.97,852.063333 978.493333,852.1 979,852.1 Z M979.83,845.93 C979.303333,845.93 978.856667,845.816667 978.49,845.59 C978.123333,845.363333 977.835,844.968333 977.625,844.405 C977.415,843.841667 977.31,843.07 977.31,842.09 C977.31,840.67 977.576667,839.643333 978.11,839.01 C978.643333,838.376667 979.44,838.06 980.5,838.06 C980.953333,838.06 981.426667,838.113333 981.92,838.22 L981.92,838.22 L981.92,844.88 C981.686667,845.22 981.383333,845.48 981.01,845.66 C980.636667,845.84 980.243333,845.93 979.83,845.93 Z M990.96,847.7 C991.806667,847.7 992.633333,847.563333 993.44,847.29 L993.44,847.29 L993.44,845.61 C992.62,845.87 991.906667,846 991.3,846 C990.62,846 990.061667,845.873333 989.625,845.62 C989.188333,845.366667 988.86,844.95 988.64,844.37 C988.42,843.79 988.31,843.01 988.31,842.03 C988.31,841.07 988.428333,840.306667 988.665,839.74 C988.901667,839.173333 989.261667,838.766667 989.745,838.52 C990.228333,838.273333 990.86,838.15 991.64,838.15 C992.206667,838.15 992.806667,838.223333 993.44,838.37 L993.44,838.37 L993.44,836.69 C992.78,836.53 992.086667,836.45 991.36,836.45 C989.673333,836.45 988.393333,836.9 987.52,837.8 C986.646667,838.7 986.21,840.123333 986.21,842.07 C986.21,844.01 986.61,845.433333 987.41,846.34 C988.21,847.246667 989.393333,847.7 990.96,847.7 Z M999.14,847.7 C1000.58,847.7 1001.69333,847.24 1002.48,846.32 C1003.26667,845.4 1003.66,843.983333 1003.66,842.07 C1003.66,840.163333 1003.26667,838.75 1002.48,837.83 C1001.69333,836.91 1000.58,836.45 999.14,836.45 C997.693333,836.45 996.578333,836.908333 995.795,837.825 C995.011667,838.741667 994.62,840.16 994.62,842.08 C994.62,843.986667 995.015,845.4 995.805,846.32 C996.595,847.24 997.706667,847.7 999.14,847.7 Z M999.14,846.1 C998.606667,846.1 998.16,845.976667 997.8,845.73 C997.44,845.483333 997.163333,845.063333 996.97,844.47 C996.776667,843.876667 996.68,843.07 996.68,842.05 C996.68,841.05 996.776667,840.255 996.97,839.665 C997.163333,839.075 997.44,838.658333 997.8,838.415 C998.16,838.171667 998.606667,838.05 999.14,838.05 C999.673333,838.05 1000.12,838.173333 1000.48,838.42 C1000.84,838.666667 1001.11833,839.086667 1001.315,839.68 C1001.51167,840.273333 1001.61,841.08 1001.61,842.1 C1001.61,843.106667 1001.51333,843.903333 1001.32,844.49 C1001.12667,845.076667 1000.85,845.491667 1000.49,845.735 C1000.13,845.978333 999.68,846.1 999.14,846.1 Z M1007.95,847.5 L1007.95,839.52 C1008.23667,839.086667 1008.60333,838.765 1009.05,838.555 C1009.49667,838.345 1009.94333,838.24 1010.39,838.24 C1010.98333,838.24 1011.43667,838.401667 1011.75,838.725 C1012.06333,839.048333 1012.22,839.59 1012.22,840.35 L1012.22,840.35 L1012.22,847.5 L1014.24,847.5 L1014.24,840.23 C1014.24,838.91 1013.94833,837.95 1013.365,837.35 C1012.78167,836.75 1011.98333,836.45 1010.97,836.45 C1010.35667,836.45 1009.78667,836.566667 1009.26,836.8 C1008.73333,837.033333 1008.27667,837.37 1007.89,837.81 L1007.89,837.81 L1007.77,837.81 L1007.62,836.62 L1005.93,836.62 L1005.93,847.5 L1007.95,847.5 Z M1019.45,847.7 C1020.32333,847.7 1021.07167,847.568333 1021.695,847.305 C1022.31833,847.041667 1022.79333,846.665 1023.12,846.175 C1023.44667,845.685 1023.61,845.103333 1023.61,844.43 C1023.61,843.59 1023.39833,842.93 1022.975,842.45 C1022.55167,841.97 1021.87,841.62 1020.93,841.4 L1020.93,841.4 L1019.55,841.09 C1019.08333,840.976667 1018.745,840.803333 1018.535,840.57 C1018.325,840.336667 1018.22,840.026667 1018.22,839.64 C1018.22,839.16 1018.415,838.773333 1018.805,838.48 C1019.195,838.186667 1019.81667,838.04 1020.67,838.04 C1021.50333,838.04 1022.29667,838.14 1023.05,838.34 L1023.05,838.34 L1023.05,836.74 C1022.27667,836.546667 1021.46333,836.45 1020.61,836.45 C1019.68333,836.45 1018.89833,836.585 1018.255,836.855 C1017.61167,837.125 1017.12833,837.503333 1016.805,837.99 C1016.48167,838.476667 1016.32,839.04 1016.32,839.68 C1016.32,840.486667 1016.53,841.133333 1016.95,841.62 C1017.37,842.106667 1018.04333,842.46 1018.97,842.68 L1018.97,842.68 L1020.34,842.98 C1020.82,843.1 1021.16833,843.275 1021.385,843.505 C1021.60167,843.735 1021.71,844.066667 1021.71,844.5 C1021.71,845.02 1021.52167,845.418333 1021.145,845.695 C1020.76833,845.971667 1020.19333,846.11 1019.42,846.11 C1018.45333,846.11 1017.5,845.96 1016.56,845.66 L1016.56,845.66 L1016.56,847.26 C1017.45333,847.553333 1018.41667,847.7 1019.45,847.7 Z M1029.65,847.7 C1031.09,847.7 1032.20333,847.24 1032.99,846.32 C1033.77667,845.4 1034.17,843.983333 1034.17,842.07 C1034.17,840.163333 1033.77667,838.75 1032.99,837.83 C1032.20333,836.91 1031.09,836.45 1029.65,836.45 C1028.20333,836.45 1027.08833,836.908333 1026.305,837.825 C1025.52167,838.741667 1025.13,840.16 1025.13,842.08 C1025.13,843.986667 1025.525,845.4 1026.315,846.32 C1027.105,847.24 1028.21667,847.7 1029.65,847.7 Z M1029.65,846.1 C1029.11667,846.1 1028.67,845.976667 1028.31,845.73 C1027.95,845.483333 1027.67333,845.063333 1027.48,844.47 C1027.28667,843.876667 1027.19,843.07 1027.19,842.05 C1027.19,841.05 1027.28667,840.255 1027.48,839.665 C1027.67333,839.075 1027.95,838.658333 1028.31,838.415 C1028.67,838.171667 1029.11667,838.05 1029.65,838.05 C1030.18333,838.05 1030.63,838.173333 1030.99,838.42 C1031.35,838.666667 1031.62833,839.086667 1031.825,839.68 C1032.02167,840.273333 1032.12,841.08 1032.12,842.1 C1032.12,843.106667 1032.02333,843.903333 1031.83,844.49 C1031.63667,845.076667 1031.36,845.491667 1031,845.735 C1030.64,845.978333 1030.19,846.1 1029.65,846.1 Z M1038.47,847.5 L1038.47,831.34 L1036.45,831.34 L1036.45,847.5 L1038.47,847.5 Z M1045.83,847.7 C1046.73667,847.7 1047.66,847.566667 1048.6,847.3 L1048.6,847.3 L1048.6,845.68 C1047.63333,845.946667 1046.79333,846.08 1046.08,846.08 C1045.31333,846.08 1044.69667,845.973333 1044.23,845.76 C1043.76333,845.546667 1043.41333,845.193333 1043.18,844.7 C1042.94667,844.206667 1042.81667,843.54 1042.79,842.7 L1042.79,842.7 L1049.14,842.7 L1049.14,842.1 C1049.14,840.186667 1048.79333,838.766667 1048.1,837.84 C1047.40667,836.913333 1046.39667,836.45 1045.07,836.45 C1043.70333,836.45 1042.64,836.915 1041.88,837.845 C1041.12,838.775 1040.74,840.176667 1040.74,842.05 C1040.74,843.39 1040.925,844.475 1041.295,845.305 C1041.665,846.135 1042.22333,846.741667 1042.97,847.125 C1043.71667,847.508333 1044.67,847.7 1045.83,847.7 Z M1047.22,841.4 L1042.79,841.4 C1042.81,840.106667 1043.01167,839.193333 1043.395,838.66 C1043.77833,838.126667 1044.33,837.86 1045.05,837.86 C1045.51667,837.86 1045.905,837.97 1046.215,838.19 C1046.525,838.41 1046.76667,838.778333 1046.94,839.295 C1047.11333,839.811667 1047.20667,840.513333 1047.22,841.4 L1047.22,841.4 Z" id="mgconsole"></path>
        </g>
    </g>
</svg>