<?xml version="1.0" encoding="UTF-8"?>
<svg width="57px" height="17px" viewBox="0 0 57 17" version="1.1" xmlns="http://www.w3.org/2000/svg" xmlns:xlink="http://www.w3.org/1999/xlink">
    <title>other*</title>
    <g id="Docs" stroke="none" stroke-width="1" fill="none" fill-rule="evenodd">
        <g id="ConnectToMG_IntermediaryFuture_UIDesign_Dark-Mode" transform="translate(-673.000000, -598.000000)" fill="#EDEDED" fill-rule="nonzero">
            <path d="M678.42,614.7 C679.926667,614.7 681.09,614.236667 681.91,613.31 C682.73,612.383333 683.14,610.966667 683.14,609.06 C683.14,607.166667 682.73,605.753333 681.91,604.82 C681.09,603.886667 679.926667,603.42 678.42,603.42 C676.9,603.42 675.733333,603.883333 674.92,604.81 C674.106667,605.736667 673.7,607.16 673.7,609.08 C673.7,610.98 674.11,612.391667 674.93,613.315 C675.75,614.238333 676.913333,614.7 678.42,614.7 Z M678.42,612.77 C677.946667,612.77 677.551667,612.658333 677.235,612.435 C676.918333,612.211667 676.676667,611.828333 676.51,611.285 C676.343333,610.741667 676.26,609.996667 676.26,609.05 C676.26,608.11 676.345,607.37 676.515,606.83 C676.685,606.29 676.926667,605.908333 677.24,605.685 C677.553333,605.461667 677.946667,605.35 678.42,605.35 C678.893333,605.35 679.285,605.461667 679.595,605.685 C679.905,605.908333 680.145,606.293333 680.315,606.84 C680.485,607.386667 680.57,608.136667 680.57,609.09 C680.57,610.023333 680.486667,610.76 680.32,611.3 C680.153333,611.84 679.913333,612.22 679.6,612.44 C679.286667,612.66 678.893333,612.77 678.42,612.77 Z M689.09,614.69 C689.69,614.69 690.28,614.623333 690.86,614.49 L690.86,614.49 L690.86,612.42 C690.386667,612.506667 690.01,612.55 689.73,612.55 C689.296667,612.55 688.948333,612.485 688.685,612.355 C688.421667,612.225 688.226667,612.01 688.1,611.71 C687.973333,611.41 687.91,611 687.91,610.48 L687.91,610.48 L687.91,605.6 L690.76,605.6 L690.76,603.59 L687.91,603.59 L687.91,599.7 L685.84,599.7 L685.39,603.59 L683.62,603.59 L683.62,605.6 L685.39,605.6 L685.39,610.83 C685.39,612.163333 685.705,613.14 686.335,613.76 C686.965,614.38 687.883333,614.69 689.09,614.69 Z M694.86,614.5 L694.86,606.7 C695.106667,606.353333 695.425,606.091667 695.815,605.915 C696.205,605.738333 696.593333,605.65 696.98,605.65 C697.5,605.65 697.898333,605.793333 698.175,606.08 C698.451667,606.366667 698.59,606.846667 698.59,607.52 L698.59,607.52 L698.59,614.5 L701.11,614.5 L701.11,607.34 C701.11,605.98 700.818333,604.986667 700.235,604.36 C699.651667,603.733333 698.876667,603.42 697.91,603.42 C696.69,603.42 695.716667,603.863333 694.99,604.75 L694.99,604.75 L694.86,604.75 L694.86,598.34 L692.34,598.34 L692.34,614.5 L694.86,614.5 Z M708.26,614.7 C709.213333,614.7 710.176667,614.57 711.15,614.31 L711.15,614.31 L711.15,612.32 C710.21,612.573333 709.353333,612.7 708.58,612.7 C707.846667,612.7 707.258333,612.608333 706.815,612.425 C706.371667,612.241667 706.043333,611.941667 705.83,611.525 C705.616667,611.108333 705.496667,610.54 705.47,609.82 L705.47,609.82 L711.69,609.82 L711.69,609.1 C711.69,607.206667 711.33,605.786667 710.61,604.84 C709.89,603.893333 708.836667,603.42 707.45,603.42 C706.01,603.42 704.895,603.893333 704.105,604.84 C703.315,605.786667 702.92,607.18 702.92,609.02 C702.92,610.366667 703.111667,611.455 703.495,612.285 C703.878333,613.115 704.461667,613.725 705.245,614.115 C706.028333,614.505 707.033333,614.7 708.26,614.7 Z M709.32,608.26 L705.46,608.26 C705.473333,607.473333 705.558333,606.848333 705.715,606.385 C705.871667,605.921667 706.091667,605.593333 706.375,605.4 C706.658333,605.206667 707.01,605.11 707.43,605.11 C707.843333,605.11 708.185,605.206667 708.455,605.4 C708.725,605.593333 708.933333,605.92 709.08,606.38 C709.226667,606.84 709.306667,607.466667 709.32,608.26 L709.32,608.26 Z M715.98,614.5 L715.98,607.02 C716.24,606.633333 716.605,606.33 717.075,606.11 C717.545,605.89 718.03,605.78 718.53,605.78 C718.876667,605.78 719.19,605.803333 719.47,605.85 L719.47,605.85 L719.47,603.53 C719.223333,603.483333 718.96,603.46 718.68,603.46 C718.073333,603.46 717.525,603.591667 717.035,603.855 C716.545,604.118333 716.156667,604.52 715.87,605.06 L715.87,605.06 L715.74,605.06 L715.54,603.59 L713.46,603.59 L713.46,614.5 L715.98,614.5 Z M726.69,606.66 L728.12,605.62 L727.18,604.34 L725.78,602.94 L727.73,602.63 L729.31,602.12 L728.76,600.45 L727.19,600.96 L725.41,601.88 L725.73,599.9 L725.73,598.34 L723.97,598.34 L723.97,599.9 L724.29,601.88 L722.51,600.96 L720.94,600.45 L720.39,602.12 L721.97,602.63 L723.92,602.94 L722.51,604.34 L721.58,605.62 L723.01,606.66 L723.94,605.38 L724.85,603.56 L725.76,605.38 L726.69,606.66 Z" id="other*"></path>
        </g>
    </g>
</svg>