<?xml version="1.0" encoding="UTF-8"?>
<svg width="48px" height="48px" viewBox="0 0 48 48" version="1.1" xmlns="http://www.w3.org/2000/svg" xmlns:xlink="http://www.w3.org/1999/xlink">
    <title>Shape</title>
    <g id="Docs" stroke="none" stroke-width="1" fill="none" fill-rule="evenodd">
        <g id="ConnectToMG_IntermediaryFuture_UIDesign_Dark-Mode" transform="translate(-673.000000, -482.000000)" fill="#645965" fill-rule="nonzero">
            <g id="rust" transform="translate(627.000000, 464.000000)">
                <g id="rust-seeklogo.com" transform="translate(46.500000, 18.500000)">
                    <path d="M46.678925,22.9234231 L44.7057728,21.7020139 C44.6891576,21.5098217 44.6702974,21.3180784 44.6496407,21.1272333 L46.3452762,19.5456882 C46.5177139,19.3849292 46.5949514,19.146934 46.5482496,18.9165727 C46.502895,18.6853132 46.3407857,18.4949171 46.1202992,18.4127414 L43.9527058,17.6022108 C43.8983699,17.414509 43.8413398,17.2281543 43.7829625,17.0426977 L45.1350703,15.1647813 C45.2729305,14.9739361 45.301221,14.7256129 45.2114099,14.5078249 C45.1215986,14.290935 44.9253611,14.1355646 44.6931992,14.0973955 L42.4075041,13.7255842 C42.3185909,13.5522519 42.2260853,13.3816139 42.1326817,13.212323 L43.0932126,11.1040452 C43.1915559,10.8894006 43.1713482,10.6397302 43.0402239,10.4448436 C42.9095487,10.2490589 42.688164,10.1345518 42.4519605,10.1435327 L40.1321371,10.2243613 C40.0122392,10.0743794 39.8900959,9.92574475 39.7657075,9.77980433 L40.2987369,7.52019758 C40.3526237,7.29073434 40.2848162,7.05049395 40.1177674,6.88389735 C39.9520656,6.71774978 39.7113716,6.64904554 39.4819041,6.70293122 L37.2227031,7.23550149 C37.0763109,7.1115644 36.9276733,6.98897446 36.7772395,6.86907877 L36.8585186,4.54929967 C36.8674999,4.31444786 36.7529906,4.09127129 36.557202,3.96104751 C36.3609645,3.82992568 36.1126367,3.81016758 35.898437,3.90761088 L33.7905679,4.86857241 C33.6203756,4.77517055 33.4497344,4.68266677 33.2772969,4.59330633 L32.9045803,2.30720578 C32.8668597,2.0754973 32.7114863,1.87881451 32.4941433,1.78900502 C32.2772491,1.69874649 32.028472,1.72793457 31.8376232,1.8653431 L29.9583238,3.21742495 C29.7733127,3.15859974 29.5874035,3.10201976 29.3996981,3.04813406 L28.5891519,0.880132994 C28.5069746,0.65920165 28.3165749,0.497095522 28.085311,0.451292683 C27.8544962,0.405938891 27.6169457,0.482726004 27.4566326,0.654262129 L25.8750572,2.35121243 C25.6842086,2.33010719 25.4920126,2.31079816 25.3002656,2.29508149 L24.0788333,0.321517972 C23.9553428,0.121691858 23.7366525,0 23.5013472,0 C23.2660419,0 23.0473514,0.121691858 22.9243102,0.321517972 L21.7028777,2.29508149 C21.5106819,2.31079816 21.3184858,2.33010719 21.127637,2.35121243 L19.5456126,0.654262129 C19.3852996,0.482726004 19.1472999,0.405938891 18.9169342,0.451292683 C18.6856703,0.497544571 18.4952705,0.65920165 18.4130932,0.880132994 L17.6025472,3.04813406 C17.4148418,3.10201976 17.2289326,3.15904878 17.0434725,3.21742495 L15.164622,1.8653431 C14.9737732,1.72748552 14.7249962,1.69829744 14.5076531,1.78900502 C14.290759,1.87881451 14.1349366,2.0754973 14.0972159,2.30720578 L13.7244994,4.59330633 C13.5520618,4.68266677 13.3814205,4.77472149 13.2112283,4.86857241 L11.1033593,3.90761088 C10.8891596,3.80971854 10.6394844,3.82992568 10.4445941,3.96104751 C10.2488057,4.09127129 10.1342964,4.31444786 10.1432775,4.54929967 L10.2241076,6.86907877 C10.0741229,6.98897446 9.92548535,7.1115644 9.77864404,7.23550149 L7.51944318,6.70293122 C7.28997554,6.64949458 7.04928151,6.71774978 6.88313078,6.88389735 C6.71608195,7.05049395 6.64827448,7.29073434 6.70216121,7.52019758 L7.2342926,9.77980433 C7.11080219,9.92619379 6.98865894,10.0743794 6.86876099,10.2243613 L4.54893756,10.1435327 C4.31497936,10.136797 4.09134947,10.2490589 3.96067416,10.4448436 C3.82954979,10.6397302 3.80979134,10.8894006 3.9072365,11.1040452 L4.8682164,13.212323 C4.77481273,13.3816139 4.6823072,13.5522519 4.59294505,13.7255842 L2.30724986,14.0973955 C2.07508789,14.1351155 1.87929948,14.2904859 1.78903921,14.5078249 C1.69922801,14.7256129 1.72841665,14.9739361 1.86537874,15.1647813 L3.21748644,17.0426977 C3.1586601,17.2281543 3.10162999,17.414509 3.04774326,17.6022108 L0.879700757,18.4127414 C0.659663304,18.4949171 0.497554079,18.6853132 0.451750363,18.9165727 C0.405946649,19.1473831 0.482735228,19.3849292 0.654723687,19.5456882 L2.35080831,21.1272333 C2.32970266,21.3180784 2.31084232,21.5102708 2.2946763,21.7020139 L0.321524116,22.9234231 C0.121694183,23.046911 0,23.2651482 0,23.5008981 C0,23.736648 0.121694183,23.954885 0.321524116,24.0779241 L2.2946763,25.2993331 C2.31084232,25.4915254 2.32970266,25.6832687 2.35080831,25.8741139 L0.654723687,27.4561079 C0.482735228,27.616418 0.405946649,27.854413 0.451750363,28.0847743 C0.497554079,28.3160338 0.659663304,28.5059808 0.879700757,28.5886056 L3.04774326,29.3991363 C3.10162999,29.5868381 3.1586601,29.7731928 3.21748644,29.9586494 L1.86537874,31.8370148 C1.72796759,32.0283091 1.69877895,32.2766323 1.78903921,32.4935223 C1.87929948,32.7113103 2.07553696,32.8666807 2.30769892,32.9039515 L4.59294505,33.2757629 C4.6823072,33.4490952 4.77391462,33.6197332 4.8682164,33.7899222 L3.9072365,35.8973019 C3.80934227,36.1114976 3.82954979,36.3607188 3.96067416,36.5565034 C4.09179852,36.7527372 4.31497936,36.8672444 4.54893756,36.8578143 L6.86786288,36.7765367 C6.98865894,36.9274167 7.11035312,37.0751534 7.2342926,37.2219918 L6.70216121,39.4820477 C6.64827448,39.7110619 6.71608195,39.950404 6.88313078,40.1170008 C7.04883245,40.2844955 7.28997554,40.3514035 7.51944318,40.2975177 L9.77864404,39.7653965 C9.92548535,39.8902318 10.0741229,40.0114746 10.2241076,40.1309212 L10.1432775,42.4511493 C10.1342964,42.6860011 10.2488057,42.9087287 10.4445941,43.0398505 C10.6394844,43.1705233 10.8891596,43.1902814 11.1033593,43.0923891 L13.2112283,42.1318765 C13.3809715,42.2261766 13.5516128,42.3177822 13.7244994,42.4071428 L14.0972159,44.6918961 C14.1349366,44.9245026 14.2903099,45.1211854 14.5076531,45.2105459 C14.7245471,45.3008044 14.9737732,45.2716163 15.164622,45.1346569 L17.0425743,43.781677 C17.2280345,43.8405021 17.4143927,43.8979801 17.6020981,43.9518659 L18.4126444,46.118969 C18.4948215,46.3390021 18.6852212,46.5020063 18.9164851,46.546911 C19.1472999,46.593612 19.3848506,46.5163759 19.5451635,46.3439417 L21.1271879,44.6478894 C21.3180368,44.6698928 21.5102328,44.6883036 21.7024286,44.7053674 L22.9238611,46.6784821 C23.0469026,46.87741 23.2655928,47 23.5008981,47 C23.7362035,47 23.9548937,46.8778591 24.0783842,46.6784821 L25.2998165,44.7053674 C25.4920126,44.6883036 25.6837595,44.6698928 25.8746084,44.6478894 L27.4561835,46.3439417 C27.6164967,46.5163759 27.8544962,46.593612 28.0848621,46.546911 C28.3161258,46.5015573 28.5065256,46.3390021 28.5887029,46.118969 L29.3992491,43.9518659 C29.5869544,43.8979801 29.7733127,43.8405021 29.9587729,43.781677 L31.8371741,45.1346569 C32.028023,45.2716163 32.2768,45.3008044 32.4936942,45.2105459 C32.7110372,45.1211854 32.8664106,44.9240537 32.9041312,44.6918961 L33.2768478,42.4071428 C33.4492853,42.3177822 33.6199265,42.2248294 33.7901189,42.1318765 L35.8979879,43.0923891 C36.1121876,43.1902814 36.3614136,43.1705233 36.5567531,43.0398505 C36.7525415,42.9087287 36.8666017,42.6864502 36.8580696,42.4511493 L36.7772395,40.1309212 C36.9272242,40.0110255 37.0758619,39.8902318 37.222254,39.7653965 L39.481455,40.2975177 C39.7109226,40.3514035 39.9516165,40.2844955 40.1173183,40.1170008 C40.2843672,39.950404 40.3521746,39.7110619 40.2982878,39.4820477 L39.7661564,37.2219918 C39.8900959,37.0751534 40.0122392,36.9274167 40.131688,36.7765367 L42.4515115,36.8578143 C42.6854698,36.8672444 42.9090996,36.7527372 43.0397749,36.5565034 C43.1708992,36.3607188 43.1911068,36.1114976 43.0927635,35.8973019 L42.1322326,33.7899222 C42.2260853,33.6197332 42.3181418,33.4490952 42.407055,33.2757629 L44.6927502,32.9039515 C44.9253611,32.8666807 45.1211497,32.7113103 45.2109608,32.4935223 C45.3007719,32.2766323 45.2724814,32.0283091 45.1346212,31.8370148 L43.7825137,29.9586494 C43.8408908,29.7731928 43.8979211,29.5868381 43.9522567,29.3991363 L46.1198503,28.5886056 C46.3403366,28.5059808 46.502895,28.3160338 46.5478005,28.0847743 C46.5945024,27.8539639 46.5172648,27.616418 46.3448273,27.4561079 L44.6491916,25.8741139 C44.6698483,25.6832687 44.6887085,25.4910764 44.7053238,25.2993331 L46.6784759,24.0779241 C46.8783058,23.954885 47,23.7361989 47,23.5008981 C47,23.2655973 46.8787549,23.046911 46.678925,22.9234231 L46.678925,22.9234231 Z M33.4726362,39.2916516 C32.7191203,39.1290964 32.2399775,38.3863718 32.4016377,37.6306249 C32.5628488,36.8757762 33.3051383,36.3952954 34.0582054,36.5578506 C34.8117213,36.7190586 35.2917623,37.4631302 35.1301021,38.2175301 C34.9684419,38.9719297 34.2257031,39.4528596 33.4726362,39.2916516 L33.4726362,39.2916516 Z M32.8021956,34.7571704 C32.1146908,34.6098829 31.4384124,35.0472551 31.2911221,35.7360939 L30.5905946,39.0051592 C28.428839,39.9863279 26.0281854,40.5314716 23.5,40.5314716 C20.9138863,40.5314716 18.4611423,39.9593851 16.2607678,38.936455 L15.5606894,35.6673897 C15.4133991,34.9794489 14.7371207,34.5411786 14.050065,34.6889152 L11.1639819,35.3086007 C10.6282581,34.7571704 10.1298058,34.1698163 9.67176871,33.5496819 L23.7146488,33.5496819 C23.8736146,33.5496819 23.9795919,33.5209427 23.9795919,33.3763496 L23.9795919,28.4089866 C23.9795919,28.2643933 23.8736146,28.2356543 23.7146488,28.2356543 L19.6075823,28.2356543 L19.6075823,25.0869337 L24.0496446,25.0869337 C24.4551421,25.0869337 26.2176871,25.2027879 26.7812523,27.4556588 C26.9577314,28.1485391 27.3452668,30.4023083 27.6102099,31.1239275 C27.8742547,31.9331111 28.9492949,33.5496819 30.0948368,33.5496819 L37.0924769,33.5496819 C37.1719598,33.5496819 37.2568313,33.5407009 37.3461936,33.5245352 C36.860764,34.1841859 36.3281835,34.8083617 35.7547391,35.3916744 L32.8021956,34.7571704 L32.8021956,34.7571704 Z M13.3796243,39.2233962 C12.6261083,39.3859514 11.8842677,38.9054706 11.7221585,38.1506219 C11.5609474,37.394426 12.0400902,36.6521506 12.7936062,36.4895954 C13.5471222,36.3283874 14.2894118,36.8088682 14.451072,37.563717 C14.6122831,38.3181166 14.1326913,39.0617392 13.3796243,39.2233962 L13.3796243,39.2233962 Z M8.05247268,17.6219689 C8.36501566,18.3274225 8.047084,19.1541188 7.34251509,19.4662068 C6.63794619,19.7791929 5.81347933,19.4608182 5.50093633,18.7549156 C5.18839334,18.049013 5.50632501,17.2236638 6.21089391,16.9106778 C6.91591186,16.5981407 7.73992969,16.9160663 8.05247268,17.6219689 L8.05247268,17.6219689 Z M6.4152144,21.503086 L9.42164449,20.1671698 C10.0637946,19.8820247 10.3538848,19.1294211 10.0687342,18.4859362 L9.44948597,17.0858063 L11.8847168,17.0858063 L11.8847168,28.062322 L6.97159482,28.062322 C6.54544064,26.5642998 6.31687112,24.9832037 6.31687112,23.34912 C6.31687112,22.7253931 6.35055033,22.108851 6.4152144,21.503086 L6.4152144,21.503086 Z M19.6084804,20.4370474 L19.6084804,17.2016605 L25.4075899,17.2016605 C25.7071105,17.2016605 27.5226439,17.5478761 27.5226439,18.9053465 C27.5226439,20.0324556 26.1301211,20.4365984 24.9850283,20.4365984 L19.6084804,20.4365984 L19.6084804,20.4370474 Z M40.6835778,23.34912 C40.6835778,23.7784095 40.6678609,24.2032083 40.6364271,24.6248638 L38.8734331,24.6248638 C38.6969541,24.6248638 38.6260032,24.7407181 38.6260032,24.9136014 L38.6260032,25.7232339 C38.6260032,27.6289912 37.5514121,28.0434621 36.6097416,28.1489881 C35.7129768,28.2500239 34.7187667,27.7735845 34.5961744,27.2248485 C34.0671864,24.2494602 33.1856895,23.614058 31.7936158,22.516137 C33.5211344,21.419114 35.3187056,19.8007471 35.3187056,17.6345422 C35.3187056,15.2954541 33.7151265,13.8221294 32.6221241,13.0996121 C31.0885978,12.0888063 29.3907169,11.8862859 28.9326799,11.8862859 L10.699658,11.8862859 C13.1721604,9.12688934 16.5230165,7.1721858 20.3130493,6.46089466 L22.4622316,8.71556188 C22.9481102,9.22433263 23.7528185,9.24319262 24.2611499,8.75687424 L26.6658449,6.45685323 C31.7047026,7.39491334 35.9707349,10.5315097 38.4293167,14.8347314 L36.7830772,18.5528442 C36.4988249,19.1963293 36.7889149,19.9489327 37.430616,20.2340779 L40.6000535,21.6418417 C40.6548383,22.204498 40.6835778,22.7729922 40.6835778,23.34912 L40.6835778,23.34912 Z M22.4631297,4.54301301 C23.0199591,4.00954464 23.9032523,4.03064988 24.4362819,4.5883668 C24.9684133,5.14743088 24.9482057,6.03160529 24.3900291,6.56462461 C23.8331995,7.09809297 22.9499063,7.07743679 22.4168769,6.51882177 C21.8851946,5.96065579 21.905402,5.07648137 22.4631297,4.54301301 L22.4631297,4.54301301 Z M38.7997879,17.6897751 C39.1118819,16.9843216 39.9363487,16.6659469 40.6409176,16.978933 C41.3454865,17.29147 41.6634182,18.1177173 41.3508752,18.8231708 C41.0387813,19.5290734 40.2143144,19.8474481 39.5092964,19.534462 C38.8056256,19.2219249 38.487694,18.3961267 38.7997879,17.6897751 L38.7997879,17.6897751 Z" id="Shape"></path>
                </g>
            </g>
        </g>
    </g>
</svg>