<?xml version="1.0" encoding="utf-8"?>
<!-- Generator: Adobe Illustrator 26.1.0, SVG Export Plug-In . SVG Version: 6.00 Build 0)  -->
<svg version="1.1" id="Layer_1" xmlns="http://www.w3.org/2000/svg" xmlns:xlink="http://www.w3.org/1999/xlink" x="0px" y="0px"
	 width="80px" height="80px" viewBox="0 0 80 80" style="enable-background:new 0 0 80 80;" xml:space="preserve">
<style type="text/css">
	.st0{fill:#FFFFFF;}
	.st1{fill:#242526;}
	.st2{fill:#929395;}
</style>
<circle class="st0" cx="40" cy="40" r="40"/>
<g>
	<g>
		<path class="st1" d="M66.6,59.8c-1.7-0.7-3.2-1.8-3.1-4c0.1-2.1-1.5-3.6-1.5-3.6s1.4-4.7,0.1-8.6c-1.3-3.9-5.7-10.1-9.1-14.8
			c-3.4-4.7-0.5-10.1-3.6-17.1c-3.1-6.9-11-6.5-15.3-3.6c-4.3,3-3,10.3-2.8,13.8c0.2,3.5,0.1,5.9-0.3,6.8c-0.4,0.9-3.2,4.2-5,7
			c-1.8,2.8-3.2,8.5-4.5,10.8c-1.3,2.4-0.4,4.5-0.4,4.5s-0.9,0.3-1.6,1.8c-0.7,1.5-2.1,2.2-4.7,2.7c-2.6,0.5-2.6,2.2-1.9,4
			c0.6,1.8,0,2.9-0.7,5.2c-0.7,2.3,2.9,3.1,6.3,3.5c3.5,0.4,7.4,2.7,10.6,3.1c3.3,0.4,4.3-2.2,4.3-2.2s3.7-0.8,7.6-0.9
			c3.9-0.1,7.6,0.8,7.6,0.8s0.7,1.6,2,2.3c1.3,0.7,4.2,0.8,6-1.1c1.8-1.9,6.7-4.4,9.5-5.9C68.8,62.8,68.3,60.5,66.6,59.8z
			 M42.7,14.7c1.8,0,3.2,1.7,3.2,3.9c0,1.5-0.7,2.8-1.7,3.5c-0.3-0.1-0.5-0.2-0.8-0.4c0.6-0.3,1.1-1.1,1.1-2c0-1.2-0.7-2.2-1.7-2.2
			c-0.9,0-1.7,1-1.7,2.2c0,0.4,0.1,0.9,0.3,1.2c-0.5-0.2-1-0.4-1.4-0.6c-0.2-0.5-0.3-1.1-0.3-1.7C39.5,16.4,40.9,14.7,42.7,14.7z
			 M42.4,22.9c0.9,0.3,1.9,0.9,1.7,1.4c-0.1,0.6-0.6,0.6-1.7,1.3c-1.2,0.7-3.8,2.3-4.6,2.4c-0.8,0.1-1.3-0.4-2.2-0.9
			c-0.9-0.6-2.5-1.9-2.1-2.6c0,0,1.3-1,1.8-1.5c0.6-0.5,2-1.7,2.9-1.6C39.2,21.5,41.6,22.6,42.4,22.9z M34.5,15.3
			c1.4,0,2.5,1.6,2.5,3.7c0,0.4,0,0.7-0.1,1.1c-0.3,0.1-0.7,0.3-1,0.6c-0.2,0.1-0.3,0.3-0.5,0.4c0.2-0.4,0.3-1,0.2-1.6
			c-0.2-1.1-0.9-1.9-1.7-1.8c-0.7,0.1-1.2,1.1-1,2.2c0.2,1.1,0.9,1.9,1.7,1.8c0,0,0.1,0,0.1,0c-0.4,0.3-0.7,0.6-1,0.9
			C32.8,22,32,20.6,32,19C32,16.9,33.1,15.3,34.5,15.3z M31.8,66.9c-0.3,1.5-2,2.5-2,2.5c-1.6,0.5-5.9-1.4-7.8-2.2
			c-2-0.8-6.9-1.1-7.6-1.8c-0.6-0.7,0.3-2.4,0.6-3.9c0.2-1.6-0.5-2.5-0.2-3.6c0.2-1.1,3.4-1.1,4.7-1.8c1.2-0.7,1.5-2.9,2.5-3.4
			c1-0.6,2.8,1.5,3.5,2.6c0.7,1.1,3.5,6,4.7,7.3C31.1,63.8,32.2,65.5,31.8,66.9z M49.9,52.7c-0.3,1.4-0.3,6.6-0.3,6.6
			s-3.2,4.4-8.1,5.1c-4.9,0.7-7.4,0.2-7.4,0.2l-2.8-3.2c0,0,2.1-0.3,1.8-2.5c-0.3-2.1-6.5-5.1-7.7-7.8c-1.1-2.7-0.2-7.2,1.2-9.4
			c1.4-2.2,2.3-7.1,3.8-8.8c1.4-1.6,2.6-5.1,2-6.6c0,0,3.1,3.7,5.2,3.1c2.1-0.6,7-4.2,7.7-3.6c0.7,0.6,6.8,14.1,7.5,18.4
			c0.6,4.3-0.4,7.6-0.4,7.6S50.2,51.3,49.9,52.7z M65.6,62.3c-1,0.9-6.3,3-7.9,4.7c-1.6,1.7-3.7,3-4.9,2.6c-1.3-0.4-2.4-2.1-1.8-4.7
			c0.6-2.5,1-5.3,1-6.9c-0.1-1.6-0.4-3.7,0-4.1c0.4-0.3,1-0.2,1-0.2s-0.3,3,1.5,3.8c1.8,0.8,4.4-0.3,5.2-1.1c0.8-0.8,1.4-2,1.4-2
			s0.8,0.4,0.7,1.7c-0.1,1.3,0.6,3.1,1.7,3.7C64.7,60.6,66.5,61.5,65.6,62.3z"/>
	</g>
</g>
</svg>
