<?xml version="1.0" encoding="utf-8"?>
<!-- Generator: Adobe Illustrator 26.1.0, SVG Export Plug-In . SVG Version: 6.00 Build 0)  -->
<svg version="1.1" id="Layer_1" xmlns="http://www.w3.org/2000/svg" xmlns:xlink="http://www.w3.org/1999/xlink" x="0px" y="0px"
	 width="80px" height="80px" viewBox="0 0 80 80" style="enable-background:new 0 0 80 80;" xml:space="preserve">
<style type="text/css">
	.st0{fill:#FFFFFF;}
	.st1{fill:#242526;}
	.st2{fill:#929395;}
</style>
<path class="st0" d="M44,26.5v-0.7L42,26c-0.6,0-1,0.2-1.3,0.4c-0.3,0.2-0.4,0.5-0.4,0.9c0,0.4,0.1,0.7,0.4,0.9
	c0.3,0.2,0.7,0.3,1.2,0.3c0.3,0,0.6,0,0.9-0.1c0.3-0.1,0.5-0.2,0.7-0.4c0.2-0.2,0.4-0.4,0.5-0.6C44,27.1,44,26.8,44,26.5z M40,0
	C17.7,0,0,17.7,0,40c0,22.3,17.7,40,40,40s40-17.7,40-40C80,17.7,62.3,0,40,0z M47.8,23.7c0.2-0.5,0.5-1,0.8-1.4
	c0.3-0.4,0.8-0.7,1.2-0.9c0.5-0.2,1-0.3,1.6-0.3c0.5,0,1,0.1,1.5,0.2c0.4,0.2,0.8,0.4,1.1,0.6s0.6,0.6,0.7,1
	c0.2,0.4,0.3,0.7,0.3,1.1h-1.6c0-0.2-0.1-0.4-0.2-0.6c-0.1-0.2-0.2-0.4-0.4-0.5c-0.2-0.1-0.4-0.3-0.6-0.3c-0.2-0.1-0.5-0.1-0.8-0.1
	c-0.3,0-0.7,0.1-0.9,0.2c-0.3,0.1-0.5,0.3-0.7,0.6c-0.2,0.3-0.3,0.6-0.5,0.9c-0.1,0.4-0.2,0.8-0.2,1.2c0,0.5,0.1,0.9,0.2,1.2
	c0.1,0.4,0.3,0.7,0.5,0.9c0.2,0.2,0.4,0.4,0.7,0.6c0.3,0.1,0.6,0.2,0.9,0.2c0.5,0,1-0.1,1.3-0.4s0.6-0.6,0.7-1.1h1.6
	c0,0.4-0.2,0.8-0.4,1.2c-0.2,0.4-0.5,0.7-0.8,0.9c-0.3,0.3-0.7,0.5-1.1,0.6s-0.9,0.2-1.4,0.2c-0.6,0-1.1-0.1-1.6-0.3
	c-0.5-0.2-0.9-0.5-1.3-0.9s-0.6-0.8-0.8-1.4s-0.3-1.1-0.3-1.8C47.5,24.8,47.6,24.2,47.8,23.7z M24.9,21.3h1.6v1.4h0
	c0.1-0.2,0.2-0.5,0.4-0.6c0.2-0.2,0.3-0.3,0.5-0.5c0.2-0.1,0.4-0.2,0.7-0.3c0.2-0.1,0.5-0.1,0.8-0.1c0.6,0,1.1,0.1,1.5,0.4
	c0.4,0.3,0.7,0.7,0.9,1.2h0c0.1-0.3,0.3-0.5,0.4-0.7c0.2-0.2,0.4-0.4,0.6-0.5c0.2-0.1,0.5-0.3,0.7-0.3s0.6-0.1,0.9-0.1
	c0.4,0,0.8,0.1,1.1,0.2c0.3,0.1,0.6,0.3,0.9,0.6c0.2,0.2,0.4,0.5,0.6,0.9c0.1,0.3,0.2,0.7,0.2,1.1v5.7h-1.7v-5.3
	c0-0.6-0.1-1-0.4-1.3c-0.3-0.3-0.7-0.5-1.2-0.5c-0.3,0-0.5,0-0.7,0.1c-0.2,0.1-0.4,0.2-0.6,0.4c-0.2,0.2-0.3,0.4-0.4,0.6
	c-0.1,0.2-0.1,0.5-0.1,0.7v5.2H30v-5.5c0-0.2,0-0.5-0.1-0.7c-0.1-0.2-0.2-0.4-0.3-0.5c-0.1-0.1-0.3-0.2-0.5-0.3
	c-0.2-0.1-0.4-0.1-0.7-0.1c-0.3,0-0.5,0-0.7,0.1c-0.2,0.1-0.4,0.2-0.6,0.4c-0.2,0.2-0.3,0.4-0.4,0.6c-0.1,0.2-0.2,0.5-0.2,0.8v5.2
	h-1.6C24.9,29.7,24.9,21.3,24.9,21.3z M28.6,61.6c-7.4,0-12-5.1-12-13.3S21.2,35,28.6,35s12,5.1,12,13.3
	C40.5,56.5,35.9,61.6,28.6,61.6z M42.2,29.7c-0.3,0.1-0.5,0.1-0.8,0.1c-0.4,0-0.8-0.1-1.2-0.2c-0.4-0.1-0.6-0.3-0.9-0.5
	c-0.3-0.2-0.4-0.5-0.6-0.8c-0.1-0.3-0.2-0.7-0.2-1c0-0.7,0.3-1.3,0.8-1.7c0.6-0.4,1.3-0.7,2.4-0.7l2.3-0.1V24c0-0.5-0.2-0.9-0.5-1.1
	s-0.7-0.4-1.3-0.4c-0.2,0-0.4,0-0.6,0.1c-0.2,0.1-0.4,0.1-0.5,0.2c-0.2,0.1-0.3,0.2-0.4,0.4c-0.1,0.1-0.2,0.3-0.2,0.5h-1.6
	c0-0.4,0.1-0.7,0.3-1c0.2-0.3,0.4-0.6,0.7-0.8c0.3-0.2,0.6-0.4,1.1-0.5c0.4-0.1,0.8-0.2,1.3-0.2c0.5,0,1,0.1,1.4,0.2
	c0.4,0.1,0.8,0.3,1.1,0.6c0.3,0.2,0.5,0.5,0.7,0.9c0.2,0.3,0.2,0.7,0.2,1.1v5.8h-1.6v-1.4h0c-0.1,0.2-0.3,0.4-0.5,0.6
	c-0.2,0.2-0.4,0.3-0.6,0.5C42.7,29.5,42.5,29.6,42.2,29.7z M52.8,61.6c-5.6,0-9.4-2.9-9.7-7.6h3.7c0.3,2.6,2.8,4.4,6.3,4.4
	c3.4,0,5.8-1.8,5.8-4.1c0-2.1-1.5-3.3-4.9-4.2l-3.3-0.8c-4.7-1.2-6.9-3.3-6.9-6.9c0-4.4,3.8-7.4,9.3-7.4c5.3,0,9,3.1,9.2,7.4h-3.6
	c-0.3-2.6-2.4-4.3-5.6-4.3c-3.2,0-5.4,1.6-5.4,4c0,1.9,1.4,3,4.8,3.8l2.8,0.7c5.3,1.3,7.5,3.4,7.5,7.1
	C62.6,58.7,58.9,61.6,52.8,61.6z M28.6,38.3c-5.1,0-8.2,3.9-8.2,10c0,6.1,3.2,10,8.2,10c5,0,8.2-3.9,8.2-10
	C36.8,42.2,33.6,38.3,28.6,38.3z"/>
</svg>
