<?xml version="1.0" encoding="utf-8"?>
<!-- Generator: Adobe Illustrator 26.0.3, SVG Export Plug-In . SVG Version: 6.00 Build 0)  -->
<svg version="1.1" id="Layer_1" xmlns="http://www.w3.org/2000/svg" xmlns:xlink="http://www.w3.org/1999/xlink" x="0px" y="0px"
	 viewBox="0 0 140 84" style="enable-background:new 0 0 140 84;" xml:space="preserve">
<style type="text/css">
	.st0{fill:none;}
	.st1{fill:#818181;}
</style>
<g id="Docs">
	<g id="ConnectToMG_IntermediaryCurrent-Copy">
		<g id="LOADcsvclause-unselected">
			<path id="Rectangle" class="st0" d="M2.5,0.5h135c1.1,0,2,0.9,2,2v79c0,1.1-0.9,2-2,2H2.5c-1.1,0-2-0.9-2-2v-79
				C0.5,1.4,1.4,0.5,2.5,0.5z"/>
		</g>
	</g>
</g>
<path class="st1" d="M44.9,40.9c-0.3,0.4-0.7,0.6-1.1,0.7c0.5,0.1,0.9,0.4,1.1,0.7c0.3,0.4,0.4,0.9,0.3,1.4v4c0,0.4,0.1,0.7,0.3,1
	c0.3,0.2,0.6,0.3,1,0.3h1v1.6c-0.4,0.1-0.9,0.1-1.3,0.1c-0.8,0-1.6-0.2-2.3-0.7c-0.6-0.6-0.9-1.4-0.8-2.3v-4.2
	c0-0.3-0.1-0.6-0.3-0.9c-0.2-0.2-0.5-0.3-0.9-0.3h-0.3v-1.7H42c0.6,0.1,1.1-0.4,1.2-0.9c0-0.1,0-0.2,0-0.2v-3.5
	c-0.1-0.8,0.2-1.7,0.8-2.3c0.7-0.6,1.5-0.8,2.4-0.8c0.4,0,0.9,0,1.3,0.1v1.6h-1c-0.4,0-0.7,0.1-1,0.3c-0.3,0.3-0.4,0.6-0.3,1v3.4
	C45.4,40,45.2,40.5,44.9,40.9z"/>
<path class="st1" d="M51.1,49c0.4-0.6,0.8-1.3,1-2.1c0.2-0.8,0.3-1.6,0.3-2.5V34.4h2.2v10.1c0,1-0.2,1.9-0.5,2.8
	c-0.4,0.9-0.9,1.8-1.6,2.6L51.1,49z"/>
<path class="st1" d="M58,47c-0.5-0.1-1-0.2-1.5-0.4v-1.8c0.5,0.2,1,0.3,1.5,0.4c0.5,0.1,1,0.1,1.5,0.1c1.6,0,2.4-0.6,2.4-1.8
	c0-0.3-0.1-0.6-0.2-0.8c-0.1-0.2-0.4-0.4-0.6-0.6c-0.4-0.2-0.8-0.4-1.2-0.5l-0.8-0.2c-0.9-0.2-1.6-0.7-2.2-1.3
	c-0.5-0.6-0.8-1.4-0.8-2.2c0-0.7,0.2-1.4,0.5-2c0.4-0.6,0.9-1,1.6-1.3c0.8-0.3,1.7-0.5,2.6-0.4c0.5,0,1,0,1.4,0.1
	c0.4,0,0.8,0.1,1.2,0.2v1.8c-0.8-0.2-1.7-0.4-2.5-0.3c-0.7,0-1.4,0.1-2,0.5c-0.4,0.3-0.7,0.8-0.6,1.3c0,0.3,0.1,0.5,0.2,0.8
	c0.1,0.2,0.3,0.4,0.5,0.5c0.3,0.2,0.7,0.3,1.1,0.4l0.8,0.2c0.9,0.2,1.7,0.7,2.4,1.3c0.5,0.6,0.8,1.4,0.8,2.3c0,0.7-0.2,1.4-0.5,2
	c-0.4,0.6-0.9,1-1.6,1.3c-0.8,0.3-1.6,0.5-2.5,0.5C59.1,47.1,58.5,47.1,58,47z"/>
<path class="st1" d="M66.8,45.6c-1-1.4-1.5-3.1-1.4-4.9c-0.1-1.7,0.4-3.5,1.4-4.9c2.1-2.1,5.6-2.1,7.7,0c1,1.4,1.5,3.1,1.4,4.9
	c0.1,1.7-0.4,3.5-1.4,4.9c-1,1.1-2.4,1.7-3.9,1.6C69.2,47.2,67.8,46.7,66.8,45.6z M72.9,44.3c0.6-1.1,0.9-2.3,0.8-3.5
	c0.1-1.3-0.2-2.5-0.8-3.6c-1-1.2-2.8-1.4-4.1-0.4c-0.2,0.1-0.3,0.3-0.4,0.4c-0.6,1.1-0.9,2.3-0.8,3.5c-0.1,1.3,0.2,2.5,0.8,3.6
	c0.5,0.7,1.4,1.1,2.2,1.1C71.5,45.4,72.4,45,72.9,44.3z"/>
<path class="st1" d="M85.5,34.4h2V47h-2.2l-5.5-9.1V47h-2V34.4h2.2l5.5,9.1L85.5,34.4z"/>
<path class="st1" d="M98.4,40.8v1.7H98c-0.3,0-0.6,0.1-0.9,0.3c-0.2,0.2-0.3,0.6-0.3,0.9v4.2c0.1,0.8-0.2,1.7-0.8,2.3
	c-0.7,0.6-1.5,0.8-2.4,0.8c-0.5,0-0.9,0-1.3-0.1v-1.6h1c0.4,0,0.8-0.1,1.1-0.3c0.3-0.3,0.4-0.6,0.3-1v-4c0-0.5,0.1-1,0.4-1.4
	c0.3-0.4,0.7-0.6,1.1-0.8c-0.5-0.1-0.9-0.4-1.1-0.7c-0.3-0.4-0.4-0.9-0.4-1.4v-3.4c0-0.4-0.1-0.7-0.3-1c-0.3-0.2-0.7-0.3-1.1-0.3h-1
	v-1.6c0.4-0.1,0.9-0.1,1.3-0.1c0.9-0.1,1.7,0.2,2.4,0.8c0.6,0.6,0.9,1.4,0.8,2.3v3.5c-0.1,0.6,0.3,1.1,0.9,1.2c0.1,0,0.2,0,0.2,0
	H98.4z"/>
</svg>
