<?xml version="1.0" encoding="UTF-8"?>
<svg width="141px" height="84px" viewBox="0 0 141 84" version="1.1" xmlns="http://www.w3.org/2000/svg" xmlns:xlink="http://www.w3.org/1999/xlink">
    <title>kafka-selected-dm</title>
    <defs>
        <rect id="path-1" x="0.744525547" y="0" width="140" height="84" rx="2"></rect>
    </defs>
    <g id="Docs" stroke="none" stroke-width="1" fill="none" fill-rule="evenodd">
        <g id="ConnectToMG_IntermediaryCurrent-Copy" transform="translate(-298.000000, -789.000000)">
            <g id="kafka-selected-dm" transform="translate(298.000000, 789.000000)">
                <mask id="mask-2" fill="white">
                    <use xlink:href="#path-1"></use>
                </mask>
                <rect stroke="#1EB76D" x="1.24452555" y="0.5" width="139" height="83" rx="2"></rect>
                <path d="M64.4545255,50.5 L64.4545255,45.91 L65.7145255,45.91 L68.8145255,50.5 L71.5645255,50.5 L67.7945255,44.86 L71.2245255,39.59 L68.5345255,39.59 L65.7045255,43.89 L64.4545255,43.89 L64.4545255,34.34 L61.9345255,34.34 L61.9345255,50.5 L64.4545255,50.5 Z M74.9945255,50.69 C75.5878589,50.69 76.1211922,50.5783333 76.5945255,50.355 C77.0678589,50.1316667 77.4545255,49.7966667 77.7545255,49.35 L77.7545255,49.35 L77.8845255,49.35 L78.0645255,50.5 L80.1345255,50.5 L80.1345255,43.66 C80.1345255,42.6066667 79.9778589,41.7716667 79.6645255,41.155 C79.3511922,40.5383333 78.8728589,40.095 78.2295255,39.825 C77.5861922,39.555 76.7511922,39.42 75.7245255,39.42 C75.1978589,39.42 74.6478589,39.4583333 74.0745255,39.535 C73.5011922,39.6116667 72.9878589,39.72 72.5345255,39.86 L72.5345255,39.86 L72.5345255,41.85 C72.9878589,41.71 73.4561922,41.6033333 73.9395255,41.53 C74.4228589,41.4566667 74.8711922,41.42 75.2845255,41.42 C75.8645255,41.42 76.3278589,41.485 76.6745255,41.615 C77.0211922,41.745 77.2761922,41.9616667 77.4395255,42.265 C77.6028589,42.5683333 77.6845255,42.99 77.6845255,43.53 L77.6845255,43.53 L77.6845255,44.06 L75.8645255,44.23 C74.4445255,44.3433333 73.4078589,44.68 72.7545255,45.24 C72.1011922,45.8 71.7745255,46.59 71.7745255,47.61 C71.7745255,48.2366667 71.9061922,48.7816667 72.1695255,49.245 C72.4328589,49.7083333 72.8061922,50.065 73.2895255,50.315 C73.7728589,50.565 74.3411922,50.69 74.9945255,50.69 Z M75.8045255,48.83 C75.3045255,48.83 74.9211922,48.705 74.6545255,48.455 C74.3878589,48.205 74.2545255,47.8366667 74.2545255,47.35 C74.2545255,46.8633333 74.4045255,46.485 74.7045255,46.215 C75.0045255,45.945 75.4745255,45.78 76.1145255,45.72 L76.1145255,45.72 L77.6845255,45.58 L77.6845255,47.93 C77.4311922,48.2433333 77.1411922,48.4716667 76.8145255,48.615 C76.4878589,48.7583333 76.1511922,48.83 75.8045255,48.83 Z M85.6645255,50.5 L85.6645255,41.6 L88.5145255,41.6 L88.5145255,39.59 L85.6645255,39.59 L85.6645255,38.2 C85.6645255,37.5 85.8361922,36.99 86.1795255,36.67 C86.5228589,36.35 87.0711922,36.19 87.8245255,36.19 C88.1711922,36.19 88.5378589,36.22 88.9245255,36.28 L88.9245255,36.28 L88.9245255,34.26 C88.4645255,34.18 87.9811922,34.14 87.4745255,34.14 C86.0611922,34.14 84.9895255,34.5 84.2595255,35.22 C83.5295255,35.94 83.1645255,36.9766667 83.1645255,38.33 L83.1645255,38.33 L83.1645255,39.59 L81.3945255,39.59 L81.3945255,41.6 L83.1645255,41.6 L83.1645255,50.5 L85.6645255,50.5 Z M92.5545255,50.5 L92.5545255,45.91 L93.8145255,45.91 L96.9145255,50.5 L99.6645255,50.5 L95.8945255,44.86 L99.3245255,39.59 L96.6345255,39.59 L93.8045255,43.89 L92.5545255,43.89 L92.5545255,34.34 L90.0345255,34.34 L90.0345255,50.5 L92.5545255,50.5 Z M103.094526,50.69 C103.687859,50.69 104.221192,50.5783333 104.694526,50.355 C105.167859,50.1316667 105.554526,49.7966667 105.854526,49.35 L105.854526,49.35 L105.984526,49.35 L106.164526,50.5 L108.234526,50.5 L108.234526,43.66 C108.234526,42.6066667 108.077859,41.7716667 107.764526,41.155 C107.451192,40.5383333 106.972859,40.095 106.329526,39.825 C105.686192,39.555 104.851192,39.42 103.824526,39.42 C103.297859,39.42 102.747859,39.4583333 102.174526,39.535 C101.601192,39.6116667 101.087859,39.72 100.634526,39.86 L100.634526,39.86 L100.634526,41.85 C101.087859,41.71 101.556192,41.6033333 102.039526,41.53 C102.522859,41.4566667 102.971192,41.42 103.384526,41.42 C103.964526,41.42 104.427859,41.485 104.774526,41.615 C105.121192,41.745 105.376192,41.9616667 105.539526,42.265 C105.702859,42.5683333 105.784526,42.99 105.784526,43.53 L105.784526,43.53 L105.784526,44.06 L103.964526,44.23 C102.544526,44.3433333 101.507859,44.68 100.854526,45.24 C100.201192,45.8 99.8745255,46.59 99.8745255,47.61 C99.8745255,48.2366667 100.006192,48.7816667 100.269526,49.245 C100.532859,49.7083333 100.906192,50.065 101.389526,50.315 C101.872859,50.565 102.441192,50.69 103.094526,50.69 Z M103.904526,48.83 C103.404526,48.83 103.021192,48.705 102.754526,48.455 C102.487859,48.205 102.354526,47.8366667 102.354526,47.35 C102.354526,46.8633333 102.504526,46.485 102.804526,46.215 C103.104526,45.945 103.574526,45.78 104.214526,45.72 L104.214526,45.72 L105.784526,45.58 L105.784526,47.93 C105.531192,48.2433333 105.241192,48.4716667 104.914526,48.615 C104.587859,48.7583333 104.251192,48.83 103.904526,48.83 Z" id="kafka" fill="#FFFFFF" fill-rule="nonzero" mask="url(#mask-2)"></path>
                <path d="M44.9664865,45.2435823 L42.8777248,43.8124173 C43.0994552,43.2215635 43.2267677,42.5871222 43.2267677,41.9230667 C43.2267677,41.2705235 43.1038849,40.646721 42.8894552,40.0646006 L44.9735412,38.6486 C45.7886037,39.5404383 46.975842,40.1066797 48.2997443,40.1066797 C50.7504279,40.1066797 52.7445255,38.1769968 52.7445255,35.804769 C52.7445255,33.4325412 50.7504279,31.5028582 48.2997443,31.5028582 C45.8490607,31.5028582 43.854963,33.4325412 43.854963,35.804769 C43.854963,36.2293707 43.9212443,36.638808 44.0401896,37.0265707 L41.9547091,38.4432859 C41.0835373,37.3972635 39.8291974,36.6669137 38.400049,36.443974 L38.400049,34.0113269 C40.413424,33.6020484 41.9304279,31.8706928 41.9304279,29.8019108 C41.9304279,27.429683 39.9363302,25.5 37.4856466,25.5 C35.034963,25.5 33.0408654,27.429683 33.0408654,29.8019108 C33.0408654,31.8429842 34.5185763,33.5529826 36.491674,33.9914783 L36.491674,36.4557243 C33.7989162,36.9131954 31.7445255,39.1876886 31.7445255,41.9230667 C31.7445255,44.6717832 33.8192599,46.9546128 36.5314591,47.3965225 L36.5314591,49.9985974 C34.5381818,50.4226433 33.0408654,52.1431218 33.0408654,54.1980892 C33.0408654,56.570317 35.034963,58.5 37.4856466,58.5 C39.9363302,58.5 41.9304279,56.570317 41.9304279,54.1980892 C41.9304279,52.1431218 40.4331115,50.4226433 38.4398341,49.9985974 L38.4398341,47.3964431 C39.8408459,47.1681046 41.0721349,46.4522045 41.9343654,45.4293654 L44.0370724,46.8698195 C43.920342,47.2540888 43.854963,47.6594771 43.854963,48.0797915 C43.854963,50.4520193 45.8490607,52.3817022 48.2997443,52.3817022 C50.7504279,52.3817022 52.7445255,50.4520193 52.7445255,48.0797915 C52.7445255,45.7075636 50.7504279,43.7778807 48.2997443,43.7778807 C46.9719865,43.7778807 45.781631,44.3472185 44.9664865,45.2435823 Z M48.2997443,33.7189965 C49.488131,33.7189965 50.4547052,34.6548986 50.4547052,35.804769 C50.4547052,36.9546393 49.488131,37.8904621 48.2997443,37.8904621 C47.1113576,37.8904621 46.1447834,36.9546393 46.1447834,35.804769 C46.1447834,34.6548986 47.1113576,33.7189965 48.2997443,33.7189965 L48.2997443,33.7189965 Z M35.3306037,29.8019108 C35.3306037,28.6520404 36.2972599,27.7162176 37.4856466,27.7162176 C38.6740334,27.7162176 39.6406076,28.6520404 39.6406076,29.8019108 C39.6406076,30.9517811 38.6740334,31.8876039 37.4856466,31.8876039 C36.2972599,31.8876039 35.3306037,30.9517811 35.3306037,29.8019108 L35.3306037,29.8019108 Z M39.6406076,54.1980892 C39.6406076,55.3479596 38.6740334,56.2837824 37.4856466,56.2837824 C36.2972599,56.2837824 35.3306037,55.3479596 35.3306037,54.1980892 C35.3306037,53.0482189 36.2972599,52.1123961 37.4856466,52.1123961 C38.6740334,52.1123961 39.6406076,53.0482189 39.6406076,54.1980892 L39.6406076,54.1980892 Z M37.4854826,44.8319219 C35.8280412,44.8319219 34.4796935,43.5271529 34.4796935,41.9230667 C34.4796935,40.3189012 35.8280412,39.013894 37.4854826,39.013894 C39.142842,39.013894 40.4911896,40.3189012 40.4911896,41.9230667 C40.4911896,43.5271529 39.142842,44.8319219 37.4854826,44.8319219 L37.4854826,44.8319219 Z M48.2997443,50.165564 C47.1113576,50.165564 46.1447834,49.2296618 46.1447834,48.0797915 C46.1447834,46.9299211 47.1113576,45.9940983 48.2997443,45.9940983 C49.488131,45.9940983 50.4547052,46.9299211 50.4547052,48.0797915 C50.4547052,49.2296618 49.488131,50.165564 48.2997443,50.165564 L48.2997443,50.165564 Z" id="Shape" fill="#FFFFFF" fill-rule="nonzero" mask="url(#mask-2)"></path>
            </g>
        </g>
    </g>
</svg>