<svg width="188" height="203" viewBox="0 0 188 203" fill="none" xmlns="http://www.w3.org/2000/svg">
<g filter="url(#filter0_d_2871_6849)">
<path d="M140.5 87.9L94.3 117.8L48 87.9V41.6C48 40.1 49.1 38.9 50.6 38.9H137.7C139.2 38.8 140.4 40 140.5 41.5C140.5 41.5 140.5 41.5 140.5 41.6V87.9Z" fill="white" stroke="#E6E6E6" stroke-width="0.7" stroke-miterlimit="10"/>
<path d="M48 87.9L31.7 77L48 60.7V87.9Z" fill="url(#paint0_linear_2871_6849)"/>
<path d="M156.8 77L140.5 87.9V60.7L156.8 77Z" fill="url(#paint1_linear_2871_6849)"/>
<path d="M140.5 87.6L156.8 76.9V153.1C156.8 156 157.4 160.5 155.4 162.5L135 142.2L105.1 112.3L104.4 111.1L140.5 87.6Z" fill="url(#paint2_linear_2871_6849)"/>
<path d="M135.1 142.3L155.5 162.6C153.5 164.6 149 164.1 146 164.1H42.5C39.6 164.1 35.1 164.7 33.1 162.6L53.4 142.3L83.3 112.4L84 111.2L94.1 117.8L104.2 111.2L104.9 112.4L135.1 142.3Z" fill="url(#paint3_linear_2871_6849)"/>
<path d="M84.2 111.2L83.5 112.3L53.6 142.3L33.3 162.6C31.3 160.6 31.8 156.1 31.8 153.2V77L84.2 111.2Z" fill="url(#paint4_linear_2871_6849)"/>
<path d="M118.3 75.1L107.4 63.6C106.8 62.9 105.6 62.9 104.9 63.6C104.2 64.2 104.2 65.4 104.9 66.1L114.6 76.4L104.8 86.7C104.2 87.4 104.2 88.5 104.9 89.2C105.3 89.5 105.6 89.7 106.1 89.7C106.6 89.7 107 89.5 107.4 89.1L118.3 77.6C119.1 76.8 119 75.7 118.3 75.1Z" fill="url(#paint5_linear_2871_6849)"/>
<path d="M85.6 63.6C84.9 63 83.8 63 83.1 63.7L72.3 75.1C71.7 75.7 71.7 76.9 72.3 77.5L83.2 89C83.6 89.4 84 89.6 84.5 89.6C85 89.6 85.3 89.4 85.7 89.1C86.4 88.5 86.4 87.4 85.8 86.7L85.7 86.6L76 76.3L85.7 66C86.4 65.3 86.3 64.2 85.6 63.6Z" fill="url(#paint6_linear_2871_6849)"/>
<path d="M98.2 57.7C97.3 57.5 96.4 58.3 96.2 59.2L91 93C90.9 93.9 91.6 94.8 92.5 95H92.8C93.6 95 94.4 94.4 94.6 93.5L99.9 59.5C99.8 58.7 99.2 57.8 98.2 57.7Z" fill="url(#paint7_linear_2871_6849)"/>
</g>
<defs>
<filter id="filter0_d_2871_6849" x="-9" y="-2" width="206.5" height="211" filterUnits="userSpaceOnUse" color-interpolation-filters="sRGB">
<feFlood flood-opacity="0" result="BackgroundImageFix"/>
<feColorMatrix in="SourceAlpha" type="matrix" values="0 0 0 0 0 0 0 0 0 0 0 0 0 0 0 0 0 0 127 0" result="hardAlpha"/>
<feOffset dy="2"/>
<feGaussianBlur stdDeviation="5"/>
<feComposite in2="hardAlpha" operator="out"/>
<feColorMatrix type="matrix" values="0 0 0 0 0 0 0 0 0 0 0 0 0 0 0 0 0 0 0.1 0"/>
<feBlend mode="normal" in2="BackgroundImageFix" result="effect1_dropShadow_2871_6849"/>
<feBlend mode="normal" in="SourceGraphic" in2="effect1_dropShadow_2871_6849" result="shape"/>
</filter>
<linearGradient id="paint0_linear_2871_6849" x1="31.6918" y1="74.2847" x2="48.0134" y2="74.2847" gradientUnits="userSpaceOnUse">
<stop stop-color="#DD2222"/>
<stop offset="1" stop-color="#720096"/>
</linearGradient>
<linearGradient id="paint1_linear_2871_6849" x1="140.499" y1="74.2847" x2="156.821" y2="74.2847" gradientUnits="userSpaceOnUse">
<stop stop-color="#DD2222"/>
<stop offset="1" stop-color="#720096"/>
</linearGradient>
<linearGradient id="paint2_linear_2871_6849" x1="66.218" y1="119.266" x2="148.532" y2="119.658" gradientUnits="userSpaceOnUse">
<stop stop-color="#F9F4CB"/>
<stop offset="1" stop-color="#FFC500"/>
</linearGradient>
<linearGradient id="paint3_linear_2871_6849" x1="117.687" y1="137.64" x2="40.6557" y2="137.982" gradientUnits="userSpaceOnUse">
<stop stop-color="#FB6E00"/>
<stop offset="1" stop-color="#FFC500"/>
</linearGradient>
<linearGradient id="paint4_linear_2871_6849" x1="31.5444" y1="119.786" x2="101.353" y2="119.786" gradientUnits="userSpaceOnUse">
<stop stop-color="#F9F4CB"/>
<stop offset="1" stop-color="#FFC500"/>
</linearGradient>
<linearGradient id="paint5_linear_2871_6849" x1="111.639" y1="50.1522" x2="111.639" y2="91.7415" gradientUnits="userSpaceOnUse">
<stop offset="0.06" stop-color="#F09F23"/>
<stop offset="1" stop-color="#D6262D"/>
</linearGradient>
<linearGradient id="paint6_linear_2871_6849" x1="79.0048" y1="50.1522" x2="79.0048" y2="91.7415" gradientUnits="userSpaceOnUse">
<stop offset="0.06" stop-color="#F09F23"/>
<stop offset="1" stop-color="#D6262D"/>
</linearGradient>
<linearGradient id="paint7_linear_2871_6849" x1="95.3595" y1="50.1522" x2="95.3595" y2="91.7415" gradientUnits="userSpaceOnUse">
<stop offset="0.06" stop-color="#F09F23"/>
<stop offset="1" stop-color="#D6262D"/>
</linearGradient>
</defs>
</svg>
