<svg width="188" height="135" viewBox="0 0 188 135" fill="none" xmlns="http://www.w3.org/2000/svg">
<g clip-path="url(#clip0_1097_5448)">
<path fill-rule="evenodd" clip-rule="evenodd" d="M115.968 53.6932L107.834 94.3121C107.834 94.3121 100.511 95.671 89.5147 95.5064C70.2195 95.2304 39.6138 90.2884 17.3763 65.1909L29.6091 36.6112L32.45 29.9864L115.968 53.6932Z" fill="url(#paint0_linear_1097_5448)"/>
<path opacity="0.5" fill-rule="evenodd" clip-rule="evenodd" d="M115.968 53.6932L107.834 94.3121C107.834 94.3121 100.511 95.671 89.5147 95.5064C73.0232 66.0827 29.6144 36.6058 29.6144 36.6058L32.4554 29.9811L115.968 53.6932Z" fill="#6A1760"/>
<path fill-rule="evenodd" clip-rule="evenodd" d="M0.479714 0L0 2.45773L54.309 53.4809L165.24 69.7932L166.925 66.0402L0.479714 0Z" fill="#930095"/>
<path fill-rule="evenodd" clip-rule="evenodd" d="M0.479736 0L100.607 18.0428L166.925 66.0402L57.4698 49.1599L0.479736 0Z" fill="url(#paint1_linear_1097_5448)"/>
<path fill-rule="evenodd" clip-rule="evenodd" d="M54.309 53.4808L57.4697 49.1599L166.925 66.0402L165.24 69.7932L54.309 53.4808Z" fill="url(#paint2_linear_1097_5448)"/>
<path fill-rule="evenodd" clip-rule="evenodd" d="M188 116.012C186.412 121.835 183.251 122.929 183.251 122.929C173.678 118.374 164.713 110.794 159.334 105.751L159.159 105.587C159.068 105.497 158.983 105.422 158.892 105.337C158.652 105.109 158.412 104.886 158.183 104.669C158.562 105.035 158.929 105.412 159.292 105.762C159.542 106.027 159.809 106.277 160.086 106.542L160.352 106.808C174.152 120.264 181.199 124.813 181.199 124.813L178.672 126.385C166.802 117.292 153.471 101.776 152.522 100.671C152.549 100.709 152.597 100.783 152.672 100.873C155.891 105.375 159.553 109.701 163.012 113.496C163.215 113.724 163.417 113.947 163.62 114.165C164.291 114.882 164.931 115.588 165.576 116.267L165.992 116.708C166.168 116.883 166.333 117.058 166.519 117.233L166.557 117.281C172.276 123.242 176.769 127.176 176.769 127.176C163.828 136.29 154.255 134.92 154.255 134.92C145.417 119.415 147.096 100.602 147.096 100.602C142.688 98.1128 140.935 95.4852 140.466 93.1708C139.682 89.2958 142.496 86.2913 142.496 86.2913C146.851 87.7139 147.182 84.5449 147.182 84.5449C152.32 86.923 154.175 89.8638 154.708 92.3427C154.708 92.3427 154.718 92.3799 154.734 92.4701C154.745 92.5444 154.766 92.6665 154.782 92.8098C155.129 95.1083 154.388 96.9025 154.217 97.2529C154.207 97.2794 154.207 97.29 154.191 97.3166L155.022 98.0597C168.529 109.902 188 116.012 188 116.012Z" fill="url(#paint3_linear_1097_5448)"/>
<path opacity="0.5" fill-rule="evenodd" clip-rule="evenodd" d="M76.9941 29.9811L133.638 62.1333V65.1644L139.586 66.0402L140.348 61.2044L76.9941 29.9811Z" fill="#6A1760"/>
<path fill-rule="evenodd" clip-rule="evenodd" d="M76.9941 29.9811L80.6666 28.5107L143.429 60.5833C143.429 60.5833 142.928 79.5126 147.203 84.5555C147.203 84.5555 148.615 88.9507 142.512 86.3019C142.512 86.3019 143.195 85.9728 138.36 62.9402L76.9941 29.9811Z" fill="url(#paint4_linear_1097_5448)"/>
<path opacity="0.5" fill-rule="evenodd" clip-rule="evenodd" d="M158.897 105.337C158.769 105.21 158.657 105.088 158.546 104.96L159.164 105.587L159.34 105.751L160.097 106.542C159.819 106.277 159.553 106.027 159.302 105.762C159.164 105.613 159.025 105.475 158.897 105.337Z" fill="#982463"/>
<path opacity="0.3" fill-rule="evenodd" clip-rule="evenodd" d="M149.719 101.691C149.719 101.691 148.482 117.785 154.276 134.926C145.439 119.42 147.118 100.608 147.118 100.608C142.71 98.1181 140.956 95.4905 140.487 93.1761C140.487 93.1761 142.699 98.6702 148.456 97.9907C154.212 97.3113 154.729 92.3427 154.729 92.3427C154.729 92.3427 154.74 92.3799 154.756 92.4701C154.846 92.985 155.108 95.0977 154.239 97.2476C154.228 97.2741 154.228 97.2847 154.212 97.3113L155.044 98.0544H153.818C153.818 98.0544 154.702 100.793 158.466 104.87L152.72 99.0099L151.531 99.5779L152.48 100.608C152.48 100.608 152.49 100.634 152.528 100.671C152.554 100.709 152.602 100.783 152.677 100.873C153.7 102.216 158.386 108.305 163.018 113.496C163.22 113.724 163.423 113.947 163.625 114.165C164.179 114.791 164.734 115.397 165.293 115.975L150.657 101.001L149.719 101.691Z" fill="#982463"/>
<path opacity="0.5" fill-rule="evenodd" clip-rule="evenodd" d="M17.3763 65.1856C17.3763 65.1856 48.5311 99.7531 107.834 94.3068C107.834 94.3121 53.9625 104.876 17.3763 65.1856Z" fill="#6A1760"/>
</g>
<defs>
<linearGradient id="paint0_linear_1097_5448" x1="115.968" y1="95.5203" x2="78.353" y2="4.7247" gradientUnits="userSpaceOnUse">
<stop stop-color="#FB6E00"/>
<stop offset="1" stop-color="#FFC500"/>
</linearGradient>
<linearGradient id="paint1_linear_1097_5448" x1="166.925" y1="66.0402" x2="141.942" y2="-34.9828" gradientUnits="userSpaceOnUse">
<stop stop-color="#FB6E00"/>
<stop offset="1" stop-color="#FFC500"/>
</linearGradient>
<linearGradient id="paint2_linear_1097_5448" x1="54.3107" y1="59.4773" x2="166.925" y2="59.4773" gradientUnits="userSpaceOnUse">
<stop stop-color="#FF000F"/>
<stop offset="1" stop-color="#7E258F"/>
</linearGradient>
<linearGradient id="paint3_linear_1097_5448" x1="140.328" y1="84.5449" x2="196.768" y2="97.8784" gradientUnits="userSpaceOnUse">
<stop stop-color="#FFC500"/>
<stop offset="0.411458" stop-color="#DC2223"/>
<stop offset="1" stop-color="#720096"/>
</linearGradient>
<linearGradient id="paint4_linear_1097_5448" x1="112.172" y1="87.1499" x2="112.172" y2="28.5131" gradientUnits="userSpaceOnUse">
<stop stop-color="#FD8447"/>
<stop offset="1" stop-color="#FCB735"/>
</linearGradient>
<clipPath id="clip0_1097_5448">
<rect width="188" height="135" fill="white"/>
</clipPath>
</defs>
</svg>
